<svg width="159" height="147" viewBox="0 0 159 147" fill="none" xmlns="http://www.w3.org/2000/svg">
<path d="M101.397 85.2964C102.416 86.3441 103.149 87.5997 103.88 88.8421C104.719 90.2668 106.008 91.2176 107.215 92.2595C107.709 92.6857 108.216 93.0878 108.58 93.6383C109.325 94.6705 110.152 95.6383 110.955 96.6241C115.231 101.878 117.89 107.811 118.575 114.585C118.602 114.855 118.645 115.139 118.555 115.391C117.963 117.043 118.171 118.758 118.191 120.446C118.234 124.025 116.716 126.971 114.452 129.553C113.461 130.683 112.094 131.418 110.469 131.379C109.801 131.363 109.207 131.717 108.543 131.756C105.538 131.933 103.423 130.384 101.65 128.2C101.1 127.522 100.744 126.733 99.8072 126.37C99.1508 126.115 98.9577 125.297 98.8099 124.616C98.5151 123.257 98.3178 121.886 98.2795 120.488C98.1802 116.857 98.4814 113.236 98.5012 109.609C98.5092 108.149 98.3697 106.69 98.5921 105.227C98.1443 110.127 96.0444 114.557 94.6057 119.172C93.8859 121.481 92.7455 123.658 91.5875 125.799C89.7095 127.399 88.6344 129.514 87.7389 131.754C87.3378 132.757 86.8717 133.736 86.2423 134.624C84.6931 136.811 82.8608 137.439 80.2819 136.655C79.7651 136.498 79.2394 136.356 78.7437 136.142C77.0328 135.402 75.3082 135.421 73.5361 135.919C72.1488 136.309 71.8151 136.006 72.0239 134.596C72.6658 130.263 72.5789 125.901 72.5313 121.544C72.4761 116.487 72.667 111.438 72.867 106.387C72.876 106.159 72.8426 105.922 72.9079 105.81C72.8355 107.256 72.6357 108.791 72.0594 110.246C71.6523 111.274 71.3496 111.307 70.6673 110.434C70.2466 109.896 69.8843 109.307 69.3642 108.852C69.0858 109.078 69.2344 109.332 69.181 109.544C69.1141 109.811 69.0729 110.098 68.762 110.176C68.4548 110.253 68.2659 110.027 68.0795 109.829C67.7799 109.51 67.6289 108.871 66.9986 109.596C66.7479 109.884 66.3354 109.384 66.1178 109.072C65.786 108.596 65.5905 108.041 65.2819 107.55C65.1799 107.388 65.0601 107.207 64.844 107.223C64.5611 107.243 64.4902 107.486 64.4362 107.713C64.3463 108.092 64.3952 108.484 64.345 108.866C64.3005 109.206 64.3013 109.623 63.8791 109.708C63.4502 109.795 63.2731 109.414 63.1435 109.102C62.5081 107.571 61.5678 106.175 61.1516 104.546C61.0404 104.111 60.8954 103.678 60.7235 103.298C61.7368 106.277 62.6319 109.322 63.1194 112.476C63.4394 114.685 63.8177 116.918 63.7953 119.127C63.7753 121.1 64.1706 123.019 64.146 124.973C64.1323 126.053 64.1454 127.129 64.3267 128.202C64.4944 129.193 64.2764 130.039 63.2815 130.538C62.6788 130.841 62.4139 131.391 62.3174 132.033C62.1554 133.109 61.4458 133.907 60.9037 134.786C60.7215 135.081 60.4451 135.369 59.9336 135.199C60.3129 135.643 61.1722 135.819 60.8158 136.53C60.4327 137.294 59.7228 136.858 59.1654 136.706C57.5692 136.27 55.9254 136.047 54.3598 135.452C53.0652 134.961 51.7836 135.619 50.5064 135.853C50.0669 135.934 49.633 136.235 49.1977 135.848C49.4725 135.421 49.4394 135.006 49.264 134.531C47.5021 129.759 46.3375 124.827 45.3767 119.842C45.2899 119.392 45.2628 118.925 45.1309 118.489C45.0687 118.284 45.1431 117.852 44.7352 117.934C44.6087 117.959 44.5433 118.289 44.3779 118.626C43.3906 115.922 42.3351 113.372 41.5435 110.723C41.3471 110.065 41.1284 109.474 40.5755 108.947C39.7708 108.181 39.7463 106.999 39.4881 105.966C39.3312 105.339 39.3613 104.664 39.202 104.037C39.1039 103.652 39.2259 103.087 38.545 102.977C38.1143 102.908 38.3639 102.467 38.3111 102.195C38.0264 100.731 38.0855 99.2355 38.0519 97.6079C37.3348 98.0273 37.8634 98.7441 37.2985 99.1502C36.7929 96.03 37.0831 92.9886 37.4529 89.6883C36.7757 90.399 36.8479 91.1222 36.5147 91.6824C36.0173 91.4356 36.2063 90.9849 36.2383 90.6642C36.455 88.49 36.7345 86.3521 37.59 84.2786C38.1516 82.9175 38.186 81.359 38.2659 79.8397C38.3242 78.7314 38.8633 77.6171 39.3284 76.5676C40.46 74.014 41.9325 71.6687 44.0064 69.7613C44.6617 69.1587 44.357 68.9599 43.7631 68.6489C42.0842 67.7697 40.295 67.1694 38.538 66.485C36.9129 65.8521 35.4166 65.0363 34.3041 63.2735C35.2971 63.5568 35.9354 64.1984 37.0184 64.0732C35.4723 62.8108 34.0801 61.6769 32.9698 60.2575C32.9095 59.6843 33.319 59.6479 33.7129 59.6324C34.5193 59.6007 35.3136 59.5842 36.1224 59.774C38.7146 60.3824 41.3185 60.9277 44.0091 60.407C45.5256 60.1136 46.8781 59.571 47.8718 58.3065C49.123 56.7142 50.6536 55.4257 52.4446 54.4882C53.5919 53.8876 54.8374 53.998 56.0533 54.323C57.3842 54.6787 57.4619 54.637 58.0457 53.347C58.4761 52.3959 58.8677 51.4397 59.0778 50.4097C59.1632 49.9907 59.2242 49.68 58.7185 49.4916C58.1164 49.2673 58.0115 48.8381 58.3558 48.296C58.5221 48.0341 58.6164 47.7378 58.7433 47.457C59.1073 46.6509 59.7381 46.3427 60.5314 46.7317C61.8477 47.3773 63.3121 47.3312 64.6768 47.7298C65.2601 47.9001 65.7051 47.5427 66.1961 47.3263C67.0449 46.9524 67.9189 46.5059 68.7333 47.4121C68.7184 48.5322 67.7013 49.4714 66.2792 49.6211C65.1609 49.7388 64.0528 49.6791 63.3711 49.3501C64.806 49.8722 66.5826 50.1729 68.2494 48.8431C68.6721 48.5059 69.0414 48.5924 69.2946 49.06C70.1823 50.6997 71.6717 51.3822 73.4078 51.6806C73.2608 51.6415 73.4834 51.6971 73.4361 51.686C70.7266 51.0526 68.6691 49.8597 68.9485 46.5946C69.187 46.0261 69.7436 46.0474 70.2121 45.9496C71.0634 45.772 71.7971 45.3922 72.4359 44.8132C72.8364 44.4503 73.0641 44.0379 72.8014 43.4918C72.5286 42.9067 71.9556 42.7789 71.4272 42.5831C71.0458 42.4417 70.595 42.4217 70.3771 41.9896C70.1058 41.1173 70.4322 40.4807 71.181 40.0364C71.7413 39.7039 72.0971 39.2145 72.3236 38.6264C73.35 35.9628 74.3548 33.2907 76.4047 31.1857C76.6428 30.9411 76.6782 30.5501 77.0962 30.1074C76.7116 30.4934 76.6368 30.7859 76.4562 31.0012C76.1661 31.3468 75.7715 31.5914 75.3399 31.3593C74.8039 31.071 75.0921 30.6053 75.2719 30.2481C76.3869 28.0325 77.6741 25.9347 79.5636 24.2747C80.2752 23.6495 80.7182 22.9797 80.3722 21.9511C80.1541 21.3025 80.5391 20.7387 81.019 20.3188C81.5394 19.8635 82.0219 19.3603 82.603 18.9758C82.6958 18.5995 82.3687 17.924 82.9347 17.9028C83.8386 17.869 83.3497 18.8029 83.6237 19.2419C84.1842 19.2303 83.8096 18.5331 84.3044 18.3987C84.5926 18.8395 84.4062 19.3482 84.4626 19.8166C84.4926 20.0658 84.3584 20.4338 84.7262 20.4773C84.8894 20.4966 85.1306 20.27 85.2602 20.0977C86.6181 18.2928 88.3497 16.8658 90.1305 15.5372C93.4958 13.0264 97.2292 11.2449 101.384 10.4397C103.208 10.0861 104.441 10.7989 105.086 12.5366C105.87 14.6501 106.036 16.8695 106.274 19.0847C106.485 21.0442 106.527 23.0037 106.485 24.9659C106.394 29.1938 106.046 33.4262 105.014 37.51C104.4 39.9373 105.659 41.3554 106.769 43.0105C107.266 43.7514 107.799 44.4676 108.237 45.2599C107.466 45.0816 107.35 44.1508 106.515 43.9332C107.324 46.7052 108.462 49.1167 111.62 49.971C111.345 50.1875 111.297 50.2501 111.236 50.2688C110.77 50.4116 109.924 49.9806 109.908 50.7315C109.894 51.3373 110.785 51.2907 111.249 51.3349C112.425 51.4469 112.313 51.7972 111.832 52.6857C110.797 54.5986 109.547 56.3273 108.053 57.8936C107.9 58.0541 107.683 58.1947 107.782 58.4972C108.646 58.4936 109.487 58.2888 110.378 58.0411C110.242 58.8101 109.812 59.2243 109.281 59.5641C106.928 60.3647 104.837 61.7012 102.63 62.8019C102.402 62.9158 102.067 62.9724 102.276 63.3648C102.656 64.0779 102.144 64.3691 101.642 64.5889C100.303 65.1749 98.9042 65.597 97.6405 66.3885C96.8891 66.8591 95.9096 66.5278 94.9821 66.6019C95.5769 66.7563 96.1444 66.8181 96.6724 67.0244C97.0357 67.1663 97.4404 67.3283 97.4646 67.7745C97.4915 68.2701 97.096 68.5357 96.6951 68.6822C95.8554 68.9892 94.9569 69.0117 94.079 69.1284C93.8908 69.1534 93.6935 69.1112 93.4172 69.2517C94.0478 69.6188 94.6919 69.8517 95.2267 70.259C95.5247 70.4859 95.9443 70.6828 95.8239 71.1502C95.7147 71.5739 95.2991 71.717 94.9217 71.782C93.7432 71.9853 92.5447 72.0164 91.3563 72.1409C89.1331 72.3739 86.9448 72.9132 84.694 72.9016C84.5795 72.901 84.4453 72.9162 84.359 72.9819C82.4403 74.4432 80.5324 73.4452 78.6211 72.9677C78.4097 72.9148 78.2262 72.7587 78.1135 72.7735C80.1521 74.4075 82.5952 75.5818 84.686 77.3243C86.3729 78.7301 88.3561 79.7135 90.4971 80.3686C94.336 81.5428 98.1143 82.8798 101.397 85.2964Z" fill="#F1E8E4"/>
<path d="M82.6027 18.988C82.3792 19.5416 82.009 19.9362 81.5 20.2771C80.7459 20.7821 80.2876 21.4719 80.7677 22.4408C81.1545 23.2212 80.613 23.6893 80.1296 24.1176C78.1634 25.86 76.7144 27.9783 75.5637 30.3145C75.4334 30.579 74.9923 30.927 75.4352 31.1964C75.7451 31.3849 76.1091 31.1072 76.3154 30.813C76.5934 30.4166 76.8252 29.9878 77.2229 29.3319C77.1155 30.8561 76.3796 31.7723 75.6276 32.6457C74.7883 33.6205 74.2346 34.7346 73.7615 35.9083C73.347 36.9366 72.913 37.9569 72.49 38.9818C72.2484 39.567 71.937 40.0705 71.2933 40.3101C70.5172 40.5989 70.4995 41.2697 70.5437 41.952C70.0723 42.3864 69.4825 42.2333 68.932 42.2783C68.2673 42.3326 67.5721 42.1398 66.9503 42.5212C66.4268 42.889 66.505 43.372 66.7507 43.8361C67.1607 44.6105 67.6132 45.363 68.447 45.7716C68.8024 45.9457 69.131 46.1339 69.0328 46.6201C69.0132 46.9647 68.9986 47.3107 68.6463 47.51C67.6965 46.9163 66.7959 47.2339 66.0178 47.7974C65.5111 48.1644 65.114 48.2213 64.5413 48.0331C63.1381 47.572 61.5881 47.7303 60.2423 46.9307C59.6305 46.5671 59.1339 46.9868 58.968 47.6591C58.896 47.9504 58.95 48.2534 58.6484 48.4779C58.0048 48.9571 58.4939 49.16 58.9076 49.313C59.1492 49.4023 59.4262 49.3958 59.6617 49.4288C59.2801 50.9883 58.8036 52.4681 58.1949 53.9134C57.7727 54.9157 57.2285 55.104 56.2179 54.754C54.7484 54.245 53.4125 54.2723 51.9057 55.2061C50.183 56.2736 48.9751 57.7259 47.6197 59.1158C46.7037 60.0551 45.4366 60.4855 44.1206 60.7427C41.2424 61.3053 38.4866 60.6258 35.7119 60.0396C34.7867 59.8441 33.8381 59.6575 32.9696 60.2698C30.8503 58.2769 29.861 55.7094 29.239 52.9259C30.4966 54.1276 31.3093 55.7708 33.0632 56.5876C33.1649 55.9084 32.8073 55.5673 32.4581 55.2375C29.9933 52.9094 28.5506 50.0371 27.9606 46.7261C27.7244 45.4004 28.2675 44.2384 28.9232 43.1393C29.3551 42.4155 29.8493 41.7285 30.3232 41.0302C30.4731 40.8093 30.7551 40.5759 30.5767 40.3214C30.3161 39.9496 30.0353 40.3349 29.7752 40.4228C29.5271 40.5065 29.297 40.6437 28.9487 40.6698C31.1654 38.8796 31.2878 35.8211 33.2539 33.8793C34.817 32.3355 36.7862 31.4389 38.6172 30.3181C38.9774 30.0975 39.3379 29.8774 39.6983 29.6571C40.5743 29.1629 40.4296 28.2502 40.486 27.4914C40.6127 25.7885 40.9533 24.1282 41.3026 22.4678C41.3959 22.0238 41.3451 21.4254 42.0152 21.3083C42.5494 21.3777 42.7854 21.0362 43.0861 20.6615C43.3459 20.3378 43.2685 19.7088 43.8889 19.6905C44.3088 20.202 44.0011 20.7255 43.9008 21.2371C43.6135 22.7025 43.2274 24.1539 43.2437 25.9013C46.0449 23.882 48.3892 21.5393 51.6643 20.3381C50.8787 19.7068 50.1176 19.4539 49.3826 19.1478C49.1103 19.0344 48.7041 18.9496 48.7749 18.5661C48.8335 18.2489 49.1908 18.1358 49.5024 18.0715C50.3342 17.9 51.1079 18.1829 51.8913 18.386C52.3033 18.4929 52.6796 18.7018 53.1977 18.8469C52.7616 17.7153 51.9018 17.1697 50.9463 16.7031C50.6283 16.5478 50.056 16.4892 50.1801 16.001C50.2946 15.5508 50.8278 15.4455 51.2528 15.4952C52.7946 15.6759 54.3248 15.92 55.5531 17.1632C55.2037 16.0917 54.7492 15.1441 54.2507 14.2128C54.0781 13.8902 53.7361 13.5054 54.1424 13.1795C54.5007 12.892 54.8988 13.1551 55.1918 13.4004C56.5989 14.5787 57.8531 15.8789 58.3956 17.7068C58.087 16.7562 57.6272 15.8754 57.2151 14.9734C57.0909 14.7016 56.8887 14.3581 57.1606 14.1153C57.4739 13.8356 57.8301 14.0613 58.1118 14.2593C59.2628 15.068 59.9246 16.2473 60.469 17.4965C60.6371 17.882 60.8069 18.2724 60.8542 18.4727C60.3994 17.4587 60.1777 16.1197 59.4909 14.9588C59.3382 14.7005 59.1264 14.3401 59.4823 14.1436C59.7787 13.98 60.0698 14.2677 60.2747 14.4944C61.2109 15.5301 61.9062 16.7217 62.5379 18.1871C61.2889 14.3065 59.9134 10.7007 57.9006 7.37808C56.7624 5.49925 55.5832 3.63368 53.6056 2.4804C53.7423 2.41884 53.8737 2.33416 54.017 2.30063C54.2931 2.23606 54.7048 2.38638 54.7234 1.91887C54.7384 1.54024 54.4257 1.42879 54.1099 1.34186C53.9322 1.29292 53.7697 1.18845 53.4583 1.04232C54.1958 0.761713 54.6495 1.0584 55.1117 1.35433C57.6962 3.00924 59.5169 5.39046 61.2549 7.84194C63.1496 10.5144 64.6467 13.411 66.0028 16.3867C66.642 17.7895 66.6503 17.7362 67.9966 17.0644C68.8935 16.6168 69.7414 16.1 70.5872 15.572C71.0897 15.2583 71.5908 14.9475 71.7096 15.9137C71.7914 16.5788 72.2009 16.5029 72.6285 16.2829C73.1989 15.9895 73.7542 15.6669 74.2934 15.3693C74.572 15.6975 74.3935 15.8951 74.3041 16.0955C74.0151 16.7426 74.2067 16.8658 74.8986 16.8311C76.0125 16.7751 77.1398 16.8293 78.2507 16.9421C78.7701 16.9948 78.5753 17.3475 78.2792 17.5448C77.7246 17.9142 76.8816 18.5566 77.2152 18.9724C77.695 19.5705 78.3762 18.6582 78.9923 18.4643C79.5857 18.2776 80.2005 17.3522 80.5746 18.6823C81.0462 18.3761 81.1575 17.9772 81.2163 17.5503C81.249 17.3119 81.3146 17.0353 81.5954 17.0697C81.8531 17.1014 81.8578 17.3936 81.9133 17.6228C82.0353 18.1272 81.5017 18.9774 82.6027 18.988Z" fill="#FBF4EA"/>
<path d="M127.369 137.016C130.767 137.367 134.186 137.338 137.589 137.54C141.844 137.794 146.11 137.902 150.357 138.376C152.723 138.64 155.094 138.813 157.421 139.342C158.055 139.486 158.963 139.601 158.999 140.259C159.043 141.074 158.066 141.177 157.429 141.342C154.451 142.114 151.409 142.524 148.352 142.83C144.496 143.215 140.639 143.607 136.778 143.946C135.593 144.051 134.398 144.145 133.213 144.19C127.944 144.394 122.688 144.828 117.413 144.971C112.484 145.105 107.552 145.23 102.627 145.441C98.6126 145.614 94.5942 145.385 90.5969 145.664C86.7745 145.931 82.953 145.638 79.1448 145.879C74.3602 146.182 69.5772 146.052 64.7941 146.059C58.5811 146.066 52.368 145.888 46.1574 145.769C42.7664 145.704 39.3684 145.772 35.981 145.592C31.9037 145.375 27.8231 145.279 23.7451 145.113C19.3702 144.935 14.9963 144.612 10.638 144.187C7.66644 143.898 4.66937 143.652 1.77864 142.814C1.31239 142.679 0.544209 142.729 0.563846 141.991C0.581344 141.334 1.29676 141.238 1.7697 141.071C3.77268 140.363 5.87982 140.092 7.97085 139.84C11.1709 139.455 14.3865 139.193 17.5988 138.917C18.7853 138.815 19.983 138.744 21.166 138.703C25.0142 138.567 28.8516 138.247 32.7033 138.144C36.4336 138.045 40.1623 137.799 43.8957 137.676C45.1171 137.636 46.3519 137.546 47.5808 137.482C47.6994 138.481 47.4472 139.379 46.8413 140.18C44.4191 140.684 41.9383 140.717 39.4976 141.079C38.1748 141.276 36.8447 141.428 35.576 142.029C40.633 143.201 45.7714 143.401 50.9046 143.659C51.7535 143.659 52.604 143.578 53.4471 143.742C54.3176 144.002 55.2112 143.889 56.0936 143.888C58.7552 143.886 61.4171 143.934 64.0787 143.859C70.2181 143.831 76.3573 143.837 82.496 143.849C84.3675 143.878 86.2416 144.035 88.1078 143.747C88.4675 143.657 88.8363 143.679 89.2016 143.654C98.319 143.486 107.431 143.17 116.538 142.722C122.713 142.492 128.867 142.058 134.939 140.733C133.51 140.129 132.025 140.005 130.541 139.939C128.577 139.851 126.62 139.61 124.648 139.666C124.111 139.681 123.563 139.584 123.182 139.116C123.24 138.339 123.967 138.459 124.41 138.199C125.39 137.791 126.415 137.492 127.369 137.016Z" fill="#D9D7E3"/>
<path d="M125.746 108.04C126.13 105.861 125.866 103.654 126.051 101.468C126.076 101.177 126.06 100.983 125.896 100.736C125.72 100.472 125.769 100.412 126.263 100.351C126.522 100.319 126.432 100.159 126.434 100.046C126.458 98.0634 126.212 96.135 125.196 94.3822C125.054 94.137 124.966 93.6819 124.592 93.7842C124.069 93.9271 124.669 94.3943 124.398 94.7133C123.877 94.7365 123.803 94.1997 123.584 93.9131C122.161 92.0491 120.441 90.5452 118.401 89.3866C117.704 88.991 117.05 88.5063 116.563 87.7058C117.415 87.6421 117.998 88.3369 118.841 88.2651C118.664 87.5693 118.043 87.4326 117.56 87.1314C116.089 86.2129 114.891 85.0497 114.321 83.3554C114.109 82.7239 113.954 82.095 114.458 81.505C114.677 81.2495 114.629 80.9132 114.605 80.6115C114.405 78.0442 116.379 76.4557 119.221 77.0757C119.478 77.1317 119.722 77.2744 119.997 77.0849C119.9 76.522 119.19 76.3755 119.092 75.7061C120.01 75.5597 120.823 75.981 121.674 76.2099C121.771 75.512 120.916 75.3908 120.972 74.6907C122.218 75.0096 123.074 75.825 124.195 76.8491C123.839 75.66 123.332 74.9423 122.838 74.1719C124.367 74.8354 125.409 76.1362 126.796 77.3594C126.765 76.2256 126.054 75.6201 126.068 74.6581C126.699 75.3586 127.33 76.0591 127.961 76.7597C127.939 76.1627 127.471 75.8697 127.423 75.1702C127.743 75.4422 128.064 75.5959 128.198 75.8488C128.851 77.0806 130.116 77.3665 131.222 77.9174C132.535 78.5715 132.848 80.0016 133.579 81.1041C133.756 81.3719 133.711 81.7823 134.174 81.9802C134.529 80.9489 133.551 80.1296 133.736 79.0696C134.548 79.4752 134.852 80.225 135.19 80.8515C136.011 82.3733 136.861 83.8848 137.47 85.5187C137.754 86.279 138.835 86.6049 138.73 87.6297C138.364 88.3065 137.993 87.8541 137.619 87.615C137.896 92.0542 136.841 96.2841 135.762 100.508C135.409 101.892 134.959 103.248 134.379 104.558C134.285 104.77 134.22 104.997 134.094 105.191C133.875 105.529 133.712 106.09 133.2 105.881C132.789 105.712 132.942 105.206 133.018 104.833C133.335 103.281 134 101.826 134.302 100.269C134.345 100.048 134.463 99.8404 134.375 99.3886C132.825 104.284 129.869 108.225 127.451 112.455C127.011 113.224 126.482 113.948 125.784 114.516C125.583 114.679 125.342 114.894 125.059 114.708C124.802 114.539 124.806 114.239 124.854 113.972C125.005 113.132 125.382 112.358 125.593 111.536C125.888 110.386 126.277 109.23 125.746 108.04Z" fill="#F4EDE7"/>
<path d="M127.368 137.003C126.552 137.714 125.576 138.099 124.554 138.389C124.192 138.314 123.886 138.562 123.552 138.573C123.166 138.587 122.292 139.369 122.605 138.034C122.677 137.727 122.208 137.703 121.98 137.682C119.844 137.486 118.095 136.556 116.683 134.964C116.313 134.548 116.044 134.662 115.797 135.089C115.49 135.621 115.186 136.159 114.781 136.624C114.454 136.999 114.13 137.397 113.559 137.398C112.94 137.241 112.426 137.488 111.926 137.808C110.282 138.863 108.485 139.557 106.595 140.006C103.158 140.822 100.017 140.1 97.1427 138.104C96.6666 137.774 96.2154 137.401 95.6817 137.169C92.5921 135.831 91.6264 133.257 91.5674 130.146C91.5537 129.421 91.6766 128.666 91.1631 128.036C91.2045 126.646 91.7091 125.482 92.8374 124.624C93.5345 124.868 93.5363 125.483 93.5649 126.054C93.6111 126.979 93.5724 127.906 93.5834 128.831C93.6344 133.111 96.8644 136.5 101.124 136.701C102.478 136.765 103.776 137.175 105.134 137.233C106.004 137.27 106.058 137.589 105.374 138.564C107.48 138.557 109.311 138.096 110.851 136.728C113.773 134.13 115.984 130.97 117.644 127.483C118.368 125.962 118.442 124.133 118.51 122.395C118.762 118.462 118.895 114.54 118.011 110.653C117.885 110.099 117.41 109.389 118.307 108.977C118.903 111.491 119.498 114.005 119.512 116.611C119.453 118.257 120.033 119.872 119.752 121.527C119.471 122.278 119.656 123.083 119.5 123.847C119.273 125.294 119.059 126.743 118.764 128.181C118.541 129.273 118.759 129.6 119.893 129.695C122.175 129.884 124.47 129.903 126.646 129.067C128.682 128.285 130.768 127.541 132.292 125.738C131.307 126.23 130.384 126.707 129.366 126.946C129.024 127.026 128.623 127.105 128.464 126.685C128.333 126.34 128.647 126.133 128.884 125.934C128.943 125.885 129.003 125.831 129.073 125.8C132.487 124.313 134.787 121.383 137.634 119.162C138.757 118.287 139.509 117.036 140.358 115.898C140.469 116.128 141.235 115.379 140.897 116.223C139.446 119.848 138.346 123.631 135.866 126.784C134.759 128.192 133.627 129.568 132.385 130.876C133.427 130.555 134.16 129.768 135.109 129.309C132.281 132.693 128.805 135.229 124.748 137.154C125.697 137.417 126.529 137.14 127.368 137.003Z" fill="#B5ACBD"/>
<path d="M53.6064 2.48631C54.1825 2.46077 54.6206 2.68913 55.0343 3.10264C57.2006 5.26789 58.6879 7.87941 59.9501 10.6223C60.949 12.7927 61.8806 14.9981 62.5293 17.3084C62.6451 17.721 62.742 18.1281 62.5775 18.7257C61.6081 17.1147 61.0192 15.3733 59.502 14.2821C60.4075 15.824 60.8378 17.5099 61.2268 19.5526C60.0212 17.438 59.4659 15.2145 57.1334 13.9958C57.7156 15.5846 58.6259 16.8199 58.6188 18.3748C57.5915 16.2911 56.4134 14.3568 54.2097 13.3041C54.898 14.8048 55.65 16.2557 56.1935 18.0513C55.2149 17.2813 54.5279 16.4205 53.4437 16.2234C52.4107 16.0357 51.3963 15.4401 50.2876 16.0379C52.7108 17.3192 53.0563 17.6331 53.8406 19.3372C52.1714 18.9613 50.6633 17.8662 48.5965 18.6737C49.9439 18.9621 50.8681 19.4333 51.7648 19.9543C52.0199 20.1026 52.5622 20.3903 51.8405 20.6225C48.7284 21.6235 46.4823 23.9297 43.9422 25.7934C43.6707 25.9927 43.4493 26.2906 42.9692 26.2618C42.7564 23.9955 43.6118 21.8827 43.8897 19.6964C44.9057 16.3344 46.1134 13.0474 47.7239 9.91881C48.8421 7.74666 50.2485 5.76565 51.7641 3.85824C52.2558 3.23934 52.9031 2.82385 53.6064 2.48631Z" fill="#EDA294"/>
<path d="M92.8024 124.734C92.0908 125.734 91.6268 126.856 91.1885 127.991C91.1444 128.028 91.1003 128.066 91.0562 128.104C90.8171 128.189 90.6006 128.174 90.4289 127.962C90.3197 127.009 90.9842 126.387 91.4136 125.665C94.6404 118.732 97.307 111.615 98.5499 103.942C98.9843 104.304 98.8328 104.751 98.8282 105.125C98.7641 110.389 98.6389 115.653 98.6347 120.917C98.6334 122.512 98.7875 124.141 99.5185 125.628C99.6197 125.833 99.7768 126.206 99.8674 126.194C101.296 126.005 101.28 127.369 101.868 128.048C103.61 130.064 105.58 131.753 108.421 131.423C110.484 131.184 112.767 131.178 114.271 129.351C116.361 126.812 117.901 124.035 117.879 120.587C117.867 118.796 117.978 117.012 118.196 115.21C118.446 113.133 117.837 110.953 117.17 108.894C115.673 104.274 113.517 100.033 110.291 96.3406C109.619 95.5719 108.788 94.7777 108.581 93.6562C113.297 97.8326 116.685 102.852 118.309 108.99C117.823 110.198 118.555 111.284 118.695 112.424C119.113 115.838 119.182 119.241 118.785 122.655C118.377 123.856 118.169 125.1 117.938 126.343C117.588 128.237 116.757 129.897 115.242 131.143C113.993 132.17 112.769 133.225 111.376 134.072C107.979 136.138 103.289 136.528 100.057 133.973C99.554 133.575 99.1226 133.19 99.0936 132.489C99.0699 131.917 98.6697 131.504 98.3542 131.074C96.4065 128.42 95.7017 125.402 95.6709 122.168C95.663 121.334 95.4774 120.506 95.4336 119.65C94.8556 120.881 94.2359 122.063 93.7202 123.295C93.4985 123.824 93.3178 124.389 92.8024 124.734Z" fill="#D7CDD2"/>
<path d="M101.397 85.3193C100.976 85.7389 100.672 85.321 100.407 85.1252C98.0189 83.3622 95.3541 82.2572 92.5088 81.4273C89.7518 80.6231 86.9766 79.6715 84.744 77.7801C82.3818 75.7791 79.5646 74.4487 77.248 72.3302C78.6824 72.693 80.1088 73.0924 81.5543 73.4033C82.2861 73.5607 83.042 73.7195 83.6692 72.9582C83.9692 72.5941 84.5594 72.5603 85.0779 72.5658C87.5862 72.5929 90.0125 71.9007 92.4961 71.7079C92.995 71.6692 93.4968 71.6385 93.9964 71.6482C94.6312 71.6606 95.1845 71.4701 95.8079 71.141C95.0362 70.3489 94.1532 69.9766 93.2821 69.5934C93.0357 69.485 92.6571 69.45 92.7001 69.1396C92.7599 68.7082 93.1886 68.8925 93.4678 68.8635C94.3835 68.7686 95.3063 68.7264 96.2153 68.5906C96.6641 68.5235 97.2552 68.3255 97.2634 67.832C97.2712 67.3702 96.6579 67.3733 96.274 67.222C95.5834 66.9497 94.72 67.1735 94.1544 66.5177C94.2154 66.4397 94.2658 66.3372 94.2954 66.3429C97.096 66.8852 99.2479 65.0724 101.67 64.2733C103.001 63.8342 101.686 63.476 101.448 63.026C103.719 61.896 105.965 60.7582 108.236 59.6736C108.518 59.5393 108.902 59.1796 109.281 59.5869C108.081 61.0428 106.734 62.3316 105.096 63.2916C104.962 63.4647 104.805 63.6223 104.563 63.9212C105.406 63.7995 106.077 63.743 106.725 63.5279C107.061 63.4003 107.397 63.2726 107.952 63.0622C105.942 66.3362 103.29 68.5621 99.9777 70.2983C100.79 70.6601 101.288 70.0694 102.075 70.1316C100.857 71.2045 99.5492 71.8509 98.3126 72.6085C97.2062 73.2863 95.8646 73.5118 94.8881 74.4258C93.6836 75.0572 92.3779 74.7699 91.1472 74.6929C88.8468 74.549 86.5263 74.5744 84.254 74.1593C84.4059 74.286 84.6841 74.251 84.798 74.4331C85.9175 76.2214 87.9161 76.4192 89.642 77.0763C90.5864 77.4359 91.5472 77.6629 92.1277 78.6109C92.3532 78.9792 92.822 79.0758 93.2225 79.2196C95.0459 79.8742 96.7829 80.7057 98.3737 81.8161C98.8207 82.1282 99.2503 82.2845 99.7706 82.0674C100.242 82.3723 100.627 82.764 100.93 83.236C101.137 83.5694 100.279 83.5314 100.686 83.9347C100.923 84.3962 101.16 84.8578 101.397 85.3193Z" fill="#E5D9D8"/>
<path d="M46.8902 140.026C46.9914 139.141 47.2401 138.297 47.5795 137.477C48.0371 136.856 48.5764 136.318 49.1964 135.86C50.3848 135.583 51.5742 135.31 52.7615 135.028C53.2585 134.91 53.7819 134.83 54.2389 135.046C55.9995 135.878 57.9589 135.959 59.778 136.562C60.08 136.662 60.477 136.948 60.6756 136.468C60.8692 136 60.3655 135.936 60.116 135.739C59.8514 135.53 59.5764 135.334 59.2798 135.026C60.2161 135.437 60.6 134.894 60.9307 134.226C61.3811 133.316 62.0956 132.532 62.1151 131.421C62.1231 130.96 62.3637 130.478 62.87 130.352C64.1521 130.034 64.2234 129.072 63.9969 128.098C63.7731 127.135 63.8412 126.184 63.8212 125.226C63.7987 124.151 63.8928 123.072 63.4353 122.041C63.3182 121.778 63.3143 121.424 63.3673 121.131C63.8148 118.662 63.1133 116.266 62.9323 113.838C62.898 113.377 62.8976 112.914 62.8816 112.452C62.9488 112.45 63.016 112.448 63.0835 112.445C63.56 113.28 63.8499 114.189 64.057 115.115C65.0597 119.596 65.7211 124.126 66.0327 128.71C66.2787 132.327 65.7832 135.829 64.5923 139.241C63.1693 140.493 61.3536 140.742 59.6055 141.142C59.1944 141.236 58.884 140.937 58.7847 140.498C58.7228 140.61 58.8959 139.602 58.6732 140.482C58.4703 140.947 58.3325 141.458 57.753 141.61C55.8433 141.545 53.9337 141.578 52.0245 141.557C50.5001 141.54 50.3213 141.346 50.2938 139.841C50.4179 138.955 50.5552 138.07 51.1675 137.359C50.5006 138.186 50.3414 139.188 50.2281 140.202C50.1897 140.546 50.2165 140.899 50.0881 141.228C49.9694 141.532 49.775 141.776 49.4157 141.764C49.0666 141.752 48.8617 141.527 48.7564 141.209C48.5271 140.517 48.6583 139.812 48.6491 139.255C48.5715 139.672 48.586 140.244 48.6483 140.802C48.705 141.309 48.7207 141.753 48.1421 141.918C47.5688 142.081 47.1734 141.764 46.8969 141.308C46.6472 140.896 46.5195 140.454 46.8902 140.026Z" fill="#E0D6D8"/>
<path d="M119.244 124.033C119.349 123.263 119.023 122.449 119.477 121.715C119.527 121.737 119.576 121.76 119.626 121.781C120.218 122.268 120.791 122.01 121.354 121.726C124.017 120.385 126.523 118.787 128.932 117.037C129.9 116.335 130.881 115.653 131.834 114.927C134.007 113.271 135.861 111.335 137.407 109.085C137.082 109.208 136.713 109.525 136.389 109.136C136.15 108.849 136.377 108.546 136.522 108.282C137.398 106.69 138.217 105.073 138.892 103.383C139.743 101.25 140.243 99.0357 140.554 96.7696C140.702 96.2648 140.676 95.7035 141.04 95.2695C141.045 95.1187 141.05 94.968 141.055 94.8172C141.177 94.6932 141.235 94.437 141.498 94.599C141.981 97.264 142.08 99.954 141.943 102.879C142.681 101.87 142.253 100.77 142.912 99.7489C142.807 102.193 143.185 104.439 142.69 106.67C141.891 108.151 141.376 109.761 140.594 111.253C138.592 115.07 135.65 118 132.195 120.514C128.973 122.857 125.392 124.112 121.465 124.466C120.702 124.535 119.841 124.897 119.244 124.033Z" fill="#CFC4CA"/>
<path d="M119.245 124.04C120.417 124.647 121.601 124.124 122.753 123.997C124.423 123.813 126.096 123.468 127.632 122.744C133.858 119.805 138.671 115.451 141.321 108.952C141.668 108.103 142.085 107.282 142.472 106.45C142.483 106.426 142.52 106.415 142.545 106.398C142.594 106.491 142.642 106.584 142.691 106.678C142.373 109.869 141.818 113.001 140.36 115.905C140.209 117.346 139.09 118.23 138.179 119.053C136.25 120.792 134.337 122.557 132.35 124.231C131.627 124.84 130.705 125.214 129.867 125.684C129.41 125.94 128.921 126.148 128.536 126.718C129.478 126.782 130.176 126.384 130.891 126.097C131.426 125.883 131.927 125.585 132.448 125.334C132.654 125.235 132.906 125.116 133.043 125.397C133.149 125.612 132.923 125.723 132.783 125.851C129.166 129.168 124.86 130.478 120.039 130.034C118.208 129.866 118.106 129.71 118.509 127.953C118.806 126.66 119.003 125.345 119.245 124.04Z" fill="#C6BBC5"/>
<path d="M119.479 121.711C119.49 120.01 119.502 118.308 119.513 116.607C119.972 117.341 119.519 118.188 119.841 119.089C121.21 117.918 122.088 116.451 123.041 115.047C124.486 112.919 125.12 110.476 125.747 108.031C126.723 108.12 126.349 108.878 126.329 109.356C126.271 110.711 125.799 111.978 125.361 113.251C125.219 113.663 124.917 114.08 125.262 114.915C128.994 109.696 132.214 104.447 134.614 98.6811C134.834 101.192 133.403 103.346 133.349 105.771C136.108 99.6907 137.518 93.3126 137.367 86.5C138.061 86.7834 137.515 88.2738 138.731 87.6205C139.434 89.2721 140.119 90.9296 140.348 92.7311C140.407 94.54 140.209 96.3132 139.707 98.0597C138.05 103.828 135.245 108.879 130.579 112.777C130.166 113.122 129.759 113.521 129.147 113.122C128.707 112.836 128.632 113.305 128.473 113.513C127.611 114.65 126.839 115.858 125.795 116.85C125.571 117.062 125.362 117.294 125.088 117.443C124.744 117.631 124.412 117.607 124.494 117.144C124.584 116.631 124.489 116.198 124.176 115.842C123.498 117.925 121.919 119.528 120.464 121.213C120.224 121.491 119.969 121.835 119.499 121.696L119.479 121.711Z" fill="#ECE3E1"/>
<path d="M119.498 121.715C121.565 119.848 123.198 117.653 124.44 115.113C124.196 115.927 125.71 116.491 124.568 117.392C126.531 116.055 127.61 114.101 129.058 112.239C129.27 113.383 129.668 113.204 130.322 112.654C135.777 108.067 138.665 102.057 140.094 95.2226C140.264 94.4074 139.867 93.5336 140.347 92.75C140.364 93.6007 140.726 94.4176 140.594 95.2827C141.079 95.7705 140.549 96.3968 140.817 96.9143C140.405 100.549 139.217 103.929 137.474 107.128C137.132 107.754 136.801 108.387 136.437 109.069C137.211 109.209 137.488 108.533 138.183 108.261C137.084 110.341 135.732 112.046 134.102 113.434C130.174 116.779 125.952 119.724 121.339 122.076C120.96 122.27 120.585 122.435 120.136 122.433C119.617 122.431 119.446 122.19 119.498 121.715Z" fill="#DFD4D5"/>
<path d="M99.7715 82.0592C99.6771 82.8517 99.2085 82.8335 98.729 82.4585C96.8515 80.9904 94.7219 80.0366 92.4832 79.2873C92.3059 79.228 92.0601 79.1554 91.9928 79.0173C91.1097 77.2055 89.1295 77.4829 87.6883 76.7448C86.8718 76.3266 85.5359 76.2159 85.264 75.6003C84.8119 74.5765 83.9576 74.4044 83.2402 73.8594C87.1344 74.189 91.0032 74.4884 94.889 74.4176C96.4543 76.1708 97.7496 78.1457 99.3715 79.881C98.5706 79.5426 97.8557 79.0447 96.9432 78.9146C97.8324 80.0206 99.0107 80.8582 99.7715 82.0592Z" fill="#E1D6D6"/>
<path d="M42.0142 21.3118C41.3099 23.0604 41.1052 24.9229 40.8939 26.7648C40.803 27.557 40.6074 28.3481 40.6279 29.1525C40.6486 29.9605 40.2706 29.9737 39.6973 29.6606C40.0791 24.7285 41.1952 19.9606 42.9242 15.3329C44.3335 11.5606 46.2593 8.07687 48.8168 4.95588C49.1549 4.54324 49.5483 4.17589 50.0727 3.90625C49.5411 4.6537 49.0021 5.39596 48.4792 6.14942C45.371 10.6286 43.3433 15.5831 42.0299 20.8496C41.9934 20.9959 42.0181 21.1574 42.0142 21.3118Z" fill="#F0E5DF"/>
<path d="M106.727 63.5253C106.207 63.9331 105.564 64.0371 104.954 64.1855C104.672 64.2542 104.194 64.4042 104.075 63.9725C103.977 63.6188 104.414 63.5388 104.666 63.404C104.794 63.3355 104.953 63.3255 105.098 63.2891C105.587 63.7372 106.186 63.4335 106.727 63.5253Z" fill="#F1E8E4"/>
<path d="M140.817 96.905C140.375 96.4114 140.666 95.8177 140.594 95.2734C140.743 95.2742 140.892 95.275 141.04 95.2758C141.141 95.8428 140.953 96.3703 140.817 96.905Z" fill="#ECE3E1"/>
<path d="M100.686 83.9296C100.407 83.7795 100.131 83.573 100.29 83.2366C100.438 82.9214 100.711 83.5799 100.93 83.2309C102.013 83.87 100.674 83.6642 100.686 83.9296Z" fill="#F1E8E4"/>
<path d="M141.498 94.6099C141.35 94.6826 141.202 94.7553 141.054 94.8281C141.089 94.4272 140.932 94.0053 141.177 93.6016C141.666 93.8357 141.467 94.2593 141.498 94.6099Z" fill="#ECE3E1"/>
<path d="M91.4133 125.655C91.1091 126.434 90.805 127.214 90.5008 127.993C90.8027 128.429 90.5012 128.801 90.3601 129.179C89.1901 132.32 87.5289 135.211 85.7988 138.064C85.475 138.598 85.1923 139.124 85.1663 139.758C84.7023 141.071 83.7718 142.002 82.6756 142.8C82.5261 142.915 82.3635 143.005 82.1873 143.072C81.603 143.277 80.9955 143.373 80.3852 143.442C79.3098 143.563 78.9931 143.231 79.0902 142.155C79.1288 141.728 79.3171 141.346 79.3983 140.998C79.3924 140.926 79.3948 140.978 79.3631 141.077C78.5434 143.619 78.543 143.629 75.8382 143.615C74.6545 143.608 73.4507 143.754 72.3142 143.265C70.9313 141.923 70.9715 139.226 72.3955 137.731C72.6626 137.45 72.9602 137.209 73.2497 137.028C72.0449 137.912 71.8473 138.273 71.211 139.812C70.933 140.485 70.9071 141.809 69.8773 141.484C68.7836 141.139 69.5542 140.023 69.6844 139.264C69.7866 138.668 70.1189 138.119 70.5091 137.635C69.8535 138.414 69.5701 139.357 69.4046 140.331C69.1706 141.708 69.0741 141.765 67.8937 140.993C67.3922 139.243 68.1569 137.921 69.3747 136.793C69.9384 136.271 70.5825 135.836 71.0161 135.183C71.7243 133.501 71.5722 131.696 71.7336 129.942C71.9943 127.107 71.8029 124.265 71.7231 121.414C71.2655 122.84 71.0608 124.303 70.8535 125.767C70.76 126.427 70.9021 127.434 70.1125 127.526C69.2762 127.623 69.2867 126.573 69.0409 125.967C68.6933 125.11 68.3836 124.235 68.1151 123.35C67.7793 122.244 67.1943 121.314 66.2689 120.62C65.6421 120.149 65.2916 119.528 65.2002 118.771C64.9383 116.601 63.7414 114.718 63.3306 112.595C63.2835 112.352 63.1092 112.311 62.8996 112.436C62.8996 112.436 62.8836 112.448 62.8836 112.448C62.2922 110.035 61.7618 107.608 61.0678 105.218C60.795 104.278 60.4443 103.355 60.3311 102.344C61.4903 104.746 62.474 107.227 63.8296 109.695C64.1812 109.059 64.0517 108.512 64.0382 108.006C64.021 107.358 64.1984 106.748 64.8018 106.604C65.3389 106.476 65.4232 107.168 65.6557 107.539C66.0586 108.181 66.2029 108.983 66.8501 109.505C67.3028 109.234 66.8393 108.66 67.2939 108.377C67.9083 108.766 68.0759 109.559 68.6655 110.042C69.3063 109.455 68.549 108.741 68.8525 108.05C70.0445 108.742 70.6141 109.892 71.4218 110.983C72.386 108.981 72.4602 106.832 73.0336 104.806C72.9709 107.297 73.33 109.788 72.9041 112.27C72.8459 112.609 72.8676 112.963 72.8674 113.31C72.8647 118.022 72.8622 122.734 72.8649 127.446C72.8663 129.986 72.6604 132.51 72.2436 135.013C72.1242 135.73 72.3504 136.042 73.0186 135.759C75.4531 134.728 77.7532 135.374 80.0569 136.216C82.8901 137.252 84.8265 136.588 86.3085 133.976C87.0271 132.709 87.7197 131.395 88.1762 130.019C88.7892 128.173 90.0529 126.899 91.4133 125.655Z" fill="#E0D6D5"/>
<path d="M100.462 28.9573C100.207 28.0638 99.3741 27.7906 98.7017 27.3707C98.1567 27.0305 97.5428 26.8005 96.9146 26.5002C97.6021 26.2256 98.1768 26.7583 98.7914 26.5767C98.2614 26.2029 97.6513 25.9854 96.877 25.9585C96.1458 25.9331 95.413 25.953 94.6245 25.953C95.4208 24.9677 96.5797 24.7207 101.161 24.5016C100.423 23.1945 97.6931 22.5654 94.6998 23.0747C95.6011 22.3336 96.5557 21.9572 97.485 21.4705C96.3754 21.2185 95.9329 21.2129 94.6084 21.6826C93.674 22.0139 92.7819 22.4644 91.6464 22.9595C92.671 21.5268 93.894 20.6731 95.2808 19.8773C94.1434 19.8101 93.3803 20.0387 92.2464 20.7535C91.0666 21.4973 89.9532 22.3272 89.054 23.4035C88.795 23.7135 88.5713 23.903 88.2076 23.6105C87.8598 23.3307 88.1956 23.1129 88.3287 22.9427C91.9858 18.2642 96.2952 14.3619 101.743 11.8576C103.179 11.1977 103.546 11.3928 103.962 12.9348C104.957 16.6262 104.97 20.4018 104.776 24.1794C104.652 26.5976 104.488 29.0183 103.941 31.3914C103.838 31.8386 103.792 32.3024 103.487 32.6767C102.955 32.6922 102.602 32.3686 102.401 31.9539C101.93 30.979 101.388 30.0717 100.534 29.3787C100.412 29.2796 100.397 29.1132 100.462 28.9573Z" fill="#EC9D8F"/>
<path d="M87.7152 44.2962C87.6169 44.3528 87.4984 44.4783 87.4234 44.4562C85.1503 43.7857 82.8222 44.1059 80.5153 44.0583C79.9758 42.6215 80.3721 41.3349 81.147 40.1099C81.3386 40.0027 81.5043 40.0605 81.6567 40.1976C81.9863 40.494 82.3382 40.7526 82.7205 40.3027C83.0926 39.8648 82.7978 39.5415 82.4706 39.2445C82.0144 38.9312 82.057 38.5976 82.5095 38.3722C83.7895 37.7346 85.1446 37.545 86.5592 37.792C87.0792 37.8828 87.2011 38.41 87.5642 38.6694C88.5703 39.4393 88.7896 40.6092 89.1175 41.7239C89.0333 41.7974 88.9354 41.8376 88.8237 41.845C88.3806 41.8008 88.2514 41.3747 87.9199 41.092C87.9161 41.7764 87.5677 42.4386 88.1241 43.0265C88.2738 43.5423 88.194 43.9839 87.7152 44.2962Z" fill="#280E1C"/>
<path d="M68.9721 46.5901C68.1815 45.8139 67.0447 45.3708 66.6276 44.2401C66.4111 43.6533 65.7933 43.0353 66.6046 42.4219C68.7978 42.4545 70.9874 42.5122 73.0542 43.3886C73.4753 43.8423 73.3973 44.27 73.0012 44.6961C72.2527 45.5011 71.3688 46.0434 70.2729 46.2625C69.8818 46.3407 69.4082 46.1972 69.1017 46.5928C69.0585 46.5919 69.0153 46.591 68.9721 46.5901Z" fill="#DE6D68"/>
<path d="M100.461 28.9632C101.416 29.7331 102.185 30.6261 102.617 31.8119C102.744 32.1613 103.187 32.3956 103.486 32.6826C103.34 33.64 102.976 34.5127 102.496 35.3932C100.928 34.2759 100.055 32.5526 98.6015 31.3404C99.3655 31.6917 100.13 32.043 100.977 32.4327C99.78 30.4324 98.1446 29.0457 96.2471 27.9141C97.7374 28.0218 99.1818 28.1718 100.461 28.9632Z" fill="#E6857B"/>
<path d="M87.5642 38.6752C85.8099 37.3895 84.0827 38.1491 82.2488 38.7118C82.5036 38.8904 82.6732 39.0094 82.8428 39.1283C82.4635 39.5634 81.8591 39.6179 81.4281 39.9665C80.3755 40.6548 80.1894 41.8105 79.8445 42.8829C79.7791 43.0864 79.7078 43.4095 79.4392 43.3232C79.0993 43.214 79.2473 42.9001 79.3281 42.6527C80.0607 38.9762 82.8286 36.662 86.2731 36.8462C90.0265 37.0469 93.0197 41.6109 91.7142 45.1495C91.6945 45.2028 91.598 45.2277 91.4807 45.3014C91.4471 44.3704 91.5187 43.4653 91.2882 42.5774C90.8119 40.7431 89.6885 39.4489 88.0388 38.5833C87.9163 38.519 87.6265 38.1827 87.5642 38.6752Z" fill="#3C212E"/>
<path d="M68.9735 46.5781C69.0167 46.582 69.06 46.5829 69.1032 46.5809C69.4423 49.8733 70.6668 51.0028 74.5375 51.5941C72.9976 52.3845 70.0018 51.4103 68.8375 48.7926C67.7156 49.8969 66.3634 50.2714 64.8495 50.0557C63.807 49.9072 62.8797 49.496 62.0977 48.7465C63.3987 49.0906 64.6801 49.5102 66.037 49.3578C67.2357 49.2231 68.2983 48.8551 68.6477 47.5047C68.7563 47.1958 68.8649 46.887 68.9735 46.5781Z" fill="#B76366"/>
<path d="M73.0542 43.3899C70.9091 43.0356 68.7133 43.0196 66.6045 42.4231C67.3492 41.6526 68.3104 42.0208 69.1833 41.9455C69.633 41.9067 70.0899 41.9524 70.5437 41.9599C71.3441 42.5005 72.5991 42.243 73.0542 43.3899Z" fill="#EFB2A7"/>
<path d="M79.3279 42.6436C79.3531 42.7559 79.3469 42.8919 79.41 42.9756C79.5451 43.1549 79.5321 42.976 79.5391 42.9006C79.6191 42.0325 79.9749 41.2647 80.4329 40.5449C80.6587 40.19 80.9245 39.8352 81.4299 39.8607C81.4772 39.9138 81.4931 39.9669 81.4775 40.0202C81.4619 40.0735 81.4463 40.1001 81.4305 40.1001C80.4664 41.2658 80.7415 42.7183 80.5149 44.0548C80.0878 44.2132 79.5195 44.4868 79.2397 44.1382C78.9233 43.7443 78.9934 43.1277 79.3279 42.6436Z" fill="#90AAA7"/>
<path d="M88.8402 41.751C88.9325 41.7428 89.0248 41.7347 89.1171 41.7266C89.6342 42.555 89.2858 43.4478 89.2939 44.311C89.2976 44.695 89.0181 44.6993 88.7128 44.5931C88.3856 44.4794 88.048 44.3956 87.7148 44.2988C87.9319 43.864 87.9598 43.4014 87.9157 42.9283C88.2943 42.5912 88.5841 42.1843 88.8402 41.751Z" fill="#647773"/>
<path d="M50.4799 24.875C49.1146 26.7528 48.8343 28.9276 46.7352 30.3462C44.386 31.934 42.0736 33.6526 39.8293 35.4261C39.2952 35.8481 38.6934 36.1373 38.2517 36.7244C37.6482 37.5266 36.2881 37.6972 35.3925 37.2798C35.2372 37.2074 35.0969 37.1199 35.1081 36.9642C35.2307 35.2501 34.2719 36.3934 33.7487 36.4599C33.389 36.5056 32.9771 36.9222 32.6923 36.5789C32.3483 36.1643 32.8029 35.8077 33.0559 35.4959C33.7973 34.5823 34.8153 33.9899 35.7785 33.3764C39.8626 30.7749 43.9856 28.2339 48.1101 25.6964C48.7477 25.3041 49.4223 24.9188 50.4799 24.875Z" fill="#FDFDFD"/>
<path d="M59.6547 40.3493C57.9326 39.5709 56.232 38.7332 54.3397 38.4251C53.7938 37.2958 54.1621 35.842 55.187 35.0699C55.3352 35.0457 55.4862 35.0413 55.632 35.0893C56.0812 35.2372 56.5422 35.35 56.8339 34.8444C57.1414 34.3115 56.6968 34.0217 56.3905 33.6999C55.9999 33.339 56.1306 33.0641 56.5083 32.7852C57.0826 32.3612 57.5908 32.262 58.6092 32.414C58.2378 32.2667 57.7926 32.3235 57.4726 32.0318C57.2892 31.7385 57.1012 31.3935 57.3372 31.0994C57.5992 30.7732 57.9448 30.9913 58.2478 31.1402C58.56 31.2936 58.9224 31.0746 59.2321 31.2643C62.4758 32.0684 64.7199 37.3865 62.3389 41.0176C62.2637 41.1323 62.0903 41.1826 61.9627 41.2629C61.7484 41.025 61.7967 40.7452 61.9107 40.5074C62.5547 39.1647 62.2372 37.7243 62.4501 36.0873C62.3028 36.4488 62.3725 36.5808 62.3169 36.7036C62.2492 36.853 62.1367 36.945 61.992 37.0069C61.7343 37.0844 61.456 36.9896 61.2067 37.0696C60.5331 37.2857 60.4206 37.6233 61.0377 38.0703C61.8483 38.3474 61.9334 38.7987 61.3551 39.4023C60.8861 39.892 60.6258 40.7597 59.6547 40.3493Z" fill="#290E1C"/>
<path d="M57.5546 31.9912C57.9048 32.1128 58.2551 32.2345 58.658 32.3744C57.8579 32.3461 57.254 32.7218 56.6085 33.0285C55.7792 33.4227 56.8247 33.3677 56.7085 33.5689C56.5651 33.7873 56.3401 33.808 56.111 33.8189C54.5249 34.2028 54.1089 35.6293 53.4636 36.832C53.2355 37.2573 53.2834 37.8057 52.967 38.2149C52.1031 38.091 51.0081 38.5133 50.6357 37.2283C50.8352 36.7253 50.9578 36.1968 51.1477 35.6895C52.1971 33.5358 53.9308 32.2866 56.2567 31.8204C56.7079 31.73 57.1654 31.6048 57.5546 31.9912Z" fill="#F1E8E4"/>
<path d="M57.5547 31.9944C54.7354 32.1316 52.6206 33.3991 51.2779 35.9054C50.875 35.9165 50.9088 35.715 51.0592 35.4566C52.5436 32.1908 55.7697 30.3645 58.8356 31.0614C58.9763 31.0934 59.1019 31.192 59.2346 31.2596C58.67 31.386 58.1175 31.3648 57.5547 31.0254C57.5547 31.414 57.5547 31.7042 57.5547 31.9944Z" fill="#412530"/>
<path d="M59.6572 40.3298C60.8054 40.3575 60.8071 39.1211 61.5501 38.6806C61.361 38.3629 60.9206 38.5898 60.8029 38.2518C61.3441 37.9358 61.688 37.4879 61.7424 36.8464C62.5828 36.7641 61.9476 35.9767 62.3305 35.6562C63.025 37.5752 62.751 39.425 61.9652 41.2435C60.9016 41.6823 60.435 40.613 59.6572 40.3298Z" fill="#88ACA7"/>
<path d="M52.9661 38.2134C52.9456 36.1091 54.1748 34.7081 55.6583 33.4559C55.6837 33.4345 55.8177 33.5417 55.9011 33.5889C55.7013 34.1131 55.5448 34.6491 55.4621 35.205C54.4764 35.4574 54.6764 36.3927 54.4441 37.053C54.2982 37.4679 54.3682 37.9588 54.3412 38.4157C53.8436 38.6141 53.4527 38.0887 52.9661 38.2134Z" fill="#6D918C"/>
<path d="M42.4996 57.924C41.2152 58.4041 40.061 57.9527 38.9102 57.4582C40.1294 57.4352 41.3394 57.4738 42.4996 57.924Z" fill="#F1E8E4"/>
<path d="M51.0586 35.4453C51.1148 35.603 51.0325 35.8282 51.2772 35.8941C51.1197 36.3637 51.0382 36.8702 50.635 37.2205C50.6094 36.5887 50.6489 35.9728 51.0586 35.4453Z" fill="#928482"/>
<path d="M72.1711 143.054C73.9291 143.374 75.7053 143.28 77.4776 143.301C78.1852 143.31 78.6335 143.18 78.742 142.338C78.8165 141.759 79.0002 141.136 79.5624 140.62C79.4917 141.344 79.4175 141.975 79.3722 142.608C79.3365 143.107 79.5326 143.298 80.0719 143.175C80.817 143.004 81.5807 142.915 82.3365 142.791C84.301 142.695 86.2656 142.589 88.2293 142.817C88.672 143.091 89.3403 143.199 89.0997 143.983C88.7941 143.986 88.4886 143.989 88.1831 143.992C86.7817 144.221 85.3699 144.033 83.9648 144.099C83.512 144.121 83.0485 144.004 82.6075 144.194C76.4219 144.194 70.2363 144.194 64.0506 144.194C61.0232 143.971 57.9913 144.163 54.9623 144.092C54.4306 144.079 53.8881 144.201 53.3671 143.996C52.5255 143.984 51.6838 143.972 50.8422 143.96C50.5493 143.413 50.9565 143.209 51.3345 143.06C51.7467 142.898 52.18 142.765 52.6368 142.772C52.8312 142.771 53.0225 142.798 53.2113 142.841C54.3064 143.054 55.4039 143.019 56.5004 142.865C57.5145 142.924 57.5461 141.948 58.0104 141.428C58.1727 141.056 58.335 140.684 58.4973 140.312C59.0783 140.576 58.911 141.074 58.8482 141.515C58.7307 142.341 59.0943 142.531 59.8514 142.406C61.3399 142.16 62.6675 141.61 63.7552 140.54C64.4396 140.061 64.6338 139.298 64.8589 138.573C65.4976 136.513 65.8708 134.408 65.7873 132.242C65.7643 131.646 65.8835 131.104 66.1459 130.578C66.3455 130.178 66.7341 130.031 66.9642 130.364C67.9425 131.781 69.5891 132.485 70.5929 133.848C70.9212 134.293 71.3083 134.768 71.2404 135.403C70.8503 135.82 70.5206 136.326 70.0589 136.636C68.4988 137.683 67.9028 139.145 68.0078 140.96C68.1402 141.147 68.129 141.328 67.9897 141.505C67.7332 141.706 67.4227 141.721 67.1168 141.764C65.4347 142 63.698 141.934 62.3421 142.674C64.3081 142.865 66.5272 142.525 68.7268 142.859C69.0419 142.907 68.7889 142.554 68.971 142.499C70.1224 142.204 71.1466 142.63 72.1711 143.054Z" fill="#9791A9"/>
<path d="M123.215 138.907C123.768 139.34 124.422 139.342 125.078 139.344C128.23 139.352 131.371 139.539 134.484 140.056C134.981 140.138 135.785 140.107 135.769 140.709C135.758 141.14 134.94 141.315 134.441 141.389C130.916 141.913 127.392 142.435 123.822 142.613C121.446 142.731 119.085 143.126 116.696 143.043C116.507 142.176 116.512 141.258 115.981 140.479C115.857 140.296 115.884 140.038 116.105 139.87C117.584 139.232 119.195 139.299 120.741 139.019C121.551 138.873 122.376 138.615 123.215 138.907Z" fill="#B5ACBD"/>
<path d="M123.216 138.908C120.814 139.288 118.411 139.668 116.009 140.048C114.189 140.944 112.21 141.237 110.237 141.495C108.738 141.691 107.298 141.914 105.996 142.797C104.914 143.531 103.635 143.328 102.408 143.206C102.024 142.898 101.702 142.515 101.2 142.351C100.882 142.247 100.538 142.066 100.706 141.599C101.946 141.056 103.281 141.35 104.567 141.202C107.792 140.83 110.731 139.939 113.077 137.573C113.245 137.404 113.476 137.349 113.692 137.268C114.627 136.652 115.124 135.697 115.657 134.763C115.931 134.283 116.139 133.87 116.756 134.598C118.047 136.121 119.61 137.244 121.748 137.308C122.255 137.323 122.754 137.624 123.244 137.789C123.26 138.228 122.719 138.132 122.672 138.497C123.314 138.724 123.907 137.907 124.556 138.395C124.109 138.566 123.663 138.737 123.216 138.908Z" fill="#918AA2"/>
<path d="M52.6865 143.054C52.04 143.293 51.0984 142.931 50.8395 143.96C47.727 143.936 44.6334 143.645 41.5377 143.349C39.59 143.163 37.6353 143.063 35.7256 142.594C35.3515 142.503 34.8113 142.443 34.7822 142.065C34.7422 141.547 35.3463 141.541 35.7194 141.421C37.3737 140.892 39.1066 140.769 40.8121 140.547C42.8266 140.284 44.8632 140.191 46.8903 140.024C46.9257 140.328 46.9158 140.646 47.0069 140.932C47.1551 141.397 47.4667 141.798 47.9949 141.742C48.5744 141.681 48.4853 141.166 48.5024 140.744C48.5346 139.949 48.3701 139.122 48.9239 138.285C48.9349 139.149 48.5885 139.892 48.7732 140.642C48.8699 141.034 48.9484 141.586 49.4796 141.545C49.9973 141.505 49.8521 140.975 49.8985 140.612C50.0774 139.213 50.178 137.779 51.5248 136.875C51.1694 137.761 50.6139 138.577 50.5935 139.573C50.2765 141.499 50.5075 141.907 52.2981 142.593C52.5077 142.674 52.7375 142.748 52.6865 143.054Z" fill="#A7A4BB"/>
<path d="M102.318 143.054C103.971 143.217 105.505 142.97 106.893 141.952C108.035 141.114 109.457 141.396 110.749 141.145C112.506 140.804 114.256 140.425 116.009 140.062C116.527 140.995 117.314 141.866 116.696 143.059C112.123 143.398 107.541 143.451 102.96 143.583C98.3396 143.716 93.7254 144.06 89.0986 143.996C89.121 143.5 88.5104 143.481 88.4082 143.078C89.2455 142.431 90.2234 142.794 91.1374 142.705C91.5489 142.665 91.965 142.706 92.3788 142.726C95.2578 142.653 98.1369 142.703 101.016 142.7C101.478 142.7 101.943 142.721 102.318 143.054Z" fill="#A8A2B6"/>
<path d="M53.3662 144.007C56.639 144.003 59.9119 143.999 63.1847 143.998C63.4869 143.998 63.8086 143.94 64.0498 144.204C60.74 144.206 57.4301 144.209 54.1203 144.211C53.8509 144.211 53.5771 144.224 53.3662 144.007Z" fill="#A7A4BB"/>
<path d="M82.6064 144.201C83.9842 143.726 85.4053 144.1 86.8024 143.992C87.2593 143.956 87.7218 143.995 88.1819 143.999C86.3377 144.461 84.4647 144.127 82.6064 144.201Z" fill="#A8A2B6"/>
<path d="M118.869 85.3041C117.16 85.197 116.225 84.4553 115.65 83.1797C116.533 83.9819 117.778 84.2172 118.869 85.3041Z" fill="#FDFDFD"/>
<path d="M92.8027 124.738C93.5873 122.899 94.3738 121.061 95.1536 119.22C95.2329 119.033 95.3265 118.828 95.5323 118.836C95.8571 118.849 95.8195 119.141 95.8207 119.361C95.8321 121.457 95.9835 123.545 96.3016 125.613C96.642 127.827 97.715 129.733 99.0261 131.51C99.3036 131.886 99.6234 132.161 99.4136 132.728C99.2482 133.175 99.7299 133.351 100.033 133.58C103.6 136.267 107.287 135.891 110.996 133.959C112.816 133.011 114.358 131.618 115.832 130.244C116.786 129.353 117.51 128.034 117.621 126.583C117.712 125.386 118.083 124.251 118.326 123.088C118.383 122.814 118.527 122.689 118.785 122.659C118.537 124.971 118.31 127.218 117.027 129.336C115.343 132.116 113.508 134.721 111.123 136.926C109.437 138.485 107.376 138.947 105.151 138.889C104.914 138.883 104.632 138.855 104.583 138.596C104.528 138.305 104.804 138.244 105.036 138.202C105.333 138.149 105.757 138.142 105.647 137.718C105.548 137.341 105.118 137.546 104.834 137.503C102.794 137.198 100.709 137.179 98.7267 136.508C95.4209 135.39 93.2781 132.402 93.2741 128.879C93.2731 127.953 93.2668 127.026 93.2767 126.1C93.2824 125.584 93.2371 125.096 92.8027 124.738Z" fill="#BDB6C4"/>
<path d="M113.692 137.266C111.872 139.449 109.531 140.721 106.749 141.184C104.748 141.517 102.737 141.784 100.699 141.672C99.3731 142.209 97.4312 141.7 96.4179 140.821C94.3652 139.04 92.7162 136.905 90.9362 134.884C90.3076 134.17 89.4486 133.958 88.6404 133.614C88.5967 133.548 88.5369 133.463 88.563 133.406C89.4031 131.581 89.9527 129.614 91.1824 127.977L91.1884 127.981C91.9089 128.044 91.8811 128.571 91.883 129.089C91.8871 130.166 91.894 131.231 92.1127 132.307C92.4982 134.204 93.4255 135.574 95.1619 136.532C97.4356 137.786 99.4652 139.468 102.164 139.895C103.73 140.143 105.231 140.018 106.728 139.667C108.764 139.188 110.674 138.357 112.394 137.168C112.954 136.78 113.281 136.949 113.692 137.266Z" fill="#A8A2B6"/>
<path d="M91.1819 127.977C90.3365 129.837 89.4911 131.697 88.6458 133.557C88.8169 134.065 88.5192 134.453 88.2725 134.824C87.3374 136.23 86.5398 137.707 85.8254 139.235C85.6621 139.584 85.527 140.086 84.9303 139.814C84.7836 139.105 85.1406 138.564 85.49 137.997C87.4522 134.81 89.2791 131.553 90.5002 127.994C90.7276 127.988 90.9547 127.982 91.1819 127.977Z" fill="#BDB6C4"/>
<path d="M71.2396 135.396C70.3917 133.264 68.0592 132.489 66.8946 130.646C66.5972 130.175 66.437 130.47 66.2529 130.76C65.9236 131.277 65.8864 131.847 65.9212 132.429C66.0737 134.98 65.7131 137.446 64.7089 139.805C64.5311 140.223 64.4201 140.714 63.8221 140.737C63.441 140.097 64.1196 139.8 64.2762 139.333C64.9266 137.015 65.6039 134.712 65.6883 132.269C65.8744 126.879 65.026 121.615 63.9563 116.363C63.6833 115.022 63.2733 113.736 62.8996 112.432C62.9419 112.182 62.7942 111.896 63.0407 111.68C63.3406 111.758 63.5038 111.98 63.5542 112.25C63.9972 114.627 65.3537 116.727 65.6423 119.151C65.6729 119.408 65.7224 119.789 65.8921 119.885C68.2008 121.194 68.4587 123.675 69.3275 125.804C69.549 126.347 69.592 126.975 70.2215 127.631C70.509 125.793 70.7575 124.188 71.0124 122.585C71.0965 122.055 71.1804 121.524 71.2981 121.002C71.3513 120.766 71.5352 120.597 71.8025 120.61C72.1104 120.625 72.1613 120.866 72.1565 121.104C72.0953 124.107 72.3348 127.113 72.0344 130.112C71.8743 131.71 72.0241 133.345 71.4812 134.898C71.4207 135.071 71.3211 135.231 71.2396 135.396Z" fill="#C2B7C2"/>
<path d="M52.6881 143.059C52.5964 142.994 52.512 142.889 52.4119 142.871C50.3773 142.499 49.8787 141.6 50.5952 139.578C50.6431 141.321 50.3288 141.162 52.2971 141.216C54.2014 141.269 56.1209 140.97 58.0095 141.432C57.9052 142.277 57.9712 143.266 56.6305 143.072C55.4697 143.235 54.3091 143.24 53.1486 143.069C52.9951 143.065 52.8416 143.062 52.6881 143.059Z" fill="#CEC2CD"/>
<path d="M64.2745 139.332C64.4305 139.899 63.8131 140.216 63.8204 140.735C62.6533 142.29 60.8947 142.523 59.1641 142.802C58.5895 142.895 58.5192 142.528 58.4558 142.039C58.3789 141.447 59.0157 140.885 58.4947 140.303C58.6537 139.881 58.8132 139.46 59.2574 139.234C59.4302 139.482 59.2458 139.628 59.1809 139.791C59.0555 140.105 58.828 140.413 59.1271 140.741C59.4259 141.069 59.7449 140.858 60.0752 140.776C61.5179 140.417 62.9318 139.979 64.2745 139.332Z" fill="#CEC2CD"/>
<path d="M84.929 139.829C85.7511 139.625 85.614 138.786 85.9379 138.26C86.8829 136.723 87.7479 135.137 88.6443 133.571C89.7143 133.429 90.5238 133.932 91.16 134.698C92.9722 136.88 94.822 139.029 96.9115 140.948C97.6117 141.591 98.6389 141.512 99.5389 141.665C99.9152 141.729 100.31 141.682 100.697 141.686C100.856 142.048 101.169 142.11 101.522 142.165C102.004 142.24 102.379 142.465 102.317 143.053C98.991 143.055 95.6651 143.058 92.3392 143.061C92.2142 142.915 92.0758 142.781 91.9597 142.627C91.1693 141.582 90.4115 140.611 88.8044 141.228C88.1659 141.473 87.297 141.463 86.6453 141.187C85.6396 140.761 85.1222 141.18 84.509 141.878C84.0411 142.411 83.4981 143.133 82.5723 142.587C83.5321 141.816 84.3761 140.947 84.929 139.829Z" fill="#8F8AA4"/>
<path d="M82.5722 142.574C83.7501 142.602 84.3356 141.749 84.9224 140.944C85.2385 140.511 85.4316 140.315 86.0066 140.663C87.0211 141.276 88.1897 140.938 89.2911 140.917C89.7578 140.908 90.3754 140.43 90.677 140.804C91.2568 141.524 92.331 141.909 92.3392 143.048C91.0283 143.053 89.7174 143.058 88.4066 143.063C86.7728 143.059 85.1389 143.061 83.5053 143.044C83.1037 143.04 82.6566 143.182 82.334 142.79C82.4133 142.718 82.4927 142.646 82.5722 142.574Z" fill="#797795"/>
<path d="M72.1689 143.058C71.0382 143.24 70.0256 142.538 68.9079 142.623C68.2041 142.559 67.8112 142.234 67.9389 141.471C67.9611 141.302 67.9832 141.133 68.0054 140.964C68.3306 141.068 68.6556 141.173 69.0642 141.304C69.1992 140.455 69.2719 139.622 69.6243 138.864C69.9663 138.128 70.3219 137.403 71.1451 137.002C70.5007 137.863 69.8489 138.718 69.73 139.823C69.7055 140.05 69.6208 140.277 69.6301 140.501C69.6433 140.82 69.4663 141.287 69.9417 141.373C70.3747 141.45 70.4381 141.05 70.5623 140.704C71.145 139.077 71.6949 137.409 73.5306 136.707C73.6373 136.666 73.745 136.618 73.8563 136.603C73.9214 136.594 73.9946 136.644 74.0671 136.668C71.5831 138.165 71.0123 140.328 72.1689 143.058Z" fill="#BFB7C5"/>
<path d="M81.4294 40.0903C81.4292 40.0104 81.4289 39.9304 81.4287 39.8506C81.6061 39.0445 82.2665 39.1585 82.8414 39.1094C83.4307 39.684 83.4302 40.2756 82.7251 40.6917C82.1095 41.0551 81.5714 40.9156 81.4294 40.0903Z" fill="#F0ECF0"/>
<path d="M88.8401 41.7438C88.9451 42.4606 88.8642 43.0315 87.9156 42.9212C87.4118 42.7437 87.0795 42.5044 87.519 41.9373C87.6041 41.8276 87.7024 41.6345 87.6607 41.5369C87.4972 41.1539 87.1669 40.6529 87.7454 40.502C88.2753 40.3638 88.1889 41.0748 88.4135 41.383C88.5201 41.5292 88.6957 41.6251 88.8401 41.7438Z" fill="#EAE8E9"/>
<path d="M55.4619 35.2002C55.066 34.5142 55.1421 33.9564 55.901 33.5842C56.1697 33.5769 56.4386 33.5697 56.7074 33.5625C57.3127 33.9465 57.5968 34.4448 57.0878 35.0731C56.6213 35.649 56.0613 35.9029 55.4619 35.2002Z" fill="#F5F2F4"/>
<path d="M61.7423 36.8563C62.1443 37.9853 62.0118 38.1834 60.8027 38.2617C60.3575 38.0816 60.0305 37.7818 60.2952 37.2933C60.6064 36.719 61.1007 36.4736 61.7423 36.8563Z" fill="#F1EDEF"/>
<path d="M67.94 141.469C68.0873 142 68.4643 142.339 68.909 142.621C68.9039 142.768 69.4409 142.905 68.9563 143.042C68.295 143.231 62.581 142.964 61.7256 142.761C63.6241 141.454 65.796 141.528 67.94 141.469Z" fill="#716F90"/>
<path d="M53.1484 143.062C54.3091 143.064 55.4697 143.065 56.6304 143.066C55.4694 143.423 54.3087 143.433 53.1484 143.062Z" fill="#A7A4BB"/>
</svg>
