<svg width="48" height="48" viewBox="0 0 48 48" fill="none" xmlns="http://www.w3.org/2000/svg">
<circle cx="24.0018" cy="23.9998" r="20.4545" fill="white" stroke="black" stroke-width="2.72727"/>
<path d="M14.8199 15.0005C13.5772 16.2431 13.5772 18.2576 14.8199 19.5002L19.3196 24L14.8199 28.4998C13.5772 29.7424 13.5772 31.7569 14.8199 32.9995C16.0625 34.2422 18.077 34.2422 19.3196 32.9995L23.8194 28.4998L28.3192 32.9995C29.5618 34.2422 31.5763 34.2422 32.8189 32.9995C34.0616 31.7569 34.0616 29.7424 32.8189 28.4998L28.3192 24L32.8189 19.5002C34.0616 18.2576 34.0616 16.2431 32.8189 15.0005C31.5763 13.7578 29.5618 13.7578 28.3192 15.0005L23.8194 19.5002L19.3196 15.0005C18.077 13.7578 16.0625 13.7578 14.8199 15.0005Z" fill="#FF4B4B"/>
</svg>
