<svg width="304" height="155" viewBox="0 0 304 155" fill="none" xmlns="http://www.w3.org/2000/svg">
<g opacity="0.2">
<path d="M257.071 80.5771C250.91 80.5771 245.031 81.3167 239.639 82.648C240.833 79.025 241.506 75.167 241.506 71.1448C241.506 50.878 225.073 34.4469 204.806 34.4469C201.511 34.4469 198.336 34.9211 195.298 35.7337C194.78 15.9167 178.59 0.000274658 158.647 0.000274658C142.563 0.000274658 128.928 10.3667 123.972 24.7674C116.276 20.8993 107.591 18.7068 98.3898 18.7068C66.8813 18.7068 41.338 44.2501 41.338 75.7587C41.338 82.2042 42.4241 88.3925 44.3937 94.1714C44.0776 94.1673 43.7675 94.1572 43.4494 94.1572C19.4543 94.1572 0 104.915 0 118.187C0 131.459 19.4543 142.216 43.4494 142.216C59.4327 142.216 73.3896 137.44 80.9355 130.332C89.6424 143.762 104.752 152.654 121.947 152.654C137.067 152.654 150.579 145.783 159.541 134.997C165.642 146.802 177.935 154.887 192.14 154.887C207.758 154.887 221.065 145.112 226.361 131.36C234.592 135.757 245.323 138.423 257.071 138.423C282.99 138.423 304 125.473 304 109.5C304 93.525 282.99 80.5771 257.071 80.5771Z" fill="white"/>
<path d="M238.464 84.2034C238.849 83.5287 239.275 82.8742 239.751 82.2582C240.867 78.7487 241.506 75.0244 241.506 71.1441C241.506 50.8773 225.073 34.4462 204.806 34.4462C201.511 34.4462 198.336 34.9204 195.298 35.7329C194.78 15.9159 178.59 -0.000473022 158.647 -0.000473022C142.563 -0.000473022 128.928 10.3659 123.972 24.7667C116.276 20.8985 107.591 18.7061 98.3898 18.7061C66.8813 18.7061 41.338 44.2493 41.338 75.7579C41.338 82.2035 42.4241 88.3917 44.3937 94.1707C44.0776 94.1666 43.7675 94.1565 43.4494 94.1565C19.4543 94.1565 0 104.914 0 118.186C0 122.224 1.81147 126.03 4.99475 129.371C4.23692 127.574 3.82558 125.7 3.82558 123.77C3.82558 110.498 22.7895 99.7409 46.1828 99.7409C46.4908 99.7409 46.7948 99.751 47.1007 99.753C45.1798 93.9761 44.1242 87.7879 44.1242 81.3423C44.1242 49.8337 69.023 24.2905 99.7393 24.2905C108.708 24.2905 117.173 26.4829 124.677 30.3511C129.509 15.9483 142.8 5.58395 158.479 5.58395C177.921 5.58395 193.704 21.5004 194.208 41.3173C197.169 40.5028 200.265 40.0306 203.476 40.0306C223.235 40.0306 239.25 56.4596 239.25 76.7285C239.25 79.2957 238.959 81.7861 238.464 84.2034Z" fill="#DFEFEF"/>
<path d="M217.662 107.332C211.075 129.372 161.095 137.698 148.607 108.076C141.1 119.05 128.055 124.596 111.469 124.15C98.6654 123.808 84.2626 122.918 73.2519 107.332C67.477 118.481 52.9769 126.126 35.9542 125.668C21.7176 125.285 9.25602 119.324 2.17216 110.684C0.769979 113.044 0 115.565 0 118.187C0 131.459 19.4543 142.216 43.4494 142.216C59.4327 142.216 73.3896 137.44 80.9355 130.332C89.6424 143.762 104.752 152.654 121.947 152.654C137.067 152.654 150.579 145.783 159.541 134.997C165.642 146.802 177.935 154.887 192.14 154.887C207.758 154.887 221.065 145.112 226.361 131.36C234.592 135.757 245.323 138.423 257.071 138.423C282.773 138.423 303.635 125.688 303.984 109.899C288.61 124.663 232.019 131.108 217.662 107.332Z" fill="#DFEFEF"/>
<path d="M172.335 52.2448C180.681 52.2448 188.061 55.0106 192.678 59.2617C190.032 52.1576 181.929 46.9846 172.335 46.9846C162.74 46.9846 154.637 52.1576 151.993 59.2617C156.609 55.0126 163.99 52.2448 172.335 52.2448Z" fill="#DFEFEF"/>
<path d="M120.977 34.5273C130.115 34.5273 138.198 37.5566 143.253 42.2109C140.356 34.43 131.483 28.7667 120.977 28.7667C110.47 28.7667 101.595 34.43 98.6978 42.2109C103.755 37.5566 111.836 34.5273 120.977 34.5273Z" fill="#DFEFEF"/>
<path d="M192.369 42.5317C198.918 42.5317 204.709 44.7038 208.332 48.0391C206.257 42.4628 199.896 38.4042 192.369 38.4042C184.839 38.4042 178.479 42.4628 176.402 48.0391C180.027 44.7038 185.818 42.5317 192.369 42.5317Z" fill="#DFEFEF"/>
</g>
</svg>
