<svg width="353" height="292" viewBox="0 0 353 292" fill="none" xmlns="http://www.w3.org/2000/svg">
<g filter="url(#filter0_d_4772_62206)">
<path d="M93.2957 171.223C89.0211 174.5 84.1665 177.185 79.9006 180.459C72.0945 186.452 62.6209 194.142 55.4201 200.78C55.4199 201.747 56.2777 202.386 56.8058 203.09C57.1648 203.568 57.4029 204.01 57.7296 204.475C61.6538 210.061 65.0475 216.377 66.9675 222.949C70.522 223.335 74.8851 218.808 78.053 220.639C79.6469 215.978 82.9786 211.031 84.7505 206.322C87.3576 212.73 100.455 218.334 102.072 224.103C105.552 236.523 83.9778 239.478 75.5126 238.651C73.956 237.513 74.8028 237.538 74.8197 236.342C68.2074 242.421 61.2897 242.216 53.1105 240.036C53.3009 241.775 53.1863 243.896 52.6487 245.578C58.9308 251.24 69.1523 247.586 75.9745 244.655C75.984 245.48 77.5424 248.154 77.5911 248.35C96.6828 246.19 110.33 276.97 85.4433 278.369C85.6092 278.611 84.9513 279.033 84.9814 279.062C85.522 279.576 86.459 279.009 86.829 279.524C87.3087 280.191 88.1489 282.231 88.6767 283.218C91.9529 289.345 94.858 297.246 97.4527 303.77C103.997 305.101 113.922 305.471 120.548 304.694C120.091 296.082 123.821 287.818 119.624 279.293V278.831C118.238 278.096 116.065 275.632 115.236 274.213C131.81 280.819 152.501 281.294 168.816 273.751L164.428 278.831C159.937 287.234 163.548 295.45 163.042 304.232C170.771 305.137 178.601 304.965 186.137 303.77L196.299 281.14C189.904 277.944 183.27 275.817 186.137 266.592C186.984 263.866 191.525 261.398 191.68 258.741C191.94 254.281 185.242 249.696 187.061 241.191C189.086 231.724 199.709 231.909 207.384 233.109C207.484 228.733 207.389 224.533 206.922 220.177C206.572 216.906 206.046 212.938 205.075 209.786C203.621 205.067 200.328 200.926 199.07 196.162C192.25 193.259 191.246 189.824 193.527 183.23C191.619 183.365 191.549 177.608 190.756 176.534C188.066 172.888 173.707 180.614 169.278 181.845C166.116 182.723 160.155 184.178 157.037 184.616C169.251 206.326 184.33 244.758 159.116 263.128C145.926 272.738 130.23 270.354 119.624 258.279C101.801 237.987 115.893 204.935 127.014 184.616C120.301 183.776 110.48 181.107 104.15 178.612C102.887 178.114 94.8378 174.813 94.4503 174.455C92.8131 172.943 94.9265 171.451 93.2957 171.223Z" fill="#FFFEFF"/>
<path d="M97.453 14.1962C98.3156 27.4248 104.078 37.208 115.467 43.9848C112.618 46.0496 109.617 48.1662 107.153 50.6814C105.963 51.8951 104.832 53.979 102.996 54.3762C103.207 55.4739 101.704 58.0504 101.148 58.9945C100.56 59.9933 99.5787 61.9323 98.3766 62.2274C100.479 69.9487 90.0698 68.2926 85.6744 67.7694C73.4808 66.3183 64.188 62.8167 59.1155 51.1433C57.6899 47.8624 54.2128 41.6109 58.1916 39.1354C65.7919 34.4067 81.433 42.9244 87.2911 48.3722L88.2149 46.9867C88.1724 46.9483 87.7918 46.097 87.753 46.063C86.5015 44.9622 85.071 43.1685 84.0578 42.3682C83.4935 41.9225 82.7971 41.4179 82.2102 40.9827C81.2194 40.2482 80.0035 39.3247 78.977 38.6734C67.6159 31.4675 48.46 26.1896 50.8013 46.7556C52.608 62.6255 66.6603 70.7427 80.8246 73.7731C89.6605 68.6948 126.374 66.8372 134.174 73.7731C136.082 75.47 137.097 79.6344 137.407 79.7769C137.722 79.9218 139.582 78.8568 139.716 78.8533C141.818 78.7986 146.313 79.8868 146.645 79.7769C147.01 79.6562 148.863 74.8658 150.802 73.3113C156.997 68.3449 175.456 68.9925 183.366 69.6165C183.8 67.3231 177.415 64.5336 175.744 64.0745C168.047 61.9594 158.791 66.1047 152.65 60.3797C147.394 55.4801 148.023 46.136 148.723 39.597C148.676 39.5915 148.877 38.7112 148.493 38.6733C143.922 38.2233 138.261 37.8673 133.712 38.2114C130.535 38.4518 121.213 41.5575 119.855 41.4444C116.436 41.1594 107.913 33.3741 105.767 30.3602C102.62 25.9403 100.207 20.6024 99.7626 15.1196C99.6382 15.119 99.1063 13.4386 97.453 14.1962Z" fill="#FFFEFF"/>
<path d="M176.438 118.574C181.994 120.135 190.192 123.305 194.683 126.887C197.747 129.33 203.596 136.661 203.228 140.742C202.556 148.204 186.719 160.496 180.364 163.834C155.176 177.067 126.726 176.968 101.842 162.91C95.6005 159.385 80.8676 147.42 80.8255 139.818C80.7691 129.64 98.691 121.425 106.692 118.574C105.72 118.549 103.515 118.275 102.535 118.112C96.2935 121.013 87.9341 124.514 83.5968 130.12C81.7693 132.482 80.8706 135.4 79.4398 137.971C79.4492 139.351 79.4345 140.748 79.4398 142.128C80.5644 152.962 89.2038 160.683 97.9156 166.143C123.011 181.871 159.72 182.229 185.214 167.067C194.796 161.368 206 149.761 204.152 137.74C203.803 135.474 201.334 132.537 200.918 130.582C196.046 125.703 188.016 119.335 181.057 118.112C180.041 117.934 177.334 117.877 176.438 118.574Z" fill="#F08079"/>
<path d="M196.299 281.139C196.525 281.252 197.229 281.179 197.685 281.601C198.114 280.138 199.958 276.945 200.456 275.135C200.527 274.879 200.386 274.469 200.456 274.211C200.619 273.61 200.759 272.966 200.918 272.364C201.026 271.954 201.274 271.85 201.38 271.44C201.735 270.074 201.96 268.261 202.304 266.822C202.855 264.517 203.681 262.23 204.151 259.894C204.365 258.833 204.604 259.021 204.613 258.971C204.642 258.822 204.585 258.657 204.613 258.509C204.863 257.18 204.859 255.672 205.075 254.352C205.14 253.957 205.42 253.739 205.537 252.967C206.532 246.414 207.233 239.752 207.385 233.108C199.71 231.907 189.086 231.722 187.061 241.19C185.242 249.694 191.941 254.28 191.68 258.74C191.525 261.397 186.985 263.865 186.138 266.591C183.271 275.816 189.904 277.942 196.299 281.139Z" fill="#4E1610"/>
<path d="M78.0522 220.637C77.7902 221.403 77.2806 222.423 77.1283 222.946C76.1306 226.378 74.8679 232.857 74.8188 236.34C74.8019 237.536 73.9551 237.511 75.5117 238.649C83.9769 239.476 105.552 236.521 102.071 224.101C100.454 218.332 87.3567 212.727 84.7496 206.32C82.9778 211.028 79.6461 215.976 78.0522 220.637Z" fill="#4E1610"/>
<path d="M52.6495 245.576C53.1872 243.894 53.3019 241.773 53.1114 240.034C52.9104 238.199 51.9367 235.685 50.8019 234.261C48.824 231.78 42.2042 227.741 45.0282 234.03C39.8708 231.217 33.8589 231.137 28.1691 232.414C28.5455 233.186 39.4176 237.005 37.638 238.649L18.0074 241.651C17.6775 242.33 30.4034 248.142 32.0951 246.038L30.4784 247.655C35.9934 254.422 49.5227 255.361 52.6495 245.576Z" fill="#4E1610"/>
<path d="M79.439 258.969C81.0666 264.807 82.8868 270.666 84.5199 276.519C84.5911 276.774 84.4482 277.189 84.5199 277.443C84.4195 277.98 85.4067 278.312 85.4437 278.366C110.33 276.967 96.6832 246.187 77.5915 248.347C78.2285 250.91 78.4409 255.389 79.439 258.969Z" fill="#4E1610"/>
<path d="M42.0255 219.713C43.8515 222.016 48.2912 220.64 51.9563 222.484C53.6157 223.319 57.1216 227.92 57.4989 228.026C60.183 228.781 65.3003 225.85 67.4297 225.255C66.704 224.47 67.1604 223.605 66.9678 222.946C65.0476 216.374 61.6541 210.059 57.7299 204.473L42.0255 219.713Z" fill="#4E1610"/>
<path d="M93.2961 303.308C94.5974 303.769 96.1786 303.511 97.4531 303.77C94.8585 297.246 91.9533 289.345 88.6771 283.218C88.1493 282.232 87.3092 280.192 86.8295 279.524C86.4596 279.009 85.5224 279.576 84.9819 279.062C84.9517 279.033 85.6096 278.611 85.4438 278.369C85.4068 278.315 84.4197 277.983 84.52 277.445C84.5369 277.505 83.7271 277.427 84.058 278.6C84.9749 281.849 91.6138 302.404 93.2961 303.308Z" fill="#DFDEDE"/>
<path d="M196.3 281.141L186.138 303.771C187.614 303.537 189.275 303.826 190.757 303.309C193.189 296.049 195.516 288.998 197.686 281.602C197.23 281.181 196.526 281.254 196.3 281.141Z" fill="#DFDEDE"/>
<path d="M46.1832 211.399C44.3666 213.26 40.4387 217.711 42.026 219.712L57.7305 204.471C57.4038 204.006 57.1657 203.564 56.8067 203.086C54.0075 206.243 48.9958 208.518 46.1832 211.399Z" fill="#A86B65"/>
<path d="M78.0535 83.4729C74.2805 84.0396 74.3755 88.4467 78.0535 89.0151C78.4573 89.0775 79.5901 89.1085 79.9011 89.0151C82.6883 88.1779 83.6412 82.6337 78.0535 83.4729Z" fill="#060100"/>
<path d="M66.9692 222.947C67.1618 223.606 66.7053 224.47 67.431 225.256C67.8001 225.153 67.9777 225.9 68.5858 225.718C71.4257 224.867 74.0988 223.204 77.1309 222.947C77.2832 222.423 77.7927 221.404 78.0547 220.637C74.8868 218.806 70.5235 223.333 66.9692 222.947Z" fill="#DFDEDE"/>
<path d="M46.183 211.4C48.9958 208.518 54.0075 206.243 56.8066 203.087C56.2786 202.383 55.4208 201.744 55.4209 200.777C52.0273 203.906 48.5094 207.213 46.183 211.4Z" fill="#4E1610"/>
<path d="M78.5148 258.973C79.6437 261.133 80.1908 263.571 80.8243 265.9C81.3632 267.881 81.6699 269.932 82.21 271.904C82.5052 272.982 82.6174 274.983 82.6719 275.137C82.7221 275.279 84.3573 277.712 84.5195 276.522C82.8864 270.669 81.0662 264.81 79.4386 258.973H78.5148Z" fill="#DFDEDE"/>
<path d="M93.2958 171.221C94.9266 171.449 92.8131 172.941 94.4505 174.454C94.838 174.812 102.887 178.113 104.15 178.61C110.48 181.105 120.301 183.775 127.014 184.614C135.289 185.649 148.833 185.766 157.037 184.614C160.155 184.177 166.116 182.722 169.278 181.843C173.707 180.613 188.066 172.887 190.756 176.532C191.549 177.607 191.619 183.364 193.527 183.229C193.678 182.793 195.017 180.22 195.375 179.534C193.888 178.294 193.149 175.847 192.142 174.454C190.366 171.996 187.484 169.137 185.213 167.064C159.72 182.226 123.01 181.868 97.9149 166.141C97.8253 168.863 95.1756 169.78 93.2958 171.221Z" fill="#DFDEDE"/>
<path d="M195.375 179.535C195.017 180.22 193.678 182.793 193.527 183.23C191.246 189.823 192.25 193.258 199.07 196.161C202.169 197.48 206.006 198.084 209.232 197.547C213.895 196.77 217.876 193.203 220.779 189.695C211.196 187.211 204.63 183.522 196.761 177.688C196.606 178.407 195.432 179.426 195.375 179.535Z" fill="#4E1610"/>
<path d="M155.652 282.061C155.377 288.987 156.165 295.717 156.575 302.613C156.618 302.731 157.806 303.683 157.961 303.767C159.068 304.371 161.769 304.08 163.042 304.229C163.548 295.447 159.937 287.231 164.428 278.828L155.652 282.061Z" fill="#DFDEDE"/>
<path d="M119.623 279.293C123.82 287.818 120.091 296.082 120.547 304.694C121.554 304.576 125.013 304.113 125.628 303.77C125.794 303.678 126.975 302.731 127.014 302.616C127.903 299.935 127.653 285.268 127.475 281.602L119.623 279.293Z" fill="#DFDEDE"/>
<path d="M119.625 278.83C119.661 278.85 119.305 277.797 120.087 278.138C122.828 279.331 124.937 280.215 127.939 280.678C136.958 282.068 146.202 281.881 155.191 280.678C156.566 280.494 164.141 278.22 164.428 278.83L168.816 273.75C152.502 281.293 131.811 280.819 115.236 274.212C116.066 275.632 118.239 278.096 119.625 278.83Z" fill="#DFDEDE"/>
<path d="M119.624 278.831V279.293L127.476 281.602C127.474 281.55 128.197 281.633 127.938 280.678C124.937 280.215 122.827 279.332 120.086 278.138C119.304 277.798 119.661 278.85 119.624 278.831Z" fill="#B5B2AC"/>
<path d="M58.192 39.1365L57.9611 43.2931C58.2412 42.9255 59.5555 41.9358 59.8087 41.9075C70.3885 40.723 87.1494 56.6425 92.3725 65.2304C92.5345 67.5019 88.0737 60.9558 87.7536 60.612C83.3954 55.9327 67.3265 41.1259 60.7327 44.6786C58.6138 45.8201 61.4511 49.8768 59.116 51.1443C64.1886 62.8178 73.4814 66.3193 85.675 67.7704C90.0704 68.2936 100.479 69.9498 98.3772 62.2284C98.0289 60.9497 88.8193 49.7941 87.2917 48.3732C81.4336 42.9255 65.7925 34.4079 58.192 39.1365Z" fill="#F08079"/>
<path d="M148.724 39.597C148.023 46.1359 147.394 55.4802 152.65 60.3798C158.791 66.1048 168.048 61.9594 175.745 64.0745C177.416 64.5338 183.8 67.3233 183.366 69.6165C185.321 69.7708 187.322 70.8719 188.447 69.1547C188.355 69.0436 188.542 68.3734 188.447 68.231C187.346 66.5821 186.704 64.7865 185.675 63.1507C185.021 62.1094 184.329 60.2105 183.828 59.4559C183.025 58.2473 181.018 55.439 180.133 54.3758C179.353 53.4392 177.673 51.4217 176.899 50.681C174.98 48.8431 170.54 45.9894 168.123 44.6772C166.628 43.8653 164.072 42.4574 162.581 41.9061C158.564 40.4215 153.65 39.2379 149.416 38.6732C149.092 38.6301 149.383 39.6731 148.724 39.597Z" fill="#4E1610"/>
<path d="M94.6815 19.2755C94.4946 25.6109 93.4532 31.3037 95.6053 37.5181C97.5398 43.1042 102.913 47.0061 107.153 50.6805C109.617 48.1652 112.618 46.0487 115.467 43.9839C104.078 37.2071 98.3155 27.4239 97.4529 14.1953C95.7124 14.9926 95.2835 17.7955 94.6815 19.2755Z" fill="#FEF9AF"/>
<path d="M91.9116 31.7472C91.8913 36.1767 93.0538 43.096 95.145 46.9878C96.791 50.0511 100.026 52.7641 102.997 54.3772C104.833 53.98 105.965 51.896 107.154 50.6824C102.915 47.0082 97.5414 43.1062 95.6069 37.5199C93.4548 31.3056 94.4962 25.6128 94.6831 19.2773C92.8907 23.6827 91.934 26.8754 91.9116 31.7472Z" fill="#FCE877"/>
<path d="M59.1162 51.1406C61.4513 49.873 58.614 45.8165 60.7329 44.675C67.3267 41.1223 83.3956 55.929 87.7537 60.6083C88.0739 60.9521 92.5347 67.4983 92.3726 65.2268C87.1498 56.6388 70.3887 40.7193 59.8089 41.9039C59.5557 41.9322 58.2415 42.9219 57.9613 43.2894L58.1922 39.1328C54.2137 41.6083 57.6906 47.86 59.1162 51.1406Z" fill="#DA6563"/>
<path d="M87.2915 48.3738C88.8193 49.7945 98.0288 60.9501 98.377 62.229C99.5791 61.9339 100.561 59.995 101.148 58.9961C98.2883 57.2465 96.1381 53.9583 93.7581 51.6067C92.4669 50.331 90.9269 49.1577 89.6012 47.912C89.3127 47.6409 88.5163 47.2598 88.2155 46.9883L87.2915 48.3738Z" fill="#C6CACB"/>
<path d="M193.989 48.8331C193.999 48.9817 193.957 49.1556 193.989 49.295C194.152 49.9955 195.157 50.2302 194.913 51.1423C200.125 45.6694 207.339 39.9902 215.005 38.6727C220.2 37.78 228.256 36.4415 228.17 43.2911C228.137 45.8815 226.442 49.9629 224.936 52.066C224.911 52.2156 224.968 52.3814 224.936 52.5279C222.002 66.1961 200.589 69.7091 188.908 69.6159C190.054 70.6009 201.464 73.3359 203.689 73.3106C216.63 73.1637 230.487 61.9463 233.25 49.295C240.048 18.1757 203.617 36.5829 193.989 48.8331Z" fill="#FFFEFF"/>
<path d="M125.166 113.494C135.147 113.315 149.164 111.33 158.885 113.032C154.232 109.616 151.862 104.102 149.647 98.9458C147.549 94.0602 148.193 84.7993 140.178 86.2452C136.564 86.8972 135.396 97.2757 133.942 100.793C132.032 105.417 128.992 110.224 125.166 113.494Z" fill="#FFFEFF"/>
<path d="M121.472 115.34C117.333 117.539 111.355 118.694 106.691 118.573C98.6905 121.425 80.7686 129.639 80.8252 139.818C82.8911 138.469 83.3721 135.5 84.9822 133.583C103.38 111.683 174.464 112.28 195.606 130.119C199.441 133.355 200.854 136.462 203.228 140.742C203.595 136.661 197.746 129.33 194.683 126.886C190.191 123.305 181.993 120.135 176.438 118.573C173.987 117.885 164.791 115.627 162.581 115.34C149.28 113.617 134.853 115.465 121.472 115.34Z" fill="#FADED9"/>
<path d="M83.5974 130.12C87.9347 124.514 96.2941 121.013 102.535 118.112C96.4449 117.102 90.5193 113.82 86.8307 108.875L83.5974 130.12Z" fill="#FFFEFF"/>
<path d="M181.056 118.111C188.015 119.334 196.046 125.702 200.918 130.581C200.797 130.011 201.004 129.319 200.918 128.733C198.758 122.357 198.872 115.785 197.223 109.336C192.829 114.484 187.758 117.052 181.056 118.111Z" fill="#FFFEFF"/>
<path d="M125.167 113.49C124.861 113.496 124.548 113.488 124.243 113.49C123.055 114.44 122.835 114.613 121.471 115.338C134.853 115.462 149.28 113.615 162.58 115.338C161.649 114.974 161.279 114.367 160.732 113.952C159.754 114.282 159.626 113.244 159.347 113.028C159.201 112.996 159.034 113.054 158.885 113.028C149.164 111.327 135.147 113.311 125.167 113.49Z" fill="#F08079"/>
<path d="M188.446 68.2298C188.541 68.3722 188.354 69.0424 188.446 69.1535C188.637 69.3858 188.689 69.4275 188.908 69.6153C200.589 69.7086 222.002 66.1955 224.936 52.5273C219.205 66.2528 201.387 67.7552 188.446 68.2298Z" fill="#DFDEDE"/>
<path d="M203.689 89.0124C205.806 89.7607 207.641 88.3125 208.77 88.0887C210.263 85.9064 208.458 83.1814 205.998 83.0084C205.639 82.9832 202.522 83.7667 202.303 84.6249C201.946 86.0215 203.683 88.7824 203.689 89.0124Z" fill="#060100"/>
<path d="M127.014 184.617C115.893 204.936 101.801 237.989 119.624 258.28C130.23 270.355 145.926 272.739 159.116 263.13C184.33 244.759 169.251 206.328 157.037 184.617C148.833 185.769 135.289 185.652 127.014 184.617Z" fill="#FBB6B1"/>
<path d="M164.658 218.329C160.585 217.596 161.185 222.166 163.734 223.41C168.392 225.682 167.914 218.916 164.658 218.329Z" fill="#F08079"/>
<path d="M119.855 221.102C118.034 219.735 113.875 224.749 117.084 225.72C119.744 226.525 120.931 221.908 119.855 221.102Z" fill="#F08079"/>
<path d="M113.388 227.107C111.892 227.493 113.468 230.134 113.85 228.031C113.952 227.47 113.504 227.077 113.388 227.107Z" fill="#F39F96"/>
<path d="M195.376 179.533C195.433 179.425 196.607 178.405 196.762 177.686C196.662 177.612 196.364 177.145 195.838 176.762C194.675 175.918 193.435 175.095 192.143 174.453C193.15 175.847 193.889 178.294 195.376 179.533Z" fill="#2E1B17"/>
<path d="M220.778 189.695C217.875 193.203 213.894 196.77 209.231 197.547C212.529 202.218 212.69 207.92 214.081 213.249L250.34 212.787C249.762 209.743 247.737 206.71 247.568 202.858C247.42 199.461 248.482 196.228 248.954 192.928C239.367 192.498 230.111 192.115 220.778 189.695Z" fill="#FFFEFF"/>
<path d="M248.957 192.926C248.485 196.226 247.423 199.459 247.571 202.856C247.739 206.708 249.764 209.742 250.342 212.785C250.37 212.933 250.323 213.096 250.342 213.247C256.332 206.148 260.406 196.921 265.123 188.77L248.957 192.926Z" fill="#4E1610"/>
<path d="M155.19 280.678C154.952 281.413 155.669 281.633 155.652 282.063L164.428 278.83C164.141 278.22 156.565 280.494 155.19 280.678Z" fill="#B5B2AC"/>
<path d="M168.124 44.6767C170.541 45.989 174.981 48.8426 176.9 50.6805C186.348 43.9562 191.797 34.6547 189.833 22.7393L191.219 22.9702V22.0465C191.104 21.7955 190.895 21.3956 190.757 21.1228C189.678 18.9983 189.096 16.5529 187.524 14.6572C187.085 14.6579 187.038 14.1946 186.6 14.1953C186.094 23.8621 183.303 31.5504 176.207 38.211C173.775 40.4936 170.098 42.011 168.124 44.6767Z" fill="#FEF9AF"/>
<path d="M185.214 14.6572C184.283 16.9268 183.75 19.2694 182.905 21.5847C179.039 32.177 172.858 37.5874 162.581 41.9056C164.073 42.4569 166.629 43.8648 168.124 44.6767C170.098 42.011 173.775 40.4936 176.207 38.211C183.303 31.5506 186.093 23.8621 186.6 14.1953C185.709 14.1968 185.583 14.6565 185.214 14.6572Z" fill="#FFFEFF"/>
<path d="M194.915 51.1442C191.419 54.8145 188.691 59.1097 185.677 63.152C186.705 64.7878 187.348 66.5835 188.448 68.2323C201.389 67.7577 219.207 66.2553 224.938 52.5297C224.969 52.3834 224.912 52.2176 224.938 52.0679C225.728 47.4319 227.302 43.6226 220.55 44.2167C211.236 45.0361 197.776 58.9653 192.836 66.3849C192.438 66.0039 192.13 65.865 192.143 65.2303C192.173 63.7981 201.73 53.5471 203.46 52.0679C209.272 47.0974 220.725 39.2638 228.171 43.293C228.258 36.4433 220.201 37.782 215.007 38.6745C207.34 39.9922 200.126 45.6714 194.915 51.1442Z" fill="#F08079"/>
<path d="M176.9 50.6795C177.673 51.42 179.353 53.4376 180.133 54.3743C188.172 51.9847 191.457 43.819 192.142 36.1317C192.572 31.304 191.218 27.126 191.218 22.9692L189.833 22.7383C191.796 34.6536 186.347 43.9553 176.9 50.6795Z" fill="#FCE877"/>
<path d="M183.828 59.4573C184.329 60.2119 185.021 62.1107 185.675 63.1521C188.69 59.1099 191.418 54.8145 194.913 51.1443C195.157 50.2321 194.152 49.9974 193.989 49.2969L183.828 59.4573Z" fill="#C6CACB"/>
<path d="M224.937 52.0677C226.442 49.9646 228.137 45.8832 228.17 43.2928C220.724 39.2637 209.271 47.0972 203.458 52.0677C201.729 53.547 192.172 63.7978 192.142 65.2302C192.129 65.8648 192.436 66.0037 192.835 66.3848C197.775 58.9653 211.235 45.036 220.549 44.2165C227.301 43.6224 225.726 47.4318 224.937 52.0677Z" fill="#DA6563"/>
<path d="M332.559 71.9291C310.687 111.222 287.639 149.859 265.122 188.774C260.406 196.925 256.331 206.153 250.341 213.252C250.604 215.31 250.455 214.06 249.879 215.561C248.274 219.746 244.073 225.008 242.027 229.416C240.794 232.073 237.459 237.239 242.72 238.653C248.371 240.172 250.901 231.211 253.113 227.107C255.654 222.392 257.985 217.529 260.503 212.79C264.186 205.858 267.907 198.931 271.588 192.007C289.955 157.466 308.631 123.057 327.016 88.5552C329.906 83.1316 332.618 77.4517 335.33 71.9291C334.443 71.8366 333.416 72.0643 332.559 71.9291Z" fill="#E7AE7A"/>
<path d="M264.891 195.703C262.842 195.876 247.871 227.782 243.874 231.034C243.879 231.402 246.251 233.113 246.415 233.112C248.467 233.096 263.174 200.921 266.507 197.32C266.765 196.671 265.005 195.694 264.891 195.703Z" fill="#E7AE7A"/>
<path d="M260.501 212.787C263.974 211.062 272.189 203.912 272.973 200.317C273.533 197.742 272.997 194.185 271.587 192.004C267.905 198.928 264.184 205.855 260.501 212.787Z" fill="#4E1610"/>
<path d="M183.365 69.6181C175.455 68.9939 156.996 68.3465 150.801 73.3129C148.862 74.8676 147.009 79.6578 146.644 79.7785C146.312 79.8884 141.817 78.8002 139.716 78.8549C139.581 78.8584 137.721 79.9234 137.406 79.7785C137.097 79.636 136.082 75.4716 134.173 73.7747C126.373 66.8388 89.6599 68.6964 80.824 73.7747C76.5491 76.2316 78.488 79.3535 78.0526 83.4733C83.6401 82.6341 82.6872 88.1783 79.9002 89.0155L82.2097 100.331C83.6336 103.288 84.8466 106.218 86.8287 108.875C90.5172 113.819 96.4429 117.101 102.533 118.111C103.514 118.274 105.719 118.548 106.69 118.573C111.354 118.694 117.332 117.539 121.471 115.34C122.835 114.616 123.055 114.443 124.242 113.493L123.318 113.262L129.554 106.565C129.191 108.562 125.835 112.218 124.242 113.493C124.548 113.49 124.861 113.498 125.166 113.493C128.992 110.223 132.031 105.416 133.942 100.792C135.396 97.2747 136.564 86.8962 140.178 86.2442C148.193 84.7982 147.548 94.0593 149.647 98.9448C151.861 104.101 154.232 109.615 158.884 113.031C159.034 113.057 159.2 112.999 159.346 113.031C157.916 111.923 154.961 108.484 154.496 106.565L161.656 113.262L160.732 113.955C161.279 114.37 161.648 114.977 162.58 115.34C164.79 115.627 173.986 117.884 176.437 118.573C177.333 117.877 180.04 117.933 181.055 118.111C187.757 117.052 192.829 114.485 197.222 109.336C197.781 108.68 198.168 107.8 199.069 107.489C199.308 102.629 203.869 96.6084 203.688 89.0155C203.683 88.7855 201.946 86.0246 202.303 84.6279C202.522 83.7698 205.638 82.9862 205.998 83.0115C206.365 81.5578 206.871 78.0331 206.46 76.7767C206.067 75.5772 202.466 75.2219 203.688 73.3129C201.463 73.3381 190.053 70.6031 188.908 69.6181C188.689 69.4302 188.637 69.3885 188.446 69.1562C187.321 70.8734 185.32 69.7725 183.365 69.6181Z" fill="#21201F"/>
<path d="M92.8324 108.412C92.4933 108.135 91.8163 106.954 91.4468 106.564C90.7845 105.866 89.6966 105.334 89.1372 104.486C88.5273 103.561 88.4668 102.485 88.2134 101.946C84.1773 93.3609 84.1716 82.0349 93.7561 77.4683C103.194 72.9715 116.45 74.6834 126.551 75.6209C118.774 71.6604 91.5434 72.9966 86.3658 81.3938C82.8766 87.0529 84.2303 93.8407 85.442 99.8673C85.489 100.101 84.206 99.8082 84.5182 101.253C84.634 101.789 88.7444 105.045 87.9825 107.026C90.4562 104.186 90.0673 107.947 92.8324 108.412Z" fill="#060100"/>
<path d="M191.218 77.9297L194.914 98.2506C197.145 100.41 195.175 100.224 195.838 102.869C196.592 101.552 197.27 100.71 197.685 99.1743C199.874 91.0716 199.094 82.3114 191.218 77.9297Z" fill="#99C5D9"/>
<path d="M161.194 75.1593C166.805 73.9059 176.686 74.348 182.441 75.1593C186.249 75.696 187.822 76.0414 191.217 77.9304C199.092 82.3121 199.872 91.0723 197.683 99.175C203.169 93.2478 199.375 80.071 192.372 76.5448C186.785 73.7321 170.03 73.0741 163.734 73.7737C163.393 73.8118 160.805 74.256 161.194 75.1593Z" fill="#060100"/>
<path d="M190.986 71.4635C189.46 71.3299 186.801 71.1862 185.444 71.9253C190.91 72.0285 196.123 73.14 201.379 74.4655L198.377 72.849C195.909 72.8534 193.371 71.6722 190.986 71.4635Z" fill="#6E6D6B"/>
<path d="M159.347 113.032C160.704 113.333 160.255 113.594 160.732 113.956L161.656 113.263L154.497 106.566C154.961 108.485 157.916 111.924 159.347 113.032Z" fill="#828086"/>
<path d="M124.243 113.494C125.836 112.219 129.192 108.563 129.555 106.566L123.319 113.263L124.243 113.494Z" fill="#9DA09E"/>
<path d="M199.764 100.562C198.454 103.067 196.127 105.606 195.607 108.414C197.198 106.242 199.535 103.345 199.764 100.562Z" fill="#606061"/>
<path d="M203.457 75.1593C203.161 75.0815 202.425 75.0697 202.302 75.3903L204.381 76.5449C204.791 76.2095 203.537 75.1805 203.457 75.1593Z" fill="#6E6D6B"/>
<path d="M80.1309 75.6211L79.669 76.0829V76.5448H80.1309V75.6211Z" fill="#77766B"/>
<path d="M88.215 101.946L92.834 82.5491C93.0423 80.8539 93.498 79.1699 93.7578 77.4688C84.1732 82.0353 84.1788 93.3614 88.215 101.946Z" fill="#99C5D9"/>
<path d="M88.215 101.948C88.4683 102.487 88.5288 103.563 89.1387 104.488C89.6982 105.337 90.786 105.869 91.4483 106.566C91.2741 98.5371 91.8554 90.5167 92.834 82.5508L88.215 101.948Z" fill="#C6DCE3"/>
<path d="M182.441 75.1602C183.389 81.3564 185.805 89.4489 189.831 94.3265C191.537 96.3924 193.833 97.2078 194.912 98.2521L191.217 77.9312C187.822 76.0423 186.249 75.6968 182.441 75.1602Z" fill="#C6DCE3"/>
<path d="M159.347 113.031C159.626 113.247 159.754 114.285 160.732 113.955C160.255 113.593 160.704 113.332 159.347 113.031Z" fill="#27221A"/>
<path d="M93.7575 77.4697C93.4976 79.1709 93.042 80.8549 92.8337 82.55C91.8551 90.5158 91.2738 98.5363 91.448 106.566C91.8174 106.955 92.4945 108.136 92.8337 108.413C109.851 122.304 130.134 109.735 131.633 89.2468C132.069 83.2799 132.428 78.6152 126.552 75.6225C116.452 74.6848 103.196 72.9728 93.7575 77.4697Z" fill="#FFFEFF"/>
<path d="M118.237 100.562C118.619 99.6998 118.554 99.54 118.699 98.7149C118.97 97.173 118.332 96.0907 118.237 95.0202C117.507 94.9325 115.638 93.1174 115.466 92.7109C110.119 95.37 112.391 102.523 118.237 100.562Z" fill="#23535E"/>
<path d="M113.388 77.4694C110.063 76.9307 106.624 79.9249 106.228 83.2424C109.88 80.0279 112.647 79.1672 117.083 81.626C117.14 80.0077 114.817 77.7007 113.388 77.4694Z" fill="#060100"/>
<path d="M118.237 100.559C112.391 102.519 110.119 95.3666 115.466 92.7078C114.177 89.6687 117.017 88.3285 118.237 90.6295C118.808 91.705 118.178 94.3435 118.237 95.0171C118.332 96.0874 118.97 97.1699 118.699 98.7118C123.801 83.5798 105.614 83.5233 108.537 98.4809C109.48 103.303 116.029 105.552 118.237 100.559Z" fill="#0D6A93"/>
<path d="M112.462 89.0146C110.18 88.7941 109.698 94.0491 111.539 94.5565C114.226 95.2975 114.905 89.2505 112.462 89.0146Z" fill="#BCEAFA"/>
<path d="M115.466 92.7083C115.639 93.1147 117.508 94.9299 118.238 95.0175C118.178 94.3441 118.808 91.7055 118.238 90.63C117.018 88.329 114.177 89.6692 115.466 92.7083Z" fill="#7ECBE4"/>
<path d="M161.194 75.1618C152.037 77.2071 152.18 81.1118 152.88 89.7098C154.953 115.14 184.366 122.882 195.837 102.872C195.174 100.227 197.144 100.414 194.913 98.2538C193.834 97.2095 191.538 96.3942 189.832 94.3281C185.806 89.4506 183.39 81.3581 182.442 75.1618C176.687 74.3505 166.806 73.9085 161.194 75.1618Z" fill="#FFFEFF"/>
<path d="M164.428 96.4071L167.43 92.7124C167.754 93.3411 168.285 93.0607 168.585 93.1742C169.67 86.1049 175.033 92.3702 169.971 94.5598C172.481 97.5353 170.575 101.266 166.276 101.025C169.454 105.333 174.575 103.251 175.514 98.4853C178.134 85.1835 162.493 82.1789 164.428 96.4071Z" fill="#137BA7"/>
<path d="M164.427 96.4056C164.607 97.7248 165.45 99.9055 166.275 101.024C170.575 101.265 172.48 97.5337 169.97 94.5583C169.833 94.3953 168.676 93.2075 168.585 93.1728C168.285 93.0593 167.754 93.3397 167.43 92.7109L164.427 96.4056Z" fill="#2A6672"/>
<path d="M174.359 77.4708C171.388 76.654 167.998 78.3393 167.199 81.3965C171.366 79.0244 174.91 79.0285 178.054 83.0129C178.396 81.3893 175.534 77.7939 174.359 77.4708Z" fill="#091218"/>
<path d="M168.585 93.1729C168.677 93.2076 169.833 94.3954 169.971 94.5584C175.033 92.3689 169.67 86.1036 168.585 93.1729Z" fill="#DCF3FA"/>
<path d="M80.824 139.814C80.8662 147.416 95.599 159.38 101.84 162.906C126.725 176.963 155.175 177.063 180.363 163.83C186.717 160.492 202.554 148.2 203.227 140.738C200.853 136.458 199.44 133.351 195.605 130.116C174.463 112.276 103.379 111.679 84.9811 133.579C83.3709 135.496 82.89 138.465 80.824 139.814Z" fill="#FBB6B1"/>
<path d="M115.696 124.113C107.364 123.304 109.119 136.681 110.615 136.583C112.924 128.109 119.305 136.352 121.239 136.121C124.986 135.674 121.713 124.698 115.696 124.113Z" fill="#852C27"/>
<path d="M162.117 135.198C162.178 135.246 162.086 136.322 162.81 136.583C166.92 134.131 171.709 129.597 173.896 136.583C176.147 132.835 175.389 128.414 172.741 125.037C166.354 122.381 160.458 128.985 162.117 135.198Z" fill="#852C27"/>
<path d="M162.119 135.196C160.459 128.983 166.355 122.379 172.742 125.035C170.733 122.474 171.539 121.73 167.43 122.264C161.956 122.976 158.567 130.699 161.195 135.427C161.496 135.969 161.851 134.98 162.119 135.196Z" fill="#FBB6B1"/>
<path d="M125.166 154.595C125.111 155.011 125.671 155.095 125.628 155.518C136.104 158.589 147.916 157.838 158.422 155.056C158.487 154.595 158.903 154.539 158.884 154.133C149.575 156.716 134.383 157.349 125.166 154.595Z" fill="#F08079"/>
<path d="M125.629 155.517C125.285 158.895 127.993 160.321 131.403 161.521C137.355 163.614 152.659 163.81 157.269 158.749C158.954 156.9 158.125 157.181 158.424 155.055C147.918 157.836 136.105 158.587 125.629 155.517Z" fill="#FFFEFF"/>
<path d="M158.884 154.133C158.903 154.54 158.487 154.596 158.422 155.057C158.123 157.183 158.952 156.903 157.267 158.752C152.657 163.812 137.353 163.616 131.401 161.523C127.992 160.324 125.284 158.897 125.628 155.519C125.671 155.096 125.111 155.011 125.166 154.595C122.192 153.707 118.194 150.66 116.39 150.208C115.707 150.037 115.41 149.658 115.466 150.67C126.855 179.242 158.076 178.546 168.584 149.746C165.359 151.255 162.371 153.166 158.884 154.133Z" fill="#4E1610"/>
<path d="M135.328 164.757C131.337 165.227 129.129 167.74 134.174 169.375C139.076 170.964 146.379 170.049 151.264 168.451C153.053 166.829 151.082 165.939 149.647 165.218C147.658 165.382 143.255 166.264 141.564 166.142C140.354 166.055 138.608 164.37 135.328 164.757Z" fill="#FF585D"/>
<path d="M135.328 164.754C138.608 164.368 140.354 166.052 141.563 166.14C143.254 166.262 147.657 165.379 149.646 165.216C146.179 163.475 139.375 164.232 135.328 164.754Z" fill="#DB0C12"/>
</g>
<defs>
<filter id="filter0_d_4772_62206" x="0.601954" y="0.6" width="352.128" height="343.038" filterUnits="userSpaceOnUse" color-interpolation-filters="sRGB">
<feFlood flood-opacity="0" result="BackgroundImageFix"/>
<feColorMatrix in="SourceAlpha" type="matrix" values="0 0 0 0 0 0 0 0 0 0 0 0 0 0 0 0 0 0 127 0" result="hardAlpha"/>
<feOffset dy="4"/>
<feGaussianBlur stdDeviation="8.7"/>
<feComposite in2="hardAlpha" operator="out"/>
<feColorMatrix type="matrix" values="0 0 0 0 0 0 0 0 0 0 0 0 0 0 0 0 0 0 0.25 0"/>
<feBlend mode="normal" in2="BackgroundImageFix" result="effect1_dropShadow_4772_62206"/>
<feBlend mode="normal" in="SourceGraphic" in2="effect1_dropShadow_4772_62206" result="shape"/>
</filter>
</defs>
</svg>
