<svg width="173" height="273" viewBox="0 0 173 273" fill="none" xmlns="http://www.w3.org/2000/svg">
<path d="M70.5791 212.094L70.8067 221.061L50.2392 229.131C50.2392 229.131 48.8213 221.555 48.8213 221.342C48.8213 221.299 49.7822 220.864 51.3012 220.205C52.3687 219.742 53.7125 219.168 55.19 218.542C60.6105 216.243 67.8445 213.23 69.9687 212.348C70.3605 212.184 70.5791 212.094 70.5791 212.094Z" fill="#603813"/>
<path d="M120.852 112.147C123.05 112.411 124.551 114.951 124.206 117.819C123.863 120.688 121.8 122.801 119.604 122.537C117.405 122.274 115.902 119.736 116.248 116.865C116.592 113.996 118.653 111.884 120.852 112.147ZM122.817 119.212C123.252 117.47 122.665 115.824 121.507 115.537C120.349 115.249 119.06 116.429 118.626 118.171C118.191 119.912 118.778 121.558 119.936 121.846C121.094 122.133 122.383 120.955 122.817 119.212Z" fill="url(#paint0_linear_4087_45760)"/>
<path d="M131.671 247.802C133.304 242.815 134.686 238.564 134.664 238.232C134.751 238.204 134.837 238.177 134.926 238.15C136.801 237.597 138.984 237.581 141.383 238.692C142.837 239.365 144.011 240.224 144.851 241.303C144.736 241.267 140.908 240.12 137.558 245.489C134.155 250.941 125.815 266.442 126.726 271.647C126.086 271.416 125.443 271.063 124.82 270.541V270.539C124.204 268.264 126.996 262.195 129.357 254.897C130.105 252.585 130.916 250.115 131.671 247.802Z" fill="#E6E6E6"/>
<path d="M126.569 242.336L128.059 243.362C124.728 244.212 122.673 248.53 121.397 250.655C120.122 252.778 119.342 250.655 119.342 250.655C119.824 244.992 126.569 242.336 126.569 242.336Z" fill="#F2F2F2"/>
<path d="M100.205 142.775C101.196 144.619 98.5031 150.703 92.0892 149.003C85.6753 147.304 85.9589 141.57 85.9589 141.57C86.9523 141.57 88.2474 137.969 88.2474 137.969C90.442 139.472 93.1585 140.818 96.52 141.853C97.7698 142.237 98.9997 142.542 100.205 142.775Z" fill="#FFD5C5"/>
<mask id="mask0_4087_45760" style="mask-type:luminance" maskUnits="userSpaceOnUse" x="85" y="137" width="16" height="13">
<path d="M100.205 142.775C101.196 144.619 98.5031 150.703 92.0892 149.003C85.6753 147.304 85.9589 141.57 85.9589 141.57C86.9523 141.57 88.2474 137.969 88.2474 137.969C90.442 139.472 93.1585 140.818 96.52 141.853C97.7698 142.237 98.9997 142.542 100.205 142.775Z" fill="white"/>
</mask>
<g mask="url(#mask0_4087_45760)">
<path d="M85.2656 138.897C85.2656 138.897 92.4231 147.52 100.493 143.638L100.877 142.336L86.3281 136.391L85.2656 138.897Z" fill="#FFC5B3"/>
</g>
<path d="M70.4361 200.589L75.116 211.679L70.5787 212.094C70.5787 212.094 70.3601 212.184 69.9682 212.348L68.4294 208.02L63.4731 194.087L61.8619 189.556C61.8619 189.556 55.038 215.953 55.1896 218.542C53.712 219.168 52.3683 219.742 51.3008 220.206C51.8679 209.373 60.444 185.026 60.444 185.026C60.444 185.026 60.2291 177.804 59.978 169.166C59.8227 163.775 59.6529 157.83 59.5138 152.746C59.3242 145.755 59.1922 140.39 59.232 140.316C59.5698 139.661 59.7667 138.876 59.6637 137.958C59.2917 134.656 62.2683 136.514 62.1365 136.993C62.075 137.213 62.5175 137.572 63.072 137.714V137.716L63.2003 146.636L63.3104 154.248L63.5217 168.798L63.7511 184.743L65.393 188.633L70.4361 200.589Z" fill="#B3B3B3"/>
<path d="M131.71 134.974C131.938 134.75 132.192 134.543 132.465 134.355C133.607 133.571 135.079 133.121 136.35 133.141C136.634 133.145 136.909 133.172 137.167 133.224C140.068 133.814 140.102 137.54 140.091 138.094C138.247 136.953 135.328 137.473 135.328 137.473C135.328 137.473 132.738 138.11 131.296 139.616C130.05 137.773 130.527 136.14 131.71 134.974Z" fill="#FFD5C5"/>
<path d="M132.737 38.1313L132.59 46.4466L132.592 46.4484C132.245 46.9428 131.707 47.3397 130.824 47.4768C130.072 47.5941 129.44 47.493 128.909 47.2639V38.1312C128.909 37.0757 129.767 36.2188 130.824 36.2188C131.351 36.2188 131.83 36.4335 132.177 36.7799C132.521 37.1263 132.737 37.6027 132.737 38.1313Z" fill="#B3B3B3"/>
<path d="M132.648 146.011V146.005C132.287 145.973 131.983 145.807 131.745 145.423C130.566 143.517 132.33 142.301 132.458 142.215C131.194 142.657 130.275 142.758 130.363 141.558C130.419 140.793 130.786 140.147 131.297 139.613C132.739 138.107 135.329 137.47 135.329 137.47C135.329 137.47 138.248 136.95 140.092 138.09C140.818 138.536 141.376 139.241 141.526 140.337C142.057 144.212 141.672 154.052 136.622 156.919L136.396 149.646C135.836 149.46 134.966 149.388 133.765 149.287C133.615 149.274 133.477 149.253 133.353 149.224C131.174 148.731 132.648 146.011 132.648 146.011Z" fill="#FFD5C5"/>
<path d="M63.4738 194.094L68.4301 208.027C63.6942 208.989 61.738 207.564 61.7921 206.873C61.8446 206.182 63.4738 194.094 63.4738 194.094Z" fill="#AB211F"/>
<path d="M131.962 117.631C132.419 118.174 132.634 119.075 132.313 120.536C132.204 121.028 132.069 121.497 131.913 121.94C130.55 125.831 127.602 127.776 126.679 126.762C126.303 122.077 127.392 119.773 128.606 117.007C128.682 116.987 130.936 116.405 131.962 117.631Z" fill="#FFD5C5"/>
<path d="M114.947 127.962C114.704 128 114.461 128.034 114.223 128.064C108.456 128.806 103.964 127.361 100.877 125.69C97.6436 123.938 95.9529 121.939 95.9529 121.939C95.9529 121.939 95.8373 125.88 97.1939 129.654C97.1939 129.654 97.1939 129.654 97.1957 129.654C98.1133 132.214 99.7081 134.698 102.474 135.826C103.792 136.364 105.082 136.373 106.301 136.041V136.039C111.183 134.716 114.947 127.962 114.947 127.962ZM119.602 122.54C122.324 122.867 124.865 120.332 125.279 116.881C125.694 113.427 123.825 110.366 121.105 110.039C118.385 109.713 115.843 112.247 115.428 115.699C115.012 119.152 116.882 122.214 119.602 122.54ZM100.205 142.767C99 142.534 97.77 142.229 96.5201 141.845C93.1588 140.809 90.4421 139.463 88.2474 137.96C85.6139 136.155 83.73 134.125 82.3844 132.135C82.3807 132.128 82.3791 132.124 82.3791 132.124C78.9201 127.004 79.0141 122.163 79.0141 122.163C79.0141 122.163 70.8626 124.429 69.0202 117.207C67.1777 109.987 75.1866 101.917 80.0761 116.5C80.0761 116.5 79.8649 110.624 80.3597 108.5C80.8564 106.377 90.5721 96.342 88.7623 90.6698H88.7641C90.6425 93.1757 91.1339 98.6063 91.1339 98.6063C93.072 94.1429 92.9059 90.0203 92.0839 86.7675L92.0894 86.7656C96.13 94.731 111.12 96.9608 111.12 96.9608C109.989 95.6041 106.373 92.113 102.591 88.5481L102.593 88.5462C105.916 91.7071 116.667 98.4529 120.373 100.746C118.289 101.275 119.342 102.624 119.342 102.624C125.721 101.634 126.679 106.73 126.679 106.73C126.926 101.987 121.71 100.746 121.71 100.746H121.692C121.775 98.7506 121.569 96.8454 121.168 95.0611H121.17C121.17 95.0611 132.17 100.784 130.895 109.42C130.387 112.855 129.466 115.046 128.606 117.007C127.392 119.773 126.303 122.076 126.679 126.762C126.706 127.103 126.74 127.458 126.784 127.826C127.739 135.907 116.846 145.188 101.765 143.026C101.251 142.954 100.73 142.868 100.205 142.767ZM102.829 110.707C103.247 107.226 101.01 104.098 97.8333 103.717C94.6562 103.337 91.7409 105.848 91.3237 109.326C90.9046 112.807 93.1426 115.935 96.3196 116.316C99.4968 116.698 102.41 114.185 102.829 110.707ZM102.757 98.1641C102.757 98.1641 103.51 95.9703 99.8742 95.6149C96.2365 95.2614 92.1959 98.3771 92.0893 99.8638C92.0894 99.8636 97.7249 96.1814 102.757 98.1641Z" fill="#FFD5C5"/>
<mask id="mask1_4087_45760" style="mask-type:luminance" maskUnits="userSpaceOnUse" x="68" y="86" width="63" height="58">
<path d="M114.947 127.962C114.704 128 114.461 128.034 114.223 128.064C108.456 128.806 103.964 127.361 100.877 125.69C97.6436 123.938 95.9529 121.939 95.9529 121.939C95.9529 121.939 95.8373 125.88 97.1939 129.654C97.1939 129.654 97.1939 129.654 97.1957 129.654C98.1133 132.214 99.7081 134.698 102.474 135.826C103.792 136.364 105.082 136.373 106.301 136.041V136.039C111.183 134.716 114.947 127.962 114.947 127.962ZM119.602 122.54C122.324 122.867 124.865 120.332 125.279 116.881C125.694 113.427 123.825 110.366 121.105 110.039C118.385 109.713 115.843 112.247 115.428 115.699C115.012 119.152 116.882 122.214 119.602 122.54ZM100.205 142.767C99 142.534 97.77 142.229 96.5201 141.845C93.1588 140.809 90.4421 139.463 88.2474 137.96C85.6139 136.155 83.73 134.125 82.3844 132.135C82.3807 132.128 82.3791 132.124 82.3791 132.124C78.9201 127.004 79.0141 122.163 79.0141 122.163C79.0141 122.163 70.8626 124.429 69.0202 117.207C67.1777 109.987 75.1866 101.917 80.0761 116.5C80.0761 116.5 79.8649 110.624 80.3597 108.5C80.8564 106.377 90.5721 96.342 88.7623 90.6698H88.7641C90.6425 93.1757 91.1339 98.6063 91.1339 98.6063C93.072 94.1429 92.9059 90.0203 92.0839 86.7675L92.0894 86.7656C96.13 94.731 111.12 96.9608 111.12 96.9608C109.989 95.6041 106.373 92.113 102.591 88.5481L102.593 88.5462C105.916 91.7071 116.667 98.4529 120.373 100.746C118.289 101.275 119.342 102.624 119.342 102.624C125.721 101.634 126.679 106.73 126.679 106.73C126.926 101.987 121.71 100.746 121.71 100.746H121.692C121.775 98.7506 121.569 96.8454 121.168 95.0611H121.17C121.17 95.0611 132.17 100.784 130.895 109.42C130.387 112.855 129.466 115.046 128.606 117.007C127.392 119.773 126.303 122.076 126.679 126.762C126.706 127.103 126.74 127.458 126.784 127.826C127.739 135.907 116.846 145.188 101.765 143.026C101.251 142.954 100.73 142.868 100.205 142.767ZM102.829 110.707C103.247 107.226 101.01 104.098 97.8333 103.717C94.6562 103.337 91.7409 105.848 91.3237 109.326C90.9046 112.807 93.1426 115.935 96.3196 116.316C99.4968 116.698 102.41 114.185 102.829 110.707ZM102.757 98.1641C102.757 98.1641 103.51 95.9703 99.8742 95.6149C96.2365 95.2614 92.1959 98.3771 92.0893 99.8638C92.0894 99.8636 97.7249 96.1814 102.757 98.1641Z" fill="white"/>
</mask>
<g mask="url(#mask1_4087_45760)">
<path d="M91.1824 90.6407C91.1824 90.6407 63.089 144.592 114.947 144.117C114.947 144.117 72.7241 146.526 80.042 115.053L78.8682 109.25C78.868 109.25 88.8245 85.7402 91.1824 90.6407Z" fill="#FFC5B3"/>
</g>
<mask id="mask2_4087_45760" style="mask-type:luminance" maskUnits="userSpaceOnUse" x="68" y="86" width="63" height="58">
<path d="M114.947 127.962C114.704 128 114.461 128.034 114.223 128.064C108.456 128.806 103.964 127.361 100.877 125.69C97.6436 123.938 95.9529 121.939 95.9529 121.939C95.9529 121.939 95.8373 125.88 97.1939 129.654C97.1939 129.654 97.1939 129.654 97.1957 129.654C98.1133 132.214 99.7081 134.698 102.474 135.826C103.792 136.364 105.082 136.373 106.301 136.041V136.039C111.183 134.716 114.947 127.962 114.947 127.962ZM119.602 122.54C122.324 122.867 124.865 120.332 125.279 116.881C125.694 113.427 123.825 110.366 121.105 110.039C118.385 109.713 115.843 112.247 115.428 115.699C115.012 119.152 116.882 122.214 119.602 122.54ZM100.205 142.767C99 142.534 97.77 142.229 96.5201 141.845C93.1588 140.809 90.4421 139.463 88.2474 137.96C85.6139 136.155 83.73 134.125 82.3844 132.135C82.3807 132.128 82.3791 132.124 82.3791 132.124C78.9201 127.004 79.0141 122.163 79.0141 122.163C79.0141 122.163 70.8626 124.429 69.0202 117.207C67.1777 109.987 75.1866 101.917 80.0761 116.5C80.0761 116.5 79.8649 110.624 80.3597 108.5C80.8564 106.377 90.5721 96.342 88.7623 90.6698H88.7641C90.6425 93.1757 91.1339 98.6063 91.1339 98.6063C93.072 94.1429 92.9059 90.0203 92.0839 86.7675L92.0894 86.7656C96.13 94.731 111.12 96.9608 111.12 96.9608C109.989 95.6041 106.373 92.113 102.591 88.5481L102.593 88.5462C105.916 91.7071 116.667 98.4529 120.373 100.746C118.289 101.275 119.342 102.624 119.342 102.624C125.721 101.634 126.679 106.73 126.679 106.73C126.926 101.987 121.71 100.746 121.71 100.746H121.692C121.775 98.7506 121.569 96.8454 121.168 95.0611H121.17C121.17 95.0611 132.17 100.784 130.895 109.42C130.387 112.855 129.466 115.046 128.606 117.007C127.392 119.773 126.303 122.076 126.679 126.762C126.706 127.103 126.74 127.458 126.784 127.826C127.739 135.907 116.846 145.188 101.765 143.026C101.251 142.954 100.73 142.868 100.205 142.767ZM102.829 110.707C103.247 107.226 101.01 104.098 97.8333 103.717C94.6562 103.337 91.7409 105.848 91.3237 109.326C90.9046 112.807 93.1426 115.935 96.3196 116.316C99.4968 116.698 102.41 114.185 102.829 110.707ZM102.757 98.1641C102.757 98.1641 103.51 95.9703 99.8742 95.6149C96.2365 95.2614 92.1959 98.3771 92.0893 99.8638C92.0894 99.8636 97.7249 96.1814 102.757 98.1641Z" fill="white"/>
</mask>
<g mask="url(#mask2_4087_45760)">
<path d="M120.449 94.9792C120.449 94.9792 131.291 101.619 129.584 109.919C127.877 118.22 125.472 121.17 126.026 124.336C127.147 130.733 125.234 138.39 111.91 142.913L116.803 142.131L127.362 134.358L127.976 126.798V121.296C127.976 121.296 131.952 113.114 131.76 112.537C131.568 111.96 132.123 106.13 131.76 105.187C131.396 104.244 125.296 93.7744 120.449 94.9792Z" fill="#FFE8E1"/>
</g>
<path d="M121.71 100.75C121.71 100.75 126.927 101.991 126.679 106.734C126.679 106.734 125.722 101.638 119.342 102.628C119.342 102.628 118.289 101.279 120.374 100.75H120.375C121.174 101.244 121.645 101.531 121.645 101.531C121.665 101.27 121.681 101.008 121.692 100.75H121.71Z" fill="#333333"/>
<path d="M152.441 219.367L147.593 222.669C146.953 222.263 146.238 221.98 145.423 221.859C145.447 221.844 145.409 221.637 144.229 219.806L152.441 219.367Z" fill="#472D0D"/>
<path d="M126.003 241.938C119.838 242.928 118.137 250.646 118.137 250.646C117.497 250.365 116.896 250.013 116.338 249.623C113.802 247.857 112.184 245.337 112.184 245.337C115.657 236.415 123.949 237.124 124.798 237.407C125.337 237.586 125.676 239.356 125.853 240.63C125.956 241.368 126.003 241.938 126.003 241.938Z" fill="#FFD5C5"/>
<mask id="mask3_4087_45760" style="mask-type:luminance" maskUnits="userSpaceOnUse" x="112" y="237" width="15" height="14">
<path d="M126.002 241.93C119.837 242.92 118.136 250.639 118.136 250.639C117.496 250.357 116.895 250.005 116.337 249.616C113.801 247.849 112.183 245.329 112.183 245.329C115.656 236.407 123.948 237.116 124.797 237.4C125.336 237.578 125.675 239.348 125.852 240.622C125.955 241.36 126.002 241.93 126.002 241.93Z" fill="white"/>
</mask>
<g mask="url(#mask3_4087_45760)">
<path d="M112.854 241.07C112.854 241.07 118.381 249.379 121.353 247.787C124.324 246.195 116.202 254.38 116.202 254.38L110.15 243.965L112.854 241.07Z" fill="#FFC5B3"/>
</g>
<path d="M94.6562 221.381L70.8067 221.062L70.5791 212.095L75.1164 211.68C75.3276 211.433 81.9205 211.68 81.9205 211.68C81.9205 211.68 90.567 219.088 94.6562 221.381Z" fill="#754C24"/>
<path d="M133.353 149.228L133.34 149.291C133.356 149.291 133.537 155.9 133.741 163.576C131.745 167.463 126.5 177.597 121.327 178.161C116.152 178.728 111.465 173.406 111.465 173.406C118.619 168.648 120.353 160.676 120.353 160.676C120.353 160.676 128.037 153.773 129.572 150.269C129.572 150.269 123.576 134.279 131.711 134.975C130.528 136.141 130.051 137.774 131.297 139.617C130.786 140.151 130.419 140.797 130.363 141.562C130.275 142.762 131.194 142.661 132.458 142.219C132.33 142.306 130.566 143.522 131.745 145.427C131.983 145.811 132.287 145.977 132.648 146.01V146.015C132.648 146.015 131.174 148.735 133.353 149.228Z" fill="#FFD5C5"/>
<mask id="mask4_4087_45760" style="mask-type:luminance" maskUnits="userSpaceOnUse" x="111" y="134" width="23" height="45">
<path d="M133.354 149.228L133.341 149.291C133.357 149.291 133.538 155.9 133.742 163.576C131.746 167.463 126.501 177.597 121.328 178.161C116.153 178.728 111.466 173.406 111.466 173.406C118.62 168.648 120.354 160.676 120.354 160.676C120.354 160.676 128.038 153.773 129.573 150.269C129.573 150.269 123.577 134.279 131.712 134.975C130.529 136.141 130.052 137.774 131.298 139.617C130.787 140.151 130.42 140.797 130.364 141.562C130.276 142.762 131.195 142.661 132.459 142.219C132.331 142.306 130.566 143.522 131.746 145.427C131.984 145.811 132.288 145.977 132.649 146.01V146.015C132.649 146.015 131.175 148.735 133.354 149.228Z" fill="white"/>
</mask>
<g mask="url(#mask4_4087_45760)">
<path d="M113.046 169.65C113.434 169.235 128.032 176.38 134.832 153.516V166.727L129.123 178.122L123.169 183.511C123.169 183.511 108.387 177.236 107.627 176.18C106.867 175.124 113.046 169.65 113.046 169.65Z" fill="#FFC5B3"/>
</g>
<path d="M147.593 222.664C149.054 223.597 150.107 225.176 150.987 226.936C152.689 230.335 148.755 232.352 148.755 232.352L148.224 230.442C141.633 226.832 135.042 237.769 135.042 237.769C134.973 237.799 134.904 237.825 134.832 237.843C132.482 238.469 128.875 232.565 128.875 232.565C129.032 232.241 129.195 231.927 129.357 231.624C132.934 224.984 137.796 223.375 142.27 222.123C143.458 221.791 144.497 221.719 145.411 221.852C145.411 221.852 145.418 221.858 145.424 221.854C146.238 221.975 146.954 222.258 147.593 222.664Z" fill="#1F4774"/>
<mask id="mask5_4087_45760" style="mask-type:luminance" maskUnits="userSpaceOnUse" x="128" y="221" width="24" height="17">
<path d="M147.593 222.664C149.054 223.597 150.107 225.176 150.987 226.936C152.689 230.335 148.755 232.352 148.755 232.352L148.224 230.442C141.633 226.832 135.042 237.769 135.042 237.769C134.973 237.799 134.904 237.825 134.832 237.843C132.482 238.469 128.875 232.565 128.875 232.565C129.032 232.241 129.195 231.927 129.357 231.624C132.934 224.984 137.796 223.375 142.27 222.123C143.458 221.791 144.497 221.719 145.411 221.852C145.411 221.852 145.418 221.858 145.424 221.854C146.238 221.975 146.954 222.258 147.593 222.664Z" fill="white"/>
</mask>
<g mask="url(#mask5_4087_45760)">
<path d="M135.327 222.93C135.327 222.93 130.287 233.483 132.555 233.965C134.824 234.447 145.261 219.756 151.08 231.359L149.352 233.644L144.23 233.399L134.754 238.227L129.352 237.916L126.1 232.018L135.327 222.93Z" fill="#183E68"/>
</g>
<path d="M97.3332 115.69C98.491 115.979 99.7806 114.799 100.214 113.056C100.648 111.315 100.062 109.67 98.9047 109.381C97.7469 109.094 96.4573 110.272 96.0238 112.015C95.5884 113.758 96.1756 115.403 97.3332 115.69ZM101.435 111.546C101.09 114.415 99.0293 116.527 96.833 116.264C94.6349 116 93.132 113.462 93.477 110.592C93.8221 107.723 95.883 105.61 98.0811 105.874C100.277 106.137 101.78 108.676 101.435 111.546Z" fill="url(#paint1_linear_4087_45760)"/>
<path d="M133.764 149.29C134.966 149.391 135.836 149.463 136.396 149.649L136.622 156.921L137.539 186.479L148.722 212.096H145.74C145.523 211.777 135.329 190.619 135.329 190.619L131.341 202.617C130.217 201.583 129.086 200.672 127.976 199.869L134.35 186.905C134.35 186.905 134.023 174.209 133.741 163.575C133.537 155.898 133.356 149.29 133.34 149.29L133.353 149.227C133.477 149.255 133.615 149.277 133.764 149.29Z" fill="#B3B3B3"/>
<path d="M134.664 238.234C134.686 238.566 133.304 242.817 131.671 247.804C127.045 244.924 131.873 239.67 131.976 239.559L131.975 239.557C132.771 239.03 133.671 238.557 134.664 238.234Z" fill="#F2F2F2"/>
<path d="M134.509 43.494C135.782 44.0967 137.236 47.3297 136.094 49.9204C135.581 51.0822 134.547 52.1161 132.737 52.724C132.177 52.9117 131.541 53.0596 130.824 53.1571C130.231 53.2382 129.681 53.2491 129.171 53.2039C124.565 52.7835 123.254 47.5911 124.19 45.0762C124.34 44.6757 124.545 44.3419 124.806 44.1073C125.387 43.5787 126.328 43.8403 126.608 44.5729C126.901 45.3378 127.589 46.6964 128.909 47.2647C129.44 47.4938 130.072 47.5949 130.824 47.4776C131.707 47.3405 132.245 46.9436 132.592 46.4493C133.589 45.0276 133.011 42.7867 134.509 43.494Z" fill="#9E9F9F"/>
<path d="M170.994 230.595C173.274 233.769 173.4 237.936 171.151 241.175C167.467 246.479 158.251 257.665 157.26 258.798C156.709 259.428 153.282 261.356 150.015 261.075C145.322 259.529 155.842 245.631 160.663 236.426C165.419 227.344 170.848 230.509 170.991 230.594C170.993 230.595 170.994 230.595 170.994 230.595Z" fill="#CCCCCC"/>
<path d="M125.279 116.885C124.865 120.337 122.324 122.872 119.602 122.545C116.882 122.218 115.013 119.157 115.428 115.704C115.843 112.252 118.385 109.717 121.105 110.044C123.825 110.371 125.695 113.432 125.279 116.885ZM116.248 116.867C115.903 119.738 117.406 122.276 119.604 122.54C121.8 122.803 123.863 120.69 124.206 117.822C124.551 114.953 123.05 112.413 120.852 112.149C118.654 111.886 116.593 113.999 116.248 116.867Z" fill="white"/>
<path d="M96.8329 116.268C99.0292 116.531 101.09 114.418 101.435 111.55C101.78 108.679 100.277 106.141 98.081 105.878C95.8828 105.614 93.822 107.727 93.4769 110.595C93.1318 113.466 94.6345 116.004 96.8329 116.268ZM102.83 110.707C102.41 114.186 99.497 116.699 96.3199 116.316C93.1427 115.936 90.9048 112.807 91.3239 109.327C91.7411 105.849 94.6564 103.337 97.8336 103.718C101.011 104.099 103.247 107.227 102.83 110.707Z" fill="white"/>
<path d="M144.852 241.299C144.012 240.22 142.838 239.361 141.384 238.688C141.384 238.688 147.057 233.108 149.207 233.505L150.016 235.568H150.018C147.278 239.052 145.43 242.163 145.43 242.163L145.428 242.164C145.26 241.862 145.067 241.573 144.852 241.299Z" fill="#F2F2F2"/>
<path d="M100.877 125.695C103.964 127.366 108.456 128.811 114.223 128.07C112.012 131.209 107.365 130.381 104.459 129.531C101.552 128.681 100.877 125.695 100.877 125.695Z" fill="white"/>
<path d="M136.352 133.127V133.139C135.08 133.12 133.608 133.569 132.467 134.353L131.914 121.937C132.069 121.495 132.205 121.026 132.313 120.534C132.635 119.072 132.42 118.172 131.963 117.629C133.236 116.974 134.627 115.617 135.76 114.344C135.656 114.544 136.352 133.127 136.352 133.127Z" fill="#B3B3B3"/>
<path d="M62.399 124.423C62.5453 124.52 64.9367 126.166 62.9986 127.705C63.434 127.807 63.7501 127.973 63.8639 128.233C64.449 129.561 64.8916 131.775 62.9968 132.022C65.5202 132.827 65.2618 135.425 64.8211 136.787C64.5069 137.759 63.7156 137.885 63.0726 137.716C62.5181 137.573 62.0756 137.214 62.1371 136.994C62.2689 136.516 59.2923 134.658 59.6643 137.96C59.7673 138.878 59.5704 139.663 59.2326 140.317C58.7774 141.2 58.064 141.844 57.486 142.261L57.5132 142.298C57.5132 142.298 56.7419 151.97 59.5145 152.748C59.6537 157.832 59.8234 163.777 59.9787 169.168C53.9188 170.496 50.1511 168.675 50.1511 168.675C41.3258 161.172 49.6182 139.542 49.8838 138.798C50.1511 138.055 50.7887 124.941 53.155 121.938C54.2513 120.547 55.8986 119.736 57.6056 119.402C58.5755 119.209 59.5654 119.173 60.4829 119.274C61.433 119.378 62.3035 119.627 62.9971 120.003C65.4046 121.307 63.9795 124.908 62.399 124.423Z" fill="#FFD5C5"/>
<mask id="mask6_4087_45760" style="mask-type:luminance" maskUnits="userSpaceOnUse" x="46" y="119" width="20" height="51">
<path d="M62.399 124.423C62.5453 124.52 64.9367 126.166 62.9986 127.705C63.434 127.807 63.7501 127.973 63.8639 128.233C64.449 129.561 64.8916 131.775 62.9968 132.022C65.5202 132.827 65.2618 135.425 64.8211 136.787C64.5069 137.759 63.7156 137.885 63.0726 137.716C62.5181 137.573 62.0756 137.214 62.1371 136.994C62.2689 136.516 59.2923 134.658 59.6643 137.96C59.7673 138.878 59.5704 139.663 59.2326 140.317C58.7774 141.2 58.064 141.844 57.486 142.261L57.5132 142.298C57.5132 142.298 56.7419 151.97 59.5145 152.748C59.6537 157.832 59.8234 163.777 59.9787 169.168C53.9188 170.496 50.1511 168.675 50.1511 168.675C41.3258 161.172 49.6182 139.542 49.8838 138.798C50.1511 138.055 50.7887 124.941 53.155 121.938C54.2513 120.547 55.8986 119.736 57.6056 119.402C58.5755 119.209 59.5654 119.173 60.4829 119.274C61.433 119.378 62.3035 119.627 62.9971 120.003C65.4046 121.307 63.9795 124.908 62.399 124.423Z" fill="white"/>
</mask>
<g mask="url(#mask6_4087_45760)">
<path d="M53.2262 121.995C53.2262 121.995 47.7221 143.994 55.3824 142.917C55.3824 142.917 42.2686 165.632 61.1451 169.653C61.1451 169.653 54.4512 172.219 51.3021 171.114C48.1533 170.01 43.1315 166.193 42.7452 159.324C42.3589 152.454 51.5394 120.088 53.2262 121.995Z" fill="#FFC5B3"/>
</g>
<path d="M170.991 230.595C170.848 230.51 165.419 227.346 160.663 236.428C155.842 245.633 145.323 259.53 150.015 261.077C149.618 261.044 149.224 260.977 148.838 260.873H148.836C143.027 257.946 155.197 241.801 158.132 237.278C158.234 237.123 158.324 236.98 158.402 236.854C160.75 233.031 159.917 226.761 159.917 226.761C161.328 226.162 162.729 225.932 164.064 226.235C167.209 226.951 169.539 228.571 170.991 230.595Z" fill="#E6E6E6"/>
<path d="M145.428 242.165C146.963 244.892 146.698 248.822 144.03 254.382C141.911 258.806 138.27 264.264 132.808 270.97C132.808 270.97 129.82 272.761 126.726 271.643C125.816 266.438 134.155 250.936 137.558 245.484C140.909 240.115 144.736 241.263 144.852 241.299C145.067 241.573 145.26 241.862 145.428 242.165Z" fill="#CCCCCC"/>
<path d="M123.656 228.484C124.053 228.502 124.458 228.53 124.871 228.566C124.871 228.566 130.115 234.613 129.266 237.89C128.415 241.166 125.854 240.637 125.854 240.637C125.677 239.363 125.337 237.594 124.799 237.415C123.95 237.132 115.658 236.423 112.184 245.344C112.184 245.344 113.803 247.865 116.339 249.631C116.339 249.631 115.992 249.698 115.439 249.761C114.142 249.912 111.705 250.053 109.916 249.308C107.365 248.245 105.167 240.601 105.167 240.601C105.167 240.601 105.283 240.204 105.554 239.551C106.818 236.513 111.476 227.956 123.656 228.484Z" fill="#1F4774"/>
<mask id="mask7_4087_45760" style="mask-type:luminance" maskUnits="userSpaceOnUse" x="105" y="228" width="25" height="22">
<path d="M123.656 228.484C124.053 228.502 124.458 228.53 124.871 228.566C124.871 228.566 130.115 234.613 129.266 237.89C128.415 241.166 125.854 240.637 125.854 240.637C125.677 239.363 125.337 237.594 124.799 237.415C123.95 237.132 115.658 236.423 112.184 245.344C112.184 245.344 113.803 247.865 116.339 249.631C116.339 249.631 115.992 249.698 115.439 249.761C114.142 249.912 111.705 250.053 109.916 249.308C107.365 248.245 105.167 240.601 105.167 240.601C105.167 240.601 105.283 240.204 105.554 239.551C106.818 236.513 111.476 227.956 123.656 228.484Z" fill="white"/>
</mask>
<g mask="url(#mask7_4087_45760)">
<path d="M117.262 228C117.262 228 107.238 235.322 109.593 238.686C111.948 242.051 126.823 229.613 128.876 239.695L126.536 242.249C126.536 242.249 112.335 243.844 118.076 250.525C123.816 257.205 109.593 253.54 109.593 253.54C109.593 253.54 103.783 248.212 103.756 247.886C103.73 247.559 102.484 238.938 102.238 238.751C101.991 238.563 112.446 226.576 117.262 228Z" fill="#183E68"/>
</g>
<path d="M132.737 52.7266L134.406 76.7164C133.122 75.5094 131.706 74.4594 130.206 73.5465L129.168 53.2334L129.172 53.2064C129.681 53.2516 130.232 53.2407 130.824 53.1596C131.541 53.062 132.177 52.9142 132.737 52.7266Z" fill="#B3B3B3"/>
<path d="M153.673 231.391C153.673 231.391 153.053 235.721 158.132 237.278C155.197 241.801 143.027 257.946 148.836 260.872C146.677 260.284 144.761 258.487 144.031 254.388H144.029C146.697 248.828 146.963 244.898 145.427 242.171L145.429 242.169C145.429 242.169 147.277 239.058 150.017 235.575C151.113 234.182 152.35 232.728 153.673 231.391Z" fill="#C1272D"/>
<path d="M63.6158 168.799L63.5218 168.801L63.3105 154.25C63.3105 154.25 65.8121 164.835 63.6158 168.799Z" fill="#FFD5C5"/>
<path d="M61.1635 23.3357C61.1978 26.4623 59.9172 30.04 56.9008 30.8176C55.4865 31.182 54.2493 31.2686 53.1638 31.1297C49.5712 30.6732 47.6583 27.7432 46.6234 24.2198C46.2585 22.9767 46.3832 21.9232 46.7625 21.1149C47.7794 18.9391 50.6315 18.5404 50.7345 21.0139C50.8773 24.4076 52.9327 24.6602 52.9327 24.6602C52.9327 24.6602 53.0285 24.6673 53.1891 24.6657C53.9892 24.6548 56.3933 24.4202 56.3338 21.9577C56.2633 19.0042 57.3976 18.6272 57.3976 18.6272C57.8871 18.3727 58.3368 18.2934 58.7397 18.3566C60.2549 18.5872 61.1363 20.8153 61.1635 23.3357Z" fill="#9E9F9F"/>
<path d="M151.803 212.094L152.441 219.361L144.23 219.799C143.33 218.397 141.76 216.045 139.042 212.094H145.739H148.722L151.803 212.094Z" fill="#754C24"/>
<path d="M100.229 228.093H100.227L50.2393 229.133L70.8068 221.062L94.6563 221.382C94.9489 221.546 95.2163 221.683 95.4566 221.79C96.8095 222.39 98.5633 225.028 100.229 228.093Z" fill="#472D0D"/>
<path d="M101.765 143.029C101.765 143.029 101.897 143.742 101.847 144.747C101.726 147.128 100.584 151.161 94.2515 151.26C85.2529 151.402 83.2679 143.558 83.5496 141.638C84.7978 141.59 85.7081 141.562 85.9591 141.562C85.9591 141.562 85.6755 147.296 92.0894 148.996C98.5032 150.695 101.196 144.612 100.205 142.768C100.73 142.869 101.251 142.955 101.765 143.028V143.029H101.765Z" fill="#D8434A"/>
<path d="M106.301 136.037V136.038C105.082 136.37 103.793 136.361 102.474 135.824C99.7089 134.696 98.114 132.212 97.1963 129.652C97.3479 129.635 105.247 128.829 106.301 136.037Z" fill="#F1869C"/>
<path d="M99.8746 95.6137C103.511 95.9691 102.757 98.1629 102.757 98.1629C97.7253 96.1802 92.0898 99.8624 92.0898 99.8624C92.1963 98.3759 96.2369 95.26 99.8746 95.6137Z" fill="#333333"/>
<path d="M159.917 226.758C159.917 226.758 160.75 233.027 158.402 236.85C158.324 236.977 158.234 237.119 158.133 237.274C153.054 235.717 153.673 231.387 153.673 231.387C155.638 229.394 157.788 227.658 159.917 226.758Z" fill="#F2F2F2"/>
<path d="M121.507 115.536C122.665 115.823 123.252 117.468 122.817 119.211C122.383 120.954 121.093 122.132 119.936 121.845C118.778 121.556 118.191 119.911 118.626 118.17C119.06 116.427 120.349 115.247 121.507 115.536Z" fill="black"/>
<path d="M114.223 128.07C114.461 128.04 114.703 128.005 114.947 127.968C114.947 127.968 111.183 134.722 106.301 136.045C105.246 128.837 97.3472 129.644 97.1954 129.66C97.1936 129.66 97.1936 129.66 97.1936 129.66C95.8372 125.886 95.9526 121.945 95.9526 121.945C95.9526 121.945 97.6433 123.944 100.876 125.696C100.876 125.696 101.552 128.682 104.458 129.532C107.365 130.382 112.012 131.21 114.223 128.07Z" fill="#771012"/>
<path d="M98.9037 109.387C100.061 109.676 100.647 111.321 100.213 113.062C99.7796 114.805 98.49 115.985 97.3322 115.696C96.1744 115.409 95.5874 113.764 96.0226 112.021C96.4563 110.278 97.7459 109.1 98.9037 109.387Z" fill="black"/>
<path d="M56.9005 30.8203L60.4822 119.278C59.5647 119.177 58.5748 119.213 57.6049 119.406L53.1543 31.1955L53.1633 31.1324C54.249 31.2713 55.4861 31.1847 56.9005 30.8203Z" fill="#B3B3B3"/>
<path d="M79.3374 131.619V134.482C79.3374 134.482 73.31 128.491 70.8191 125.151L71.2165 128.536C71.2165 128.536 64.7683 122.943 63.8471 108.784L62.2161 109.067C62.2161 109.067 61.3979 99.3013 64.9833 91.9383L63.3504 93.7749C63.3504 93.7749 64.4216 83.7853 73.44 79.7457C73.4273 79.6934 73.1601 78.7679 71.7132 78.8022C70.2248 78.8382 76.2486 72.8195 84.7542 75.8651C84.7542 75.8651 83.7627 69.3521 92.0893 67.0861C92.0893 67.0861 90.9261 69.9042 90.0754 72.9407C92.6548 70.6982 98.496 66.5484 107.009 65.8828L103.891 67.4398C103.891 67.4398 119.246 66.857 130.206 73.5433C131.706 74.4562 133.122 75.5062 134.406 76.7132C136.411 78.5967 138.092 80.8609 139.257 83.5816L137.982 82.9429C137.982 82.9429 145.85 92.0756 143.227 102.624C140.605 113.173 138.123 113.881 138.123 113.881L138.052 111.474C138.052 111.474 137.084 112.852 135.758 114.346C134.626 115.62 133.235 116.977 131.962 117.631C130.936 116.405 128.682 116.987 128.606 117.007C129.466 115.046 130.387 112.856 130.894 109.421C132.17 100.784 121.17 95.0614 121.17 95.0614H121.168C121.569 96.8457 121.775 98.7509 121.692 100.746C121.681 101.004 121.664 101.266 121.645 101.528C121.645 101.528 121.173 101.241 120.375 100.746H120.373C116.667 98.4532 105.916 91.7074 102.592 88.5465L102.591 88.5484C106.373 92.1134 109.989 95.6044 111.12 96.9611C111.12 96.9611 96.1297 94.7311 92.0891 86.7659L92.0836 86.7677C92.9054 90.0206 93.0717 94.1432 91.1336 98.6066C91.1336 98.6066 90.6422 93.1761 88.7638 90.6701H88.762C90.5718 96.3423 80.8561 106.377 80.3594 108.501C79.8645 110.624 80.0758 116.5 80.0758 116.5C75.1863 101.917 67.1774 109.987 69.0199 117.208C70.8621 124.43 79.0138 122.164 79.0138 122.164C79.0138 122.164 78.9198 127.004 82.3788 132.124C82.3788 132.124 82.3806 132.128 82.3841 132.135C82.4816 132.37 84.0531 136.13 84.2572 136.747C84.393 137.153 81.503 134.479 79.3374 131.619Z" fill="#311B15"/>
<path d="M110.844 173.798C111.406 178.467 112.076 182.842 112.822 185.519C115.09 193.661 114.948 194.085 114.948 194.085C114.948 194.085 108.601 191.468 100.227 190.618C100.227 190.616 100.227 190.616 100.227 190.616C90.8617 189.663 78.9622 190.923 70.5794 200.528L70.4368 200.587L65.3938 188.631C66.3855 186.225 67.0412 168.046 67.0412 168.046L67.0393 168.044C64.9151 168.802 63.6166 168.795 63.6166 168.795C65.8129 164.831 63.3113 154.246 63.3113 154.246L63.2012 146.634C63.2012 146.634 70.4388 142.972 71.9975 142.477C73.1643 142.106 79.8438 141.775 83.5501 141.633C83.2684 143.552 85.2534 151.397 94.252 151.254C100.585 151.155 101.726 147.123 101.847 144.741H101.858C101.858 144.741 112.011 145.946 120.354 160.67C120.354 160.67 118.62 168.643 111.465 173.4C111.263 173.536 111.055 173.668 110.844 173.798Z" fill="#C1272D"/>
<mask id="mask8_4087_45760" style="mask-type:luminance" maskUnits="userSpaceOnUse" x="63" y="141" width="58" height="60">
<path d="M110.843 173.79C111.405 178.459 112.075 182.834 112.821 185.511C115.089 193.654 114.947 194.078 114.947 194.078C114.947 194.078 108.6 191.46 100.226 190.61C100.226 190.608 100.226 190.608 100.226 190.608C90.8607 189.656 78.9612 190.915 70.5784 200.52L70.4358 200.58L65.3929 188.623C66.3846 186.217 67.0402 168.038 67.0402 168.038L67.0384 168.036C64.9142 168.794 63.6156 168.787 63.6156 168.787C65.8119 164.823 63.3103 154.238 63.3103 154.238L63.2002 146.626C63.2002 146.626 70.4378 142.964 71.9965 142.469C73.1633 142.098 79.8428 141.768 83.5491 141.625C83.2674 143.545 85.2524 151.389 94.251 151.247C100.584 151.147 101.725 147.115 101.846 144.734H101.857C101.857 144.734 112.01 145.939 120.353 160.663C120.353 160.663 118.619 168.635 111.464 173.393C111.262 173.528 111.054 173.66 110.843 173.79Z" fill="white"/>
</mask>
<g mask="url(#mask8_4087_45760)">
<path d="M69.9212 166.836C69.9212 166.836 69.3263 188.288 81.8197 182.52C94.3129 176.752 106.973 181.49 114.935 194.169C114.935 194.169 89.3067 187.428 78.8681 197.72C68.4294 208.013 67.9444 204.391 67.4124 203.891C66.8804 203.39 62.9398 187.941 62.9818 186.977C63.0238 186.012 65.061 170.533 64.9037 169.643C64.7462 168.754 68.0372 168.196 69.9212 166.836Z" fill="#AB211F"/>
</g>
<mask id="mask9_4087_45760" style="mask-type:luminance" maskUnits="userSpaceOnUse" x="63" y="141" width="58" height="60">
<path d="M110.843 173.79C111.405 178.459 112.075 182.834 112.821 185.511C115.089 193.654 114.947 194.078 114.947 194.078C114.947 194.078 108.6 191.46 100.226 190.61C100.226 190.608 100.226 190.608 100.226 190.608C90.8607 189.656 78.9612 190.915 70.5784 200.52L70.4358 200.58L65.3929 188.623C66.3846 186.217 67.0402 168.038 67.0402 168.038L67.0384 168.036C64.9142 168.794 63.6156 168.787 63.6156 168.787C65.8119 164.823 63.3103 154.238 63.3103 154.238L63.2002 146.626C63.2002 146.626 70.4378 142.964 71.9965 142.469C73.1633 142.098 79.8428 141.768 83.5491 141.625C83.2674 143.545 85.2524 151.389 94.251 151.247C100.584 151.147 101.725 147.115 101.846 144.734H101.857C101.857 144.734 112.01 145.939 120.353 160.663C120.353 160.663 118.619 168.635 111.464 173.393C111.262 173.528 111.054 173.66 110.843 173.79Z" fill="white"/>
</mask>
<g mask="url(#mask9_4087_45760)">
<path d="M109.083 153.508C109.083 153.508 114.517 169.524 121.733 163.524L111.147 176.202C111.147 176.202 109.047 157.724 109.083 153.508Z" fill="#AB211F"/>
</g>
<mask id="mask10_4087_45760" style="mask-type:luminance" maskUnits="userSpaceOnUse" x="63" y="141" width="58" height="60">
<path d="M110.843 173.79C111.405 178.459 112.075 182.834 112.821 185.511C115.089 193.654 114.947 194.078 114.947 194.078C114.947 194.078 108.6 191.46 100.226 190.61C100.226 190.608 100.226 190.608 100.226 190.608C90.8607 189.656 78.9612 190.915 70.5784 200.52L70.4358 200.58L65.3929 188.623C66.3846 186.217 67.0402 168.038 67.0402 168.038L67.0384 168.036C64.9142 168.794 63.6156 168.787 63.6156 168.787C65.8119 164.823 63.3103 154.238 63.3103 154.238L63.2002 146.626C63.2002 146.626 70.4378 142.964 71.9965 142.469C73.1633 142.098 79.8428 141.768 83.5491 141.625C83.2674 143.545 85.2524 151.389 94.251 151.247C100.584 151.147 101.725 147.115 101.846 144.734H101.857C101.857 144.734 112.01 145.939 120.353 160.663C120.353 160.663 118.619 168.635 111.464 173.393C111.262 173.528 111.054 173.66 110.843 173.79Z" fill="white"/>
</mask>
<g mask="url(#mask10_4087_45760)">
<path d="M77.3979 145.844C77.3979 145.844 78.3095 159.97 63.8421 165.886L62.5746 169.646C62.5746 169.646 81.4717 166.829 77.3979 145.844Z" fill="#AB211F"/>
</g>
<mask id="mask11_4087_45760" style="mask-type:luminance" maskUnits="userSpaceOnUse" x="63" y="141" width="58" height="60">
<path d="M110.843 173.79C111.405 178.459 112.075 182.834 112.821 185.511C115.089 193.654 114.947 194.078 114.947 194.078C114.947 194.078 108.6 191.46 100.226 190.61C100.226 190.608 100.226 190.608 100.226 190.608C90.8607 189.656 78.9612 190.915 70.5784 200.52L70.4358 200.58L65.3929 188.623C66.3846 186.217 67.0402 168.038 67.0402 168.038L67.0384 168.036C64.9142 168.794 63.6156 168.787 63.6156 168.787C65.8119 164.823 63.3103 154.238 63.3103 154.238L63.2002 146.626C63.2002 146.626 70.4378 142.964 71.9965 142.469C73.1633 142.098 79.8428 141.768 83.5491 141.625C83.2674 143.545 85.2524 151.389 94.251 151.247C100.584 151.147 101.725 147.115 101.846 144.734H101.857C101.857 144.734 112.01 145.939 120.353 160.663C120.353 160.663 118.619 168.635 111.464 173.393C111.262 173.528 111.054 173.66 110.843 173.79Z" fill="white"/>
</mask>
<g mask="url(#mask11_4087_45760)">
<path d="M100.266 145.041C100.266 145.041 113.781 148.564 120.722 163.528L121.734 158.042C121.734 158.042 106.03 142.69 100.493 143.619C94.9556 144.548 100.266 145.041 100.266 145.041Z" fill="#E24450"/>
</g>
<path d="M131.975 239.555L131.976 239.557C131.873 239.668 127.045 244.922 131.671 247.801C130.916 250.114 130.105 252.584 129.357 254.897C126.997 262.195 124.204 268.264 124.82 270.539C124.573 270.334 124.329 270.103 124.09 269.841C120.333 265.737 118.977 251.845 115.438 249.764C115.991 249.701 116.338 249.634 116.338 249.634C116.896 250.024 117.498 250.376 118.137 250.657C118.137 250.657 119.838 242.939 126.003 241.949L126.568 242.339C126.568 242.339 119.824 244.994 119.342 250.657C119.342 250.657 120.122 252.781 121.397 250.657C122.672 248.532 124.728 244.215 128.059 243.365C128.059 243.365 129.511 241.191 131.975 239.555Z" fill="#C1272D"/>
<path d="M53.1545 14.8155L53.1888 24.6717C53.0281 24.6735 52.9324 24.6662 52.9324 24.6662C52.9324 24.6662 50.8769 24.4136 50.7343 21.02C50.6313 18.5464 47.7793 18.9451 46.7623 21.1209C46.4011 21.0614 -3.09344 13.0076 -27.9092 13.4298V0.120524C-27.9092 0.120524 71.7842 -2.42686 147.48 42.1737C147.48 42.1737 152.532 50.397 143.501 52.2914C142.341 52.535 141.131 52.387 140.065 51.8692L136.095 49.9261C137.237 47.3354 135.783 44.1022 134.509 43.4998C133.012 42.7925 133.59 45.0333 132.593 46.455L132.591 46.4532L132.737 38.1379C132.737 37.6092 132.522 37.133 132.177 36.7866C131.83 36.4402 131.352 36.2255 130.824 36.2255C129.768 36.2255 128.91 37.0824 128.91 38.1379V47.2706C127.589 46.7023 126.901 45.3437 126.609 44.5788C126.329 43.8463 125.388 43.5847 124.806 44.1132C124.546 44.3478 124.34 44.6816 124.19 45.0821C124.19 45.0821 105.68 32.9708 61.1634 23.3419C61.1362 20.8215 60.2549 18.5934 58.7395 18.3624L58.7431 18.3408V14.8065C58.7431 13.264 57.4932 12.0155 55.9488 12.0155C54.4045 12.0155 53.1545 13.2658 53.1545 14.8049C53.1545 14.8084 53.1545 14.812 53.1545 14.8155Z" fill="#CCCCCC"/>
<mask id="mask12_4087_45760" style="mask-type:luminance" maskUnits="userSpaceOnUse" x="-28" y="0" width="177" height="53">
<path d="M53.1535 14.8155L53.1879 24.6717C53.0271 24.6735 52.9314 24.6662 52.9314 24.6662C52.9314 24.6662 50.8759 24.4136 50.7333 21.02C50.6303 18.5464 47.7784 18.9451 46.7613 21.1209C46.4001 21.0614 -3.09441 13.0076 -27.9102 13.4298V0.120524C-27.9102 0.120524 71.7832 -2.42686 147.479 42.1737C147.479 42.1737 152.531 50.397 143.5 52.2914C142.34 52.535 141.13 52.387 140.064 51.8692L136.094 49.9261C137.236 47.3354 135.782 44.1022 134.508 43.4998C133.011 42.7925 133.589 45.0333 132.592 46.455L132.59 46.4532L132.736 38.1379C132.736 37.6092 132.521 37.133 132.176 36.7866C131.829 36.4402 131.351 36.2255 130.823 36.2255C129.767 36.2255 128.909 37.0824 128.909 38.1379V47.2706C127.588 46.7023 126.9 45.3437 126.608 44.5788C126.328 43.8463 125.387 43.5847 124.805 44.1132C124.545 44.3478 124.339 44.6816 124.189 45.0821C124.189 45.0821 105.679 32.9708 61.1624 23.3419C61.1353 20.8215 60.2539 18.5934 58.7385 18.3624L58.7422 18.3408V14.8065C58.7422 13.264 57.4922 12.0155 55.9479 12.0155C54.4035 12.0155 53.1535 13.2658 53.1535 14.8049C53.1535 14.8084 53.1535 14.812 53.1535 14.8155Z" fill="white"/>
</mask>
<g mask="url(#mask12_4087_45760)">
<path d="M-31.2295 8.73438C-31.2295 8.73438 87.7786 12.3186 139.318 46.6526C141.469 48.085 144.325 48.0415 146.328 46.4102C148.169 44.911 149.068 42.3024 145.302 37.8653C145.302 37.8653 153.607 45.0033 151.29 49.8263C148.972 54.6493 139.126 55.228 139.126 55.228L108.325 43.4537C108.325 43.4537 45.3272 14.9077 -27.9098 16.2581L-31.2295 8.73438Z" fill="#ADAEAE"/>
</g>
<path d="M135.042 237.776C135.042 237.776 141.633 226.84 148.224 230.45L148.755 232.36L149.206 233.513C147.057 233.116 141.383 238.696 141.383 238.696C138.985 237.585 136.801 237.601 134.926 238.153L134.832 237.85C134.904 237.832 134.973 237.807 135.042 237.776Z" fill="#FFD5C5"/>
<mask id="mask13_4087_45760" style="mask-type:luminance" maskUnits="userSpaceOnUse" x="134" y="229" width="16" height="10">
<path d="M135.041 237.784C135.041 237.784 141.632 226.847 148.223 230.457L148.754 232.368L149.205 233.521C147.056 233.124 141.382 238.704 141.382 238.704C138.984 237.593 136.8 237.609 134.925 238.161L134.831 237.858C134.903 237.84 134.972 237.815 135.041 237.784Z" fill="white"/>
</mask>
<g mask="url(#mask13_4087_45760)">
<path d="M138.533 231.688L148.335 236.085L140.137 242.176L133.296 238.7L138.533 231.688Z" fill="#FFC5B3"/>
</g>
<path d="M139.043 212.1C141.761 216.051 143.331 218.404 144.23 219.806C145.41 221.637 145.448 221.844 145.424 221.859C145.42 221.859 145.415 221.857 145.411 221.857C144.498 221.723 143.459 221.796 142.27 222.127C137.796 223.38 132.934 224.989 129.358 231.628C129.358 231.628 123.599 223.621 122.387 223.021C123.267 226.042 123.592 228.069 123.655 228.489C111.476 227.96 106.818 236.517 105.553 239.556C105.553 239.556 103.014 233.227 100.229 228.097C98.5633 225.032 96.8093 222.395 95.4565 221.794C95.2163 221.687 94.949 221.55 94.6563 221.386C90.567 219.093 81.9205 211.685 81.9205 211.685C81.9205 211.685 75.3277 211.438 75.1164 211.685L70.4365 200.595L70.5791 200.535C78.9619 190.93 90.8614 189.671 100.227 190.623C100.227 190.623 100.227 190.623 100.227 190.625C108.601 191.475 114.948 194.093 114.948 194.093C114.948 194.093 121.114 194.912 127.976 199.873C129.087 200.676 130.217 201.587 131.341 202.621V202.623C133.272 204.396 135.186 206.533 136.969 209.102C137.726 210.191 138.414 211.189 139.043 212.1Z" fill="#07355D"/>
<mask id="mask14_4087_45760" style="mask-type:luminance" maskUnits="userSpaceOnUse" x="70" y="190" width="76" height="50">
<path d="M139.042 212.1C141.76 216.051 143.33 218.404 144.229 219.806C145.409 221.637 145.447 221.844 145.423 221.859C145.419 221.859 145.414 221.857 145.41 221.857C144.497 221.723 143.458 221.796 142.269 222.127C137.795 223.38 132.933 224.989 129.357 231.628C129.357 231.628 123.598 223.621 122.386 223.021C123.266 226.042 123.591 228.069 123.654 228.489C111.475 227.96 106.817 236.517 105.552 239.556C105.552 239.556 103.013 233.227 100.228 228.097C98.5623 225.032 96.8083 222.395 95.4555 221.794C95.2153 221.687 94.948 221.55 94.6553 221.386C90.566 219.093 81.9195 211.685 81.9195 211.685C81.9195 211.685 75.3267 211.438 75.1154 211.685L70.4355 200.595L70.5782 200.535C78.9609 190.93 90.8605 189.671 100.226 190.623C100.226 190.623 100.226 190.623 100.226 190.625C108.6 191.475 114.947 194.093 114.947 194.093C114.947 194.093 121.113 194.912 127.975 199.873C129.086 200.676 130.216 201.587 131.34 202.621V202.623C133.271 204.396 135.185 206.533 136.968 209.102C137.725 210.191 138.413 211.189 139.042 212.1Z" fill="white"/>
</mask>
<g mask="url(#mask14_4087_45760)">
<path d="M97.4493 189.609C97.4493 189.609 77.6192 197.275 87.7686 207.307C97.9179 217.339 111.796 218.205 114.935 234.367L105.448 246.127C105.448 246.127 96.4309 224.017 89.5802 222.665C82.7294 221.313 68.4831 208.288 68.4471 208.111C68.4111 207.934 67.4121 199.91 67.4121 199.91C67.4121 199.91 78.7671 184.801 97.4493 189.609Z" fill="#08284A"/>
</g>
<mask id="mask15_4087_45760" style="mask-type:luminance" maskUnits="userSpaceOnUse" x="70" y="190" width="76" height="50">
<path d="M139.042 212.1C141.76 216.051 143.33 218.404 144.229 219.806C145.409 221.637 145.447 221.844 145.423 221.859C145.419 221.859 145.414 221.857 145.41 221.857C144.497 221.723 143.458 221.796 142.269 222.127C137.795 223.38 132.933 224.989 129.357 231.628C129.357 231.628 123.598 223.621 122.386 223.021C123.266 226.042 123.591 228.069 123.654 228.489C111.475 227.96 106.817 236.517 105.552 239.556C105.552 239.556 103.013 233.227 100.228 228.097C98.5623 225.032 96.8083 222.395 95.4555 221.794C95.2153 221.687 94.948 221.55 94.6553 221.386C90.566 219.093 81.9195 211.685 81.9195 211.685C81.9195 211.685 75.3267 211.438 75.1154 211.685L70.4355 200.595L70.5782 200.535C78.9609 190.93 90.8605 189.671 100.226 190.623C100.226 190.623 100.226 190.623 100.226 190.625C108.6 191.475 114.947 194.093 114.947 194.093C114.947 194.093 121.113 194.912 127.975 199.873C129.086 200.676 130.216 201.587 131.34 202.621V202.623C133.271 204.396 135.185 206.533 136.968 209.102C137.725 210.191 138.413 211.189 139.042 212.1Z" fill="white"/>
</mask>
<g mask="url(#mask15_4087_45760)">
<path d="M145.815 217.724C145.624 217.724 128.816 223.312 117.262 210.807C117.262 210.807 121.508 218.579 123.168 225.611L128.978 232.56L148.335 222.267L145.815 217.724Z" fill="#08284A"/>
</g>
<mask id="mask16_4087_45760" style="mask-type:luminance" maskUnits="userSpaceOnUse" x="70" y="190" width="76" height="50">
<path d="M139.042 212.1C141.76 216.051 143.33 218.404 144.229 219.806C145.409 221.637 145.447 221.844 145.423 221.859C145.419 221.859 145.414 221.857 145.41 221.857C144.497 221.723 143.458 221.796 142.269 222.127C137.795 223.38 132.933 224.989 129.357 231.628C129.357 231.628 123.598 223.621 122.386 223.021C123.266 226.042 123.591 228.069 123.654 228.489C111.475 227.96 106.817 236.517 105.552 239.556C105.552 239.556 103.013 233.227 100.228 228.097C98.5623 225.032 96.8083 222.395 95.4555 221.794C95.2153 221.687 94.948 221.55 94.6553 221.386C90.566 219.093 81.9195 211.685 81.9195 211.685C81.9195 211.685 75.3267 211.438 75.1154 211.685L70.4355 200.595L70.5782 200.535C78.9609 190.93 90.8605 189.671 100.226 190.623C100.226 190.623 100.226 190.623 100.226 190.625C108.6 191.475 114.947 194.093 114.947 194.093C114.947 194.093 121.113 194.912 127.975 199.873C129.086 200.676 130.216 201.587 131.34 202.621V202.623C133.271 204.396 135.185 206.533 136.968 209.102C137.725 210.191 138.413 211.189 139.042 212.1Z" fill="white"/>
</mask>
<g mask="url(#mask16_4087_45760)">
<path d="M113.047 195.438C113.047 195.438 128.949 199.34 137.64 213.488C137.64 213.488 130.24 198.827 113.047 195.438Z" fill="#23436D"/>
</g>
<mask id="mask17_4087_45760" style="mask-type:luminance" maskUnits="userSpaceOnUse" x="70" y="190" width="76" height="50">
<path d="M139.042 212.1C141.76 216.051 143.33 218.404 144.229 219.806C145.409 221.637 145.447 221.844 145.423 221.859C145.419 221.859 145.414 221.857 145.41 221.857C144.497 221.723 143.458 221.796 142.269 222.127C137.795 223.38 132.933 224.989 129.357 231.628C129.357 231.628 123.598 223.621 122.386 223.021C123.266 226.042 123.591 228.069 123.654 228.489C111.475 227.96 106.817 236.517 105.552 239.556C105.552 239.556 103.013 233.227 100.228 228.097C98.5623 225.032 96.8083 222.395 95.4555 221.794C95.2153 221.687 94.948 221.55 94.6553 221.386C90.566 219.093 81.9195 211.685 81.9195 211.685C81.9195 211.685 75.3267 211.438 75.1154 211.685L70.4355 200.595L70.5782 200.535C78.9609 190.93 90.8605 189.671 100.226 190.623C100.226 190.623 100.226 190.623 100.226 190.625C108.6 191.475 114.947 194.093 114.947 194.093C114.947 194.093 121.113 194.912 127.975 199.873C129.086 200.676 130.216 201.587 131.34 202.621V202.623C133.271 204.396 135.185 206.533 136.968 209.102C137.725 210.191 138.413 211.189 139.042 212.1Z" fill="white"/>
</mask>
<g mask="url(#mask17_4087_45760)">
<path d="M98.9473 197.735C98.7366 197.63 114.978 205.126 116.459 212.65C116.459 212.65 113.691 205.135 98.9473 197.735Z" fill="#23436D"/>
</g>
<path d="M129 47.2682H128.819V38.1355C128.819 37.0312 129.719 36.1328 130.824 36.1328C131.359 36.1328 131.862 36.3416 132.241 36.7205C132.619 37.1 132.827 37.6025 132.827 38.1355L132.681 46.4525L132.5 46.4493L132.647 38.1339C132.647 37.6507 132.457 37.1933 132.113 36.8478C131.768 36.5032 131.31 36.3133 130.824 36.3133C129.818 36.3133 129 37.1307 129 38.1355V47.2682Z" fill="black"/>
<path d="M129.775 53.3244C129.568 53.3244 129.364 53.3156 129.163 53.2978C126.881 53.0895 125.591 51.7596 124.911 50.6804C123.713 48.7803 123.599 46.4092 124.105 45.0488C124.265 44.6209 124.481 44.2829 124.745 44.0445C125.034 43.7815 125.423 43.6834 125.812 43.7764C126.216 43.8725 126.546 44.1599 126.693 44.5448C126.979 45.2921 127.652 46.6292 128.945 47.186C129.507 47.4286 130.135 47.4979 130.81 47.3926C131.575 47.2738 132.134 46.9497 132.518 46.4016C132.899 45.8589 133.043 45.1958 133.171 44.6108C133.305 43.9906 133.412 43.501 133.757 43.3312C133.958 43.2322 134.217 43.2604 134.547 43.4165C135.793 44.006 137.372 47.249 136.177 49.9608C135.59 51.2906 134.442 52.2504 132.765 52.8136C132.183 53.0087 131.535 53.1557 130.836 53.2506C130.477 53.2998 130.122 53.3244 129.775 53.3244ZM124.274 45.1118C123.784 46.4307 123.897 48.734 125.064 50.5843C125.722 51.629 126.971 52.9164 129.18 53.118C129.7 53.164 130.25 53.1487 130.812 53.0715C131.499 52.9782 132.137 52.8338 132.708 52.6423C134.335 52.096 135.446 51.1693 136.012 49.8878C137.167 47.2673 135.663 44.1438 134.47 43.5793C134.192 43.448 133.985 43.4196 133.837 43.4928C133.57 43.6239 133.467 44.0989 133.347 44.6488C133.216 45.2504 133.068 45.9324 132.666 46.5047C132.252 47.0952 131.654 47.4437 130.838 47.5705C130.129 47.6815 129.468 47.6075 128.874 47.3513C127.519 46.7683 126.82 45.3829 126.524 44.609C126.398 44.2797 126.117 44.034 125.771 43.9517C125.441 43.8732 125.111 43.9558 124.867 44.1779C124.623 44.3972 124.424 44.7113 124.274 45.1118Z" fill="black"/>
<path d="M124.14 45.1482C124.094 45.1178 119.398 42.0739 109.327 37.8934C100.033 34.0351 84.1282 28.3921 61.1436 23.4206L61.1619 23.3365L61.1609 23.2422L61.1819 23.2442C84.1843 28.2195 100.102 33.8678 109.404 37.7299C119.488 41.9161 124.193 44.9667 124.239 44.997L124.14 45.1482Z" fill="black"/>
<path d="M142.405 52.4888C141.584 52.4888 140.766 52.3042 140.025 51.9442L136.055 50.0011L136.134 49.839L140.104 51.7819C141.146 52.288 142.346 52.4357 143.482 52.1969C146.043 51.6596 147.7 50.5571 148.407 48.9204C149.63 46.0849 147.586 42.5245 147.414 42.2335C108.329 19.2107 62.7451 9.00862 31.386 4.505C-1.58425 -0.229885 -26.1544 0.168827 -27.8194 0.20265V13.332C-3.07729 12.9319 46.2843 20.9446 46.7766 21.0258L46.762 21.2049C46.2546 21.1224 -3.21292 13.0934 -27.9082 13.5137L-28 13.5152V0.0262007L-27.912 0.0238719C-27.6629 0.0173739 -2.58794 -0.55662 31.4118 4.32605C51.3805 7.19384 70.4759 11.3551 88.1668 16.6941C110.282 23.3682 130.253 31.9126 147.525 42.0893L147.544 42.1007L147.556 42.1198C147.58 42.158 149.879 45.9608 148.573 48.9907C147.842 50.6849 146.142 51.8227 143.519 52.373C143.152 52.4507 142.778 52.4888 142.405 52.4888Z" fill="black"/>
<path d="M120.326 100.819C116.062 98.1806 105.793 91.7102 102.53 88.6075C102.128 88.2245 101.853 87.9146 101.689 87.6598L101.842 87.5625C101.995 87.8013 102.268 88.1088 102.655 88.4767C105.905 91.5678 116.162 98.0301 120.421 100.665L120.326 100.819Z" fill="black"/>
<path d="M121.724 101.684L121.598 101.607C121.598 101.607 121.126 101.32 120.327 100.826L120.423 100.672C120.978 101.016 121.375 101.26 121.566 101.376C121.581 101.155 121.593 100.944 121.602 100.745C121.679 98.8755 121.504 96.9708 121.08 95.0839C119.167 86.5278 112.719 80.6301 112.654 80.5715L112.775 80.4375C112.841 80.4965 119.33 86.4308 121.256 95.0444C121.684 96.9466 121.861 98.8672 121.782 100.753C121.772 100.997 121.756 101.261 121.735 101.537L121.724 101.684Z" fill="black"/>
<path d="M111.341 97.0838L111.107 97.0489C110.956 97.0266 96.0241 94.7206 92.0088 86.8052L92.1699 86.7236C95.8631 94.004 108.944 96.4973 110.891 96.8307C109.796 95.5756 106.986 92.8137 102.529 88.6125C97.4868 83.86 92.0823 78.9168 92.0283 78.8673L92.1502 78.7344C92.2044 78.7837 97.6097 83.7278 102.653 88.4814C107.351 92.91 110.223 95.7432 111.189 96.9022L111.341 97.0838Z" fill="black"/>
<path d="M91.0762 98.9669L91.0443 98.6147C91.0394 98.5607 90.5336 93.1807 88.6921 90.7241C88.5175 90.4917 88.3351 90.2904 88.1498 90.1258C85.7039 87.96 84.9053 82.3409 85.4096 79.2656L85.5879 79.295C85.0904 82.329 85.87 87.866 88.2698 89.991C88.4642 90.1636 88.6548 90.3739 88.8366 90.6158C90.4334 92.7462 91.0396 97.0099 91.1864 98.2518C92.7131 94.5598 92.986 90.7053 91.9966 86.7897C90.9229 82.5298 88.693 79.7363 88.6705 79.7087L88.8111 79.5954C88.8338 79.6233 91.0884 82.448 92.1717 86.7455C93.1994 90.8134 92.8782 94.8162 91.2169 98.6424L91.0762 98.9669Z" fill="black"/>
<path d="M82.3047 132.173C79.1655 127.526 78.9399 123.051 78.9251 122.277C78.254 122.438 74.7537 123.163 72.0244 121.585C70.4832 120.693 69.4431 119.227 68.933 117.228C67.9669 113.442 69.6541 109.24 72.4726 108.411C73.807 108.018 77.163 107.992 79.9686 115.908C79.9291 114.356 79.8676 110.214 80.272 108.478C80.4228 107.834 81.385 106.5 82.6033 104.812C85.5241 100.766 89.9382 94.6499 88.6764 90.6954L88.8485 90.6406C90.1378 94.6816 85.6918 100.842 82.7497 104.918C81.5433 106.589 80.5902 107.91 80.4478 108.519C79.9613 110.607 80.1644 116.436 80.1665 116.495L80.1889 117.118L79.9906 116.527C78.053 110.748 75.262 107.779 72.5235 108.584C69.8412 109.373 68.1812 113.552 69.1079 117.183C69.6054 119.133 70.6168 120.562 72.1138 121.428C75.0639 123.135 78.9512 122.085 78.9901 122.074L79.1069 122.042L79.1045 122.163C79.1035 122.211 79.0524 127.036 82.4542 132.071L82.3047 132.173Z" fill="black"/>
<path d="M106.143 143.435C104.701 143.435 103.233 143.331 101.753 143.119C101.239 143.047 100.712 142.959 100.188 142.858C98.9595 142.621 97.7165 142.31 96.4936 141.934C93.3482 140.965 90.5566 139.654 88.1964 138.038C85.8068 136.399 83.8263 134.431 82.3096 132.188L82.4594 132.087C83.9632 134.311 85.9278 136.263 88.2987 137.889C90.6439 139.495 93.4188 140.798 96.5469 141.761C97.7635 142.135 99 142.445 100.222 142.681C100.744 142.781 101.267 142.869 101.778 142.94C109.982 144.116 117.823 141.952 122.751 137.151C125.625 134.35 127.063 130.957 126.694 127.84C126.653 127.492 126.618 127.133 126.589 126.772C126.223 122.206 127.238 119.898 128.413 117.224L128.523 116.974C129.484 114.782 130.319 112.7 130.805 109.41C132.057 100.935 121.238 95.2011 121.128 95.1443L121.212 94.9844C121.239 94.9987 124.003 96.4499 126.574 98.9405C128.952 101.245 131.648 104.937 130.984 109.437C130.495 112.748 129.655 114.842 128.689 117.046L128.579 117.297C127.413 119.948 126.406 122.237 126.769 126.758C126.798 127.116 126.833 127.473 126.873 127.819C127.249 130.992 125.792 134.44 122.877 137.28C118.799 141.252 112.748 143.435 106.143 143.435Z" fill="black"/>
<path d="M84.2691 136.873C83.8582 136.873 81.0511 134.034 79.2649 131.675C77.7682 129.7 76.9855 128.145 76.9385 127.055L77.1189 127.047C77.1636 128.085 77.9555 129.648 79.4091 131.566C81.1958 133.926 83.4915 136.166 84.1151 136.619C83.9062 136.055 83.2859 134.534 82.339 132.263L82.3007 132.171L82.3983 132.119L82.4648 132.096L82.5056 132.194C83.1201 133.668 84.1761 136.216 84.3429 136.72C84.3759 136.819 84.3097 136.86 84.2961 136.867C84.2889 136.871 84.2797 136.873 84.2691 136.873Z" fill="black"/>
<path d="M79.4278 134.702L79.2739 134.549C79.2135 134.489 73.2132 128.514 70.747 125.208C70.2591 124.552 69.9455 124.055 69.7881 123.688L69.954 123.617C70.1038 123.966 70.4192 124.465 70.8917 125.1C73.1284 128.099 78.2893 133.307 79.247 134.267V131.622H79.4276L79.4278 134.702Z" fill="black"/>
<path d="M65.0658 91.9767L64.9033 91.8979C66.1551 89.3235 67.8093 87.334 69.8202 85.9844L69.9208 86.1342C67.9369 87.4658 66.3034 89.4315 65.0658 91.9767Z" fill="black"/>
<path d="M71.333 128.756L71.1569 128.603C71.0922 128.547 64.7002 122.851 63.7631 108.889L62.134 109.172L62.1258 109.074C62.1176 108.976 61.3465 99.199 64.9016 91.8984L65.0641 91.9774C61.7214 98.8416 62.2273 107.917 62.2986 108.961L63.9304 108.677L63.9369 108.778C64.759 121.414 70.0534 127.262 71.0974 128.298L70.7292 125.161L70.9086 125.14L71.333 128.756Z" fill="black"/>
<path d="M63.2305 94.0414L63.2605 93.7612C63.2713 93.6607 64.4408 83.6736 73.4029 79.6593C74.2459 79.2818 75.148 78.9627 76.0842 78.7109L76.1312 78.8852C75.2043 79.1345 74.3112 79.4504 73.4768 79.8239C65.4733 83.4088 63.7498 91.8091 63.4819 93.4868L64.9154 91.8742L65.0502 91.9945L65.0486 91.9964L63.2305 94.0414Z" fill="black"/>
<path d="M73.3796 79.8155L73.3584 79.7954L73.3521 79.7695C73.3499 79.7604 73.1186 78.8641 71.7152 78.895C71.5308 78.8995 71.4498 78.8188 71.4186 78.75C71.318 78.5279 71.5793 78.1754 71.8162 77.9188C73.0287 76.6057 77.9721 73.4101 84.6498 75.7349C84.5693 74.7501 84.4517 69.0735 92.0657 67.0014L92.2429 66.9531L92.173 67.1227C92.1613 67.1509 91.0018 69.971 90.1624 72.9671L89.9823 72.9431L89.9885 72.9185C90.7126 70.3339 91.6738 67.8805 91.9369 67.2244C83.971 69.4872 84.8339 75.7899 84.8435 75.8537L84.8664 76.0032L84.7239 75.9522C78.0701 73.5698 73.1486 76.7416 71.9492 78.0409C71.6024 78.4163 71.5583 78.6201 71.5834 78.6754C71.6004 78.7129 71.6777 78.715 71.7111 78.7144C73.2569 78.6767 73.5253 79.7166 73.5278 79.727L73.4422 79.7477L73.3796 79.8155Z" fill="black"/>
<path d="M131.958 117.724V117.634L131.894 117.571L131.924 117.559L131.92 117.552C132.981 117.007 134.25 115.908 135.691 114.287C136.998 112.815 137.969 111.437 137.978 111.423L138.135 111.201L138.209 113.739C138.716 113.441 140.883 111.679 143.14 102.604C145.721 92.22 137.992 83.0937 137.914 83.0027L137.619 82.6613L139.075 83.3903C137.983 80.9275 136.393 78.7047 134.344 76.7798C133.12 75.6293 131.712 74.5666 130.159 73.6212C119.348 67.0264 104.048 67.5249 103.894 67.5309L103.477 67.5468L106.545 66.0142C98.3968 66.7815 92.7817 70.708 90.1343 73.0096C89.1668 73.8538 88.6541 74.4317 88.6491 74.4373L88.5137 74.318C88.5188 74.3122 89.0382 73.7265 90.0157 72.8736C92.7306 70.5132 98.5471 66.4549 107.002 65.7938L107.463 65.7578L104.29 67.3425C106.79 67.314 120.38 67.4443 130.253 73.4673C131.816 74.4192 133.234 75.4895 134.467 76.6485C136.597 78.6495 138.237 80.9707 139.34 83.547L139.437 83.7736L138.313 83.2105C139.661 84.9366 145.643 93.2819 143.315 102.647C140.71 113.126 138.251 113.939 138.147 113.968L138.036 114L137.97 111.744C137.643 112.192 136.834 113.271 135.826 114.407C134.375 116.039 133.093 117.149 132.015 117.706L131.999 117.723L131.958 117.724Z" fill="black"/>
<path d="M127.337 127.121C127.037 127.121 126.79 127.021 126.612 126.825L126.746 126.704C126.989 126.971 127.356 126.964 127.62 126.91C128.903 126.649 130.813 124.809 131.829 121.912C131.987 121.459 132.121 120.99 132.225 120.519C132.506 119.239 132.395 118.287 131.893 117.691C130.911 116.517 128.722 117.072 128.629 117.096L128.606 117.099L128.606 117.006L128.584 116.922C128.681 116.896 130.977 116.314 132.032 117.576C132.571 118.216 132.695 119.22 132.401 120.557C132.296 121.036 132.16 121.512 131.999 121.972C130.962 124.932 128.987 126.816 127.656 127.087C127.544 127.11 127.438 127.121 127.337 127.121Z" fill="black"/>
<path d="M126.73 107.487L126.59 106.748C126.551 106.543 125.572 101.749 119.356 102.714L119.303 102.722L119.271 102.68C119.253 102.658 118.845 102.126 119.036 101.571C119.18 101.151 119.623 100.844 120.351 100.659L120.373 100.656L120.374 100.75L120.395 100.834C119.73 101.003 119.33 101.27 119.207 101.629C119.075 102.012 119.299 102.401 119.383 102.527C124.406 101.771 126.098 104.805 126.59 106.126C126.384 102.001 121.738 100.846 121.689 100.834L121.731 100.659C121.784 100.671 127.018 101.972 126.769 106.735L126.73 107.487Z" fill="black"/>
<path d="M91.9863 100.042L91.9993 99.8608C92.0391 99.3058 92.5732 98.5564 93.4644 97.8048C94.8869 96.6053 97.4223 95.2884 99.8829 95.5286C101.271 95.6644 102.199 96.0801 102.639 96.7641C103.087 97.4602 102.853 98.1672 102.842 98.1968L102.812 98.2861L102.724 98.2515C97.7921 96.3082 92.1946 99.906 92.1388 99.9424L91.9863 100.042ZM99.2866 95.6807C97.0691 95.6807 94.865 96.8602 93.581 97.9429C92.8399 98.5679 92.3452 99.202 92.2131 99.6855C93.197 99.0974 98.1941 96.3399 102.695 98.0472C102.738 97.8458 102.799 97.3436 102.486 96.8594C102.076 96.2256 101.195 95.8384 99.8656 95.7084C99.6728 95.6896 99.4795 95.6807 99.2866 95.6807Z" fill="black"/>
<path d="M120.079 122.66C119.917 122.66 119.754 122.65 119.592 122.631C116.826 122.299 114.918 119.185 115.338 115.689C115.759 112.193 118.351 109.62 121.116 109.95C123.882 110.282 125.79 113.396 125.369 116.892C125.167 118.581 124.457 120.108 123.37 121.192C122.41 122.149 121.257 122.66 120.079 122.66ZM120.634 110.102C118.146 110.102 115.903 112.509 115.518 115.71C115.109 119.107 116.946 122.131 119.613 122.451C120.902 122.606 122.191 122.113 123.243 121.064C124.301 120.009 124.992 118.52 125.19 116.871C125.598 113.474 123.761 110.45 121.094 110.13C120.94 110.111 120.787 110.102 120.634 110.102Z" fill="black"/>
<path d="M96.9638 116.45C96.7463 116.45 96.5277 116.437 96.309 116.41C94.7466 116.223 93.3584 115.382 92.3997 114.041C91.4426 112.703 91.0287 111.026 91.234 109.321C91.4386 107.616 92.2377 106.086 93.4847 105.011C94.7338 103.935 96.2821 103.446 97.8442 103.633C101.065 104.019 103.341 107.199 102.919 110.722C102.714 112.427 101.914 113.958 100.668 115.032C99.5938 115.958 98.2987 116.45 96.9638 116.45ZM97.1922 103.774C95.8993 103.774 94.644 104.251 93.6026 105.148C92.39 106.193 91.6126 107.683 91.4135 109.342C91.2134 111.003 91.6159 112.634 92.5466 113.936C93.4753 115.235 94.8191 116.05 96.3305 116.231C97.8415 116.413 99.3397 115.939 100.55 114.896C101.762 113.851 102.54 112.361 102.74 110.701C103.15 107.276 100.944 104.186 97.8227 103.812C97.6119 103.787 97.4015 103.774 97.1922 103.774Z" fill="black"/>
<path d="M111.324 124.337C110.017 124.337 108.426 123.77 108.325 123.734L108.387 123.564C108.423 123.577 112.044 124.869 112.742 123.605C113.452 122.322 111.067 118.391 111.043 118.352L111.197 118.258C111.298 118.423 113.661 122.318 112.9 123.692C112.632 124.177 112.018 124.337 111.324 124.337Z" fill="black"/>
<path d="M97.1085 129.686C95.7618 125.939 95.8612 121.978 95.8624 121.939L95.8694 121.703L96.0217 121.883C96.0385 121.903 97.7405 123.89 100.92 125.613C104.955 127.797 109.427 128.592 114.211 127.977C114.449 127.946 114.69 127.912 114.933 127.874C115.188 127.833 115.45 127.788 115.711 127.74L115.744 127.917C115.481 127.966 115.219 128.011 114.962 128.053C114.716 128.091 114.474 128.125 114.234 128.156C109.412 128.776 104.903 127.974 100.834 125.772C98.1717 124.329 96.5334 122.7 96.0412 122.173C96.0423 123.068 96.129 126.426 97.2788 129.626L97.1085 129.686Z" fill="black"/>
<path d="M104.677 136.356C103.915 136.356 103.167 136.207 102.44 135.911C100.033 134.929 98.24 132.835 97.1113 129.686L97.2814 129.625C98.3923 132.724 100.151 134.783 102.509 135.744C103.716 136.236 104.984 136.307 106.278 135.955L106.326 136.129C105.771 136.28 105.22 136.356 104.677 136.356Z" fill="black"/>
<path d="M106.325 136.13L106.277 135.956C111.066 134.659 114.831 127.989 114.869 127.922L115.026 128.01C114.989 128.078 111.187 134.813 106.325 136.13Z" fill="black"/>
<path d="M109.175 130.399C107.806 130.399 106.224 130.138 104.433 129.614C101.509 128.759 100.795 125.742 100.788 125.712L100.964 125.672C100.971 125.701 101.664 128.616 104.483 129.441C109.248 130.834 112.501 130.354 114.149 128.014L114.296 128.118C113.226 129.638 111.511 130.399 109.175 130.399Z" fill="black"/>
<path d="M106.21 136.046C105.175 128.981 97.5299 129.715 97.2047 129.749L97.1934 129.569H97.1952C97.5176 129.534 105.329 128.785 106.39 136.031L106.21 136.046Z" fill="black"/>
<path d="M63.2418 146.719L63.1602 146.558C63.4559 146.408 70.4221 142.886 71.97 142.395C73.3407 141.959 81.8538 141.612 83.5466 141.547C84.6902 141.502 85.6826 141.471 85.9595 141.471C86.7224 141.471 87.8088 138.915 88.163 137.93L88.333 137.991C88.1982 138.365 86.9867 141.652 85.9595 141.652C85.7348 141.652 84.886 141.675 83.5536 141.727C78.8888 141.907 73.0706 142.234 72.0248 142.567C70.4906 143.054 63.3141 146.682 63.2418 146.719Z" fill="black"/>
<path d="M94.2198 149.372C93.5283 149.372 92.8065 149.276 92.0659 149.08C85.6556 147.381 85.8657 141.613 85.8685 141.555L86.0489 141.564C86.0463 141.62 85.8462 147.245 92.1123 148.905C95.9709 149.927 98.1236 148.087 99.0633 146.899C100.263 145.382 100.548 143.594 100.125 142.807L100.114 142.787V142.764L100.206 142.763L100.284 142.722C100.744 143.577 100.467 145.416 99.2051 147.011C97.981 148.559 96.2277 149.372 94.2198 149.372Z" fill="black"/>
<path d="M94.0175 151.352C90.6503 151.352 87.8553 150.194 85.9228 147.996C83.7441 145.517 83.3192 142.583 83.4598 141.625L83.6395 141.636C83.4862 142.689 84.0397 145.58 86.0584 147.876C88.0273 150.116 90.7804 151.226 94.2497 151.169C100.502 151.071 101.636 147.1 101.756 144.742C101.806 143.759 101.678 143.053 101.676 143.045L101.854 143.013C101.859 143.042 101.987 143.747 101.937 144.751C101.814 147.172 100.652 151.25 94.2525 151.35C94.1739 151.351 94.0954 151.352 94.0175 151.352Z" fill="black"/>
<path d="M110.705 173.991L110.613 173.836C110.674 173.8 110.735 173.763 110.796 173.725C111.026 173.584 111.228 173.455 111.415 173.33C118.222 168.803 120.124 161.254 120.257 160.689C115.965 153.126 111.191 149.219 107.941 147.273C104.415 145.162 101.872 144.838 101.847 144.835L101.868 144.656C101.894 144.659 104.467 144.984 108.023 147.111C111.3 149.071 116.112 153.007 120.432 160.63L120.449 160.66L120.441 160.694C120.424 160.774 118.618 168.757 111.515 173.48C111.326 173.606 111.122 173.737 110.891 173.879C110.829 173.917 110.767 173.955 110.705 173.991Z" fill="black"/>
<path d="M70.6469 200.595L70.5107 200.476C79.1008 190.633 91.4158 189.636 100.236 190.533L100.217 190.713C91.4412 189.821 79.1863 190.81 70.6469 200.595Z" fill="black"/>
<path d="M115.003 194.214L114.913 194.178C114.85 194.152 108.481 191.555 100.218 190.716L100.236 190.537C107.879 191.312 113.908 193.588 114.854 193.959C114.808 193.584 114.523 191.971 112.735 185.552C112.071 183.169 111.404 179.22 110.754 173.817C109.62 164.394 108.911 153.643 108.904 153.535L109.085 153.523C109.092 153.631 109.8 164.377 110.934 173.796C111.583 179.19 112.247 183.129 112.909 185.504C115.121 193.443 115.049 194.077 115.033 194.123L115.003 194.214Z" fill="black"/>
<path d="M63.6194 168.889C63.6177 168.889 63.6164 168.889 63.6154 168.889L63.4631 168.888L63.5369 168.755C65.6912 164.867 63.2476 154.377 63.2227 154.271L63.3984 154.23C63.4997 154.658 65.828 164.658 63.7692 168.703C64.1699 168.679 65.3362 168.56 67.0083 167.963C68.593 167.4 70.2069 166.566 71.8052 165.486C76.5659 162.269 79.9567 154.51 77.2264 145.906L77.3985 145.852C78.6868 149.911 78.7266 154.04 77.5134 157.792C76.4319 161.137 74.4407 163.923 71.9063 165.635C70.2953 166.724 68.6678 167.565 67.0688 168.133C64.9914 168.875 63.7145 168.889 63.6194 168.889Z" fill="black"/>
<path d="M65.4767 188.67L65.3096 188.601C66.2836 186.237 66.9436 168.228 66.9502 168.047L67.1307 168.053C67.1039 168.796 66.463 186.276 65.4767 188.67Z" fill="black"/>
<path d="M60.3996 119.476L60.3924 119.277L56.8105 30.8197L56.991 30.8125L60.5729 119.27L60.5801 119.469L60.3996 119.476Z" fill="black"/>
<path d="M57.5178 119.478L57.5141 119.408L53.0635 31.1967L53.2439 31.1875L57.6982 119.468L57.5178 119.478Z" fill="black"/>
<path d="M55.6631 169.742C52.1982 169.742 50.1388 168.774 50.111 168.76L50.0918 168.748C41.8695 161.757 48.3733 142.636 49.7606 138.874L49.7979 138.772C49.8569 138.608 49.9422 137.73 50.06 136.516C50.4482 132.52 51.2558 124.205 53.0829 121.887C54.0976 120.599 55.6973 119.687 57.5872 119.317C58.5372 119.128 59.5419 119.083 60.4918 119.188C61.4622 119.295 62.3429 119.55 63.0392 119.927C64.4564 120.695 64.6015 122.235 64.1365 123.341C63.7548 124.249 63.0454 124.72 62.3717 124.513C62.2754 124.483 62.1806 124.44 62.0897 124.385C60.4683 123.409 56.3334 124.805 56.2918 124.819L56.2334 124.648C56.4064 124.589 60.4903 123.211 62.1831 124.23C62.2619 124.278 62.3434 124.315 62.4255 124.34C63.0953 124.546 63.6842 123.952 63.9702 123.271C64.4048 122.238 64.2718 120.8 62.9534 120.086C62.2776 119.72 61.4195 119.471 60.4723 119.367C59.5403 119.265 58.5549 119.308 57.6225 119.494C55.7747 119.855 54.2132 120.745 53.2252 121.998C51.4307 124.275 50.6265 132.554 50.2399 136.534C50.112 137.852 50.0347 138.647 49.9682 138.832L49.9302 138.936C48.5506 142.677 42.0824 161.683 50.1998 168.602C50.4201 168.703 54.1541 170.355 59.959 169.083L59.9976 169.259C58.3853 169.613 56.9301 169.742 55.6631 169.742Z" fill="black"/>
<path d="M56.5655 142.917L56.4912 142.752C56.4954 142.75 56.9111 142.561 57.4329 142.187C58.1965 141.637 58.791 140.976 59.1521 140.276C59.5231 139.557 59.6652 138.781 59.5741 137.97C59.4611 136.967 59.6389 136.327 60.1026 136.069C60.6149 135.784 61.3679 136.061 61.8509 136.44C61.9825 136.543 62.2823 136.806 62.2236 137.018C62.2165 137.044 62.2258 137.081 62.2498 137.123C62.3473 137.291 62.6687 137.519 63.0947 137.629C63.4716 137.728 64.3846 137.842 64.7349 136.759C64.8823 136.303 65.3137 134.718 64.67 133.467C64.3368 132.819 63.7645 132.362 62.9689 132.108C62.0867 131.826 60.9259 131.792 59.5185 132.007L59.4913 131.828C60.9262 131.609 62.1148 131.646 63.0239 131.936C63.8668 132.205 64.4748 132.692 64.8307 133.384C65.5061 134.697 65.0596 136.342 64.9065 136.815C64.4981 138.079 63.3814 137.891 63.049 137.803C62.6243 137.694 62.231 137.451 62.0932 137.213C62.031 137.105 62.035 137.021 62.0493 136.97C62.06 136.931 61.9984 136.785 61.7389 136.582C61.2874 136.228 60.6103 135.992 60.1901 136.226C59.8017 136.443 59.6506 137.038 59.7532 137.949C59.8482 138.796 59.6997 139.607 59.312 140.359C58.9328 141.094 58.3358 141.758 57.5379 142.334C57.0009 142.719 56.583 142.909 56.5655 142.917Z" fill="black"/>
<path d="M63.0079 132.114L62.9844 131.935C63.4934 131.869 63.8567 131.649 64.0641 131.281C64.4955 130.516 64.2004 129.225 63.7805 128.272C63.6872 128.06 63.4171 127.899 62.9771 127.795C61.2191 127.387 57.4331 128.078 57.3951 128.085L57.3623 127.907C57.5191 127.878 61.2231 127.203 63.0184 127.62C63.5239 127.739 63.8272 127.929 63.9458 128.2C64.1581 128.682 64.8057 130.334 64.2214 131.37C63.9846 131.79 63.5762 132.04 63.0079 132.114Z" fill="black"/>
<path d="M63.0541 127.779L62.9323 127.646C63.4381 127.244 63.6801 126.81 63.6607 126.349C63.6193 125.359 62.4 124.536 62.3481 124.502L62.3271 124.485L62.4483 124.352C62.5862 124.444 63.7967 125.279 63.8412 126.342C63.8632 126.863 63.5983 127.347 63.0541 127.779Z" fill="black"/>
<path d="M51.3914 220.211L51.2109 220.201C51.7664 209.594 60.0937 185.754 60.3536 185.013C60.3421 184.625 60.1322 177.566 59.8881 169.169C59.7328 163.778 59.5629 157.833 59.4239 152.749C59.0889 140.393 59.1273 140.321 59.153 140.273L59.3121 140.359L59.2327 140.316L59.3203 140.336C59.3001 140.473 59.3331 142.736 59.6047 152.744C59.7438 157.828 59.9136 163.773 60.0689 169.164C60.32 177.802 60.5349 185.024 60.5349 185.024L60.5354 185.041L60.5299 185.056C60.4438 185.3 51.9514 209.516 51.3914 220.211Z" fill="black"/>
<path d="M59.4896 152.841C56.6779 152.052 57.3911 142.695 57.4227 142.297L57.6028 142.311C57.5952 142.407 56.8685 151.918 59.5384 152.667L59.4896 152.841Z" fill="black"/>
<path d="M120.414 160.739L120.293 160.605C120.369 160.536 127.931 153.719 129.475 150.263C129.189 149.491 125.647 139.72 128.366 136.141C129.097 135.177 130.226 134.753 131.719 134.882C131.726 134.881 131.744 134.882 131.76 134.884L131.731 135.062C131.725 135.061 131.717 135.062 131.711 135.062C130.275 134.94 129.201 135.339 128.509 136.249C125.798 139.82 129.618 150.13 129.657 150.234L129.67 150.268L129.655 150.302C128.13 153.783 120.491 160.67 120.414 160.739Z" fill="black"/>
<path d="M136.26 133.132C136.101 128.877 135.598 115.216 135.671 114.346C135.673 114.324 135.676 114.31 135.678 114.305L135.757 114.345L135.849 114.344V114.368L135.839 114.387C135.775 114.745 136.204 126.802 136.441 133.126L136.26 133.132Z" fill="black"/>
<path d="M132.007 121.929L131.827 121.938L132.38 134.354L132.56 134.346L132.007 121.929Z" fill="black"/>
<path d="M131.244 139.695L131.223 139.663C129.691 137.398 130.832 135.711 131.648 134.907C131.875 134.683 132.133 134.472 132.415 134.278C133.565 133.487 135.031 133.026 136.353 133.048C136.646 133.051 136.927 133.08 137.186 133.132C140.182 133.742 140.191 137.649 140.183 138.092C140.183 138.14 140.181 138.166 140.181 138.166L140 138.152C140 138.151 140.002 138.129 140.002 138.09C140.01 137.661 140.002 133.889 137.15 133.309C136.902 133.259 136.633 133.232 136.35 133.228C135.091 133.207 133.621 133.668 132.517 134.427C132.244 134.614 131.994 134.819 131.775 135.035C130.999 135.8 129.914 137.405 131.372 139.563L131.394 139.595L131.244 139.695Z" fill="black"/>
<path d="M136.667 156.997L136.578 156.84C141.519 154.035 141.984 144.34 141.437 140.348C141.305 139.387 140.837 138.653 140.045 138.167C138.251 137.057 135.373 137.553 135.345 137.558C135.325 137.563 132.769 138.205 131.363 139.675C130.809 140.254 130.503 140.889 130.454 141.564C130.427 141.934 130.496 142.177 130.666 142.307C131.014 142.574 131.791 142.352 132.429 142.129C132.8 141.999 133.197 141.841 133.617 141.675C135.23 141.033 137.06 140.305 138.118 140.948L138.024 141.102C137.043 140.505 135.258 141.215 133.683 141.842C133.262 142.01 132.863 142.168 132.489 142.299C131.766 142.552 130.97 142.768 130.556 142.451C130.334 142.28 130.242 141.986 130.274 141.551C130.326 140.833 130.649 140.16 131.233 139.55C132.675 138.042 135.281 137.388 135.308 137.382C135.434 137.359 138.287 136.868 140.14 138.013C140.98 138.529 141.477 139.306 141.616 140.324C142.168 144.354 141.688 154.146 136.667 156.997Z" fill="black"/>
<path d="M132.786 146.105C132.737 146.105 132.688 146.103 132.64 146.099C132.224 146.061 131.906 145.857 131.669 145.474C130.468 143.534 132.206 142.28 132.408 142.144L132.43 142.133L132.453 142.202L132.53 142.278L132.508 142.291L132.509 142.293C132.322 142.42 130.71 143.582 131.822 145.378C132.03 145.715 132.296 145.887 132.656 145.919C133.157 145.962 133.777 145.735 134.493 145.471C135.82 144.982 137.471 144.373 139.126 145.348L139.034 145.504C137.453 144.572 135.914 145.139 134.556 145.64C133.884 145.888 133.296 146.105 132.786 146.105Z" fill="black"/>
<path d="M137.147 151.285L136.974 151.235C137.227 150.356 137.068 149.963 136.367 149.733C135.821 149.551 134.966 149.479 133.782 149.38L133.756 149.378C133.607 149.365 133.464 149.343 133.332 149.313C132.779 149.188 132.403 148.912 132.212 148.493C131.756 147.489 132.535 146.03 132.568 145.969L132.727 146.055C132.719 146.069 131.958 147.497 132.377 148.419C132.543 148.783 132.878 149.025 133.372 149.137C133.497 149.166 133.631 149.186 133.772 149.198L133.798 149.2C134.994 149.301 135.858 149.374 136.424 149.561C137.216 149.821 137.425 150.321 137.147 151.285Z" fill="black"/>
<path d="M148.639 212.135L137.45 186.501L137.449 186.484L136.306 149.654L136.486 149.648L137.629 186.461L148.805 212.063L148.639 212.135Z" fill="black"/>
<path d="M120.557 178.289C115.708 178.289 111.442 173.512 111.397 173.461L111.533 173.342C111.58 173.395 116.248 178.622 121.317 178.068C126.485 177.504 131.699 167.353 133.661 163.531L133.822 163.614C131.847 167.459 126.601 177.672 121.337 178.247C121.076 178.275 120.815 178.289 120.557 178.289Z" fill="black"/>
<path d="M145.419 221.966L145.357 221.927L145.411 221.856L145.338 221.85C145.333 221.815 145.253 221.558 144.154 219.853C143.109 218.224 141.364 215.632 138.968 212.15L138.845 211.972C138.25 211.109 137.603 210.171 136.894 209.151C135.236 206.762 133.347 204.587 131.279 202.687L131.402 202.555C133.479 204.463 135.377 206.648 137.043 209.048C137.751 210.068 138.399 211.007 138.994 211.87L139.117 212.047C141.513 215.531 143.259 218.125 144.306 219.755C145.555 221.695 145.528 221.814 145.515 221.871L145.507 221.908L145.419 221.966Z" fill="black"/>
<path d="M131.28 202.684C130.22 201.709 129.09 200.787 127.923 199.943C121.16 195.054 114.997 194.187 114.936 194.179L114.959 194C115.021 194.008 121.227 194.879 128.029 199.797C129.202 200.645 130.337 201.572 131.402 202.551L131.28 202.684Z" fill="black"/>
<path d="M134.469 237.983C132.106 237.983 128.939 232.846 128.798 232.616L128.772 232.574L128.794 232.53C128.937 232.233 129.096 231.924 129.278 231.585C132.743 225.152 137.389 223.399 142.246 222.04C143.396 221.718 144.466 221.627 145.424 221.767C146.223 221.885 146.965 222.162 147.642 222.592C148.918 223.406 150.006 224.775 151.068 226.9C152.789 230.339 148.836 232.416 148.795 232.436L148.697 232.487L148.147 230.506C141.717 227.033 135.184 237.71 135.119 237.818L135.104 237.843L135.078 237.854C134.999 237.89 134.926 237.915 134.854 237.933C134.729 237.967 134.6 237.983 134.469 237.983ZM128.978 232.564C129.289 233.061 132.314 237.802 134.465 237.803C134.582 237.803 134.697 237.789 134.808 237.759L134.81 237.759C134.864 237.745 134.919 237.726 134.979 237.701C135.152 237.421 136.771 234.839 139.099 232.689C142.364 229.673 145.535 228.87 148.267 230.367L148.3 230.385L148.811 232.223C149.415 231.883 152.418 230.002 150.906 226.98C149.86 224.886 148.792 223.54 147.544 222.744C146.88 222.322 146.182 222.062 145.41 221.947C144.464 221.809 143.42 221.899 142.294 222.214C137.477 223.562 132.868 225.3 129.437 231.67C129.265 231.99 129.115 232.283 128.978 232.564Z" fill="black"/>
<path d="M123.577 228.577L123.566 228.496C123.485 227.959 123.155 225.974 122.301 223.041C121.405 219.973 119.733 215.23 116.854 210.061C113.685 204.37 107.182 200.247 102.285 197.791C98.4746 195.883 95.4587 194.892 95.4287 194.883L95.4847 194.711C95.5149 194.721 98.5428 195.715 102.366 197.63C107.286 200.098 113.82 204.242 117.012 209.973C119.899 215.157 121.576 219.913 122.474 222.991C123.331 225.934 123.664 227.929 123.745 228.471L123.756 228.553L123.577 228.577Z" fill="black"/>
<path d="M113.427 249.976C112.27 249.976 110.961 249.845 109.88 249.395C107.319 248.328 105.17 240.944 105.079 240.63L105.072 240.605L105.08 240.58C105.084 240.564 105.2 240.171 105.469 239.521C106.102 238.001 107.59 235.083 110.452 232.616C113.962 229.59 118.407 228.172 123.659 228.398C124.057 228.417 124.468 228.444 124.879 228.48L124.915 228.483L124.939 228.511C125.154 228.759 130.204 234.632 129.353 237.916C128.49 241.237 125.862 240.736 125.835 240.73L125.871 240.553C125.972 240.574 128.36 241.022 129.178 237.871C129.976 234.789 125.207 229.104 124.826 228.657C124.43 228.622 124.035 228.596 123.651 228.579C111.409 228.054 106.767 236.872 105.636 239.59C105.408 240.139 105.29 240.51 105.261 240.606C105.403 241.091 107.541 248.225 109.95 249.229C111.724 249.967 114.143 249.826 115.428 249.676C115.97 249.614 116.317 249.547 116.321 249.547L116.355 249.724C116.351 249.725 115.998 249.792 115.449 249.855C114.923 249.916 114.21 249.976 113.427 249.976Z" fill="black"/>
<path d="M118.202 250.782L118.101 250.737C117.496 250.471 116.886 250.124 116.286 249.706C113.765 247.95 112.124 245.419 112.108 245.394L112.083 245.355L112.1 245.312C115.528 236.508 123.711 236.958 124.827 237.33C125.285 237.482 125.66 238.591 125.943 240.626C126.045 241.358 126.093 241.933 126.093 241.939L126.1 242.022L126.018 242.035C119.986 243.004 118.242 250.598 118.225 250.674L118.202 250.782ZM112.285 245.335C112.499 245.656 114.067 247.94 116.39 249.558C116.947 249.947 117.513 250.273 118.075 250.528C118.312 249.592 120.215 242.848 125.906 241.871C125.889 241.687 125.843 241.216 125.764 240.651C125.503 238.772 125.141 237.624 124.77 237.501C123.677 237.137 115.672 236.704 112.285 245.335Z" fill="black"/>
<path d="M105.469 239.587C105.444 239.524 102.899 233.205 100.149 228.139C98.1703 224.497 96.5792 222.39 95.4194 221.875C95.1811 221.769 94.9168 221.634 94.6116 221.463C90.6671 219.251 82.3947 212.207 81.8852 211.772C79.4194 211.68 75.4436 211.594 75.1751 211.751L75.0801 211.862L75.0326 211.718L63.6611 184.766L63.6607 184.749L63.4313 168.803L62.9814 137.721L63.1621 137.719L63.841 184.729L75.1679 211.574C75.9483 211.393 80.0776 211.524 81.9233 211.593L81.955 211.594L81.9788 211.615C82.0651 211.689 90.6651 219.043 94.6999 221.306C94.996 221.472 95.2627 221.608 95.4927 221.71C96.6898 222.241 98.3096 224.375 100.307 228.053C103.063 233.128 105.611 239.457 105.637 239.52L105.469 239.587Z" fill="black"/>
<path d="M129.284 231.68C129.226 231.6 123.525 223.685 122.347 223.101L122.386 223.022L122.385 222.93H122.408L122.427 222.939C123.645 223.543 129.195 231.247 129.431 231.575L129.284 231.68Z" fill="black"/>
<path d="M102.413 197.73L102.236 197.694C102.66 195.633 105.979 194.073 106.12 194.008L106.196 194.171C106.162 194.187 102.818 195.758 102.413 197.73Z" fill="black"/>
<path d="M100.682 195.909C100.649 194.98 100.261 191.681 100.143 190.692L100.137 190.637L100.317 190.625L100.322 190.67C100.441 191.661 100.829 194.966 100.862 195.903L100.682 195.909Z" fill="black"/>
<path d="M128.057 199.913L127.895 199.833L134.259 186.888C134.244 186.297 133.926 173.957 133.651 163.581C133.342 151.975 133.263 149.413 133.251 149.307L133.34 149.297V149.203C133.434 149.203 133.434 149.203 133.471 150.443C133.494 151.183 133.524 152.249 133.561 153.555C133.633 156.167 133.73 159.738 133.832 163.576C134.114 174.21 134.44 186.906 134.44 186.906L134.441 186.928L134.431 186.948L128.057 199.913Z" fill="black"/>
<path d="M145.665 212.15C145.456 211.842 136.448 193.153 135.344 190.863L131.426 202.649L131.343 202.621L131.25 202.622L131.255 202.592L135.313 190.383L135.41 190.584C138.928 197.885 145.63 211.768 145.815 212.049L145.665 212.15Z" fill="black"/>
<path d="M144.234 219.894L144.224 219.713L152.342 219.28L151.72 212.188H139.042L139.04 212.008H151.886L152.538 219.45L144.234 219.894Z" fill="black"/>
<path d="M147.644 222.74L147.527 222.603L147.542 222.591L152.39 219.289L152.492 219.438L147.644 222.74Z" fill="black"/>
<path d="M50.17 229.259L50.1499 229.152C50.0046 228.375 48.7305 221.562 48.7305 221.346C48.7305 221.264 48.7305 221.226 51.2647 220.127C52.2529 219.698 53.525 219.154 55.1542 218.464C61.5002 215.773 69.8498 212.304 69.9335 212.27C70.3254 212.105 70.5441 212.015 70.5441 212.015L70.5705 212.009L75.1077 211.594L75.1241 211.774L70.6004 212.187C70.5488 212.209 70.34 212.295 70.003 212.436C69.9192 212.471 61.5702 215.939 55.2246 218.63C53.596 219.32 52.3242 219.864 51.3365 220.293C49.4941 221.091 49.0275 221.321 48.9152 221.387C48.9871 221.921 49.9164 226.923 50.3072 229.011L70.7896 220.975L70.8072 220.975L94.6568 221.294L94.6543 221.475L70.8224 221.156L50.17 229.259Z" fill="black"/>
<path d="M70.6796 212.097L70.499 212.102L70.7269 221.068L70.9074 221.064L70.6796 212.097Z" fill="black"/>
<path d="M100.229 228.009L50.2402 229.039L50.244 229.219L100.232 228.19L100.229 228.009Z" fill="black"/>
<path d="M55.0992 218.549C54.9485 215.975 61.4955 190.614 61.7742 189.535L61.848 189.25L70.0532 212.32L69.8829 212.38L61.8753 189.866C61.1374 192.734 55.1387 216.137 55.2794 218.538L55.0992 218.549Z" fill="black"/>
<path d="M65.5062 208.435C63.7709 208.435 62.6278 208.028 62.0653 207.531C61.8142 207.309 61.6852 207.071 61.7016 206.862C61.7536 206.176 63.3172 194.572 63.3837 194.078L63.5628 194.102C63.5465 194.223 61.9333 206.195 61.8817 206.876C61.87 207.026 61.9805 207.215 62.1849 207.396C62.9873 208.105 65.0444 208.619 68.4115 207.935L68.4475 208.112C67.3272 208.339 66.3472 208.435 65.5062 208.435Z" fill="black"/>
<path d="M124.762 270.61C124.504 270.395 124.255 270.157 124.023 269.903C122.196 267.906 120.94 263.638 119.725 259.51C118.422 255.082 117.192 250.901 115.393 249.843L115.484 249.688C117.345 250.781 118.585 254.997 119.899 259.459C121.107 263.567 122.357 267.815 124.157 269.781C124.383 270.029 124.626 270.261 124.878 270.471L124.762 270.61Z" fill="black"/>
<path d="M128.863 272.105C128.17 272.105 127.435 272.004 126.695 271.736C126.003 271.486 125.353 271.109 124.762 270.614L124.878 270.476C125.453 270.957 126.084 271.324 126.756 271.567C129.669 272.619 132.529 271.034 132.747 270.909C138.017 264.438 141.785 258.868 143.948 254.352C146.496 249.04 146.955 245.071 145.349 242.217C145.186 241.925 144.995 241.637 144.78 241.363C143.977 240.331 142.821 239.461 141.345 238.778C139.225 237.796 137.074 237.615 134.951 238.24C134.864 238.266 134.778 238.293 134.692 238.322C133.799 238.612 132.902 239.054 132.025 239.634C129.604 241.242 128.148 243.398 128.134 243.419L128.083 243.495L125.952 242.027L126.054 241.879L128.036 243.244C128.318 242.845 129.731 240.94 131.925 239.484C132.816 238.894 133.728 238.446 134.636 238.15C134.723 238.122 134.81 238.094 134.899 238.067C137.066 237.429 139.26 237.613 141.421 238.615C142.923 239.31 144.101 240.197 144.922 241.252C145.143 241.533 145.34 241.829 145.506 242.129C147.143 245.037 146.687 249.061 144.111 254.43C141.94 258.961 138.161 264.548 132.877 271.035L132.854 271.056C132.83 271.069 131.069 272.105 128.863 272.105Z" fill="black"/>
<path d="M120.298 251.695C120.276 251.695 120.255 251.694 120.234 251.692C119.61 251.633 119.271 250.73 119.257 250.692L119.25 250.673L119.252 250.653C119.733 244.999 126.467 242.284 126.535 242.258L126.602 242.426C126.535 242.452 119.921 245.121 119.433 250.647C119.482 250.769 119.782 251.468 120.251 251.512C120.582 251.541 120.943 251.241 121.32 250.614C121.481 250.345 121.655 250.041 121.843 249.713C123.136 247.451 125.091 244.032 128.036 243.281L128.081 243.456C125.21 244.188 123.278 247.567 121.999 249.802C121.811 250.131 121.637 250.437 121.474 250.707C121.081 251.363 120.685 251.695 120.298 251.695Z" fill="black"/>
<path d="M131.673 247.888H131.647L131.623 247.875C130.446 247.142 129.77 246.19 129.615 245.046C129.256 242.409 131.802 239.61 131.91 239.492L132.045 239.612L132.043 239.614C131.937 239.73 129.446 242.468 129.794 245.022C129.942 246.11 130.589 247.018 131.719 247.722L131.672 247.796L131.673 247.888Z" fill="black"/>
<path d="M124.733 270.563C124.294 268.941 125.55 265.445 127.141 261.018C127.809 259.159 128.566 257.051 129.272 254.87C129.806 253.216 130.373 251.482 130.929 249.783L131.585 247.774C132.856 243.893 134.596 238.578 134.574 238.238L134.754 238.227C134.775 238.543 133.761 241.709 131.757 247.83L131.1 249.839C130.545 251.538 129.978 253.272 129.443 254.925C128.737 257.11 127.979 259.218 127.311 261.079C125.731 265.476 124.483 268.949 124.907 270.516L124.911 270.539L124.817 270.54L124.733 270.563Z" fill="black"/>
<path d="M148.812 260.954C146.23 260.251 144.591 258.045 143.942 254.399L144.12 254.367C144.756 257.939 146.351 260.097 148.86 260.78L148.812 260.954Z" fill="black"/>
<path d="M150.669 261.189C150.448 261.189 150.227 261.18 150.007 261.161C149.599 261.127 149.197 261.058 148.813 260.954L148.861 260.78C149.234 260.881 149.624 260.948 150.022 260.981C153.363 261.268 156.714 259.281 157.192 258.735C158.264 257.509 167.417 246.389 171.077 241.12C173.277 237.951 173.216 233.839 170.921 230.644L171.068 230.539C173.408 233.797 173.47 237.991 171.226 241.222C167.562 246.497 158.401 257.627 157.328 258.853C156.755 259.508 153.701 261.188 150.669 261.189Z" fill="black"/>
<path d="M145.507 242.211L145.352 242.119C145.37 242.088 147.234 238.963 149.946 235.515C151.195 233.927 152.428 232.517 153.609 231.323C155.848 229.051 157.959 227.487 159.882 226.674C161.395 226.032 162.809 225.852 164.084 226.142C167.076 226.824 169.49 228.344 171.064 230.538L170.917 230.643C169.369 228.486 166.993 226.99 164.044 226.318C162.807 226.038 161.43 226.213 159.952 226.84C158.051 227.644 155.96 229.195 153.737 231.45C152.561 232.639 151.333 234.044 150.088 235.626C147.383 239.066 145.525 242.18 145.507 242.211Z" fill="black"/>
<path d="M148.838 260.956H148.816L148.795 260.946C148.038 260.565 147.544 259.943 147.326 259.098C146.171 254.617 152.937 244.732 156.572 239.42C157.171 238.544 157.689 237.788 158.057 237.222C158.158 237.067 158.248 236.925 158.325 236.799C160.629 233.048 159.836 226.828 159.828 226.766L160.007 226.742C160.015 226.805 160.817 233.087 158.479 236.894C158.401 237.021 158.31 237.164 158.208 237.32C157.84 237.888 157.321 238.645 156.721 239.522C153.102 244.809 146.366 254.651 147.501 259.053C147.706 259.845 148.168 260.428 148.877 260.785L148.837 260.864L148.838 260.956Z" fill="black"/>
<path d="M158.105 237.361C153.012 235.799 153.577 231.419 153.583 231.375L153.762 231.4C153.756 231.443 153.215 235.673 158.158 237.188L158.105 237.361Z" fill="black"/>
<path d="M148.826 232.317L148.657 232.383L149.918 235.6L150.086 235.534L148.826 232.317Z" fill="black"/>
<path d="M141.447 238.756L141.32 238.628C141.553 238.399 147.054 233.016 149.223 233.42C149.286 233.431 149.35 233.449 149.418 233.475L149.353 233.643C149.296 233.622 149.244 233.607 149.191 233.598C147.111 233.211 141.503 238.701 141.447 238.756Z" fill="black"/>
<path d="M120.286 121.974C120.161 121.974 120.037 121.959 119.914 121.929C119.324 121.782 118.856 121.302 118.598 120.579C118.345 119.868 118.324 119.003 118.539 118.144C118.808 117.061 119.419 116.143 120.173 115.691C120.623 115.421 121.091 115.335 121.529 115.445C121.967 115.553 122.341 115.848 122.612 116.297C123.065 117.05 123.175 118.146 122.904 119.229C122.505 120.833 121.383 121.974 120.286 121.974ZM121.152 115.579C120.861 115.579 120.56 115.669 120.266 115.845C119.553 116.274 118.972 117.149 118.714 118.188C118.508 119.013 118.527 119.84 118.769 120.518C119.006 121.183 119.428 121.621 119.958 121.754C121.065 122.028 122.309 120.876 122.729 119.185C122.988 118.148 122.887 117.103 122.457 116.39C122.212 115.983 121.876 115.717 121.486 115.62C121.376 115.592 121.265 115.579 121.152 115.579Z" fill="black"/>
<path d="M97.6889 115.826C97.5613 115.826 97.4352 115.81 97.3114 115.779C96.8737 115.671 96.4991 115.376 96.2285 114.927C95.775 114.174 95.6657 113.078 95.9361 111.995C96.3805 110.208 97.7212 108.996 98.9265 109.295C100.13 109.595 100.747 111.293 100.302 113.08C100.032 114.163 99.4214 115.081 98.6673 115.534C98.3447 115.727 98.0125 115.826 97.6889 115.826ZM98.55 109.43C97.5365 109.43 96.4901 110.516 96.1116 112.039C95.8525 113.076 95.9541 114.121 96.3835 114.834C96.6289 115.241 96.9648 115.508 97.3552 115.604C97.7451 115.702 98.1666 115.624 98.5741 115.379C99.2879 114.95 99.8682 114.074 100.126 113.036C100.547 111.346 99.9894 109.746 98.8827 109.47C98.7729 109.443 98.6616 109.43 98.55 109.43Z" fill="black"/>
<path d="M134.406 76.76C134.382 76.76 134.362 76.7418 134.361 76.718L132.692 52.728C132.69 52.703 132.709 52.6815 132.733 52.6799C132.758 52.6777 132.78 52.6969 132.781 52.7218L134.45 76.7118C134.452 76.7367 134.434 76.7582 134.409 76.76C134.408 76.76 134.407 76.76 134.406 76.76Z" fill="black"/>
<path d="M130.206 73.5911C130.182 73.5911 130.162 73.5725 130.161 73.5483L129.122 53.2352C129.121 53.2104 129.14 53.1892 129.165 53.1879C129.19 53.1844 129.211 53.2057 129.212 53.2305L130.251 73.5437C130.252 73.5685 130.233 73.5898 130.208 73.591C130.207 73.5911 130.206 73.5911 130.206 73.5911Z" fill="black"/>
<path d="M123.473 116.25C123.473 117.065 123.083 117.726 122.603 117.726C122.123 117.726 121.734 117.065 121.734 116.25C121.734 115.434 122.124 114.773 122.603 114.773C123.083 114.773 123.473 115.434 123.473 116.25Z" fill="white"/>
<path d="M100.743 110.328C100.743 111.143 100.354 111.804 99.874 111.804C99.3939 111.804 99.0049 111.143 99.0049 110.328C99.0049 109.513 99.3941 108.852 99.874 108.852C100.354 108.852 100.743 109.513 100.743 110.328Z" fill="white"/>
<path d="M91.9863 74.2411C91.9863 74.2411 114.314 61.0368 136.976 81.5292C136.976 81.5292 119.361 64.9809 91.9863 74.2411Z" fill="#4A312A"/>
<path d="M76.1315 80.4375C76.1315 80.4375 64.0169 89.2951 63.8429 107.489C63.8429 107.489 59.0657 94.5245 76.1315 80.4375Z" fill="#4A312A"/>
<path d="M91.3633 81.0078C91.3633 81.0078 94.0108 91.7189 108.326 95.4949C108.326 95.4949 96.8999 90.5186 91.3633 81.0078Z" fill="#4A312A"/>
<path d="M87.4453 81.0078C87.4453 81.0078 92.0182 85.8007 91.3628 94.9794C91.3628 94.9794 93.4541 85.2092 87.4453 81.0078Z" fill="#4A312A"/>
<path d="M85.6431 88.2578C85.6431 88.2578 87.3729 99.2375 78.8682 105.86C78.8682 105.86 85.2139 99.3597 85.6431 88.2578Z" fill="#4A312A"/>
<path d="M113.051 82.4665C112.818 82.0275 120.046 92.4983 120.227 98.4146C120.227 98.4146 117.883 91.5551 113.051 82.4665Z" fill="#4A312A"/>
<path d="M136.441 86.3828C136.441 86.3828 145.661 98.9753 132.691 114.773C132.691 114.773 148.869 99.1272 136.441 86.3828Z" fill="#4A312A"/>
<path d="M119.075 79.2656C119.075 79.2656 132.484 81.2668 133.571 98.4153C133.571 98.4153 136.37 81.38 119.075 79.2656Z" fill="#110000"/>
<path d="M79.4278 85.9844C79.4278 85.9844 68.9042 88.8807 70.8786 103.68C70.8786 103.68 71.4955 93.1875 79.4278 85.9844Z" fill="#110000"/>
<path d="M97.0762 79.8125C97.0762 79.8125 106.681 89.6558 111.055 90.4342C111.055 90.4342 101.213 87.4472 97.0762 79.8125Z" fill="#110000"/>
<path d="M101.791 75.7869C101.545 75.8803 107.646 75.2502 112.654 76.7581C112.654 76.7581 108.326 73.3078 101.791 75.7869Z" fill="#110000"/>
<path d="M82.3092 76.7575C82.3092 76.7575 76.4383 74.7756 73.5391 78.0082C73.5391 78.0082 78.2031 75.9356 82.3092 76.7575Z" fill="#110000"/>
<path d="M85.957 77.0848C86.2438 76.9819 85.7064 71.5802 89.5804 69.0078C89.5804 69.0078 86.4156 73.7237 86.2438 76.9819" fill="#4A312A"/>
<path d="M103.756 154.75C103.756 154.75 106.521 180.084 107.628 180.664C107.628 180.664 105.746 166.471 103.756 154.75Z" fill="#E24450"/>
<path d="M65.3093 148.148C64.9706 148.205 72.9382 144.438 72.9382 144.438C72.9382 144.438 67.8955 147.72 65.3093 148.148Z" fill="#E24450"/>
<path d="M57.3193 130.914C57.3193 130.914 57.9949 136.91 56.4912 140.278C56.4912 140.278 59.0398 136.916 57.3193 130.914Z" fill="#FFE8E1"/>
<path d="M55.873 148.633L58.4289 158.567C58.4289 158.567 56.3647 154.345 55.873 148.633Z" fill="#FFE8E1"/>
<path d="M122.871 161.526C122.531 161.793 131.5 153.948 130.998 149.375C130.998 149.375 133.144 153.427 122.871 161.526Z" fill="#FFE8E1"/>
<path d="M-9.4043 3.71097C-9.4043 3.71097 65.8498 3.51803 121.8 32.0703C121.8 32.0703 64.7623 7.18358 -9.4043 3.71097Z" fill="#E6E6E6"/>
<path d="M58.7429 18.3334L58.7393 18.355C58.3365 18.2919 57.8867 18.3714 57.3972 18.6256C57.3972 18.6256 56.2628 19.0027 56.3333 21.9561C56.393 24.4188 53.9889 24.6533 53.1886 24.6641L53.1543 14.808C53.1543 14.8043 53.1543 14.8008 53.1543 14.7971C53.1543 13.2581 54.4043 12.0078 55.9486 12.0078C57.493 12.0078 58.7429 13.2563 58.7429 14.7988V18.3334Z" fill="#B3B3B3"/>
<path d="M53.2784 24.7676H53.0978V24.6683L53.0635 14.8125C53.0635 13.2136 54.3574 11.9219 55.9481 11.9219C57.5386 11.9219 58.8325 13.2145 58.8325 14.8032V18.3374H58.6519V14.8032C58.6519 13.3139 57.439 12.1023 55.9481 12.1023C54.4572 12.1023 53.2441 13.3131 53.2441 14.8013L53.2784 24.7676Z" fill="black"/>
<path d="M54.1677 31.2787C53.818 31.2787 53.4791 31.2577 53.1515 31.2159C50.0037 30.816 47.7778 28.4696 46.5359 24.2418C46.1978 23.09 46.2476 21.9944 46.6799 21.0732C47.2635 19.8244 48.5056 19.0421 49.5678 19.2552C50.3259 19.4068 50.7838 20.0451 50.8237 21.0065C50.9612 24.2762 52.8618 24.5566 52.9429 24.5671C52.9446 24.5671 53.0371 24.5729 53.187 24.5718C53.6792 24.5651 54.9033 24.4673 55.6398 23.7035C56.0573 23.2705 56.2603 22.6825 56.2426 21.9562C56.1714 18.9703 57.3194 18.5543 57.3682 18.5379C57.8444 18.2893 58.3148 18.1955 58.7528 18.2638C60.445 18.5218 61.2279 20.9948 61.2531 23.3315C61.2882 26.5346 59.9628 30.1179 56.9225 30.9016C55.9485 31.1526 55.026 31.2787 54.1677 31.2787ZM49.2362 19.4038C48.4168 19.4038 47.3798 20.0023 46.8436 21.1496C46.4303 22.0304 46.3839 23.082 46.7093 24.191C47.9291 28.3434 50.1043 30.6467 53.1744 31.0368C54.283 31.1786 55.5288 31.0744 56.8776 30.7267C59.8232 29.9674 61.1069 26.4662 61.0726 23.3333C61.0438 20.6596 60.0786 18.6482 58.7253 18.442C58.3253 18.3793 57.8927 18.4673 57.4386 18.7034C57.4154 18.7125 56.3556 19.1194 56.4232 21.9517C56.442 22.728 56.2221 23.3595 55.7699 23.8285C54.9863 24.6412 53.7044 24.745 53.1895 24.752C53.0241 24.7539 52.9251 24.7464 52.9251 24.7464C52.8996 24.7434 50.7878 24.4443 50.6435 21.014C50.6073 20.1424 50.2023 19.5658 49.5326 19.432C49.4382 19.4133 49.339 19.4038 49.2362 19.4038Z" fill="black"/>
<path d="M55.1914 34.1953L58.8335 116.442C58.8335 116.442 57.0895 36.2464 55.1914 34.1953Z" fill="#D8D9D9"/>
<path d="M131.249 55.8047L132.466 73.0474C132.466 73.0474 129.732 58.7974 131.249 55.8047Z" fill="#D8D9D9"/>
<path d="M135.325 159.32L136.031 186.597L145.815 208.431L135.188 187.562L135.325 159.32Z" fill="#D8D9D9"/>
<path d="M61.6998 140.273L62.5749 184.412C62.5749 184.412 71.479 208.445 71.6936 208.432C71.908 208.42 61.3496 184.755 61.3496 184.755L61.6998 140.273Z" fill="#D8D9D9"/>
<path d="M121.739 238.227L123.169 241.176C123.169 241.176 122.648 238.824 121.739 238.227Z" fill="#FFE8E1"/>
<path d="M144.23 231.377L147.528 232.323C147.528 232.323 147.983 231.209 144.23 231.377Z" fill="#FFE8E1"/>
<defs>
<linearGradient id="paint0_linear_4087_45760" x1="119.324" y1="122.29" x2="120.803" y2="114.187" gradientUnits="userSpaceOnUse">
<stop stop-color="#956233"/>
<stop offset="1" stop-color="#42210B"/>
</linearGradient>
<linearGradient id="paint1_linear_4087_45760" x1="96.54" y1="115.848" x2="98.0191" y2="108.131" gradientUnits="userSpaceOnUse">
<stop stop-color="#956233"/>
<stop offset="1" stop-color="#42210B"/>
</linearGradient>
</defs>
</svg>
