<?xml version="1.0" encoding="UTF-8"?>
<svg xmlns="http://www.w3.org/2000/svg" xmlns:xlink="http://www.w3.org/1999/xlink" width="3000" height="3000" viewBox="0 0 3000 3000">
<path fill-rule="nonzero" fill="rgb(100%, 60.742188%, 12.889099%)" fill-opacity="1" d="M 1398.160156 494.148438 C 1453.320312 470.648438 1510.109375 456.480469 1567.75 445.300781 C 1596.949219 439.628906 1626.109375 433.730469 1655.339844 428.21875 C 1693.339844 421.050781 1731.640625 416.320312 1770.320312 414.949219 C 1791.609375 414.199219 1812.898438 413.328125 1834.199219 413.179688 C 1862.621094 412.96875 1890.96875 414.949219 1919.261719 417.601562 C 1938.699219 419.429688 1958.140625 421.300781 1977.558594 423.378906 C 2014.230469 427.308594 2050.480469 433.910156 2086.699219 440.679688 C 2125.160156 447.871094 2162.960938 457.691406 2200.101562 469.988281 C 2276.179688 495.191406 2349.441406 526.671875 2419.03125 566.761719 C 2479.691406 601.699219 2536.640625 641.640625 2589.441406 687.550781 C 2621.019531 715.011719 2650.089844 744.898438 2676.441406 777.410156 C 2682.871094 785.351562 2689.609375 793.050781 2695.78125 801.179688 C 2702.480469 810.011719 2708.769531 819.171875 2715.078125 828.300781 C 2718.871094 833.78125 2722.128906 839.628906 2726.011719 845.03125 C 2762.28125 895.46875 2788.488281 951.328125 2813.710938 1007.71875 C 2820.960938 1023.929688 2828.050781 1040.21875 2835.261719 1056.449219 C 2845.371094 1079.238281 2853.070312 1102.820312 2859.191406 1126.988281 C 2867.910156 1161.410156 2877.730469 1195.558594 2885.769531 1230.128906 C 2890.480469 1250.390625 2892.980469 1271.191406 2895.871094 1291.828125 C 2898.710938 1312.039062 2900.871094 1332.351562 2903.140625 1352.640625 C 2903.828125 1358.808594 2903.75 1365.058594 2904.320312 1371.238281 C 2907 1400.019531 2906 1428.910156 2906.96875 1457.738281 C 2907.488281 1473.261719 2908.511719 1488.75 2909.289062 1504.261719 C 2909.511719 1508.699219 2909.96875 1513.148438 2909.769531 1517.570312 C 2909.050781 1533.519531 2907.851562 1549.449219 2907.28125 1565.398438 C 2905.921875 1603.628906 2900.449219 1641.410156 2895.011719 1679.179688 C 2890.640625 1709.488281 2885.839844 1739.730469 2880.949219 1769.960938 C 2875.699219 1802.449219 2866.558594 1834.039062 2857.929688 1865.71875 C 2847.769531 1903.011719 2835.878906 1939.761719 2821.609375 1975.691406 C 2815.230469 1991.769531 2807.820312 2007.441406 2801.21875 2023.441406 C 2797.839844 2031.621094 2795.269531 2040.140625 2792.230469 2048.460938 C 2790.109375 2054.25 2787.808594 2059.96875 2785.449219 2066.109375 C 2779.398438 2066.910156 2773.761719 2067.800781 2768.101562 2068.371094 C 2744.25 2070.75 2720.339844 2072.589844 2696.558594 2075.480469 C 2678.46875 2077.679688 2660.371094 2079.460938 2642.191406 2079.589844 C 2634.53125 2079.640625 2627.351562 2081.679688 2619.921875 2082.429688 C 2611.539062 2083.28125 2603.128906 2083.820312 2594.730469 2084.449219 C 2566.410156 2086.570312 2538.078125 2088.628906 2509.761719 2090.789062 C 2479.679688 2093.078125 2449.621094 2095.679688 2419.519531 2097.71875 C 2395.621094 2099.339844 2371.660156 2100.148438 2347.738281 2101.609375 C 2326.941406 2102.878906 2306.121094 2104.191406 2285.371094 2106.160156 C 2262.398438 2108.339844 2239.460938 2110.960938 2216.589844 2113.988281 C 2188.871094 2117.671875 2161.230469 2121.929688 2133.570312 2126.03125 C 2106.351562 2130.058594 2079.121094 2134.011719 2051.949219 2138.339844 C 2028.710938 2142.039062 2005.550781 2146.25 1982.359375 2150.210938 C 1913.628906 2161.96875 1845.878906 2178.5 1777.550781 2192.210938 C 1751.460938 2197.441406 1725.890625 2205.21875 1699.960938 2211.308594 C 1664.960938 2219.519531 1629.78125 2226.949219 1594.789062 2235.210938 C 1567.148438 2241.730469 1539.710938 2249.078125 1512.140625 2255.910156 C 1479.398438 2264.019531 1446.410156 2271.191406 1413.910156 2280.128906 C 1353.128906 2296.839844 1292.589844 2314.429688 1232 2331.859375 C 1219.210938 2335.539062 1206.761719 2340.410156 1194 2344.210938 C 1166.769531 2352.300781 1139.519531 2360.328125 1112.140625 2367.871094 C 1079.621094 2376.820312 1047.019531 2385.488281 1014.320312 2393.769531 C 980.679688 2402.300781 948.179688 2414.28125 915.351562 2425.308594 C 872.429688 2439.730469 829.71875 2454.800781 786.570312 2468.480469 C 745.050781 2481.648438 704.398438 2497.089844 663.789062 2512.710938 C 646.390625 2519.398438 628.960938 2526.03125 611.488281 2532.558594 C 594.820312 2538.789062 578.289062 2545.25 563.898438 2556.078125 C 563.269531 2556.550781 562.210938 2556.449219 560.601562 2556.761719 C 558.121094 2550.308594 555.5 2543.769531 553.070312 2537.148438 C 530.160156 2474.589844 509.808594 2411.171875 490.671875 2347.398438 C 479.699219 2310.871094 471.210938 2273.589844 461.378906 2236.710938 C 451.648438 2200.210938 444.441406 2163.179688 438.5 2125.910156 C 435.859375 2109.339844 434.578125 2092.558594 432.519531 2074.53125 C 435.261719 2075.410156 436.988281 2075.511719 438.101562 2076.390625 C 478.800781 2108.441406 524.921875 2129.921875 573.960938 2145.410156 C 590.898438 2150.761719 608.640625 2153.160156 626.339844 2154.660156 C 646.539062 2156.371094 666.171875 2152.25 685.449219 2146.75 C 725.199219 2135.390625 764 2121.390625 801.878906 2104.769531 C 833.589844 2090.859375 865.570312 2077.570312 897.371094 2063.859375 C 907.148438 2059.640625 916.871094 2055.199219 926.351562 2050.351562 C 986.890625 2019.390625 1049.140625 1992.21875 1111.730469 1965.730469 C 1159.621094 1945.46875 1206.371094 1922.789062 1250.988281 1895.960938 C 1275.800781 1881.039062 1299.25 1864.28125 1319.53125 1843.378906 C 1334.128906 1828.328125 1347.199219 1812.03125 1358.210938 1794.269531 C 1391.488281 1740.589844 1421.050781 1684.941406 1445.109375 1626.480469 C 1465.300781 1577.410156 1479.578125 1526.628906 1487.988281 1474.25 C 1491.648438 1451.480469 1495.460938 1428.640625 1497.230469 1405.679688 C 1499.480469 1376.390625 1498.699219 1346.878906 1489.898438 1318.53125 C 1478.960938 1283.289062 1458.238281 1254.320312 1430.109375 1230.460938 C 1410.601562 1213.910156 1388.789062 1201.441406 1365.371094 1191.378906 C 1313.808594 1169.230469 1260.308594 1153.03125 1206.140625 1138.808594 C 1202.710938 1137.910156 1199.261719 1137.050781 1195.851562 1136.058594 C 1195.078125 1135.828125 1194.441406 1135.128906 1192.960938 1134.101562 C 1198.191406 1132 1203.160156 1131.558594 1208.140625 1131.171875 C 1233.351562 1129.191406 1258.550781 1127.25 1283.75 1125.21875 C 1287.269531 1124.941406 1290.808594 1124.421875 1294.25 1123.609375 C 1299.929688 1122.28125 1305.550781 1121.789062 1311.410156 1122.421875 C 1328.320312 1124.230469 1341.949219 1118.121094 1351.820312 1104.300781 C 1357.230469 1096.730469 1362.308594 1088.878906 1367.058594 1080.871094 C 1372.941406 1070.941406 1378.078125 1060.570312 1383.96875 1050.648438 C 1391.941406 1037.230469 1398.738281 1023.308594 1403.960938 1008.609375 C 1411.839844 986.449219 1419.699219 964.269531 1427.621094 942.121094 C 1431.25 931.980469 1433.128906 921.351562 1433.261719 910.800781 C 1433.398438 899.359375 1432.078125 887.78125 1427.871094 876.820312 C 1424.730469 868.640625 1419.808594 861.769531 1411.96875 857.828125 C 1404.480469 854.058594 1396.730469 850.53125 1388.71875 848.140625 C 1336.769531 832.621094 1283.988281 820.609375 1230.640625 811 C 1183.910156 802.570312 1137.21875 793.859375 1090.480469 785.46875 C 1061.640625 780.289062 1032.730469 775.511719 1003.859375 770.46875 C 1000.96875 769.96875 998.191406 768.890625 994.96875 767.96875 C 997.039062 762.261719 1001.179688 759.359375 1004.660156 756.140625 C 1021.628906 740.480469 1038.480469 724.679688 1055.960938 709.601562 C 1120.039062 654.320312 1189.308594 606.210938 1261.398438 562.070312 C 1304.648438 535.558594 1350.199219 513.558594 1398.160156 494.148438 "/>
<path fill-rule="nonzero" fill="rgb(8.59375%, 19.993591%, 20.410156%)" fill-opacity="1" d="M 520.730469 1021.761719 C 497.03125 1024.308594 474.53125 1026.730469 452.050781 1029.25 C 425.589844 1032.210938 399.128906 1035.199219 372.679688 1038.300781 C 353.730469 1040.519531 334.800781 1042.890625 315.871094 1045.269531 C 305.308594 1046.601562 294.769531 1048.148438 284.210938 1049.519531 C 281.230469 1049.910156 278.199219 1049.980469 272.128906 1050.421875 C 276.238281 1047.699219 277.730469 1046.078125 279.511719 1045.628906 C 304.929688 1039.289062 330.289062 1032.679688 355.851562 1026.96875 C 403.078125 1016.441406 450.359375 1006.148438 497.75 996.351562 C 532.53125 989.160156 567.480469 982.828125 602.378906 976.269531 C 651.691406 967 701.011719 957.839844 750.339844 948.71875 C 760.03125 946.929688 769.121094 943.5 778.109375 939.640625 C 787.039062 935.808594 793.320312 928.949219 799 921.5 C 816.78125 898.191406 834.539062 874.859375 852.101562 851.378906 C 866.199219 832.519531 880.578125 813.898438 896.578125 796.589844 C 896.878906 796.261719 897.179688 795.941406 897.460938 795.589844 C 906.390625 784.671875 917.859375 780.589844 931.75 782.53125 C 945.820312 784.5 959.941406 786.058594 974 788.070312 C 1007.839844 792.910156 1041.699219 797.621094 1075.46875 802.890625 C 1126.359375 810.839844 1177.199219 819.171875 1227.5 830.398438 C 1260.429688 837.75 1293.359375 845.121094 1326.039062 853.46875 C 1346.21875 858.628906 1365.960938 865.519531 1385.808594 871.929688 C 1390.398438 873.410156 1394.738281 875.851562 1398.941406 878.289062 C 1402.988281 880.648438 1405.140625 884.351562 1405.238281 889.289062 C 1405.589844 905.328125 1405.53125 921.339844 1400.269531 936.75 C 1391.390625 962.789062 1384.148438 989.558594 1371.828125 1014.171875 C 1359.941406 1037.929688 1346.328125 1060.910156 1332.25 1083.46875 C 1321.449219 1100.769531 1320.609375 1100.480469 1300.210938 1101.230469 C 1262.929688 1102.621094 1225.960938 1107.398438 1188.878906 1111.011719 C 1169.019531 1112.941406 1149.078125 1114.210938 1129.148438 1115.261719 C 1095.488281 1117.039062 1061.808594 1118.550781 1028.128906 1119.898438 C 1013.050781 1120.511719 997.921875 1120.140625 982.839844 1120.820312 C 958.03125 1121.941406 933.238281 1123.429688 908.449219 1125.011719 C 885.441406 1126.480469 862.460938 1128.359375 839.449219 1129.859375 C 831.039062 1130.410156 822.589844 1130.578125 814.160156 1130.640625 C 777.730469 1130.929688 741.289062 1130.871094 704.871094 1131.421875 C 678.261719 1131.820312 651.648438 1132.96875 625.050781 1133.820312 C 602.878906 1134.53125 580.699219 1135.191406 558.53125 1136.039062 C 489.261719 1138.671875 419.960938 1137.820312 350.671875 1137.929688 C 327.140625 1137.96875 303.578125 1138.699219 280.078125 1137.71875 C 254.839844 1136.671875 229.628906 1134.378906 204.480469 1131.871094 C 189.5 1130.371094 174.558594 1127.890625 159.78125 1124.96875 C 145.839844 1122.210938 132.371094 1117.539062 119.410156 1111.589844 C 112.089844 1108.230469 105.558594 1103.800781 101.558594 1096.671875 C 101.898438 1093.480469 104.398438 1093.300781 106.410156 1092.75 C 131.660156 1085.808594 156.710938 1077.96875 182.25 1072.339844 C 203.808594 1067.589844 225.601562 1063.800781 248.03125 1063.480469 C 267.019531 1063.210938 285.980469 1059.878906 304.929688 1057.691406 C 330.941406 1054.671875 356.910156 1051.328125 382.929688 1048.339844 C 419.53125 1044.140625 456.140625 1040.070312 492.761719 1036.070312 C 523.199219 1032.738281 553.648438 1029.5 584.101562 1026.351562 C 624.261719 1022.179688 664.429688 1018.078125 704.601562 1014.058594 C 735.058594 1011.011719 765.558594 1008.289062 796.011719 1005.160156 C 837.53125 1000.890625 878.898438 995.410156 919.96875 987.878906 C 924.75 987 929.46875 985.679688 934.140625 984.300781 C 936.328125 983.648438 938.128906 981.878906 937.261719 979.421875 C 936.511719 977.289062 934.53125 975.898438 932.03125 976.089844 C 929.820312 976.261719 927.628906 976.648438 925.429688 976.949219 C 894.648438 981.171875 863.941406 986.03125 833.070312 989.480469 C 787.21875 994.601562 741.238281 998.558594 695.351562 1003.300781 C 650.328125 1007.949219 605.359375 1012.980469 560.359375 1017.800781 C 547.558594 1019.160156 534.75 1020.378906 520.730469 1021.761719 "/>
<path fill-rule="nonzero" fill="rgb(9.397888%, 20.410156%, 20.800781%)" fill-opacity="1" d="M 933.328125 1141.660156 C 963.449219 1139.710938 993.601562 1139.011719 1023.769531 1138.46875 C 1047.28125 1138.050781 1070.78125 1137.128906 1094.28125 1136.351562 C 1104.480469 1136.011719 1114.671875 1135.441406 1124.871094 1135.039062 C 1133.351562 1134.699219 1141.601562 1135.699219 1149.890625 1137.890625 C 1197.53125 1150.46875 1245.339844 1162.519531 1291.941406 1178.609375 C 1317.921875 1187.578125 1343.480469 1197.878906 1368.851562 1208.480469 C 1396.308594 1219.960938 1419.890625 1237.460938 1439.351562 1259.871094 C 1463.640625 1287.839844 1477.46875 1320.289062 1479.371094 1357.808594 C 1480.769531 1385.480469 1479.128906 1412.839844 1474.539062 1440.050781 C 1468.710938 1474.648438 1461.800781 1509.03125 1452.410156 1542.871094 C 1443.128906 1576.300781 1430.929688 1608.679688 1416.808594 1640.339844 C 1396.160156 1686.640625 1371.621094 1730.878906 1345.878906 1774.480469 C 1321.199219 1816.28125 1287.378906 1849 1246.210938 1874.441406 C 1208.75 1897.589844 1169.648438 1917.621094 1129.359375 1935.25 C 1091.550781 1951.800781 1053.199219 1967.128906 1015.441406 1983.800781 C 985 1997.238281 955.128906 2011.949219 924.941406 2025.96875 C 899.980469 2037.550781 875.039062 2049.171875 849.898438 2060.339844 C 821.511719 2072.949219 792.980469 2085.25 764.371094 2097.359375 C 736.160156 2109.300781 707.351562 2119.660156 678.058594 2128.660156 C 656.960938 2135.140625 635.78125 2137.359375 613.710938 2133.78125 C 590.78125 2130.058594 568.589844 2124.621094 547.109375 2115.609375 C 517.570312 2103.230469 488.578125 2089.929688 461.71875 2072.289062 C 450.019531 2064.601562 440.140625 2055.46875 432.898438 2043.300781 C 427.238281 2033.78125 425.230469 2023.570312 424.769531 2012.839844 C 424.671875 2010.640625 424.769531 2008.351562 425.320312 2006.230469 C 427.679688 1997.101562 435.890625 1992.128906 444.710938 1995.449219 C 454.640625 1999.191406 464.621094 2003.25 473.75 2008.589844 C 496.839844 2022.121094 521.078125 2033.378906 546.230469 2041.929688 C 571.789062 2050.621094 598.269531 2056.820312 624.609375 2062.960938 C 638.910156 2066.300781 653.75 2065.140625 668.238281 2062.320312 C 700.179688 2056.101562 730.699219 2045.210938 761.019531 2033.730469 C 769.308594 2030.589844 777.480469 2027.070312 785.539062 2023.359375 C 835.960938 2000.148438 887.128906 1978.730469 939.058594 1959.128906 C 972.269531 1946.589844 1005.601562 1934.308594 1038.378906 1920.738281 C 1078.171875 1904.269531 1117.429688 1886.53125 1154.230469 1863.898438 C 1189.449219 1842.238281 1223.589844 1819.078125 1255.28125 1792.371094 C 1273.871094 1776.699219 1288.738281 1758.101562 1300.980469 1737.300781 C 1315.421875 1712.769531 1327.230469 1686.921875 1338.539062 1660.851562 C 1352.148438 1629.46875 1363.929688 1597.398438 1374.300781 1564.808594 C 1385.058594 1530.988281 1396.089844 1497.238281 1406.609375 1463.339844 C 1413.339844 1441.671875 1417.808594 1419.480469 1418.929688 1396.730469 C 1419.609375 1382.921875 1418.691406 1369.210938 1415.699219 1355.679688 C 1412.300781 1340.300781 1406.019531 1326.320312 1396.429688 1313.671875 C 1375.761719 1286.410156 1348.878906 1267.429688 1318.109375 1253.371094 C 1289.789062 1240.429688 1260.308594 1230.679688 1230.738281 1221.128906 C 1204.570312 1212.679688 1178.578125 1203.648438 1152.21875 1195.859375 C 1106.699219 1182.410156 1061.308594 1168.300781 1014.429688 1160.101562 C 987.320312 1155.359375 960.128906 1151.121094 932.210938 1145.828125 C 932.058594 1143.921875 932.699219 1142.789062 933.328125 1141.660156 "/>
<path fill-rule="nonzero" fill="rgb(9.790039%, 20.800781%, 21.18988%)" fill-opacity="1" d="M 758.46875 2547.480469 C 724.941406 2560.890625 692.078125 2573.101562 658.519531 2583.320312 C 641.519531 2588.5 624.289062 2593.050781 606.410156 2593.671875 C 599.851562 2593.898438 593.171875 2593.070312 586.691406 2591.890625 C 583.378906 2591.289062 580.121094 2589.21875 577.320312 2587.179688 C 571.46875 2582.910156 570.179688 2571.101562 578.570312 2566.921875 C 585.308594 2563.558594 592.039062 2560.070312 599.070312 2557.421875 C 623.160156 2548.359375 647.429688 2539.761719 671.550781 2530.769531 C 691.089844 2523.488281 710.390625 2515.5 730.039062 2508.539062 C 751.371094 2500.980469 773.011719 2494.339844 794.46875 2487.128906 C 824.75 2476.949219 854.871094 2466.320312 885.238281 2456.421875 C 926.179688 2443.078125 966.179688 2426.980469 1007.78125 2415.589844 C 1025.308594 2410.789062 1042.929688 2406.480469 1060.761719 2402.898438 C 1093.878906 2396.25 1126.320312 2386.738281 1158.078125 2375.480469 C 1215.050781 2355.300781 1272.960938 2338.441406 1331.320312 2322.941406 C 1356.628906 2316.21875 1381.589844 2308.21875 1406.929688 2301.628906 C 1439.570312 2293.128906 1472.429688 2285.511719 1505.179688 2277.421875 C 1531.03125 2271.03125 1556.78125 2264.199219 1582.699219 2258.121094 C 1620.730469 2249.191406 1658.921875 2241 1696.941406 2232.03125 C 1725.441406 2225.300781 1753.671875 2217.359375 1782.210938 2210.839844 C 1812.058594 2204.019531 1842.269531 2198.800781 1872.101562 2191.921875 C 1930.550781 2178.449219 1989.699219 2168.761719 2048.730469 2158.46875 C 2074.078125 2154.050781 2099.648438 2150.921875 2125.121094 2147.230469 C 2153.679688 2143.089844 2182.199219 2138.699219 2210.808594 2134.921875 C 2255.25 2129.039062 2299.789062 2124.339844 2344.621094 2122.199219 C 2374.730469 2120.761719 2404.761719 2117.621094 2434.828125 2115.339844 C 2460.480469 2113.390625 2486.148438 2111.621094 2511.800781 2109.671875 C 2538.789062 2107.621094 2565.761719 2105.429688 2592.75 2103.351562 C 2613.53125 2101.75 2634.320312 2100.171875 2655.109375 2098.710938 C 2690.070312 2096.261719 2725.03125 2093.890625 2760 2091.539062 C 2773.71875 2090.621094 2787.441406 2089.71875 2801.171875 2089.011719 C 2811.269531 2088.488281 2816.621094 2094.511719 2813.308594 2104.070312 C 2810.289062 2112.78125 2805.761719 2121.050781 2801.070312 2129.03125 C 2799.191406 2132.230469 2795.351562 2134.519531 2791.988281 2136.550781 C 2781.898438 2142.640625 2770.679688 2145.5 2759.058594 2146.25 C 2739.589844 2147.5 2720.089844 2148.558594 2700.589844 2149.078125 C 2677.949219 2149.679688 2655.25 2148.910156 2632.640625 2149.96875 C 2598.101562 2151.578125 2563.609375 2154.320312 2529.101562 2156.441406 C 2507.851562 2157.738281 2486.578125 2158.710938 2465.328125 2159.949219 C 2437.410156 2161.578125 2409.628906 2164.550781 2381.929688 2168.421875 C 2352.480469 2172.53125 2322.980469 2176.300781 2293.570312 2180.660156 C 2267.671875 2184.5 2241.898438 2189.121094 2216.019531 2193.078125 C 2193.21875 2196.570312 2170.351562 2199.628906 2147.511719 2202.878906 C 2116.320312 2207.308594 2085.070312 2211.320312 2053.960938 2216.261719 C 2018.449219 2221.898438 1983 2227.941406 1947.679688 2234.640625 C 1921.960938 2239.519531 1896.578125 2246.128906 1870.898438 2251.269531 C 1834.789062 2258.5 1798.628906 2265.628906 1762.320312 2271.761719 C 1735.648438 2276.261719 1708.601562 2278.519531 1681.878906 2282.78125 C 1649.011719 2288.019531 1616.589844 2294.96875 1585.101562 2306.570312 C 1555.160156 2317.601562 1524.5 2326.878906 1493.761719 2335.53125 C 1461.730469 2344.539062 1429.21875 2351.839844 1396.949219 2359.980469 C 1384.898438 2363.019531 1372.808594 2365.980469 1360.910156 2369.539062 C 1320.859375 2381.511719 1279.988281 2389.691406 1238.898438 2397.039062 C 1220.988281 2400.238281 1203.28125 2404.519531 1185.441406 2408.140625 C 1155.421875 2414.230469 1125.441406 2420.480469 1096.078125 2429.351562 C 1094.378906 2429.859375 1092.601562 2430.191406 1090.988281 2430.890625 C 1063.589844 2442.691406 1034.441406 2449.160156 1006.199219 2458.378906 C 928.128906 2483.871094 850.460938 2510.429688 774.351562 2541.371094 C 769.398438 2543.359375 764.398438 2545.191406 758.46875 2547.480469 "/>
<path fill-rule="nonzero" fill="rgb(10.205078%, 21.18988%, 21.604919%)" fill-opacity="1" d="M 741.75 1156.988281 C 749.460938 1160.710938 756.179688 1164.148438 763.109375 1167.101562 C 767.511719 1168.96875 770.351562 1171.738281 772.039062 1176.261719 C 774.339844 1182.398438 777.199219 1188.339844 779.601562 1193.890625 C 778.128906 1197.308594 775.679688 1196.738281 773.589844 1196.738281 C 755.828125 1196.789062 738.039062 1197.460938 720.308594 1196.640625 C 664.878906 1194.070312 609.421875 1195.019531 553.96875 1194.71875 C 525.121094 1194.558594 496.269531 1194.390625 467.421875 1194.050781 C 455.019531 1193.898438 442.621094 1192.820312 430.238281 1192.988281 C 406.75 1193.308594 383.261719 1194.050781 359.78125 1194.921875 C 333.199219 1195.910156 306.609375 1197.761719 280.019531 1196.589844 C 266.351562 1195.988281 252.648438 1194.050781 239.191406 1191.539062 C 231.921875 1190.179688 224.851562 1186.859375 218.171875 1183.480469 C 204.621094 1176.628906 192.78125 1167.25 181.789062 1156.808594 C 180.570312 1155.648438 179.730469 1154.078125 178.910156 1152.96875 C 179.871094 1149.421875 182.300781 1149.929688 184.378906 1150.128906 C 210.410156 1152.601562 236.410156 1155.421875 262.460938 1157.558594 C 296.550781 1160.351562 330.75 1159.140625 364.898438 1159.011719 C 389.269531 1158.910156 413.640625 1157.871094 438.011719 1157.191406 C 467.261719 1156.378906 496.511719 1155.519531 525.761719 1154.679688 C 536.398438 1154.371094 547.039062 1154.019531 557.679688 1153.761719 C 582.949219 1153.128906 608.210938 1152.460938 633.480469 1151.96875 C 654.769531 1151.550781 676.070312 1151.421875 697.371094 1151.019531 C 704 1150.890625 710.640625 1150.539062 717.238281 1149.839844 C 726.101562 1148.890625 733.910156 1151.019531 741.75 1156.988281 "/>
<path fill-rule="nonzero" fill="rgb(21.18988%, 28.588867%, 39.988708%)" fill-opacity="1" d="M 922.359375 1157.738281 C 948.910156 1162.109375 974.320312 1166.148438 999.660156 1170.609375 C 1047.371094 1179.03125 1093.921875 1192.050781 1140.078125 1206.558594 C 1145.800781 1208.359375 1150.191406 1211.148438 1153.679688 1216.289062 C 1162.410156 1229.128906 1171.800781 1241.53125 1180.800781 1254.191406 C 1188.800781 1265.449219 1197.621094 1275.960938 1208.101562 1285.03125 C 1209.011719 1285.808594 1209.550781 1287.019531 1210.21875 1287.980469 C 1208.828125 1291.160156 1206.371094 1290.050781 1204.46875 1289.761719 C 1186.941406 1287.078125 1169.460938 1283.988281 1151.890625 1281.589844 C 1138.71875 1279.789062 1125.421875 1278.921875 1112.191406 1277.441406 C 1099.410156 1276.011719 1086.660156 1274.371094 1073.910156 1272.769531 C 1058.5 1270.828125 1043.101562 1268.851562 1027.699219 1266.859375 C 1018.460938 1265.671875 1009.230469 1264.429688 1000 1263.210938 C 981.460938 1260.761719 965.28125 1252.488281 950.160156 1242.171875 C 927.390625 1226.621094 909.128906 1206.910156 897.679688 1181.519531 C 894.960938 1175.480469 892.949219 1169.101562 890.96875 1162.761719 C 890.238281 1160.410156 890.53125 1157.75 890.320312 1154.640625 C 901.351562 1153.53125 911.160156 1156.859375 922.359375 1157.738281 "/>
<path fill-rule="nonzero" fill="rgb(21.18988%, 28.588867%, 39.988708%)" fill-opacity="1" d="M 629.738281 1962.179688 C 640.78125 1977.898438 654.578125 1988.648438 671.371094 1995.699219 C 678.730469 1998.789062 686.019531 2002.039062 693.351562 2005.191406 C 707.730469 2011.371094 722.578125 2015.628906 738.351562 2016.148438 C 739.910156 2016.199219 741.46875 2016.53125 744.070312 2016.871094 C 742.589844 2018.800781 742.058594 2020.28125 741.128906 2020.589844 C 715.128906 2029.488281 689.199219 2038.589844 661.96875 2043.339844 C 648.140625 2045.75 634.488281 2045.570312 621.050781 2042.070312 C 599.589844 2036.5 578.328125 2030.160156 556.898438 2024.5 C 549.5 2022.550781 544.558594 2018.371094 540.558594 2012 C 525.539062 1988.039062 514.359375 1962.609375 510.230469 1934.46875 C 507.628906 1916.78125 507.460938 1899.089844 512.199219 1881.621094 C 514.539062 1873 517.929688 1864.851562 522.960938 1857.421875 C 525.828125 1853.191406 529.609375 1849.800781 534.589844 1849.179688 C 545.058594 1847.878906 555.449219 1844.878906 567.078125 1846.558594 C 569.238281 1851.160156 571.628906 1855.851562 573.679688 1860.679688 C 580.429688 1876.609375 587.121094 1892.558594 593.710938 1908.550781 C 598.140625 1919.300781 603.910156 1929.21875 611.089844 1938.351562 C 617.128906 1946.039062 623.148438 1953.730469 629.738281 1962.179688 "/>
<path fill-rule="nonzero" fill="rgb(23.094177%, 30.200195%, 41.601562%)" fill-opacity="1" d="M 1014.601562 1876.109375 C 1036.480469 1859.890625 1059.179688 1847 1083.261719 1836.53125 C 1109.691406 1825.039062 1135.871094 1813.050781 1161.300781 1799.449219 C 1172.230469 1793.609375 1183.660156 1788.679688 1194.910156 1783.441406 C 1224.570312 1769.640625 1250.460938 1750.390625 1274.628906 1728.621094 C 1276.519531 1726.921875 1278.609375 1725.449219 1280.601562 1723.890625 C 1282.980469 1726.601562 1281.648438 1728.519531 1280.539062 1730.410156 C 1270.558594 1747.378906 1258.078125 1762.300781 1243.300781 1775.269531 C 1216.550781 1798.75 1187.191406 1818.640625 1157.378906 1837.941406 C 1121.488281 1861.179688 1082.839844 1878.988281 1043.648438 1895.671875 C 1017.949219 1906.601562 991.898438 1916.691406 965.921875 1926.960938 C 962 1928.511719 958.058594 1931.160156 953.320312 1929.851562 C 953.808594 1925.078125 956.878906 1922.308594 959.828125 1919.738281 C 970.851562 1910.140625 981.890625 1900.558594 993.25 1891.371094 C 999.789062 1886.058594 1006.949219 1881.550781 1014.601562 1876.109375 "/>
<path fill-rule="nonzero" fill="rgb(21.604919%, 29.00238%, 40.405273%)" fill-opacity="1" d="M 851.941406 1236.210938 C 846.558594 1233.769531 842.03125 1231.929688 837.679688 1229.71875 C 815.089844 1218.179688 798.511719 1200.910156 788.359375 1177.578125 C 787.480469 1175.550781 786.589844 1173.511719 785.730469 1171.460938 C 782.46875 1163.691406 777.210938 1158.078125 768.988281 1155.449219 C 767 1154.808594 765.179688 1153.628906 761.53125 1151.828125 C 764.75 1150.679688 766.171875 1149.839844 767.648438 1149.71875 C 771.628906 1149.390625 775.628906 1149.371094 779.621094 1149.230469 C 798.679688 1148.570312 817.75 1147.351562 836.808594 1147.449219 C 850 1147.519531 863.179688 1149.410156 876.570312 1151.789062 C 883.941406 1195.351562 908.960938 1226.53125 943.261719 1252.050781 C 942.03125 1252.808594 940.960938 1254.050781 940.089844 1253.921875 C 919.441406 1250.96875 898.738281 1248.289062 878.21875 1244.609375 C 869.578125 1243.058594 861.308594 1239.359375 851.941406 1236.210938 "/>
<path fill-rule="nonzero" fill="rgb(21.99707%, 29.393005%, 40.795898%)" fill-opacity="1" d="M 1248.429688 1296.101562 C 1223.878906 1284.96875 1204.828125 1268.851562 1190.21875 1247.410156 C 1184.011719 1238.300781 1177.449219 1229.441406 1170.101562 1219.128906 C 1173.648438 1218.988281 1175.78125 1218.328125 1177.5 1218.910156 C 1222.011719 1234.050781 1267.511719 1246.398438 1310.359375 1266.199219 C 1333.53125 1276.898438 1354.929688 1290.109375 1372.328125 1309.109375 C 1373.5 1310.378906 1374.550781 1311.75 1376.378906 1313.929688 C 1374.25 1314.761719 1372.878906 1315.699219 1371.460938 1315.78125 C 1359.859375 1316.480469 1348.558594 1314.75 1337.148438 1312.488281 C 1311.46875 1307.390625 1285.621094 1303.191406 1259.851562 1298.578125 C 1256.359375 1297.960938 1252.910156 1297.109375 1248.429688 1296.101562 "/>
<path fill-rule="nonzero" fill="rgb(11.401367%, 21.99707%, 22.410583%)" fill-opacity="1" d="M 494.359375 1909.441406 C 494.820312 1936.339844 501.238281 1960.558594 511.710938 1983.78125 C 514.789062 1990.621094 518.621094 1997.121094 521.96875 2003.839844 C 522.679688 2005.269531 522.820312 2006.980469 523.289062 2008.859375 C 515.871094 2007.679688 503.609375 2003.601562 499.671875 2000.308594 C 487.5 1990.171875 473.5 1984.078125 458.210938 1980.539062 C 456.128906 1980.058594 454.21875 1978.78125 452.429688 1977.960938 C 450.140625 1972.21875 452.449219 1967.03125 453.371094 1961.960938 C 456.511719 1944.511719 461.820312 1927.679688 468.339844 1911.148438 C 473.75 1897.441406 483.828125 1888.179688 495.789062 1878.03125 C 497.570312 1889.28125 493.101562 1898.640625 494.359375 1909.441406 "/>
<path fill-rule="nonzero" fill="rgb(26.708984%, 33.300781%, 43.896484%)" fill-opacity="1" d="M 1388.53125 1434.46875 C 1386.910156 1415.378906 1384.898438 1397.339844 1384.410156 1379.261719 C 1384.039062 1365.628906 1386.179688 1352.039062 1390.449219 1337.820312 C 1392.191406 1339.511719 1393.871094 1340.410156 1394.390625 1341.761719 C 1400.53125 1357.671875 1402.460938 1374.148438 1401.328125 1391.148438 C 1400.300781 1406.648438 1397.691406 1421.859375 1393.941406 1436.890625 C 1393.351562 1439.238281 1391.960938 1441.398438 1389.921875 1445.878906 C 1389.359375 1440.710938 1389.070312 1438.109375 1388.53125 1434.46875 "/>
<path fill-rule="nonzero" fill="rgb(26.708984%, 33.300781%, 43.896484%)" fill-opacity="1" d="M 932.308594 1141.46875 C 932.691406 1142.789062 932.058594 1143.921875 931.121094 1145.628906 C 926.988281 1146.671875 923.28125 1146.839844 920.601562 1142.101562 C 924.671875 1141.78125 927.980469 1141.53125 932.308594 1141.46875 "/>
</svg>
