<svg width="72" height="72" viewBox="0 0 72 72" fill="none" xmlns="http://www.w3.org/2000/svg">
<rect width="72" height="72" rx="36" fill="url(#paint0_linear_4711_44245)"/>
<path d="M38.6555 43.3806V36.7612V35.7612H37.6555H34.621H33.621V36.7612V43.3806H30.7051C30.3428 42.4966 29.7636 41.7296 29.2194 41.1034C28.8805 40.7133 28.5318 40.3525 28.2302 40.0404L28.1879 39.9967C27.8641 39.6615 27.6166 39.4024 27.4434 39.1855C26.1318 37.5396 25.3095 35.5545 25.0717 33.4589C24.8339 31.3632 25.1904 29.2428 26.0999 27.342C27.0093 25.4413 28.4345 23.838 30.2108 22.7162C31.9871 21.5944 34.0423 20.9997 36.1397 21C38.2372 21.0003 40.2922 21.5958 42.0681 22.7181C43.844 23.8405 45.2687 25.4443 46.1776 27.3453C47.0864 29.2463 47.4422 31.3668 47.2037 33.4624C46.9653 35.5579 46.1424 37.5427 44.8303 39.1882C44.6569 39.405 44.4095 39.6639 44.086 39.9989L44.0465 40.0397C43.7444 40.3524 43.395 40.714 43.0553 41.1051C42.5118 41.731 41.9334 42.4975 41.5715 43.3806H38.6555ZM41.2072 48.4284V48.9522C41.2072 49.4967 40.9918 50.0181 40.6098 50.4018C40.2279 50.7853 39.7109 51 39.1727 51H33.1038C32.5656 51 32.0486 50.7853 31.6667 50.4018C31.2847 50.0181 31.0693 49.4967 31.0693 48.9522V48.4284H41.2072Z" stroke="white" stroke-width="2"/>
<defs>
<linearGradient id="paint0_linear_4711_44245" x1="36" y1="72" x2="36" y2="0.0013046" gradientUnits="userSpaceOnUse">
<stop stop-color="#F19920"/>
<stop offset="0.23" stop-color="#F39F27"/>
<stop offset="0.58" stop-color="#F7B03B"/>
<stop offset="1" stop-color="#FECC5C"/>
</linearGradient>
</defs>
</svg>
