<svg width="240" height="714" viewBox="0 0 240 714" fill="none" xmlns="http://www.w3.org/2000/svg">
<path d="M190.065 414.227C190.065 414.227 201.066 460.605 202.282 521.882C202.282 521.882 200.428 569.917 202.282 576.355C210.629 605.295 207.683 647.848 207.293 669.974C206.904 692.102 212.85 792.526 213.708 799.339L220.744 823.171C220.744 823.171 217.121 843.599 150.734 837.638C150.734 837.638 132.01 832.161 95.4146 838.725C58.8167 845.29 39.6266 838.725 21.1597 831.678C21.1597 831.678 31.5456 795.699 33.7176 781.229C35.882 766.765 38.0639 610.166 41.6587 562.502L44.2538 540.371C44.2538 540.371 38.4173 454.231 48.9001 418.053L190.065 414.227Z" fill="#E2BE82"/>
<path d="M207.292 669.967C207.683 647.842 210.628 605.289 202.281 576.348C200.428 569.911 202.281 521.875 202.281 521.875C201.854 500.335 200.216 480.638 198.274 464.148C197.232 508.11 193.38 585.425 193.38 585.425C193.38 585.425 205.201 623.442 202.282 631.956C199.368 640.463 178.535 687.55 183.073 702.872C187.616 718.198 213.709 799.332 213.709 799.332C212.849 792.519 206.903 692.095 207.292 669.967Z" fill="#C6A06B"/>
<path d="M219.479 825.782C208.128 833.657 195.898 829.992 189.882 830.537C183.642 831.097 170.021 815.218 170.021 815.218L160.946 710.812C160.946 710.812 145.061 726.702 141.087 732.944C137.115 739.186 112.716 822.024 106.476 826.565C102.529 829.434 87.246 836.389 76.5366 841.11C82.2888 840.72 88.5441 839.952 95.4147 838.716C132.01 832.151 150.734 837.628 150.734 837.628C202.004 842.232 215.833 831.095 219.479 825.782Z" fill="#C6A06B"/>
<path d="M177.441 621.171C167.277 611.527 94.5565 527.55 92.2952 521.308C90.018 515.065 74.132 450.765 74.132 450.765C75.8364 456.245 110.446 509.396 116.134 517.906C121.828 526.416 163.936 551.952 163.936 551.952C152.739 541.168 81.5101 450.92 81.5101 450.92C128.182 457.422 174.461 439.464 193.38 430.808C191.493 420.242 190.065 414.219 190.065 414.219L48.8996 418.044C38.4167 454.222 44.2533 540.362 44.2533 540.362L41.6582 562.493C40.0023 584.376 38.6547 632.09 37.4688 678.714C41.784 647.877 47.6657 608.893 48.8996 597.341C50.9045 578.614 52.5739 532.09 52.5875 523.8C52.5968 515.516 59.9471 450.919 59.9471 450.919C59.9471 450.919 59.9885 451.727 60.068 453.211C60.7633 466.39 64.4284 531.985 68.9652 541.167C71.8805 547.068 86.2315 570.2 97.8284 588.688C73.1242 538.096 68.9652 464.01 68.9652 464.01C68.9652 464.01 76.4048 525.28 84.916 533.793C93.4256 542.301 177.441 621.171 177.441 621.171Z" fill="#C6A06B"/>
<path d="M32.2019 455.23L27.2148 459.257C27.2148 459.257 27.9548 473.244 27.8807 474.814C27.8807 474.814 34.5624 481.54 32.2019 483.894C32.2019 483.894 25.1348 481.218 23.3422 478.681C21.5552 476.15 23.7125 456.936 23.7125 456.936L31.6754 450.914L32.2019 455.23Z" fill="#9A4E3D"/>
<path d="M28.4755 488.142C28.4755 488.142 29.6963 488.402 29.8656 485.974C30.1145 482.396 26.9612 477.779 26.1711 476.739C26.1711 476.739 26.4532 460.307 26.5431 459.607C26.6264 458.917 28.6497 456.754 31.9026 453.501C34.6627 450.753 31.7818 450.75 31.7818 450.75L23.0838 453.532C23.0838 453.532 19.2554 463.968 19.2554 464.226C19.2554 464.489 21.0337 480.911 21.0337 480.911L28.4755 488.142Z" fill="#B4634F"/>
<path d="M30.9118 428.668C30.9118 428.668 33.1693 439.098 35.6038 444.145C35.6038 444.145 37.5183 447.801 37.6915 451.801C37.8668 455.803 36.9983 462.585 36.6509 466.41C36.6509 466.41 35.9757 470.759 34.315 470.066C32.6483 469.369 32.3019 466.934 33.3425 461.19C33.3425 461.19 31.9546 454.929 30.9118 453.362C30.9118 453.362 24.8199 457.191 23.4325 463.278C23.4325 463.278 23.0834 477.361 23.4325 479.806C23.4325 479.806 28.8509 489.765 24.4545 492.083C24.4545 492.083 20.4153 486.321 18.6495 482.59C17.1902 479.502 13.1691 460.496 12.6474 455.276C12.1269 450.063 16.1246 431.794 15.7778 427.965C15.4309 424.139 30.9118 428.668 30.9118 428.668Z" fill="#D1856A"/>
<path d="M30.1704 180.586C30.1704 180.586 17.3445 181.897 13.1436 198.5C8.6999 216.074 2.64663 286.973 2.64663 289.527C2.64663 289.527 0.374399 292.647 0.0928889 297.466C-0.191888 302.287 2.64663 313.925 2.64663 313.925C2.64663 313.925 -0.51642 334.348 0.0732808 336.332C0.662437 338.318 3.49551 349.948 3.49551 349.948C3.49551 349.948 1.51078 362.436 2.07761 367.545C2.64608 372.646 9.7361 423.996 9.7361 423.996C9.7361 423.996 22.2206 427.961 34.4164 421.729C34.4164 421.729 38.3919 346.263 38.3919 342.293C38.3919 338.318 37.256 319.879 37.256 319.879L41.5081 306.97L42.9298 290.375C42.9298 290.375 52.0067 259.735 52.5736 250.66C53.1409 241.581 30.1704 180.586 30.1704 180.586Z" fill="#DEBC85"/>
<path d="M48.8906 268.528L36.6653 253.445C36.6653 253.445 30.728 280.157 30.728 284.127C30.728 288.102 36.6419 302.576 36.6653 304.555C36.6882 306.546 30.728 311.228 30.728 311.228C30.728 311.228 13.4263 293.494 12.291 291.515C11.1557 289.524 15.4121 305.128 15.4121 305.128C15.4121 305.128 33.2872 320.501 34.1361 323.309C34.9855 326.124 30.1661 343.708 29.0313 344.848C27.8911 345.974 13.8913 322.713 12.0977 321.3C10.3073 319.878 31.297 362.434 31.8704 363.851C32.4323 365.269 34.136 370.092 30.4481 371.796C26.7602 373.495 11.9866 353.353 11.9866 353.353C11.9866 353.353 12.8605 363.851 14.8491 365.835C16.8289 367.821 29.5987 376.616 31.0171 378.605C32.4328 380.586 31.2975 408.391 29.0319 410.945C27.3139 412.873 21.8661 416.322 21.8661 416.322C21.8661 416.322 9.73832 413.464 8.03564 411.638C8.76855 416.952 9.34464 421.136 9.59893 422.977L32.7062 420.588L34.5646 418.987C35.2741 405.43 38.3941 345.811 38.3941 342.291C38.3941 338.317 37.2582 319.878 37.2582 319.878L41.5103 306.969L42.932 290.374C42.932 290.374 46.1691 279.43 48.9015 268.693L48.8906 268.528Z" fill="#AE8B5C"/>
<path d="M8.79388 417.174L8.0332 419.588L8.93001 430.658C8.93001 430.658 22.3592 434.621 35.6974 428.954V416.043L34.7032 414.203C34.7032 414.203 27.899 416.466 8.79388 417.174Z" fill="#EACE97"/>
<path d="M207.801 455.23L212.788 459.257C212.788 459.257 212.048 473.244 212.117 474.814C212.117 474.814 205.435 481.54 207.8 483.894C207.8 483.894 214.863 481.218 216.655 478.681C218.447 476.15 216.285 456.936 216.285 456.936L208.321 450.914L207.801 455.23Z" fill="#9A4E3D"/>
<path d="M211.527 488.142C211.527 488.142 210.3 488.402 210.133 485.974C209.884 482.396 213.037 477.779 213.821 476.739C213.821 476.739 213.543 460.307 213.453 459.607C213.37 458.917 211.353 456.754 208.094 453.501C205.34 450.753 208.219 450.75 208.219 450.75L216.917 453.532C216.917 453.532 220.743 463.968 220.743 464.226C220.743 464.489 218.968 480.911 218.968 480.911L211.527 488.142Z" fill="#B4634F"/>
<path d="M209.086 428.668C209.086 428.668 206.828 439.098 204.392 444.145C204.392 444.145 202.478 447.801 202.305 451.801C202.132 455.803 202.999 462.585 203.352 466.41C203.352 466.41 204.022 470.759 205.688 470.066C207.35 469.369 207.697 466.934 206.654 461.19C206.654 461.19 208.045 454.929 209.086 453.362C209.086 453.362 215.176 457.191 216.57 463.278C216.57 463.278 216.917 477.361 216.57 479.806C216.57 479.806 211.146 489.765 215.539 492.083C215.539 492.083 219.584 486.321 221.353 482.59C222.808 479.502 226.831 460.496 227.351 455.276C227.872 450.063 223.872 431.794 224.219 427.965C224.569 424.139 209.086 428.668 209.086 428.668Z" fill="#D1856A"/>
<path d="M209.832 180.586C209.832 180.586 222.653 181.897 226.853 198.5C231.298 216.074 237.351 286.973 237.351 289.527C237.351 289.527 239.628 292.647 239.909 297.466C240.191 302.287 237.351 313.925 237.351 313.925C237.351 313.925 240.514 334.348 239.927 336.332C239.337 338.318 236.503 349.948 236.503 349.948C236.503 349.948 238.488 362.436 237.925 367.545C237.351 372.646 230.26 423.996 230.26 423.996C230.26 423.996 217.782 427.961 205.58 421.729C205.58 421.729 201.611 346.263 201.611 342.293C201.611 338.318 202.747 319.879 202.747 319.879L198.49 306.97L197.074 290.375C197.074 290.375 187.993 259.735 187.423 250.66C186.86 241.581 209.832 180.586 209.832 180.586Z" fill="#DEBC85"/>
<path d="M231.203 417.191L220.744 411.242H210.31C210.31 411.242 217.121 383.15 214.971 378.898C212.826 374.646 206.481 359.325 206.904 356.772C207.327 354.214 228.61 318.472 227.399 319.749C226.192 321.025 210.311 340.173 207.294 341.449C204.276 342.726 205.628 328.257 206.904 325.281C208.183 322.303 217.371 319.323 217.371 319.323L227.399 296.773L207.294 314.006C205.98 314.649 225.207 271.235 225.207 271.235C224.78 269.535 208.182 301.448 204.304 302.921C200.429 304.394 203.924 294.216 204.304 293.507C204.684 292.799 223.498 247.408 220.744 242.725C217.983 238.042 212.004 194.258 212.004 194.258L190.065 264.529C192.927 276.407 197.073 290.385 197.073 290.385L198.49 306.98L202.746 319.889C202.746 319.889 201.61 338.328 201.61 342.303C201.61 346.273 205.579 421.739 205.579 421.739C206.632 422.269 207.678 422.724 208.72 423.124H220.744L231.203 417.191Z" fill="#AE8B5C"/>
<path d="M231.203 417.174L231.964 419.588L231.067 430.658C231.067 430.658 217.636 434.621 204.303 428.954V416.043L205.299 414.203C205.299 414.203 212.098 416.466 231.203 417.174Z" fill="#EACE97"/>
<path d="M139.102 115.906H120.526H101.952C102.871 157.185 80.3467 165.697 80.3467 165.697C94.6356 186.547 120.526 185.271 120.526 185.271C120.526 185.271 146.422 186.547 160.715 165.697C160.715 165.697 138.186 157.184 139.102 115.906Z" fill="#BB715A"/>
<path d="M146.775 152.055C143.147 145.813 140.045 136.916 139.275 124.414H120.254H101.784C101.322 131.922 100.025 138.145 98.2637 143.265C106.98 147.595 125.613 155.001 146.775 152.055Z" fill="#A45C4B"/>
<path d="M210.892 180.583C208.504 179.73 153.585 160.766 153.585 160.766L120.531 173.774L87.4848 160.766C87.4848 160.766 32.5593 179.729 30.171 180.583C27.7823 181.433 28.5751 225.696 38.129 258.884C38.129 258.884 45.2109 281.836 48.0363 309.098C49.421 322.421 47.8 339.296 47.684 350.133C47.684 350.133 44.4976 416.335 45.2953 424.848C45.2953 424.848 77.8639 438.452 114.059 440.249L120.531 423.995L127.044 440.351C164.002 439.075 195.768 424.848 195.768 424.848C196.564 416.335 193.38 350.133 193.38 350.133C193.017 317.118 202.933 258.884 202.933 258.884C212.488 225.696 213.281 181.433 210.892 180.583Z" fill="#EACE97"/>
<path d="M132.974 440.046C121.588 405.439 131.471 176.469 131.471 176.469L118.686 180.593L116.134 421.446L118.444 429.256L120.531 424.005L127.045 440.362C129.039 440.296 131.01 440.178 132.974 440.046Z" fill="#C8AA77"/>
<path opacity="0.8" d="M212.02 189.543C212.013 189.534 212.013 189.529 212.01 189.524C209.461 186.121 203.075 224.848 197.541 225.27C192.014 225.702 179.244 185.273 176.7 195.911C174.162 206.546 191.159 256.759 188.362 256.89C185.566 257.026 171.586 224.416 168.484 223.144C165.386 221.863 169.459 235.914 173.519 243.14C177.578 250.376 192.451 273.888 193.411 277.464C194.375 281.035 189.882 285.7 188.814 289.529C187.752 293.358 190.31 301.866 188.814 305.279C187.325 308.676 159.244 299.314 162.565 305.279C165.892 311.228 187.33 314.636 187.41 317.611C187.499 320.587 182.224 330.803 181.801 335.063C181.379 339.32 187.758 351.652 184.355 351.343C180.948 351.037 142.855 329.104 142.855 329.104C142.855 329.104 156.689 359.316 162.115 363.141C167.54 366.975 186.902 369.106 187.41 372.931C187.921 376.764 191.158 392.505 185.625 398.469C180.099 404.423 181.801 418.465 181.801 418.465C182.102 424.129 159.228 433.547 145.488 438.687C173.975 434.61 195.768 424.853 195.768 424.853C196.565 416.34 193.38 350.138 193.38 350.138C193.018 317.124 202.934 258.89 202.934 258.89C209.932 234.57 212.231 204.315 212.02 189.543Z" fill="#C8AA77"/>
<path d="M61.7962 347.395C56.2635 343.145 57.1118 322.29 57.9476 321.012C58.7824 319.735 81.3691 297.608 83.1 289.523C84.8327 281.438 61.3688 307.393 56.6893 305.694C52.0065 303.987 75.8358 255.903 75.4176 241.862C75.0103 227.821 58.393 284.417 54.9899 281.005C51.5823 277.608 63.0725 207.394 59.2419 208.242C55.4135 209.097 50.3403 262.82 44.7733 263.567C41.9919 263.933 38.9835 258.738 36.665 253.445C37.1295 255.279 37.6174 257.101 38.1287 258.883C38.1287 258.883 45.2105 281.835 48.036 309.097C49.4207 322.42 47.7997 339.296 47.6837 350.132C47.6837 350.132 44.4972 416.334 45.2949 424.847C45.2949 424.847 67.5909 434.148 95.7767 438.386C75.7661 431.83 64.7752 423.11 64.7752 423.11C63.9214 417.545 60.9462 408.243 57.1124 403.564C53.2834 398.884 55.4135 389.95 55.4135 389.95C69.8729 383.596 95.7294 357.086 101.262 351.336C94.8848 357.118 66.9015 369.1 66.9015 369.1C66.9015 369.1 67.3289 351.647 61.7962 347.395Z" fill="#C8AA77"/>
<path d="M101.263 351.33C101.469 351.143 101.658 350.964 101.816 350.791C102.689 349.848 102.407 350.153 101.263 351.33Z" fill="#C8AA77"/>
<path d="M114.834 182.227L112.651 420.168L106.092 439.662C108.723 439.919 111.375 440.124 114.06 440.254L120.531 423.999L120.527 187.397L114.834 182.227Z" fill="#ECEFCA"/>
<path d="M83.1006 187.292C83.1006 187.292 99.1233 170.796 120.531 192.289C120.531 192.289 102 149.03 83.1006 187.292Z" fill="#BC9E6C"/>
<path d="M157.961 188.148C157.961 188.148 141.94 170.803 120.531 192.297C120.531 192.297 139.067 149.888 157.961 188.148Z" fill="#BC9E6C"/>
<path d="M98.1878 143.494C98.1878 143.494 100.756 164.627 120.531 173.778L120.527 192.291C120.527 192.291 105.04 172.67 97.1326 174.369C89.2247 176.073 83.2896 187.823 83.2896 187.823C83.2896 187.823 74.8699 164.326 80.3471 158.883C85.7671 153.496 96.2641 140.576 98.1878 143.494Z" fill="#ECEFCA"/>
<path d="M142.869 143.494C142.869 143.494 140.307 164.627 120.527 173.778L120.531 192.291C120.531 192.291 136.019 172.67 143.922 174.369C151.834 176.073 157.774 187.823 157.774 187.823C157.774 187.823 166.192 164.326 160.715 158.883C155.297 153.496 144.799 140.576 142.869 143.494Z" fill="#ECEFCA"/>
<path d="M181.676 254.336H163.936H146.192C146.192 254.336 145.91 280.152 146.192 284.695C146.477 289.232 163.936 293.489 163.936 293.489C163.936 293.489 181.394 289.232 181.676 284.695C181.961 280.152 181.676 254.336 181.676 254.336Z" fill="#ECEFCA"/>
<path d="M20.4895 185.438C17.5802 188.099 14.7395 192.196 13.1441 198.503C8.70039 216.077 2.6471 286.977 2.6471 289.53C2.6471 289.53 0.374871 292.651 0.0933609 297.47C-0.191416 302.29 2.6471 313.929 2.6471 313.929C2.6471 313.929 -0.515932 334.352 0.0737694 336.336C0.662926 338.321 3.496 349.952 3.496 349.952C3.496 349.952 1.51127 362.439 2.0781 367.549C2.346 369.956 4.06827 382.684 5.81396 395.448L5.19921 365.273L8.03336 351.343L2.92643 334.638C2.92643 334.638 7.18284 315.059 5.47962 308.414C3.78185 301.769 6.89807 290.947 6.61656 288.394C6.33451 285.836 12.8588 214.35 15.125 206.4C16.5843 201.317 18.9633 191.699 20.4895 185.438Z" fill="#EACE97"/>
<path opacity="0.4" d="M165.117 254.336C167.041 259.372 174.566 278.664 174.566 278.664C174.566 278.664 165.63 288.458 162.565 289.087C160.368 289.551 151.152 285.615 146.14 283.362C146.155 283.902 146.174 284.361 146.192 284.695C146.477 289.232 163.936 293.489 163.936 293.489C163.936 293.489 181.394 289.232 181.676 284.695C181.961 280.152 181.676 254.336 181.676 254.336H165.117Z" fill="#CFD3AA"/>
<path d="M162.716 79.0418C162.716 79.0418 168.539 67.483 175.26 70.896C179.034 72.8012 175.588 103.163 162.716 101.695C162.716 101.695 160.431 100.883 160.271 95.989L162.716 79.0418Z" fill="#D1856A"/>
<path opacity="0.4" d="M172.275 74.6999C172.275 74.6999 175.922 86.3186 170.96 89.0646C170.96 89.0646 168.324 89.9663 168.478 91.2132C168.624 92.4754 167.446 100.891 164.479 98.2019C164.479 98.2019 162.18 94.3762 165.047 92.9453C167.905 91.5181 165.882 91.4582 163.608 88.4084C163.608 88.4084 167.85 73.8494 172.275 74.6999Z" fill="#A6644F"/>
<path d="M173.466 83.2678C173.315 81.1562 173.119 79.0217 172.617 77.0636C172.496 76.5763 172.308 76.1293 172.1 75.7596C171.834 75.4024 171.685 75.3789 171.542 75.4563C171.227 75.5211 171.182 75.667 171.066 75.7443C170.951 75.82 170.747 76.0465 170.592 76.1859C170.266 76.5327 169.93 76.8921 169.631 77.2994C168.414 78.8997 167.37 80.7058 166.479 82.5414C165.631 84.3197 164.745 86.4379 164.845 88.012L164.606 87.5514C165.429 88.4907 166.199 89.3924 166.766 90.6077C166.899 90.9192 167.031 91.2415 167.079 91.6635C167.172 92.0278 167.042 92.691 166.62 93.0738C166.224 93.4157 165.675 93.4609 165.5 93.4958L165.081 93.578C165.016 93.621 164.95 93.651 164.871 93.6744C164.161 94.08 163.912 95.2665 164.018 96.3212C164.153 97.3885 164.622 98.5161 165.643 99.1238C164.471 98.7949 163.692 97.6308 163.344 96.4623C163.02 95.3161 162.942 93.7533 164.206 92.7139C164.385 92.6022 164.578 92.4971 164.771 92.4057L165.197 92.2728C165.589 92.1715 165.63 92.1302 165.692 92.085C165.652 92.0419 165.717 92.0866 165.646 91.8791C165.612 91.7256 165.507 91.5029 165.384 91.2932C164.868 90.4411 164.112 89.5448 163.342 88.7902L163.146 88.5979L163.102 88.3284C162.88 86.9356 163.22 85.8487 163.536 84.775C163.868 83.705 164.276 82.6873 164.769 81.7116C165.753 79.7649 166.861 77.8962 168.323 76.2224C168.679 75.7993 169.075 75.3936 169.509 75.0081C169.769 74.8203 169.927 74.6504 170.268 74.4549C170.604 74.2622 170.987 74.0787 171.208 74.0645C172.124 73.8135 172.979 74.5834 173.199 75.1426C173.456 75.7209 173.608 76.2845 173.686 76.8339C173.999 79.0326 173.79 81.1638 173.466 83.2678Z" fill="#985238"/>
<path d="M171.383 86.0351C171.383 86.0351 171.338 83.7345 170.585 81.7008C170.223 80.6913 169.644 79.8206 169.114 79.4612C168.584 79.1024 168.195 79.1111 168.206 79.0801L168.761 77.25C168.761 77.25 168.929 77.336 169.217 77.4852C169.514 77.617 169.872 77.9192 170.231 78.2965C170.944 79.0915 171.357 80.3118 171.513 81.4721C171.837 83.8157 171.383 86.0351 171.383 86.0351Z" fill="#985238"/>
<path d="M78.9335 79.0418C78.9335 79.0418 73.1095 67.483 66.3838 70.896C62.6169 72.8012 66.0614 103.163 78.9335 101.695C78.9335 101.695 81.2194 100.883 81.3838 95.989L78.9335 79.0418Z" fill="#D1856A"/>
<path opacity="0.4" d="M69.3793 74.6999C69.3793 74.6999 65.7268 86.3186 70.6861 89.0646C70.6861 89.0646 73.3259 89.9663 73.1735 91.2132C73.0188 92.4754 74.202 100.891 77.1669 98.2019C77.1669 98.2019 79.4625 94.3762 76.6044 92.9453C73.7376 91.5181 75.7653 91.4582 78.0408 88.4084C78.0408 88.4084 73.8002 73.8494 69.3793 74.6999Z" fill="#A6644F"/>
<path d="M68.1803 83.2746C67.8585 81.1711 67.6506 79.0399 67.9642 76.8418C68.0415 76.2918 68.1929 75.7282 68.4504 75.1505C68.6671 74.5919 69.5285 73.8187 70.4422 74.0735C70.6622 74.086 71.0445 74.2722 71.3815 74.4628C71.7218 74.6577 71.8803 74.8282 72.1389 75.016C72.5729 75.4016 72.9704 75.8072 73.3254 76.2303C74.789 77.9041 75.8987 79.7728 76.8816 81.7195C77.3722 82.6952 77.7816 83.7129 78.1132 84.7829C78.4296 85.8572 78.7699 86.9456 78.5467 88.3363L78.5036 88.6058L78.3071 88.7991C77.5377 89.5522 76.7814 90.4485 76.2641 91.3006C76.1405 91.5102 76.0348 91.7329 76.0011 91.8843C75.9308 92.0939 75.9978 92.0493 75.9565 92.0923C76.0191 92.1375 76.0594 92.1789 76.4498 92.2802L76.8772 92.4114C77.071 92.5045 77.2616 92.6096 77.4413 92.7212C78.7084 93.7591 78.6294 95.3212 78.3054 96.468C77.9586 97.6376 77.1794 98.8023 76.0071 99.1312C77.0291 98.524 77.4969 97.3964 77.6314 96.3286C77.7381 95.2733 77.487 94.0858 76.7781 93.6817C76.7002 93.6583 76.6322 93.6284 76.569 93.5854L76.1492 93.5031C75.9728 93.4683 75.4272 93.4215 75.0292 93.0811C74.6077 92.6983 74.477 92.0352 74.5685 91.6698C74.6186 91.2467 74.7482 90.9243 74.8832 90.6145C75.4501 89.397 76.22 88.4953 77.0438 87.5582L76.8048 88.0189C76.9044 86.4447 76.018 84.3266 75.1724 82.5482C74.2799 80.7127 73.2361 78.9065 72.0191 77.3062C71.7202 76.8989 71.3837 76.5396 71.0564 76.1938C70.9034 76.0533 70.6992 75.8268 70.5843 75.7511C70.4662 75.6733 70.4215 75.529 70.1074 75.4631C69.9614 75.3852 69.8161 75.4065 69.5498 75.7664C69.3423 76.1366 69.1528 76.5831 69.033 77.0705C68.5305 79.0285 68.335 81.163 68.1803 83.2746Z" fill="#985238"/>
<path d="M70.2646 86.0356C70.2646 86.0356 69.8104 83.8162 70.135 81.4721C70.2923 80.3118 70.7051 79.0915 71.4167 78.2965C71.7761 77.9192 72.1355 77.617 72.4295 77.4852C72.7208 77.3366 72.8847 77.25 72.8847 77.25L73.4429 79.0801C73.4521 79.1117 73.0633 79.1024 72.5346 79.4612C72.0015 79.8206 71.4255 80.6913 71.0634 81.7008C70.3092 83.7356 70.2646 86.0356 70.2646 86.0356Z" fill="#985238"/>
<path d="M115.848 144.368C115.848 144.368 93.72 129.478 86.9104 120.542C80.6976 112.376 76.409 74.9794 75.7055 68.5221C75.681 68.3011 75.6527 68.0947 75.6342 67.8796C75.6162 67.6716 75.5999 67.5638 75.5999 67.5638H75.6108C75.4932 66.227 75.4175 64.8854 75.4175 63.5148C75.4175 38.5998 95.6165 18.4062 120.527 18.4062C145.441 18.4062 165.635 38.5998 165.635 63.5148C165.635 65.138 165.551 66.7378 165.381 68.3109H165.386C165.386 68.3109 160.955 111.602 154.146 120.543C147.337 129.479 125.21 144.369 125.21 144.369C125.21 144.369 121.592 146.391 115.848 144.368Z" fill="#D1856A"/>
<path d="M120.991 115.51C112.91 115.383 106.312 114.68 106.312 114.68C107.181 118.738 114.511 120.161 120.991 120.175C127.472 120.161 134.802 118.738 135.671 114.68C135.671 114.68 129.073 115.382 120.991 115.51Z" fill="#F1F1EE"/>
<path d="M71.6978 70.961C71.6978 70.961 76.1927 73.3454 78.0418 82.6881C78.0418 82.6881 80.5291 78.4175 81.3845 69.4696C82.234 60.5245 83.7205 58.0421 87.0104 51.7633C87.0104 51.7633 95.0065 38.7627 91.502 26.5527C89.2674 18.7679 77.4935 14.9699 73.0639 23.5769C64.3491 40.4812 69.9003 67.8633 71.6978 70.961Z" fill="#0A0000"/>
<path d="M136.971 68.6563C136.971 68.6579 134.101 71.0788 131.607 73.9614C130.954 74.6551 130.436 75.4375 129.873 76.1329C129.346 76.8456 128.963 77.5747 128.573 78.1791C128.358 78.4748 128.296 78.7961 128.173 79.0585C128.067 79.3286 127.974 79.5638 127.898 79.7587C127.743 80.1524 127.655 80.3773 127.655 80.3773C127.655 80.3773 127.704 80.1432 127.791 79.7326C127.834 79.5252 127.889 79.2741 127.949 78.9839C128.027 78.7008 128.045 78.3457 128.206 78.0212C128.493 77.358 128.767 76.5331 129.18 75.7185C129.625 74.9263 130.037 74.0191 130.576 73.21C132.598 69.8798 135.16 66.8577 135.16 66.8594L136.971 68.6563Z" fill="#985238"/>
<path d="M113.54 63.7788C113.54 63.7788 112.797 69.6121 110.626 70.1049C104.529 71.4846 93.6414 65.0224 84.5688 72.0112C84.5688 72.0112 85.2457 66.155 90.5541 64.3886C95.8614 62.6244 111.769 64.7273 113.54 63.7788Z" fill="#000001"/>
<path d="M129.176 64.2684C129.176 64.2684 129.597 70.0718 131.687 70.4622C137.543 71.5561 148.477 64.582 156.943 71.1564C156.943 71.1564 156.591 65.3318 151.517 63.8126C146.44 62.2962 130.846 65.1445 129.176 64.2684Z" fill="#000001"/>
<path d="M110.846 82.5288C110.846 82.5288 111.521 81.3221 111.202 80.1014C110.888 78.8762 99.771 69.576 92.3564 80.9181C92.3564 80.9181 100.625 92.4666 110.846 82.5288Z" fill="#F1F1EE"/>
<path d="M107.612 80.3106C107.612 82.9341 105.491 85.0598 102.872 85.0598C100.259 85.0598 98.1387 82.9346 98.1387 80.3106C98.1387 77.7019 100.26 75.5859 102.872 75.5859C105.491 75.5859 107.612 77.7019 107.612 80.3106Z" fill="#2C1217"/>
<path d="M105.106 80.3053C105.106 81.5403 104.107 82.5356 102.872 82.5356C101.642 82.5356 100.647 81.5403 100.647 80.3053C100.647 79.0862 101.642 78.0859 102.872 78.0859C104.107 78.0859 105.106 79.0862 105.106 80.3053Z" fill="#040001"/>
<path d="M95.8577 84.2826L93.6601 83.1299C92.9304 82.7493 92.1915 82.2505 91.426 81.7752L90.7905 81.3815L91.2893 80.2042V80.2021L92.1758 78.9895C92.4883 78.5958 92.7333 78.1547 93.1346 77.8199L94.2547 76.7652C94.6206 76.4074 95.1003 76.1629 95.5217 75.8618C95.9508 75.5651 96.4077 75.3151 96.9124 75.1436C97.4085 74.9721 97.8653 74.696 98.394 74.6263C98.9075 74.5272 99.4177 74.3938 99.9333 74.3399L101.484 74.3203C102.505 74.4254 103.499 74.6002 104.447 74.9149C105.385 75.2356 106.292 75.6201 107.13 76.1156C107.97 76.6062 108.754 77.1697 109.494 77.7834C109.847 78.1133 110.22 78.4096 110.534 78.7831C110.857 79.1593 111.181 79.4643 111.398 80.0376L111.402 80.0496V80.0632C111.414 80.7961 111.154 81.4648 111.021 82.1329C111.024 81.4376 111.142 80.7558 111.005 80.1101L111.009 80.1367C110.825 79.8623 110.43 79.5307 110.079 79.2786C109.728 78.9998 109.336 78.763 108.961 78.5119C108.184 78.0486 107.375 77.6407 106.543 77.3162C105.708 76.9987 104.866 76.7276 104.014 76.5571C103.156 76.3851 102.304 76.3475 101.464 76.3584C100.628 76.4521 99.8201 76.5784 99.0502 76.8496C98.6478 76.9209 98.3102 77.192 97.9399 77.344C97.5653 77.497 97.2255 77.7229 96.9081 77.9897C96.5857 78.2451 96.216 78.4221 95.9274 78.7297L95.0426 79.6178C94.4512 80.2081 93.9759 80.947 93.4259 81.6004V81.602L93.2893 80.0316C93.6644 80.7096 94.0036 81.4283 94.4681 82.146L95.8577 84.2826Z" fill="#040000"/>
<path d="M101.952 78.7062C101.952 79.3209 101.45 79.8278 100.83 79.8278C100.208 79.8278 99.6997 79.3209 99.6997 78.7062C99.6997 78.0723 100.208 77.5703 100.83 77.5703C101.45 77.5703 101.952 78.0723 101.952 78.7062Z" fill="#F1F1EE"/>
<path d="M131.918 82.5288C131.918 82.5288 131.241 81.3221 131.556 80.1014C131.875 78.8762 142.993 69.576 150.406 80.9181C150.406 80.9181 142.138 92.4666 131.918 82.5288Z" fill="#F1F1EE"/>
<path d="M135.15 80.3106C135.15 82.9341 137.271 85.0598 139.886 85.0598C142.503 85.0598 144.625 82.9346 144.625 80.3106C144.625 77.7019 142.503 75.5859 139.886 75.5859C137.271 75.5859 135.15 77.7019 135.15 80.3106Z" fill="#2C1217"/>
<path d="M137.655 80.3053C137.655 81.5403 138.656 82.5356 139.886 82.5356C141.119 82.5356 142.115 81.5403 142.115 80.3053C142.115 79.0862 141.119 78.0859 139.886 78.0859C138.655 78.0859 137.655 79.0862 137.655 80.3053Z" fill="#040001"/>
<path d="M146.907 84.2837L148.296 82.146C148.761 81.4289 149.1 80.7095 149.475 80.0316L149.338 81.602V81.6004C148.788 80.947 148.313 80.2064 147.722 79.6178L146.835 78.7286C146.548 78.4205 146.179 78.2435 145.856 77.9897C145.539 77.7218 145.2 77.4975 144.824 77.344C144.452 77.1904 144.117 76.9192 143.714 76.8479C142.943 76.5784 142.136 76.4526 141.299 76.3584C140.46 76.3475 139.607 76.3851 138.749 76.5571C137.896 76.7287 137.054 76.9998 136.218 77.3178C135.387 77.6434 134.579 78.0507 133.8 78.513C133.427 78.763 133.033 79.0014 132.683 79.2786C132.33 79.5329 131.936 79.8623 131.75 80.1378L131.753 80.1101C131.621 80.7558 131.739 81.4376 131.743 82.1329C131.609 81.4648 131.349 80.7961 131.358 80.0654V80.0496L131.363 80.036C131.579 79.4659 131.904 79.1599 132.225 78.7831C132.541 78.4101 132.916 78.115 133.269 77.7834C134.007 77.1703 134.793 76.6067 135.633 76.1166C136.469 75.6201 137.377 75.2356 138.316 74.9149C139.263 74.6024 140.257 74.4259 141.279 74.3203L142.829 74.3383C143.345 74.3927 143.855 74.5278 144.369 74.6263C144.897 74.6944 145.354 74.9721 145.852 75.1436C146.357 75.3151 146.813 75.5651 147.243 75.8607C147.662 76.1629 148.146 76.4074 148.511 76.7651L149.63 77.8199C150.03 78.1531 150.274 78.5947 150.587 78.9895L151.476 80.2021V80.2043L151.975 81.3815L151.34 81.7752C150.573 82.2505 149.834 82.7493 149.106 83.1299L146.907 84.2837Z" fill="#040000"/>
<path d="M140.806 78.7062C140.806 79.3209 141.313 79.8278 141.931 79.8278C142.557 79.8278 143.063 79.3209 143.063 78.7062C143.063 78.0723 142.557 77.5703 141.931 77.5703C141.312 77.5703 140.806 78.0723 140.806 78.7062Z" fill="#F1F1EE"/>
<path d="M125.068 88.2891C125.068 88.2891 124.468 96.7169 124.816 102.433C124.999 105.53 123.431 107.318 121.943 107.638C121.943 107.638 128.174 108.627 129.119 102.748C129.748 98.8002 126.026 94.46 125.068 88.2891Z" fill="#A6644F"/>
<path d="M118.686 107.03C118.686 107.03 112.713 104.945 113.693 106.799C114.67 108.658 118.686 107.03 118.686 107.03Z" fill="#985238"/>
<path d="M89.6662 32.504C89.6662 32.504 101.136 48.751 116.654 52.1618C116.654 52.1618 108.348 47.0516 104.73 43.9632C104.73 43.9632 120.663 52.6361 138.336 54.2075C138.336 54.2075 127.091 50.3742 122.933 44.9869C122.933 44.9869 133.879 52.8463 154.096 54.2075C154.096 54.2075 146.422 51.7295 143.555 48.751C143.555 48.751 153.904 51.5514 157.287 54.2075C160.67 56.8598 163.608 78.1517 163.608 78.1517C163.608 78.1517 165.635 74.6353 168.587 71.7875C168.587 71.7875 173.482 45.0898 171.416 37.8206C169.271 30.2547 159.06 -2.60415 106.758 0.165213C106.758 0.165213 77.0385 2.29369 79.6832 21.0111L89.6662 32.504Z" fill="#0A0000"/>
<path d="M85.8421 18.4008C80.8947 12.1569 89.8453 5.82161 97.8882 1.71875C89.3667 3.93816 78.0045 9.12895 79.6832 21.0106L89.6662 32.5035C89.6662 32.5035 101.136 48.7505 116.654 52.1613C116.654 52.1613 108.348 47.0511 104.73 43.9627C104.73 43.9627 120.663 52.6356 138.336 54.207C138.336 54.207 127.091 50.3737 122.933 44.9864C122.933 44.9864 133.879 52.8458 154.096 54.207C154.096 54.207 146.422 51.729 143.555 48.7505C143.555 48.7505 153.904 51.5509 157.287 54.207C160.67 56.8593 163.608 78.1512 163.608 78.1512C163.608 78.1512 165.635 74.6348 168.587 71.787C168.587 71.787 173.482 45.0893 171.416 37.8201C171.323 37.4912 171.214 37.1117 171.084 36.6892C162.318 55.3756 93.463 28.0304 85.8421 18.4008Z" fill="#000001"/>
<path d="M76.9022 46.3345C72.0076 38.4642 71.3787 23.3606 80.3102 18.6719C77.457 18.8472 74.7339 20.3234 73.0639 23.5741C64.3491 40.4778 69.9003 67.8599 71.6977 70.9576C71.6977 70.9576 76.1926 73.342 78.0418 82.6847C78.0418 82.6847 80.5291 78.4141 81.3845 69.4662C81.6976 66.1436 82.1016 63.7124 82.6516 61.6471C81.6143 57.2317 79.7695 50.9475 76.9022 46.3345Z" fill="#000001"/>
<path d="M171.083 36.6846C168.296 27.4438 156.774 -2.48177 106.757 0.165076C106.757 0.165076 103.026 0.434607 98.3297 1.6102C96.4849 3.08309 95.7612 4.92189 97.2869 7.18323C102.858 15.4875 154.414 1.93853 171.083 36.6846Z" fill="#2C101A"/>
<path d="M140.724 112.846C136.595 109.665 121.663 108.703 121.663 108.703C121.663 108.703 106.739 109.666 102.604 112.846C98.4748 116.044 99.6433 120.16 99.6433 120.16C99.6433 120.16 101.765 115.335 104.755 115.94C106.434 116.273 121.664 117.427 121.664 112.749C121.664 117.427 136.868 115.866 138.581 115.94C140.914 116.044 143.686 119.586 143.686 119.586C143.686 119.586 144.859 116.044 140.724 112.846Z" fill="#000001"/>
<path d="M96.9019 523.797C96.9019 523.797 188.185 629.088 194.988 634.637C194.988 634.637 138.603 553.174 96.9019 523.797Z" fill="#EACE97"/>
<path d="M89.6665 455.712C89.1542 455.334 168.396 554.441 185.843 570.824C185.843 570.824 117.754 476.567 89.6665 455.712Z" fill="#EACE97"/>
<path d="M87.9629 556.992C87.9629 556.992 134.133 659.337 136.267 661.89C136.267 661.89 119.034 593.377 87.9629 556.992Z" fill="#EACE97"/>
<path d="M42.9307 787.421C42.9307 787.421 50.0871 799.909 56.5493 805.008C56.5493 805.008 95.4898 806.529 106.092 805.008C116.689 803.49 143.489 684.633 142.856 678.719C142.856 678.719 80.6329 711.959 76.5371 716.501L42.9307 787.421Z" fill="#EACE97"/>
</svg>
