<svg width="193" height="743" viewBox="0 0 193 743" fill="none" xmlns="http://www.w3.org/2000/svg">
<path d="M181.675 267.797C181.675 267.797 201.989 276.948 187.109 290.589C172.228 304.227 149.68 334.604 145.616 347.688C141.547 360.775 132.272 333.793 132.272 333.793L181.675 267.797Z" fill="#A02D5B"/>
<path d="M118.997 326.574L184.036 269.47C187.226 244.892 187.547 225.081 186.716 209.922L156.888 220.964L121.705 292.125C121.705 292.125 118.891 308.22 115.434 330.882L118.997 326.574Z" fill="#370020"/>
<path d="M177.815 381.522C177.815 381.522 182.647 325.897 181.915 288.571C181.915 288.571 181.299 268.606 181.977 258.262C182.647 247.913 189.67 183.6 179.502 172.099C171.88 163.478 154.916 161.477 154.916 161.477V207.494C154.916 207.494 163.416 263.426 164.158 274.883C164.895 286.34 157.795 299.009 168.953 381.522H177.815Z" fill="#D1856A"/>
<path d="M182.701 249.414C177.117 250.653 169.695 252.325 161.688 254.191C162.933 263.382 163.92 271.302 164.158 274.881C164.621 282.14 161.945 289.891 162.758 315.582C166.472 310.361 175.719 297.62 181.956 291.355C181.942 290.413 181.932 289.484 181.915 288.568C181.915 288.568 181.299 268.604 181.977 258.26C182.085 256.579 182.362 253.474 182.701 249.414Z" fill="#A45C4B"/>
<path d="M161.128 250.14C162.174 257.693 163.1 264.719 163.654 269.679C172.044 268.509 178.078 265.737 181.749 263.536C181.797 261.629 181.87 259.831 181.977 258.259C182.106 256.245 182.478 252.185 182.913 246.875L161.128 250.14Z" fill="#A45C4B"/>
<path d="M167.972 401.715L171.761 404.777C171.761 404.777 171.199 415.413 171.255 416.593C171.255 416.593 166.172 421.714 167.973 423.503C167.973 423.503 173.344 421.474 174.704 419.548C176.061 417.619 174.425 403.014 174.425 403.014L168.366 398.43L167.972 401.715Z" fill="#9A4E3D"/>
<path d="M170.804 426.739C170.804 426.739 169.875 426.944 169.749 425.09C169.558 422.372 171.957 418.863 172.547 418.07C172.547 418.07 172.34 405.58 172.272 405.05C172.21 404.526 170.669 402.879 168.199 400.411C166.106 398.318 168.29 398.312 168.29 398.312L174.904 400.427C174.904 400.427 177.815 408.36 177.815 408.561C177.815 408.76 176.462 421.244 176.462 421.244L170.804 426.739Z" fill="#B4634F"/>
<path d="M168.952 381.518C168.952 381.518 167.405 389.471 166.006 393.558C166.006 393.558 164.383 397.314 164.416 399.381C164.467 402.422 164.58 405.09 164.849 408.004C164.849 408.004 165.099 413.523 166.361 412.99C167.628 412.467 167.289 409.137 166.945 407.2C166.945 407.2 168.158 401.491 168.952 400.296C168.952 400.296 173.58 403.207 174.635 407.832C174.635 407.832 174.903 418.543 174.635 420.394C174.635 420.394 170.518 427.969 173.86 429.731C173.86 429.731 176.929 425.348 178.275 422.509C179.383 420.168 181.145 406.486 181.538 402.518C181.934 398.558 177.688 382.734 177.951 379.823C178.218 376.914 168.952 381.518 168.952 381.518Z" fill="#D1856A"/>
<path d="M164.096 161.477C164.096 161.477 184.972 166.967 184.964 185.451C184.964 185.451 186.169 229.8 184.964 245.324C184.964 245.324 168.791 256.533 159.814 252.714C159.814 252.714 153.82 216.223 151.606 207.493C149.387 198.755 164.096 161.477 164.096 161.477Z" fill="#F37439"/>
<path d="M153.498 216.526C156.156 230.442 159.815 252.716 159.815 252.716C160.534 253.027 161.305 253.226 162.11 253.352C167.306 235.211 179.893 191.436 183.89 178.581C182.741 175.071 180.778 172.203 178.506 169.896C174.412 168.938 169.94 168.742 169.94 168.742L153.498 216.526Z" fill="#CE5127"/>
<path d="M7.95833 378.877C7.95833 378.877 3.12087 323.235 3.85814 285.909C3.85814 285.909 4.46868 265.954 3.7962 255.605C3.12087 245.253 -3.90143 180.948 6.26624 169.442C13.8882 160.821 30.8502 158.82 30.8502 158.82V204.836C30.8502 204.836 22.3524 260.769 21.6208 272.222C20.8784 283.684 27.974 296.351 16.816 378.877H7.95833Z" fill="#D1856A"/>
<path d="M2.85156 244.195C3.29043 249.515 3.66163 253.586 3.79641 255.603C3.85269 256.497 3.90092 257.467 3.94443 258.485C7.37211 261.714 14.516 267.497 22.0306 267.794C22.6005 262.565 23.6366 254.707 24.8014 246.299L2.85156 244.195Z" fill="#A45C4B"/>
<path d="M17.7963 399.064L14.0073 402.131C14.0073 402.131 14.5724 412.764 14.5161 413.953C14.5161 413.953 19.5934 419.06 17.7963 420.857C17.7963 420.857 12.4263 418.82 11.0691 416.897C9.70851 414.97 11.3443 400.371 11.3443 400.371L17.4037 395.781L17.7963 399.064Z" fill="#9A4E3D"/>
<path d="M14.9652 424.096C14.9652 424.096 15.8936 424.292 16.0255 422.436C16.2114 419.721 13.8142 416.216 13.2192 415.424C13.2192 415.424 13.4315 402.932 13.4963 402.402C13.5611 401.877 15.1 400.233 17.5696 397.76C19.6684 395.664 17.4783 395.664 17.4783 395.664L10.8674 397.777C10.8674 397.777 7.95898 405.716 7.95898 405.915C7.95898 406.106 9.30915 418.591 9.30915 418.591L14.9652 424.096Z" fill="#B4634F"/>
<path d="M16.8176 378.877C16.8176 378.877 18.3664 386.82 19.7715 390.906C19.7715 390.906 21.386 394.66 21.3538 396.726C21.3075 399.772 21.1892 402.447 20.9206 405.352C20.9206 405.352 20.6704 410.87 19.4087 410.346C18.1441 409.813 18.4832 406.493 18.8251 404.548C18.8251 404.548 17.614 398.836 16.8181 397.652C16.8181 397.652 12.1897 400.549 11.1346 405.185C11.1346 405.185 10.8683 415.896 11.1346 417.743C11.1346 417.743 15.2542 425.311 11.9126 427.082C11.9126 427.082 8.84047 422.699 7.49739 419.86C6.38888 417.511 4.62396 403.832 4.23144 399.866C3.83325 395.9 8.08148 380.083 7.82091 377.173C7.5504 374.265 16.8176 378.877 16.8176 378.877Z" fill="#D1856A"/>
<path d="M21.6774 158.82C21.6774 158.82 0.796337 164.31 0.806268 182.795C0.806268 182.795 -0.399192 227.152 0.806268 242.664C0.806268 242.664 16.9823 253.877 25.9559 250.063C25.9559 250.063 31.9477 213.575 34.1643 204.836C36.3822 196.103 21.6774 158.82 21.6774 158.82Z" fill="#F37439"/>
<path d="M34.2136 204.602C30.0458 192.29 22.5255 171.625 19.4397 172.9C15.0615 174.707 16.921 192.529 18.3951 199.708C19.8758 206.885 20.3681 233.924 15.829 235.725C12.6941 236.97 4.87257 233.096 0.349609 230.591C0.425276 235.371 0.567643 239.591 0.806937 242.667C0.806937 242.667 16.983 253.88 25.9565 250.065C25.9565 250.065 31.9484 213.578 34.1649 204.839C34.1867 204.762 34.197 204.68 34.2136 204.602Z" fill="#CE5127"/>
<path d="M107.476 105.594H93.9123H80.3576C81.0244 141.444 64.585 148.834 64.585 148.834C75.0194 166.943 93.9123 165.83 93.9123 165.83C93.9123 165.83 112.814 166.943 123.248 148.834C123.248 148.834 106.806 141.444 107.476 105.594Z" fill="#BB715A"/>
<path d="M113.07 136.987C110.425 131.561 108.159 123.842 107.598 112.977H93.7195H80.2339C79.8976 119.501 78.9471 124.907 77.6641 129.348C84.0276 133.118 97.6258 139.55 113.07 136.987Z" fill="#A45C4B"/>
<path d="M134.467 310.061C121.636 282.957 139.999 252.046 139.999 252.046C163.139 217.421 162.527 179.732 162.538 170.358C162.552 161.729 160.687 159.936 160.687 159.936C155.577 158.143 123.164 148.797 123.164 148.797L94.0412 148.838H64.5848C64.5848 148.838 32.5022 158.143 27.3881 159.936C27.3881 159.936 25.5286 161.729 25.5362 170.358C25.5527 179.732 24.9422 217.421 48.0753 252.046C48.0753 252.046 66.4414 282.957 53.6126 310.061C45.8346 326.483 39.4758 342.628 37.3699 354.415C37.3699 354.415 28.717 400.711 36.7102 456.584C42.0002 493.563 51.6586 526.396 51.1663 540.196H94.0407H136.909C136.417 526.396 146.08 493.563 151.371 456.584C159.363 400.711 150.71 354.415 150.71 354.415C148.604 342.628 142.246 326.483 134.467 310.061Z" fill="#BB715A"/>
<path d="M123.606 346.516C123.606 346.516 131.467 328.722 136.559 314.541C135.87 313.05 135.181 311.549 134.468 310.053C131.667 304.135 130.357 298.039 130.009 292.125L101.433 350.954L123.606 346.516Z" fill="#A45C4B"/>
<path d="M138.614 153.286C130.424 150.89 129.601 150.487 125.519 149.292C122.476 148.408 118.397 144.992 118.397 144.992C115.785 164.76 108.049 178.479 108.049 178.479L138.94 153.848C138.94 153.848 138.826 153.646 138.614 153.286Z" fill="#F37439"/>
<path d="M152.269 506.306C150.347 461 165.372 388.292 143.934 330.133L108.074 356.951L35.108 483.975C35.108 483.975 37.8632 592.726 25.5371 734.043C25.5371 734.043 113.724 755.866 165.988 731.395C165.988 731.395 158.471 652.766 152.269 506.306Z" fill="#D75580"/>
<path d="M107.05 463.271C107.05 463.271 101.979 714.042 109.362 726.884C116.742 739.723 145.793 737.754 144.902 729.872C144.011 721.989 113.074 465.542 112.965 447.999C112.854 430.457 106.884 457.333 107.05 463.271Z" fill="#B6436E"/>
<path d="M64.6676 493.328C64.6676 493.328 57.8907 730.813 56.7869 735.198C55.6784 739.583 70.0896 737.568 78.9577 735.198C87.8286 732.824 67.8404 487.422 67.8404 487.422L64.6676 493.328Z" fill="#B6436E"/>
<path d="M143.934 330.133L108.074 356.951L35.108 483.975C35.108 483.975 37.8632 592.726 25.5371 734.043C25.5371 734.043 31.2121 735.451 40.5243 737.148C41.8286 735.173 42.9943 733.082 43.9732 730.857C54.8134 706.219 41.0137 553.456 43.9732 540.197C46.9327 526.93 71.3635 501.595 95.764 479.874C136.56 443.562 142.339 372.072 148.588 345.063C147.275 340.001 145.734 335.015 143.934 330.133Z" fill="#B6436E"/>
<path d="M152.268 506.303C152.217 505.194 152.185 504.059 152.158 502.916C152.152 502.741 152.15 502.561 152.144 502.386C152.12 501.285 152.109 500.169 152.099 499.036C152.099 498.831 152.096 498.63 152.096 498.417C152.093 497.271 152.096 496.106 152.105 494.928C152.109 494.804 152.109 494.685 152.109 494.57C152.126 493.364 152.142 492.151 152.167 490.924C152.169 490.859 152.17 490.786 152.17 490.73C152.202 489.465 152.233 488.19 152.277 486.901C152.285 486.742 152.288 486.581 152.293 486.414C152.333 485.136 152.382 483.847 152.436 482.55C152.439 482.419 152.447 482.284 152.451 482.161C152.562 479.419 152.697 476.623 152.848 473.782C152.848 473.744 152.848 473.709 152.85 473.672C152.85 473.672 142.828 513.579 145.289 523.434C147.472 532.149 154.849 697.109 156.529 735.199C159.784 734.075 162.951 732.81 165.988 731.392C165.987 731.392 158.47 652.763 152.268 506.303Z" fill="#B64170"/>
<path d="M69.395 145C69.395 145 67.3184 173.186 94.5825 185.387L36.6319 228.629C36.6319 228.629 18.5188 200.415 15.8293 162.95C15.433 157.383 69.395 145 69.395 145Z" fill="#F37439"/>
<path d="M89.3741 182.648C75.52 190.173 37.0153 213.507 33.2135 216.914C32.3415 217.693 31.8141 218.513 31.5342 219.304C34.4724 225.254 36.6327 228.621 36.6327 228.621L45.803 221.774C60.2434 209.955 82.9627 191.193 91.1177 183.652C90.5176 183.327 89.942 182.992 89.3741 182.648Z" fill="#CE5127"/>
<path d="M158.47 158.391L141.653 154.141L40.5737 253.877C40.5737 253.877 49.1405 271.61 50.8917 278.514C52.6429 285.412 51.6342 304.135 45.7313 319.909C39.8307 335.678 33.4676 359.914 31.5816 369.341C29.69 378.767 18.2606 444.03 34.7156 499.006C34.7156 499.006 38.7761 485.464 75.3031 473.667C111.831 461.873 133.985 375.137 144.963 334.636C144.963 334.636 166.154 274.166 192.763 279.143C192.763 279.143 192.392 261.172 191.445 227.155C191.445 227.155 189.966 196.668 189.966 184.473C189.966 184.473 191.822 166.595 158.47 158.391Z" fill="#EA7395"/>
<path d="M118.997 382.996L155.444 252.613C119.567 280.678 109.521 347.465 96.3424 390.836C83.1745 434.197 38.0613 445.53 33.5308 446.52C28.9965 447.502 37.0795 434.197 37.0795 434.197C74.0345 395.765 86.5535 367.914 86.5535 367.914C79.3591 378.508 39.0487 419.908 33.1354 417.443C27.2239 414.976 38.5564 404.305 38.5564 404.305C75.0215 376.88 101.433 312.482 101.433 312.482C68.7048 370.139 43.4833 387.387 37.0795 382.996C30.673 378.605 43.5551 367.572 43.5551 367.572C86.0101 331.99 139.453 209.929 139.453 209.929C130.956 214.809 67.1361 343.035 53.2035 342.048C39.2691 341.066 54.2426 318.396 54.2426 318.396C85.2029 283.405 141.678 172.844 141.678 172.844C72.821 298.327 55.2059 289.813 55.2059 289.813C55.0976 279.958 53.6883 264.567 53.6883 264.567L46.2678 266.327C48.2483 270.901 50.1636 275.65 50.8924 278.522C52.6436 285.419 51.6349 304.143 45.7319 319.916C39.8314 335.686 33.4683 359.921 31.5824 369.349C29.9059 377.695 20.7469 429.86 30.113 479.873C52.8053 472.576 91.1171 460.812 91.1171 460.812L118.997 382.996Z" fill="#D45680"/>
<path d="M143.411 155.352L109.348 186.022L40.5742 253.882C40.5742 253.882 45.3015 263.671 48.452 271.533C83.7962 249.165 143.411 155.352 143.411 155.352Z" fill="#D45680"/>
<path d="M135.614 152.375C135.614 152.375 30.7433 221.664 30.8516 227.175C30.967 232.693 36.3881 256.834 43.5319 264.228C50.6781 271.618 143.918 154.719 143.918 154.719C143.918 154.719 141.531 151.481 135.614 152.375Z" fill="#FFD53D"/>
<path d="M142.421 156.578C120.807 177.585 52.4128 242.468 33.5303 241.322C35.8173 249.987 39.3816 259.929 43.5305 264.22C50.139 271.064 130.445 171.507 142.421 156.578Z" fill="#CFAB2C"/>
<path d="M71.1982 142.016C71.1982 142.016 93.8556 183.904 116.021 142.016" stroke="#FCB44E" stroke-width="4.6891" stroke-miterlimit="10" stroke-linecap="round"/>
<path d="M73.6611 139.097C73.6611 139.097 94.0419 171.831 114.076 138.93" stroke="#FCB44E" stroke-width="4.6891" stroke-miterlimit="10" stroke-linecap="round"/>
<path d="M68.707 144.836C68.707 144.836 92.2142 202.924 118.396 144.991" stroke="#FCB44E" stroke-width="4.6891" stroke-miterlimit="10" stroke-linecap="round"/>
<path d="M63.9742 151.998C62.0669 151.918 60.5971 150.216 60.7673 148.19C60.9338 146.169 62.6987 144.692 64.5875 144.982C66.4683 145.271 67.8001 146.921 67.644 148.777C67.4931 150.628 65.8758 152.078 63.9742 151.998Z" fill="#FFD53D"/>
<path d="M60.7664 148.19C60.6231 149.887 61.6403 151.37 63.0959 151.838C62.2168 150.693 63.5022 149.337 64.9583 147.3C65.4643 146.602 65.6577 145.933 65.6823 145.329C65.3461 145.163 64.9796 145.041 64.587 144.982C62.6977 144.692 60.9328 146.169 60.7664 148.19Z" fill="#DC942A"/>
<path d="M63.8901 159.049C61.9819 159.105 60.3948 157.508 60.4132 155.483C60.443 153.458 62.0713 151.902 63.9729 152.005C65.8773 152.108 67.3471 153.704 67.3173 155.57C67.2984 157.434 65.7917 158.99 63.8901 159.049Z" fill="#FFD53D"/>
<path d="M60.4132 155.482C60.3976 157.179 61.5085 158.588 63.0044 158.951C62.0363 157.87 63.2309 156.429 64.5357 154.291C64.9745 153.553 65.1306 152.871 65.0979 152.252C64.748 152.111 64.3711 152.023 63.9729 152.005C62.0713 151.901 60.443 153.458 60.4132 155.482Z" fill="#DC942A"/>
<path d="M64.3321 166.068C62.4305 166.281 60.7214 164.806 60.5866 162.773C60.4684 160.742 61.9732 159.071 63.8885 159.04C65.7849 159.007 67.3725 160.49 67.4798 162.343C67.6018 164.194 66.2214 165.855 64.3321 166.068Z" fill="#FFD53D"/>
<path d="M60.5866 162.774C60.7058 164.476 61.916 165.802 63.4416 166.043C62.3841 165.041 63.4714 163.504 64.6121 161.278C65.0056 160.511 65.0916 159.821 65.0268 159.206C64.6665 159.09 64.2843 159.029 63.889 159.04C61.9732 159.072 60.4684 160.742 60.5866 162.774Z" fill="#DC942A"/>
<path d="M65.3947 173.041C63.5168 173.445 61.687 172.124 61.364 170.091C61.0576 168.059 62.4356 166.263 64.3344 166.079C66.2289 165.896 67.9153 167.239 68.1906 169.055C68.4805 170.864 67.2457 172.641 65.3947 173.041Z" fill="#FFD53D"/>
<path d="M61.363 170.086C61.6354 171.786 62.9648 173.007 64.5008 173.098C63.3786 172.196 64.28 170.555 65.2405 168.242C65.5526 167.447 65.6008 166.753 65.4797 166.146C65.1165 166.061 64.7297 166.032 64.3334 166.073C62.4347 166.258 61.0566 168.054 61.363 170.086Z" fill="#DC942A"/>
<path d="M67.2289 179.827C65.464 180.464 63.378 179.377 62.8748 177.351C62.3049 175.341 63.5482 173.393 65.3935 173.031C67.2908 172.656 69.0478 173.828 69.5424 175.562C69.9732 177.317 69.0534 179.175 67.2289 179.827Z" fill="#FFD53D"/>
<path d="M62.8748 177.352C63.2952 179.044 64.8506 180.1 66.354 180.002C65.1027 179.248 65.8267 177.482 66.5073 175.096C66.7603 174.268 66.7338 173.577 66.5451 172.991C66.171 172.942 65.7804 172.951 65.393 173.032C63.5482 173.394 62.3049 175.342 62.8748 177.352Z" fill="#DC942A"/>
<path d="M70.039 186.279C68.3596 187.229 66.1809 186.448 65.3193 184.487C64.5073 182.522 65.3978 180.43 67.2303 179.831C69.0222 179.245 70.9886 180.12 71.6611 181.75C72.3638 183.356 71.6804 185.351 70.039 186.279Z" fill="#FFD53D"/>
<path d="M65.3181 184.483C66.0506 186.113 67.6864 186.963 69.204 186.592C67.8184 186.063 68.262 184.165 68.6176 181.715C68.7571 180.862 68.5954 180.204 68.3589 179.641C67.9848 179.639 67.6032 179.697 67.2292 179.827C65.3966 180.425 64.5066 182.517 65.3181 184.483Z" fill="#DC942A"/>
<path d="M74.0118 192.074C72.5997 193.366 70.2801 193.032 69.024 191.234C67.7727 189.43 68.3534 187.154 70.0384 186.274C71.7333 185.389 73.7432 185.932 74.7169 187.327C75.6855 188.714 75.4169 190.794 74.0118 192.074Z" fill="#FFD53D"/>
<path d="M69.024 191.234C70.0512 192.745 71.9159 193.222 73.2609 192.567C71.8596 192.29 71.7897 190.376 71.7249 187.891C71.6629 187.059 71.4747 186.396 71.1252 185.898C70.7568 185.963 70.387 186.086 70.038 186.274C68.3535 187.154 67.7727 189.431 69.024 191.234Z" fill="#DC942A"/>
<path d="M79.2854 196.715C78.2843 198.295 75.8624 198.672 74.2134 197.143C72.5156 195.678 72.5804 193.265 74.011 192.076C75.5044 190.822 77.5356 190.911 78.7927 191.976C79.9929 193.115 80.3291 195.076 79.2854 196.715Z" fill="#FFD53D"/>
<path d="M74.2133 197.146C75.5848 198.417 77.5497 198.377 78.6932 197.381C77.2078 197.546 76.6989 195.615 76.0213 193.266C75.817 192.425 75.4514 191.866 74.9932 191.469C74.6442 191.617 74.3107 191.817 74.0114 192.078C72.5803 193.267 72.5155 195.681 74.2133 197.146Z" fill="#DC942A"/>
<path d="M85.5787 199.834C84.9922 201.697 82.8428 202.509 80.8003 201.599C79.8285 201.073 79.1366 200.248 78.8595 199.379C78.5932 198.475 78.755 197.506 79.2851 196.722C79.82 195.926 80.606 195.445 81.4189 195.22C82.2551 194.965 83.1082 194.99 83.8426 195.401C85.3578 196.059 86.1357 198.061 85.5787 199.834Z" fill="#FFD53D"/>
<path d="M80.8008 201.601C82.5014 202.354 84.3226 201.934 85.1781 200.639C84.4863 200.926 83.9079 200.565 83.3186 199.961C82.7209 199.368 82.151 198.429 81.5353 197.336C81.1021 196.605 80.5747 196.21 80.0683 195.891C79.7755 196.118 79.506 196.395 79.2861 196.725C78.7559 197.509 78.5942 198.477 78.8605 199.381C79.1371 200.25 79.829 201.075 80.8008 201.601Z" fill="#DC942A"/>
<path d="M92.4501 201.302C92.3475 202.249 91.8524 203.071 91.0915 203.626C90.3348 204.136 89.3072 204.327 88.2474 204.127C86.0999 203.685 84.927 201.584 85.5777 199.832C86.2446 198.005 88.0364 197.045 89.7002 197.378C90.5557 197.532 91.2518 198.072 91.7526 198.789C92.2619 199.46 92.5518 200.354 92.4501 201.302Z" fill="#FFD53D"/>
<path d="M88.2482 204.127C90.0401 204.495 91.6816 203.643 92.2358 202.169C91.0138 203.048 89.6844 201.517 87.9138 199.856C87.317 199.231 86.7169 198.927 86.122 198.812C85.8964 199.116 85.7054 199.455 85.5791 199.831C84.9274 201.584 86.1007 203.685 88.2482 204.127Z" fill="#DC942A"/>
<path d="M99.3415 200.396C100.005 202.15 98.8946 204.271 96.5891 204.729C96.285 204.782 96.024 204.802 95.7015 204.808C95.3349 204.808 94.8072 204.821 94.5173 204.673C93.8982 204.447 93.6315 204.167 93.2797 203.823C92.6526 203.138 92.3456 202.244 92.4511 201.296C92.5556 200.348 93.0347 199.524 93.675 198.955C93.9578 198.668 94.4473 198.459 94.6682 198.306C94.7973 198.227 94.7116 198.165 94.8001 198.103C94.9282 198.033 95.1363 197.972 95.3137 197.944C96.828 197.65 98.6633 198.588 99.3415 200.396Z" fill="#FFD53D"/>
<path d="M96.5881 204.73C98.5119 204.352 99.6332 202.775 99.5207 201.266C98.7967 202.478 96.8132 201.92 94.7102 200.857C94.0562 200.366 93.3562 200.183 92.7623 200.188C92.6034 200.529 92.4927 200.902 92.4501 201.297C92.3447 202.245 92.6516 203.139 93.2787 203.824C93.6305 204.168 93.8977 204.448 94.5163 204.674C94.8062 204.823 95.334 204.809 95.7005 204.809C96.023 204.803 96.2845 204.783 96.5881 204.73Z" fill="#DC942A"/>
<path d="M105.591 197.189C106.688 198.756 106.117 201.068 104.127 202.062C102.141 203.063 99.937 202.218 99.3402 200.394C98.7453 198.595 99.5175 196.657 101 195.905C102.501 195.167 104.498 195.634 105.591 197.189Z" fill="#FFD53D"/>
<path d="M104.126 202.063C104.934 201.63 105.547 200.992 105.88 200.283C106.182 199.527 106.22 198.723 105.98 197.992C105.595 199.448 103.605 199.16 101.175 198.95C100.319 198.841 99.6707 198.993 99.1377 199.27C99.1434 199.64 99.2077 200.02 99.3401 200.395C99.9364 202.219 102.141 203.065 104.126 202.063Z" fill="#DC942A"/>
<path d="M110.932 192.635C112.341 193.92 112.341 196.309 110.623 197.692C109.011 199.189 106.586 198.765 105.591 197.193C104.539 195.549 104.921 193.609 106.15 192.43C107.484 191.382 109.524 191.35 110.932 192.635Z" fill="#FFD53D"/>
<path d="M110.622 197.688C111.305 197.093 111.768 196.353 111.919 195.583C112.037 194.78 111.892 193.987 111.494 193.328C111.466 194.856 109.432 194.962 107.044 195.37C106.22 195.513 105.566 195.739 105.114 196.141C105.214 196.503 105.37 196.858 105.591 197.189C106.586 198.762 109.01 199.186 110.622 197.688Z" fill="#DC942A"/>
<path d="M115.267 187.099C116.895 188.087 117.214 190.322 115.958 192.076C114.683 193.82 112.254 193.947 110.933 192.638C109.539 191.269 109.48 189.264 110.489 187.861C111.489 186.445 113.636 186.11 115.267 187.099Z" fill="#FFD53D"/>
<path d="M115.957 192.08C117.007 190.617 116.964 188.783 115.944 187.672C116.075 189.079 114.239 189.66 111.967 190.558C111.139 190.828 110.6 191.239 110.237 191.725C110.413 192.057 110.644 192.369 110.932 192.643C112.253 193.952 114.682 193.824 115.957 192.08Z" fill="#DC942A"/>
<path d="M118.451 180.824C120.179 181.54 121.115 183.758 120.023 185.603C119.001 187.472 116.891 188.153 115.266 187.096C113.694 186.073 113.049 183.958 113.897 182.417C114.814 180.913 116.658 180.079 118.451 180.824Z" fill="#FFD53D"/>
<path d="M120.023 185.601C120.932 184.059 120.427 182.228 119.219 181.281C119.434 181.977 119.164 182.559 118.521 183.104C117.843 183.635 116.861 184.153 115.801 184.795C115.072 185.238 114.649 185.767 114.41 186.332C114.652 186.627 114.927 186.881 115.267 187.094C116.891 188.151 119.001 187.471 120.023 185.601Z" fill="#DC942A"/>
<path d="M120.745 174.183C122.569 174.677 123.67 176.715 123.024 178.694C122.246 180.649 120.196 181.604 118.452 180.832C116.709 180.062 115.829 178.089 116.499 176.432C117.057 174.717 118.888 173.677 120.745 174.183Z" fill="#FFD53D"/>
<path d="M123.024 178.688C123.575 177.036 122.862 175.312 121.566 174.531C122.117 175.836 120.75 176.955 118.695 178.495C118.017 179.034 117.653 179.616 117.481 180.206C117.761 180.458 118.086 180.671 118.452 180.827C120.195 181.598 122.246 180.643 123.024 178.688Z" fill="#DC942A"/>
<path d="M122.267 167.306C124.148 167.614 125.391 169.503 125.038 171.522C124.533 173.528 122.565 174.71 120.744 174.175C118.907 173.635 117.846 171.794 118.295 170.031C118.605 168.216 120.384 166.996 122.267 167.306Z" fill="#FFD53D"/>
<path d="M125.039 171.519C125.335 169.829 124.507 168.213 123.118 167.57C123.812 168.809 122.515 170.038 120.728 171.834C120.112 172.45 119.813 173.076 119.706 173.68C120.015 173.895 120.363 174.064 120.744 174.172C122.566 174.708 124.533 173.525 125.039 171.519Z" fill="#DC942A"/>
<path d="M123.144 160.332C125.043 160.487 126.458 162.251 126.289 164.272C125.947 166.294 124.141 167.656 122.266 167.315C120.388 166.975 119.121 165.229 119.438 163.416C119.587 161.559 121.244 160.179 123.144 160.332Z" fill="#FFD53D"/>
<path d="M126.289 164.276C126.431 162.584 125.457 161.057 124.014 160.531C124.814 161.705 123.654 163.032 122.013 164.992C121.464 165.666 121.228 166.321 121.182 166.937C121.509 167.119 121.874 167.251 122.266 167.319C124.141 167.66 125.947 166.298 126.289 164.276Z" fill="#DC942A"/>
<path d="M123.517 153.297C125.378 153.326 127.073 154.968 126.874 156.99C126.715 159.012 125.045 160.507 123.145 160.327C121.248 160.148 119.827 158.498 119.975 156.642C120.169 154.787 121.566 153.266 123.517 153.297Z" fill="#FFD53D"/>
<path d="M126.875 156.988C127.063 155.292 125.841 153.856 124.4 153.43C125.363 154.545 124.153 155.936 122.687 158.021C122.199 158.739 122.024 159.415 122.032 160.034C122.377 160.189 122.753 160.291 123.146 160.324C125.045 160.505 126.716 159.01 126.875 156.988Z" fill="#DC942A"/>
<path d="M123.496 146.246C125.401 146.16 126.951 147.72 126.959 149.731C126.964 151.742 125.42 153.336 123.515 153.291C121.61 153.245 120.057 151.685 120.053 149.805C120.05 147.925 121.592 146.332 123.496 146.246Z" fill="#FFD53D"/>
<path d="M126.959 149.731C126.953 148.045 125.859 146.667 124.382 146.328C125.323 147.39 124.11 148.844 122.867 151.019C122.439 151.769 122.321 152.458 122.383 153.075C122.738 153.207 123.118 153.282 123.516 153.29C125.42 153.336 126.965 151.742 126.959 149.731Z" fill="#DC942A"/>
<path d="M19.26 378.486C19.26 378.931 18.9015 379.291 18.4574 379.291H6.7566C6.3149 379.291 5.95215 378.93 5.95215 378.486C5.95215 378.043 6.31537 377.688 6.7566 377.688H18.4574C18.9015 377.687 19.26 378.042 19.26 378.486Z" fill="#FFD53D"/>
<path d="M19.26 375.409C19.26 375.849 18.9015 376.212 18.4574 376.212H6.7566C6.3149 376.212 5.95215 375.848 5.95215 375.409C5.95215 374.973 6.31537 374.609 6.7566 374.609H18.4574C18.9015 374.61 19.26 374.973 19.26 375.409Z" fill="#FFD53D"/>
<path d="M19.26 372.323C19.26 372.764 18.9015 373.122 18.4574 373.122H6.7566C6.3149 373.122 5.95215 372.764 5.95215 372.323C5.95215 371.879 6.31537 371.523 6.7566 371.523H18.4574C18.9015 371.523 19.26 371.879 19.26 372.323Z" fill="#FFD53D"/>
<path d="M19.8757 369.236C19.8757 369.677 19.4851 370.039 19.0009 370.039H6.21277C5.7304 370.039 5.33789 369.676 5.33789 369.236C5.33789 368.796 5.7304 368.438 6.21277 368.438H19.0009C19.4851 368.437 19.8757 368.796 19.8757 369.236Z" fill="#FFD53D"/>
<path d="M20.3355 366.153C20.3355 366.589 19.9208 366.952 19.4072 366.952H5.80617C5.29164 366.952 4.875 366.589 4.875 366.153C4.875 365.709 5.29164 365.352 5.80617 365.352H19.4072C19.9208 365.351 20.3355 365.709 20.3355 366.153Z" fill="#FFD53D"/>
<path d="M19.8757 363.073C19.8757 363.512 19.4851 363.868 19.0009 363.868H6.21277C5.7304 363.868 5.33789 363.512 5.33789 363.073C5.33789 362.629 5.7304 362.273 6.21277 362.273H19.0009C19.4851 362.274 19.8757 362.629 19.8757 363.073Z" fill="#FFD53D"/>
<path d="M180.37 382.197C180.37 382.642 180.01 383.002 179.572 383.002H167.865C167.423 383.002 167.063 382.641 167.063 382.197C167.063 381.754 167.424 381.398 167.865 381.398H179.572C180.01 381.398 180.37 381.754 180.37 382.197Z" fill="#FFD53D"/>
<path d="M180.37 379.103C180.37 379.55 180.01 379.911 179.572 379.911H167.865C167.423 379.911 167.063 379.55 167.063 379.103C167.063 378.66 167.424 378.305 167.865 378.305H179.572C180.01 378.304 180.37 378.659 180.37 379.103Z" fill="#FFD53D"/>
<path d="M180.37 376.022C180.37 376.47 180.01 376.825 179.572 376.825H167.865C167.423 376.825 167.063 376.47 167.063 376.022C167.063 375.581 167.424 375.219 167.865 375.219H179.572C180.01 375.219 180.37 375.582 180.37 376.022Z" fill="#FFD53D"/>
<path d="M180.261 372.939C180.261 373.387 179.867 373.742 179.386 373.742H166.598C166.116 373.742 165.721 373.387 165.721 372.939C165.721 372.498 166.116 372.141 166.598 372.141H179.386C179.867 372.14 180.261 372.498 180.261 372.939Z" fill="#FFD53D"/>
<path d="M180.727 369.85C180.727 370.293 180.309 370.656 179.79 370.656H166.192C165.68 370.656 165.267 370.293 165.267 369.85C165.267 369.409 165.68 369.055 166.192 369.055H179.79C180.31 369.055 180.727 369.41 180.727 369.85Z" fill="#FFD53D"/>
<path d="M180.261 366.776C180.261 367.216 179.867 367.575 179.386 367.575H166.598C166.116 367.575 165.721 367.216 165.721 366.776C165.721 366.331 166.116 365.969 166.598 365.969H179.386C179.867 365.969 180.261 366.33 180.261 366.776Z" fill="#FFD53D"/>
<path d="M192.765 279.15C192.765 279.15 192.469 264.79 191.727 237.467C145.128 227.46 114.13 336.399 107.148 371.529C100.021 407.413 89.8072 431.241 55.2069 443.561C40.7423 448.711 32.28 454.818 27.3271 460.183C28.6158 473.13 30.9213 486.346 34.7174 499.013C34.7174 499.013 38.7779 485.471 75.3049 473.674C111.833 461.88 133.987 375.144 144.965 334.643C144.965 334.643 166.155 274.174 192.765 279.15Z" fill="#FFD53D"/>
<path d="M61.1127 96.75C61.1127 96.75 42.6468 108.57 55.4221 130.376C55.4221 130.376 50.5842 112.349 63.3298 103.566L61.1127 96.75Z" fill="#040000"/>
<path d="M60.8272 82.7814C60.8272 82.7814 49.5529 81.4374 49.142 90.4857C48.7244 99.5382 54.6684 100.826 58.4754 100.177C58.4754 100.177 55.7443 102.872 58.1496 108.969C60.5529 115.063 79.0826 117.77 78.4423 111.611C77.7996 105.452 60.8272 82.7814 60.8272 82.7814Z" fill="#040000"/>
<path d="M58.1835 71.4784C58.1835 71.4784 52.6385 62.6628 47.0449 65.7112C43.91 67.4166 48.3445 91.2023 59.2891 89.3636C59.2891 89.3636 61.2049 88.598 61.106 84.7257L58.1835 71.4784Z" fill="#D1856A"/>
<path opacity="0.4" d="M49.7919 68.5683C49.7919 68.5683 47.2354 77.9264 51.6188 79.8336C51.6188 79.8336 53.9157 80.4039 53.8486 81.4065C53.7795 82.4015 55.1997 88.9878 57.6106 86.7055C57.6106 86.7055 59.3859 83.5588 56.8681 82.5803C54.3494 81.6103 56.0822 81.4515 57.8797 78.928C57.8797 78.928 53.5346 67.6546 49.7919 68.5683Z" fill="#A6644F"/>
<path d="M49.1834 75.3854C48.8122 73.7118 48.5322 72.006 48.7204 70.2113C48.7795 69.7625 48.8689 69.2995 49.1215 68.8181C49.2676 68.3281 50.1169 67.8051 50.709 67.9919C50.8863 67.9839 51.2254 68.1375 51.4922 68.2487C51.7584 68.3754 51.9145 68.4988 52.1325 68.6284C52.5094 68.8999 52.8641 69.1917 53.1847 69.5014C54.497 70.7234 55.5446 72.1304 56.4857 73.6196C56.9596 74.3635 57.3606 75.1532 57.7077 75.9912C58.0354 76.8335 58.3958 77.6918 58.2775 78.8547L58.2534 79.0855L58.0836 79.2581C57.4731 79.8848 56.8682 80.6272 56.4701 81.3271C56.3788 81.4955 56.2975 81.679 56.279 81.7901C56.2412 81.949 56.2682 81.8696 56.2469 81.9112C56.3003 81.9514 56.3707 81.9821 56.6772 82.0389C56.8815 82.071 57.1558 82.1358 57.493 82.3094C58.6441 83.005 58.7277 84.3406 58.4851 85.2835C58.2458 86.2615 57.6003 87.205 56.6611 87.4968C57.4741 86.9766 57.8619 86.0629 57.9238 85.1923C57.9744 84.3302 57.6708 83.4122 57.0603 83.172C56.9874 83.1573 56.9392 83.1318 56.8664 83.1048L56.5108 83.0698C56.35 83.0467 55.9352 83.0509 55.5852 82.8154C55.2008 82.569 55.0182 81.9921 55.0873 81.679C55.1095 81.3167 55.2112 81.051 55.3138 80.7909C55.7555 79.7835 56.3684 79.0363 57.0225 78.2575L56.8285 78.6613C56.8527 78.1085 56.6134 77.3012 56.2899 76.5881C55.9815 75.8532 55.5668 75.1428 55.152 74.4354C54.2965 73.0351 53.3119 71.675 52.2091 70.495C51.9367 70.1909 51.6355 69.9351 51.3475 69.6811C51.208 69.5776 51.0353 69.4229 50.9228 69.3553C50.796 69.3066 50.7832 69.1846 50.5246 69.1524C50.2881 69.0767 50.2153 69.0711 50.0082 69.3581C49.8299 69.6126 49.696 69.989 49.6043 70.3735C49.2562 71.9492 49.2028 73.6806 49.1834 75.3854Z" fill="#985238"/>
<path d="M51.1047 77.4476C51.1047 77.4476 50.6068 75.6893 50.8007 73.7821C50.8896 72.84 51.2154 71.8341 51.791 71.1919C52.0846 70.8907 52.3617 70.6457 52.5925 70.535C52.8162 70.4083 52.9453 70.3359 52.9453 70.3359L53.4618 71.8237C53.4726 71.8464 53.1439 71.8601 52.7164 72.1467C52.2889 72.4328 51.8345 73.1257 51.5701 73.9443C51.0158 75.591 51.1047 77.4476 51.1047 77.4476Z" fill="#985238"/>
<path d="M129.557 71.4784C129.557 71.4784 135.108 62.6628 140.696 65.7112C143.83 67.4166 139.397 91.2023 128.451 89.3636C128.451 89.3636 126.535 88.598 126.638 84.7257L129.557 71.4784Z" fill="#D1856A"/>
<path opacity="0.4" d="M137.952 68.5683C137.952 68.5683 140.505 77.9264 136.123 79.8336C136.123 79.8336 133.825 80.4039 133.895 81.4065C133.959 82.4015 132.542 88.9878 130.136 86.7055C130.136 86.7055 128.352 83.5588 130.874 82.5803C133.397 81.6103 131.664 81.4515 129.867 78.928C129.867 78.928 134.207 67.6546 137.952 68.5683Z" fill="#A6644F"/>
<path d="M138.558 75.3782C138.541 73.6738 138.488 71.942 138.14 70.3653C138.049 69.9794 137.915 69.6044 137.736 69.3509C137.529 69.0629 137.457 69.0695 137.217 69.1437C136.959 69.1754 136.946 69.297 136.819 69.3466C136.709 69.4128 136.533 69.5689 136.397 69.671C136.106 69.9255 135.807 70.1823 135.536 70.4854C134.429 71.6649 133.445 73.025 132.592 74.4267C132.174 75.1332 131.764 75.8445 131.454 76.5794C131.128 77.2911 130.889 78.0998 130.913 78.6526L130.722 78.2488C131.376 79.0277 131.987 79.7749 132.427 80.7808C132.53 81.0404 132.633 81.3071 132.656 81.6689C132.726 81.9805 132.543 82.558 132.161 82.8067C131.811 83.0437 131.395 83.038 131.233 83.0611L130.88 83.0961C130.808 83.124 130.756 83.1482 130.687 83.1633C130.073 83.4031 129.769 84.3215 129.821 85.1831C129.885 86.0547 130.267 86.9665 131.08 87.4886C130.14 87.1968 129.497 86.2529 129.258 85.2744C129.016 84.3314 129.099 82.9954 130.251 82.3012C130.59 82.1276 130.865 82.0628 131.069 82.0307C131.373 81.9744 131.446 81.9437 131.496 81.9039C131.475 81.8623 131.502 81.9418 131.464 81.7819C131.446 81.6713 131.365 81.4873 131.271 81.3189C130.873 80.619 130.27 79.8765 129.657 79.2499L129.489 79.0773L129.465 78.8465C129.344 77.6836 129.704 76.8258 130.033 75.983C130.379 75.145 130.783 74.3557 131.257 73.6114C132.196 72.1217 133.243 70.7152 134.556 69.4932C134.876 69.183 135.232 68.8912 135.61 68.6188C135.828 68.4902 135.981 68.3663 136.251 68.2395C136.517 68.1279 136.856 67.9756 137.033 67.9837C137.625 67.7983 138.473 68.319 138.621 68.8099C138.874 69.2903 138.963 69.7543 139.022 70.2031C139.211 71.9987 138.929 73.7045 138.558 75.3782Z" fill="#985238"/>
<path d="M136.636 77.4472C136.636 77.4472 136.725 75.5905 136.173 73.9443C135.91 73.1252 135.457 72.4333 135.03 72.1467C134.599 71.8606 134.274 71.8464 134.281 71.8237L134.799 70.3359C134.799 70.3359 134.927 70.4083 135.153 70.535C135.382 70.6452 135.659 70.8888 135.955 71.1919C136.531 71.8341 136.854 72.8395 136.942 73.783C137.134 75.6889 136.636 77.4472 136.636 77.4472Z" fill="#985238"/>
<path d="M90.8854 124.443C90.8854 124.443 73.7328 115.354 67.8705 105.245C63.052 98.1701 55.6201 65.6818 55.0096 60.0725C54.9911 59.8848 54.9689 59.6975 54.9533 59.5145C54.9311 59.3381 54.9235 59.2412 54.9235 59.2412L54.9311 59.2454C54.8266 58.083 54.7646 56.9097 54.7646 55.7274C54.7646 34.0897 72.3041 16.5469 93.9418 16.5469C115.577 16.5469 133.12 34.0897 133.12 55.7274C133.12 57.1348 133.042 58.52 132.894 59.8938L132.899 59.8843C132.899 59.8843 125.293 97.4891 120.017 105.245C113.807 116.829 96.9983 124.442 96.9983 124.442C96.9983 124.442 94.6337 126.192 90.8854 124.443Z" fill="#D1856A"/>
<path d="M58.216 70.1723C58.216 70.1723 64.2698 63.0195 76.7732 49.8341C95.6685 29.9074 112.52 42.5503 112.52 42.5503C112.52 42.5503 117.807 60.0609 126.63 67.5651C135.46 75.076 126.452 32.2233 126.452 32.2233L90.1265 29.4922L60.0595 33.4056C60.0595 33.4056 53.1762 65.5264 58.216 70.1723Z" fill="#A45C4B"/>
<path d="M106.321 59.7724C106.321 59.7724 105.74 60.5447 105.046 61.7393C104.683 62.3366 104.258 63.0332 103.802 63.7794C103.407 64.5626 102.985 65.3996 102.56 66.2348C102.167 67.0851 101.639 67.8896 101.389 68.7328C101.085 69.5632 100.805 70.3364 100.563 70.9994C100.073 72.334 99.75 73.2245 99.75 73.2245C99.75 73.2245 99.9817 72.3075 100.326 70.9309C100.498 70.238 100.703 69.4294 100.919 68.563C101.087 67.6748 101.529 66.826 101.838 65.9222C102.177 65.0289 102.519 64.1355 102.839 63.299C103.226 62.4837 103.587 61.7237 103.893 61.0725C104.499 59.7431 104.98 58.9453 104.98 58.9453L106.321 59.7724Z" fill="#985238"/>
<path d="M84.8075 71.6879C84.8075 71.6879 82.9915 61.742 73.0731 63.943C66.8339 65.3286 68.1094 72.2582 68.1094 72.2582L84.8075 71.6879Z" fill="#E02971"/>
<path d="M84.4849 73.2281C84.4849 73.2281 85.0855 72.7429 84.8084 71.6921C84.5312 70.628 74.88 62.5412 68.4365 72.401C68.4365 72.401 77.5756 81.3187 84.4849 73.2281Z" fill="#F1F1EE"/>
<path d="M81.6878 71.8698C81.6878 74.1393 79.8444 75.9823 77.5768 75.9823C75.3054 75.9823 73.4629 74.1393 73.4629 71.8698C73.4629 69.5989 75.3054 67.7578 77.5768 67.7578C79.8439 67.7578 81.6878 69.5989 81.6878 71.8698Z" fill="#2C1217"/>
<path d="M79.5071 71.8658C79.5071 72.9384 78.6408 73.8019 77.5758 73.8019C76.5051 73.8019 75.6387 72.9384 75.6387 71.8658C75.6387 70.798 76.5051 69.9297 77.5758 69.9297C78.6408 69.9302 79.5071 70.798 79.5071 71.8658Z" fill="#040001"/>
<path d="M71.8025 74.8543C70.572 74.1885 69.3565 73.5009 68.1889 72.7489L67.8574 72.5366L68.0754 72.1616C68.9687 70.6208 70.1151 69.1183 71.732 68.1224C73.3196 67.1108 75.3001 66.6592 77.1667 66.8852C79.0399 67.0843 80.7803 67.8207 82.2652 68.8455C83.0105 69.3581 83.7209 69.9124 84.3314 70.5891C84.5929 70.9485 85.0048 71.255 85.0289 71.8442C85.0389 72.3432 84.8786 72.7579 84.7168 73.1708C84.7268 72.7319 84.7438 72.2812 84.6468 71.909C84.5986 71.5926 84.1839 71.333 83.8774 71.0757C83.2049 70.5707 82.4946 70.1048 81.7408 69.7289C80.234 68.9855 78.6408 68.4444 77.032 68.3153C75.4283 68.1872 73.836 68.5173 72.4451 69.3179C71.0401 70.0954 69.8375 71.2928 68.7966 72.6326L68.6859 72.0447C69.7604 72.9305 70.7876 73.8815 71.8025 74.8543Z" fill="#040000"/>
<path d="M76.7742 70.4633C76.7742 71.0095 76.3354 71.4498 75.7972 71.4498C75.2567 71.4498 74.8154 71.0095 74.8154 70.4633C74.8154 69.9251 75.2572 69.4844 75.7972 69.4844C76.3354 69.4839 76.7742 69.9251 76.7742 70.4633Z" fill="#F1F1EE"/>
<path d="M69.3326 71.8699C69.3326 71.8699 67.9924 74.4951 65.2637 72.4284C65.2637 72.4284 67.1468 73.0073 69.4239 70.1953L69.3326 71.8699Z" fill="#040000"/>
<path d="M65.8311 69.8524C65.8311 69.8524 66.9424 70.4123 68.1124 70.2974C68.6879 70.2676 69.2346 70.0955 69.6058 69.9115C69.969 69.7124 70.2107 69.5781 70.2107 69.5781L70.5819 70.218C70.5819 70.218 70.2807 70.3282 69.8262 70.4951C69.368 70.6379 68.7253 70.732 68.1034 70.6673C66.8369 70.5869 65.8311 69.8524 65.8311 69.8524Z" fill="#040000"/>
<path d="M67.7598 68.1953C67.7598 68.1953 68.6881 68.7964 69.7328 68.7846C70.2407 68.8129 70.7443 68.7065 71.0942 68.5883C71.4404 68.4602 71.6755 68.3746 71.6755 68.3746L71.9285 69.0688C71.9285 69.0688 71.6485 69.1199 71.2257 69.1974C70.8119 69.2613 70.2302 69.2783 69.6869 69.152C68.5646 68.9595 67.7598 68.1953 67.7598 68.1953Z" fill="#040000"/>
<path d="M87.5898 60.3708C87.5898 60.3708 85.8358 62.1802 78.9473 59.4335C71.3547 56.4054 64.4558 58.4191 63.7861 59.1725C63.7861 59.1725 74.5487 50.9385 87.5898 60.3708Z" fill="#040000"/>
<path d="M102.53 71.6879C102.53 71.6879 104.344 61.742 114.265 63.943C120.502 65.3286 119.226 72.2582 119.226 72.2582L102.53 71.6879Z" fill="#E02971"/>
<path d="M102.85 73.2281C102.85 73.2281 102.252 72.7429 102.529 71.6921C102.807 70.628 112.458 62.5412 118.902 72.401C118.902 72.401 109.764 81.3187 102.85 73.2281Z" fill="#F1F1EE"/>
<path d="M105.651 71.8698C105.651 74.1393 107.489 75.9823 109.764 75.9823C112.039 75.9823 113.875 74.1393 113.875 71.8698C113.875 69.5989 112.038 67.7578 109.764 67.7578C107.489 67.7578 105.651 69.5989 105.651 71.8698Z" fill="#2C1217"/>
<path d="M107.828 71.8658C107.828 72.9384 108.697 73.8019 109.765 73.8019C110.834 73.8019 111.7 72.9384 111.7 71.8658C111.7 70.798 110.834 69.9297 109.765 69.9297C108.697 69.9302 107.828 70.798 107.828 71.8658Z" fill="#040001"/>
<path d="M115.536 74.8548C116.551 73.882 117.578 72.9314 118.655 72.0447L118.541 72.6325C117.5 71.2928 116.298 70.0953 114.894 69.3179C113.503 68.5172 111.909 68.1871 110.303 68.3153C108.697 68.4444 107.106 68.9854 105.597 69.7307C104.844 70.1048 104.131 70.5711 103.461 71.0757C103.151 71.3344 102.743 71.5926 102.688 71.909C102.594 72.2812 102.611 72.7318 102.626 73.1707C102.463 72.7588 102.299 72.345 102.312 71.8442C102.334 71.2564 102.747 70.948 103.006 70.5891C103.614 69.9137 104.327 69.3581 105.072 68.8454C106.558 67.8216 108.298 67.0843 110.171 66.8852C112.035 66.6591 114.019 67.1113 115.605 68.1223C117.223 69.1169 118.369 70.6207 119.262 72.1615L119.48 72.5365L119.15 72.7489C117.982 73.5008 116.766 74.1889 115.536 74.8548Z" fill="#040000"/>
<path d="M110.564 70.4633C110.564 71.0095 111 71.4498 111.541 71.4498C112.083 71.4498 112.519 71.0095 112.519 70.4633C112.519 69.9251 112.083 69.4844 111.541 69.4844C111 69.4839 110.564 69.9251 110.564 70.4633Z" fill="#F1F1EE"/>
<path d="M118.007 71.8699C118.007 71.8699 119.347 74.4951 122.073 72.4284C122.073 72.4284 120.192 73.0073 117.919 70.1953L118.007 71.8699Z" fill="#040000"/>
<path d="M121.508 69.8515C121.508 69.8515 120.501 70.585 119.234 70.6668C118.613 70.733 117.969 70.637 117.515 70.4946C117.059 70.3277 116.756 70.2165 116.756 70.2165L117.13 69.5781C117.13 69.5781 117.369 69.7115 117.736 69.912C118.104 70.095 118.65 70.2672 119.225 70.297C120.394 70.4114 121.508 69.8515 121.508 69.8515Z" fill="#040000"/>
<path d="M119.581 68.1953C119.578 68.1953 118.774 68.9595 117.652 69.152C117.109 69.2783 116.531 69.2613 116.113 69.1974C115.691 69.1199 115.411 69.0688 115.411 69.0688L115.664 68.3746C115.664 68.3746 115.895 68.4606 116.245 68.5883C116.595 68.7065 117.098 68.8134 117.607 68.7846C118.65 68.7969 119.578 68.1953 119.581 68.1953Z" fill="#040000"/>
<path d="M99.751 60.3708C99.751 60.3708 101.509 62.1802 108.391 59.4335C115.989 56.4054 122.877 58.4191 123.549 59.1725C123.549 59.1725 112.79 50.9385 99.751 60.3708Z" fill="#040000"/>
<path d="M93.275 94.5183C93.275 94.5183 88.7785 92.5988 88.6149 93.8945C88.448 95.1913 91.1086 95.7942 93.275 94.5183Z" fill="#985238"/>
<path d="M94.6123 94.5183C94.6123 94.5183 99.105 92.5988 99.2696 93.8945C99.4365 95.1913 96.7697 95.7942 94.6123 94.5183Z" fill="#985238"/>
<path d="M82.5791 102.118C82.5791 102.118 90.0644 97.7779 93.9409 99.1881C93.9409 99.1881 97.6542 97.8384 105.304 102.118C105.304 102.118 102.623 109.142 94.5495 109.142C85.6034 109.145 82.5791 102.118 82.5791 102.118Z" fill="#EF3A52"/>
<path d="M105.294 102.161C105.299 102.141 105.305 102.123 105.305 102.123C105.175 102.054 105.057 101.993 104.931 101.924C99.4366 100.436 93.9418 100.432 93.9418 100.432C92.4143 100.049 85.9486 101.272 83.0908 101.842C82.7654 102.022 82.5801 102.123 82.5801 102.123C82.5801 102.123 82.5886 102.141 82.5957 102.161H105.294Z" fill="#B62743"/>
<path d="M83.2139 102.508C83.2139 102.508 87.3363 107.225 94.2588 106.976C101.064 106.735 104.674 103.229 105.304 102.117L83.2139 102.508Z" fill="#B62743"/>
<path d="M93.9418 101.658C91.0655 101.287 82.5801 102.119 82.5801 102.119C88.4002 105.815 93.9418 105.449 93.9418 105.449C93.9418 105.449 99.4849 105.815 105.305 102.119C105.305 102.119 96.8181 101.287 93.9418 101.658Z" fill="#BAC0CC"/>
<path d="M101.406 105.883C101.406 105.883 96.1269 107.212 96.9739 107.962C97.819 108.719 102.538 106.017 101.406 105.883Z" fill="#F37F94"/>
<path d="M96.3017 108.091C96.3017 108.091 96.4255 106.982 92.804 107.744C89.1904 108.507 97.012 109.306 96.3017 108.091Z" fill="#F37F94"/>
<path d="M60.0595 88.9295C60.0595 90.5398 58.7599 91.8445 57.1535 91.8445C55.5446 91.8445 54.2422 90.5398 54.2422 88.9295C54.2422 87.3244 55.5446 86.0234 57.1535 86.0234C58.7599 86.0234 60.0595 87.3244 60.0595 88.9295Z" fill="#EA892E"/>
<path d="M58.8855 88.9267C58.8855 89.8805 58.1085 90.6589 57.1537 90.6589C56.2003 90.6589 55.4209 89.8805 55.4209 88.9267C55.4209 87.9685 56.2003 87.1953 57.1537 87.1953C58.1085 87.1953 58.8855 87.9685 58.8855 88.9267Z" fill="#B16226"/>
<path d="M133.359 88.9295C133.359 90.5398 132.06 91.8445 130.453 91.8445C128.845 91.8445 127.545 90.5398 127.545 88.9295C127.545 87.3244 128.845 86.0234 130.453 86.0234C132.06 86.0234 133.359 87.3244 133.359 88.9295Z" fill="#EA892E"/>
<path d="M132.186 88.9267C132.186 89.8805 131.408 90.6589 130.453 90.6589C129.501 90.6589 128.721 89.8805 128.721 88.9267C128.721 87.9685 129.501 87.1953 130.453 87.1953C131.408 87.1953 132.186 87.9685 132.186 88.9267Z" fill="#B16226"/>
<path d="M55.2705 62.6937C55.2705 62.6937 61.6964 102.669 71.2228 105.478C71.2228 105.478 60.0436 92.0281 59.6459 61.5156L55.2705 62.6937Z" fill="#2D0811"/>
<path d="M56.3508 68.6097C56.3508 68.6097 64.5734 66.2059 71.8009 51.4183C71.8009 51.4183 80.922 24.1936 113.876 37.7393C113.876 37.7393 122.742 68.3444 132.185 69.4898C132.185 69.4898 133.889 64.248 138.74 65.1016C138.74 65.1016 143.423 36.1413 128.843 23.33C128.843 23.33 134.15 16.9064 130.278 13.7043C130.278 13.7043 120.863 -2.79002 87.5887 0.412558C54.3063 3.61845 35.3018 41.253 47.0448 65.7155C47.0448 65.7155 51.5644 63.6295 56.3508 68.6097Z" fill="#2D0811"/>
<path d="M60.06 102.154C60.06 102.154 44.293 107.065 40.5957 89.4688C40.5957 89.4688 45.794 103.853 58.4752 100.176L60.06 102.154Z" fill="#040000"/>
<path d="M126.724 60.6953C126.724 60.6953 118.991 79.6077 126.544 95.9313C131.847 107.398 128.922 118.965 122.163 116.934C122.163 116.934 136.02 120.432 132.28 98.0759C132.28 98.0759 125.758 83.8549 132.28 68.6654L126.724 60.6953Z" fill="#1A0004"/>
<path d="M138.743 65.052C138.758 64.9872 138.775 64.8567 138.805 64.668C138.805 64.6561 138.805 64.6438 138.808 64.6363C138.82 64.5422 138.837 64.4329 138.85 64.3109C138.85 64.3066 138.853 64.3024 138.853 64.2906C138.888 64.0376 138.929 63.7283 138.969 63.3651C138.969 63.3533 138.969 63.341 138.972 63.3329C139.077 62.3989 139.195 61.132 139.295 59.6068C139.33 58.9958 139.368 58.3517 139.392 57.6745C139.392 57.6589 139.392 57.6504 139.392 57.6423C139.422 56.9656 139.442 56.2529 139.448 55.5114C139.448 55.5033 139.448 55.4958 139.448 55.4816C139.454 55.116 139.454 54.7363 139.454 54.349C139.454 54.3442 139.454 54.3442 139.454 54.3404C131.449 67.5674 116.045 36.5007 118.903 35.1595C122.054 33.6849 127.545 38.8601 127.545 38.8601L122.072 31.2149C129.628 35.412 132.186 42.5493 132.186 42.5493C131.864 37.3765 123.549 28.9969 123.549 28.9969C124.23 26.9591 128.694 26.9 132.014 26.7369C131.567 26.1547 131.094 25.5891 130.588 25.0434C130.532 24.9814 130.474 24.9166 130.421 24.8604C130.229 24.6579 130.034 24.4565 129.837 24.2697C129.769 24.1983 129.699 24.1306 129.63 24.0635C129.374 23.8162 129.112 23.5683 128.844 23.3343C128.844 23.3343 131.096 20.6036 131.593 17.8149C131.806 16.5408 131.65 15.2465 130.744 14.173C131.268 17.9842 130.662 19.2582 128.843 16.5541C124.939 10.7637 105.651 5.83594 105.651 5.83594C123.642 12.7358 124.617 19.6346 124.617 19.6346C113.037 10.5216 94.6119 12.4936 94.6119 12.4936C114.863 13.4787 119.58 23.0907 119.58 23.0907C94.5798 9.04608 77.0635 26.7837 71.8013 35.1595C66.5411 43.5353 65.2415 64.4816 57.1244 55.849C49.0092 47.2283 75.6381 14.4624 75.6381 14.4624C52.5149 31.5247 50.9164 54.1338 50.9164 54.1338C44.2441 44.9011 51.3846 27.3181 57.8986 15.1174C44.5912 29.0868 39.541 50.0894 47.0456 65.7202C47.0456 65.7202 51.5653 63.6337 56.3516 68.614C56.3516 68.614 64.5742 66.2101 71.8018 51.4226C71.8018 51.4226 80.9229 24.1978 113.877 37.7435C113.877 37.7435 122.743 68.3487 132.186 69.4941C132.186 69.4941 133.89 64.2523 138.74 65.1059C138.74 65.1059 138.741 65.0841 138.743 65.0562V65.052H138.743Z" fill="#1A0004"/>
<path opacity="0.4" d="M124.951 8.19805C119.083 3.73326 107.699 -1.52319 87.5894 0.41292C76.0631 1.52001 66.2473 6.76701 58.8239 14.1606C54.8983 22.6551 50.075 34.267 52.1033 36.0806C55.3565 38.9943 60.9899 10.5177 89.8117 5.83205C89.8117 5.83205 72.5597 17.54 68.4354 29.4901C68.4354 29.4901 85.7006 1.70871 112.52 10.2108C112.52 10.2108 106.243 6.33098 99.2288 4.10733C99.2288 4.10733 111.729 2.60725 124.951 8.19805Z" fill="#5B2E32"/>
<path d="M165.984 731.327C165.981 731.297 165.975 731.265 165.973 731.23C165.962 731.131 165.952 730.999 165.935 730.821C165.925 730.724 165.914 730.612 165.903 730.488C165.903 730.458 165.895 730.423 165.895 730.391C165.887 730.294 165.879 730.197 165.87 730.092C165.863 730.02 165.855 729.949 165.846 729.869C165.838 729.782 165.828 729.681 165.822 729.583C165.805 729.422 165.792 729.255 165.773 729.082C165.768 728.986 165.754 728.889 165.746 728.795C165.738 728.668 165.727 728.545 165.714 728.421C165.704 728.313 165.692 728.2 165.687 728.09C165.666 727.883 165.649 727.673 165.625 727.442C165.612 727.302 165.601 727.162 165.587 727.012C165.577 726.882 165.569 726.753 165.553 726.619C165.536 726.411 165.521 726.204 165.499 725.978C165.477 725.771 165.459 725.556 165.442 725.327C165.424 725.155 165.407 724.983 165.397 724.805C165.38 724.647 165.37 724.488 165.351 724.322C165.324 724.02 165.3 723.713 165.273 723.39C165.254 723.183 165.235 722.96 165.216 722.739C165.2 722.551 165.185 722.368 165.168 722.179C165.152 721.986 165.135 721.789 165.119 721.59C165.087 721.219 165.055 720.84 165.017 720.444C165 720.247 164.985 720.043 164.967 719.841C164.943 719.57 164.922 719.287 164.898 719.005C164.879 718.797 164.866 718.601 164.847 718.391C164.815 717.958 164.772 717.506 164.731 717.045C164.719 716.852 164.702 716.658 164.686 716.462C164.654 716.088 164.627 715.7 164.595 715.318C164.578 715.154 164.565 714.998 164.551 714.832C164.508 714.28 164.46 713.715 164.414 713.134C164.401 713.01 164.392 712.875 164.382 712.747C164.333 712.149 164.283 711.546 164.234 710.933C164.234 710.906 164.231 710.887 164.231 710.874C164.177 710.214 164.126 709.528 164.067 708.837C164.059 708.727 164.045 708.616 164.04 708.5C163.98 707.785 163.924 707.058 163.862 706.305C159.07 714.998 147.877 718.095 121.838 710.652C90.7913 701.784 68.6806 711.648 59.2526 712.622C48.856 713.69 40.0849 716.577 37.6224 705.688C36.7262 701.728 32.9439 698.9 28.4994 696.906C27.6245 708.99 26.6456 721.386 25.5361 734.04C25.5361 734.04 113.723 755.863 165.987 731.392C165.988 731.391 165.984 731.368 165.984 731.327Z" fill="#FFD53D"/>
<path d="M43.9727 730.854C45.4875 727.415 46.5212 721.474 47.1824 713.771C42.5114 713.642 39.0331 711.926 37.6224 705.688C36.7262 701.728 32.9439 698.9 28.4994 696.906C28.4994 696.909 28.4994 696.915 28.4994 696.915C28.2918 699.81 28.0738 702.705 27.853 705.632C27.8374 705.845 27.8231 706.047 27.8047 706.256C27.5839 709.2 27.3502 712.154 27.1157 715.133C27.1029 715.319 27.0859 715.497 27.0731 715.679C26.8655 718.267 26.6527 720.861 26.4375 723.476C26.3812 724.159 26.3249 724.859 26.2658 725.556C26.0294 728.373 25.7863 731.195 25.5361 734.039C25.5361 734.039 31.2111 735.446 40.5233 737.144C41.8276 735.169 42.9933 733.079 43.9727 730.854Z" fill="#F7AD2B"/>
<path d="M81.2304 728.347L81.2054 708.133C81.1978 708.136 81.1869 708.136 81.1732 708.136L69.392 710.487C65.1646 711.478 61.7615 712.363 59.2536 712.624C58.7935 712.672 58.3329 712.726 57.8812 712.78H57.8656C57.8656 712.78 56.1272 731.232 56.7136 739.729C60.3915 740.237 64.3005 740.724 68.3879 741.16C73.6832 738.658 79.3038 734.444 81.2304 728.347Z" fill="#F7AD2B"/>
<path d="M111.332 742.809C122.799 742.357 134.339 741.052 145.187 738.477C145.01 730.68 143.592 718.624 143.111 714.752C137.441 714.416 130.454 713.113 121.839 710.654C119.347 709.941 116.918 709.363 114.548 708.878L107.038 707.66C106.984 707.651 106.93 707.646 106.876 707.641C106.871 707.915 106.85 731.716 111.332 742.809Z" fill="#F7AD2B"/>
<path d="M156.001 735.382C159.444 734.22 162.781 732.896 165.988 731.392C165.988 731.392 165.983 731.368 165.983 731.327C165.98 731.297 165.974 731.265 165.972 731.231C165.961 731.131 165.951 730.999 165.934 730.821C165.924 730.725 165.913 730.612 165.902 730.488C165.902 730.458 165.894 730.423 165.894 730.391C165.886 730.294 165.878 730.197 165.869 730.092C165.862 730.02 165.854 729.949 165.845 729.869C165.837 729.783 165.827 729.681 165.821 729.583C165.805 729.422 165.791 729.255 165.772 729.083C165.767 728.986 165.753 728.889 165.745 728.795C165.737 728.668 165.727 728.545 165.713 728.421C165.703 728.313 165.692 728.201 165.686 728.09C165.665 727.883 165.648 727.673 165.624 727.442C165.611 727.302 165.6 727.162 165.586 727.012C165.576 726.883 165.568 726.753 165.552 726.619C165.535 726.412 165.52 726.204 165.498 725.978C165.476 725.771 165.458 725.556 165.441 725.328C165.423 725.156 165.406 724.983 165.396 724.806C165.379 724.647 165.369 724.488 165.35 724.322C165.323 724.02 165.299 723.714 165.272 723.391C165.253 723.183 165.234 722.96 165.215 722.739C165.199 722.551 165.184 722.368 165.167 722.179C165.151 721.986 165.134 721.789 165.118 721.59C165.086 721.219 165.054 720.84 165.016 720.444C164.999 720.248 164.984 720.043 164.967 719.841C164.942 719.57 164.921 719.287 164.898 719.005C164.878 718.798 164.865 718.601 164.846 718.391C164.814 717.958 164.771 717.506 164.731 717.045C164.718 716.852 164.701 716.658 164.685 716.462C164.653 716.088 164.626 715.701 164.594 715.318C164.577 715.154 164.564 714.998 164.55 714.832C164.507 714.28 164.459 713.715 164.413 713.134C164.4 713.01 164.391 712.875 164.381 712.747C164.332 712.149 164.282 711.546 164.233 710.933C164.233 710.906 164.23 710.887 164.23 710.874C164.176 710.214 164.125 709.529 164.066 708.837C164.058 708.727 164.044 708.616 164.039 708.5C163.979 707.785 163.923 707.059 163.861 706.305C162.091 709.526 159.433 711.974 155.477 713.406C155.54 717.869 155.699 727.453 156.001 735.382Z" fill="#F7AD2B"/>
</svg>
