<svg width="463" height="166" viewBox="0 0 463 166" fill="none" xmlns="http://www.w3.org/2000/svg">
<path d="M426.945 157.789C406.487 149.897 398.597 135.337 394.631 137.811C393.829 138.311 400.117 145.915 400.117 145.915C400.117 145.915 380.444 134.23 379.688 135.549C378.931 136.868 393.119 147.8 393.119 147.8C393.119 147.8 384.985 144.973 385.552 146.669C385.844 147.541 389.736 150.457 393.45 153.083C397.781 156.147 402.961 157.789 408.274 157.789H426.945Z" fill="#93543E"/>
<path d="M286.287 157.406C267.569 153.882 258.269 135.581 253.973 137.428C252.275 138.158 257.925 145.532 257.925 145.532C257.925 145.532 239.787 133.847 239.029 135.166C238.272 136.485 252.459 147.417 252.459 147.417C252.459 147.417 244.326 144.59 244.893 146.286C245.159 147.08 248.407 149.566 251.788 151.986C256.724 155.52 262.655 157.406 268.733 157.406H286.287Z" fill="#93543E"/>
<path d="M279.737 89.6384C279.578 91.2354 280.829 92.6135 282.441 92.6315L326.033 93.0355C327.134 93.0445 328.032 92.1495 328.041 91.0525L328.032 88.1294V86.1464C328.032 85.1114 327.221 84.2504 326.173 84.1804L283.216 81.3194C281.727 81.2144 280.432 82.3115 280.291 83.7855L279.974 87.1294L279.737 89.6384Z" fill="white"/>
<path d="M279.737 89.634C279.578 91.231 280.829 92.609 282.441 92.627L326.033 93.031C327.134 93.04 328.032 92.145 328.041 91.048L328.032 88.125C312.917 87.809 292.851 87.397 279.975 87.125L279.737 89.634Z" fill="#9FCCEA"/>
<path d="M282.439 92.627L283.214 81.311C281.73 81.211 280.436 82.307 280.293 83.778L279.733 89.636C279.577 91.233 280.827 92.612 282.439 92.627Z" fill="#9FCCEA"/>
<path d="M423.38 71.6139C421.861 67.1789 420.233 62.5839 419.497 60.5139C419.272 59.8819 418.586 59.5439 417.944 59.7459L411.238 61.8539C410.557 62.0679 410.192 62.8029 410.44 63.4709C411.511 66.3459 414.15 73.3969 414.808 74.8179C416.56 78.6029 425.425 77.5839 423.38 71.6139Z" fill="#2F2E30"/>
<path d="M430.907 114.047C437.686 114.032 443.192 119.494 443.207 126.248C443.222 133.002 437.74 138.491 430.962 138.506C424.183 138.521 418.674 133.056 418.659 126.302C418.644 119.548 424.129 114.062 430.907 114.047Z" fill="#1B1010"/>
<path d="M430.918 119.617C434.607 119.609 437.603 122.581 437.612 126.257C437.62 129.933 434.638 132.92 430.948 132.929C427.259 132.937 424.261 129.963 424.252 126.287C424.244 122.611 427.229 119.625 430.918 119.617Z" fill="#7C7C7C"/>
<path d="M399.529 124.296C399.618 122.848 399.811 121.417 400.093 120.031C400.965 115.678 402.753 111.65 405.246 108.148C405.633 107.613 406.03 107.095 406.452 106.586C408.839 103.637 411.746 101.127 415.058 99.2051C415.559 98.9151 416.07 98.6351 416.59 98.3711C419.717 96.7651 423.161 95.6681 426.799 95.1941C427.249 95.1331 427.697 95.0891 428.156 95.0451C429.054 94.9571 429.953 94.9221 430.869 94.9221C433.309 94.9131 435.687 95.1941 437.978 95.7031H437.987C438.726 95.8791 439.458 96.0801 440.181 96.3001C440.454 96.3881 440.727 96.4761 441 96.5631C449.702 99.4861 456.705 106.094 460.114 114.528C460.475 115.414 460.792 116.318 461.065 117.24C461.929 120.075 462.395 123.085 462.404 126.201C462.413 130.703 461.471 134.977 459.762 138.856C459.489 139.479 459.198 140.085 458.88 140.69C456.828 144.631 453.966 148.08 450.512 150.827C450.054 151.187 449.588 151.538 449.103 151.871C445.695 154.284 441.774 156.031 437.546 156.926C436.771 157.102 435.987 157.242 435.186 157.338H435.177C433.812 157.522 432.429 157.628 431.01 157.628C426.219 157.637 421.656 156.575 417.587 154.67C416.812 154.31 416.054 153.915 415.323 153.494C411.782 151.484 408.672 148.799 406.179 145.622C405.607 144.902 405.069 144.156 404.568 143.393C404.568 143.384 404.568 143.384 404.568 143.384C401.502 138.706 399.653 133.195 399.476 127.236C399.467 126.938 399.467 126.639 399.467 126.341C399.468 125.656 399.485 124.972 399.529 124.296ZM430.975 143.894C440.735 143.876 448.635 135.969 448.618 126.236C448.592 116.503 440.655 108.631 430.896 108.648C421.128 108.665 413.227 116.573 413.253 126.306C413.27 136.039 421.207 143.911 430.975 143.894Z" fill="#2C1511"/>
<path d="M430.886 103.063C443.755 103.035 454.197 113.394 454.227 126.216C454.255 139.038 443.858 149.452 430.989 149.481C418.121 149.509 407.669 139.141 407.64 126.319C407.612 113.497 418.017 103.092 430.886 103.063ZM430.976 143.891C440.736 143.869 448.636 135.962 448.615 126.229C448.593 116.496 440.657 108.624 430.898 108.645C421.129 108.667 413.229 116.574 413.25 126.307C413.272 136.04 421.208 143.912 430.976 143.891Z" fill="#1B1010"/>
<path d="M415.058 99.2032C417.245 100.374 419.458 101.537 421.777 102.357C421.865 102.392 421.97 102.269 421.891 102.199C420.354 100.658 418.52 99.4162 416.589 98.3672C416.07 98.6312 415.56 98.9132 415.058 99.2032Z" fill="#1B1010"/>
<path d="M405.247 108.149C408.021 108.046 410.681 107.575 413.437 107.139C413.578 107.121 413.569 106.902 413.428 106.893C411.067 106.74 408.776 106.543 406.452 106.584C406.028 107.094 405.633 107.613 405.247 108.149Z" fill="#1B1010"/>
<path d="M399.466 126.342C399.467 126.64 399.467 126.939 399.477 127.237C400.399 126.305 401.243 125.232 402.016 124.423C403.326 123.051 405.559 121.317 406.057 119.429C406.109 119.21 405.949 118.894 405.668 118.974C403.661 119.575 402.019 121.852 400.578 123.303C400.262 123.62 399.901 123.954 399.532 124.297C399.489 124.973 399.464 125.658 399.466 126.342Z" fill="#1B1010"/>
<path d="M404.568 143.379C404.568 143.379 404.568 143.379 404.568 143.388C405.071 144.159 405.61 144.904 406.175 145.622C406.662 142.558 406.919 139.433 406.842 136.563C406.832 136.212 406.303 136.02 406.19 136.415C405.543 138.612 405.002 140.982 404.568 143.379Z" fill="#1B1010"/>
<path d="M415.32 153.496C416.051 153.916 416.81 154.309 417.586 154.676C417.391 154.211 417.214 153.755 417.063 153.291C416.434 151.318 416.2 149.282 415.702 147.282C415.587 146.791 414.855 146.801 414.804 147.319C414.622 148.987 414.786 151.303 415.32 153.496Z" fill="#1B1010"/>
<path d="M429.514 151.842C429.993 153.816 432.305 155.267 433.857 156.405C434.281 156.711 434.723 157.035 435.172 157.341C435.172 157.341 435.172 157.35 435.181 157.341C435.983 157.243 436.766 157.1 437.55 156.932C436.597 156.364 435.653 155.778 434.754 155.121C433.183 153.975 431.629 152.082 429.681 151.666C429.584 151.649 429.496 151.755 429.514 151.842Z" fill="#1B1010"/>
<path d="M442.986 149.823C445.005 150.582 447.041 151.253 449.104 151.872C449.587 151.537 450.053 151.185 450.511 150.824C450.096 150.728 449.683 150.642 449.277 150.537C447.242 150.033 445.197 149.581 443.126 149.208C442.765 149.148 442.668 149.701 442.986 149.823Z" fill="#1B1010"/>
<path d="M453.894 139.426C455.077 140.257 456.972 140.692 458.883 140.688C459.199 140.082 459.488 139.476 459.76 138.852C459.592 138.87 459.425 138.888 459.258 138.906C457.506 139.05 455.725 138.703 453.991 138.97C453.77 139.005 453.718 139.303 453.894 139.426Z" fill="#1B1010"/>
<path d="M458.607 119.819C458.512 120.39 459.367 120.686 459.674 120.203C460.253 119.298 460.692 118.288 461.068 117.242C460.793 116.312 460.474 115.409 460.111 114.523C459.568 116.271 458.893 118.019 458.607 119.819Z" fill="#1B1010"/>
<path d="M437.986 95.7031L438.145 95.9921C438.95 97.5171 439.483 99.2451 440.499 100.647C440.826 101.094 441.397 100.663 441.37 100.233C441.306 98.8991 440.765 97.5581 440.181 96.2951C439.457 96.0771 438.726 95.8771 437.986 95.7031Z" fill="#1B1010"/>
<path d="M426.8 95.1911C428.088 96.6361 429.528 97.9671 430.992 99.1401C431.01 99.1661 431.053 99.1311 431.036 99.0961C430.187 97.7111 429.234 96.3361 428.156 95.0391C427.698 95.0841 427.248 95.1291 426.8 95.1911Z" fill="#1B1010"/>
<path d="M398.298 120.248H398.333C398.695 120.213 399.047 120.151 399.39 120.072C400.183 119.896 400.932 119.598 401.627 119.212C403.468 118.203 404.913 116.526 405.67 114.482C408.128 107.909 412.823 102.827 420.705 99.5007C425.744 97.3857 431.293 97.5527 435.071 98.0697C436.93 98.3237 438.78 97.9297 440.329 96.9907C441.043 96.5777 442.03 96.0777 442.285 95.5337C442.347 95.4107 442.373 95.2797 442.338 95.1477C442.17 94.4627 439.977 94.1117 439.607 94.0157H439.598C410.374 87.5377 399.073 110.734 398.298 120.248Z" fill="#CE465D"/>
<path d="M398.298 120.248H398.333C398.694 120.213 399.047 120.151 399.39 120.072C400.059 112.858 406.674 99.7107 418.584 95.8317C428.942 92.4617 439.089 94.6647 442.287 95.5337C442.349 95.4107 442.375 95.2797 442.34 95.1477C442.172 94.4627 439.979 94.1117 439.609 94.0157H439.6C410.374 87.5377 399.073 110.734 398.298 120.248Z" fill="#DE617D"/>
<path d="M401.628 119.212C403.468 118.203 404.914 116.526 405.67 114.482C408.128 107.909 412.823 102.827 420.706 99.5007C425.744 97.3857 431.293 97.5527 435.072 98.0697C436.931 98.3237 438.78 97.9297 440.33 96.9907C436.085 95.8057 426.818 93.9367 418.997 97.2887C409.371 101.422 404.023 109.216 401.628 119.212Z" fill="#AF304D"/>
<path d="M407.24 57.8648C407.24 57.8648 406.899 56.8938 406.363 56.8458C405.827 56.7968 403.148 57.6218 403.002 57.9138C402.855 58.2048 403.002 59.2728 403.002 59.2728L407.24 57.8648Z" fill="#E49225"/>
<path d="M402.328 59.5725L408.1 74.1815L412.522 86.2485L420.608 108.355L422.203 107.89L422.996 107.653L424.008 107.355L426.017 106.759L418.741 86.0375L414.522 74.0405L408.291 57.7555C408.168 57.4135 407.798 57.2205 407.445 57.3255L405.278 57.9575L404.292 58.2475L403.023 58.6165L402.776 58.6865C402.398 58.7915 402.187 59.2045 402.328 59.5725Z" fill="#F9D108"/>
<path d="M405.279 57.9565L411.669 74.1015L416.143 86.1605L424.008 107.355L426.017 106.758L418.741 86.0375L414.522 74.0405L408.291 57.7555C408.168 57.4135 407.798 57.2205 407.445 57.3255L405.279 57.9565Z" fill="#F7BA16"/>
<path d="M403.027 58.6102L422.204 107.885L422.997 107.649L404.294 58.2422L403.027 58.6102Z" fill="#FFE064"/>
<path d="M427.039 105.102L419.44 107.916L420.121 110.246L427.817 107.431L427.039 105.102Z" fill="#FFE064"/>
<path d="M290.171 114.047C296.95 114.032 302.456 119.494 302.47 126.248C302.485 133.002 297.003 138.491 290.225 138.506C283.447 138.521 277.938 133.056 277.923 126.302C277.908 119.548 283.393 114.062 290.171 114.047Z" fill="#1B1010"/>
<path d="M290.241 143.893C300 143.871 307.901 135.964 307.88 126.231C307.859 116.498 299.922 108.626 290.163 108.647C280.394 108.669 272.494 116.576 272.515 126.309C272.537 136.042 280.473 143.914 290.241 143.893ZM258.796 124.294C259.161 118.299 261.228 112.765 264.512 108.151C264.898 107.615 265.294 107.096 265.715 106.586C268.104 103.632 271.014 101.124 274.322 99.204C274.823 98.913 275.334 98.6309 275.853 98.3669C278.985 96.7629 282.427 95.6669 286.064 95.1939C286.513 95.1319 286.962 95.0869 287.42 95.0419C288.318 94.9609 289.216 94.9239 290.133 94.9219C292.572 94.9169 294.951 95.1919 297.242 95.7049H297.251C297.992 95.8789 298.724 96.0789 299.446 96.2969C308.525 99.0769 315.86 105.827 319.376 114.525C319.739 115.411 320.058 116.314 320.333 117.244C321.194 120.077 321.658 123.086 321.665 126.202C321.675 130.704 320.734 134.98 319.024 138.854C318.752 139.478 318.463 140.084 318.147 140.69C316.095 144.626 313.231 148.082 309.776 150.827C309.318 151.188 308.852 151.54 308.369 151.875C304.956 154.287 301.041 156.034 296.815 156.929C296.031 157.097 295.247 157.24 294.446 157.338H294.438C293.073 157.525 291.69 157.625 290.272 157.628C285.48 157.638 280.924 156.578 276.85 154.674C276.075 154.307 275.316 153.914 274.584 153.494C271.047 151.483 267.941 148.796 265.441 145.624C264.876 144.906 264.337 144.161 263.833 143.39C263.833 143.381 263.833 143.381 263.833 143.381C260.766 138.71 258.921 133.194 258.741 127.235C258.732 126.937 258.731 126.638 258.73 126.34C258.729 125.655 258.754 124.97 258.796 124.294Z" fill="#2C1511"/>
<path d="M290.15 103.063C303.018 103.035 313.461 113.394 313.49 126.216C313.518 139.038 303.122 149.452 290.253 149.481C277.384 149.509 266.932 139.141 266.903 126.319C266.874 113.497 277.281 103.092 290.15 103.063ZM290.24 143.891C299.999 143.869 307.9 135.962 307.879 126.229C307.858 116.496 299.921 108.624 290.162 108.645C280.393 108.667 272.493 116.574 272.514 126.307C272.536 136.04 280.471 143.912 290.24 143.891Z" fill="#1B1010"/>
<path d="M274.321 99.2032C276.508 100.374 278.721 101.537 281.039 102.357C281.128 102.392 281.233 102.269 281.154 102.199C279.617 100.658 277.782 99.4162 275.851 98.3672C275.333 98.6312 274.822 98.9132 274.321 99.2032Z" fill="#1B1010"/>
<path d="M264.511 108.149C267.285 108.046 269.945 107.575 272.701 107.139C272.841 107.121 272.832 106.902 272.692 106.893C270.33 106.74 268.04 106.543 265.715 106.584C265.293 107.094 264.897 107.613 264.511 108.149Z" fill="#1B1010"/>
<path d="M258.728 126.342C258.729 126.64 258.729 126.939 258.739 127.237C259.663 126.305 260.506 125.232 261.279 124.423C262.588 123.051 264.821 121.317 265.319 119.429C265.371 119.21 265.213 118.894 264.931 118.974C262.924 119.575 261.282 121.852 259.84 123.303C259.524 123.62 259.164 123.954 258.795 124.297C258.752 124.973 258.727 125.658 258.728 126.342Z" fill="#1B1010"/>
<path d="M263.833 143.379C263.833 143.379 263.833 143.379 263.833 143.388C264.336 144.159 264.875 144.904 265.44 145.622C265.927 142.558 266.184 139.433 266.108 136.563C266.098 136.212 265.569 136.02 265.455 136.415C264.808 138.612 264.267 140.982 263.833 143.379Z" fill="#1B1010"/>
<path d="M274.583 153.496C275.315 153.916 276.074 154.309 276.85 154.676C276.655 154.211 276.477 153.755 276.327 153.291C275.696 151.318 275.464 149.282 274.966 147.282C274.85 146.791 274.119 146.801 274.068 147.319C273.887 148.987 274.05 151.303 274.583 153.496Z" fill="#1B1010"/>
<path d="M288.777 151.834C289.257 153.808 291.568 155.259 293.121 156.397C293.545 156.703 293.986 157.027 294.436 157.333C294.436 157.333 294.436 157.342 294.444 157.333C295.246 157.235 296.029 157.092 296.812 156.924C295.86 156.356 294.916 155.77 294.016 155.113C292.446 153.967 290.892 152.074 288.944 151.658C288.848 151.641 288.759 151.747 288.777 151.834Z" fill="#1B1010"/>
<path d="M302.249 149.823C304.268 150.582 306.304 151.253 308.366 151.872C308.85 151.537 309.316 151.185 309.773 150.824C309.359 150.728 308.945 150.642 308.54 150.537C306.505 150.033 304.46 149.581 302.389 149.208C302.027 149.148 301.932 149.701 302.249 149.823Z" fill="#1B1010"/>
<path d="M313.16 139.426C314.342 140.257 316.237 140.692 318.148 140.688C318.463 140.082 318.753 139.476 319.025 138.852C318.858 138.87 318.69 138.888 318.524 138.906C316.771 139.05 314.991 138.703 313.256 138.97C313.036 139.005 312.983 139.303 313.16 139.426Z" fill="#1B1010"/>
<path d="M317.873 119.819C317.778 120.39 318.633 120.686 318.94 120.203C319.519 119.298 319.958 118.288 320.334 117.242C320.059 116.312 319.74 115.409 319.377 114.523C318.834 116.271 318.159 118.019 317.873 119.819Z" fill="#1B1010"/>
<path d="M297.252 95.7031L297.411 95.9921C298.216 97.5171 298.749 99.2451 299.765 100.647C300.092 101.094 300.663 100.663 300.636 100.233C300.572 98.8991 300.031 97.5581 299.446 96.2951C298.723 96.0771 297.991 95.8771 297.252 95.7031Z" fill="#1B1010"/>
<path d="M286.065 95.1911C287.354 96.6361 288.793 97.9671 290.257 99.1401C290.275 99.1661 290.319 99.1311 290.301 99.0961C289.452 97.7111 288.498 96.3361 287.421 95.0391C286.963 95.0841 286.514 95.1291 286.065 95.1911Z" fill="#1B1010"/>
<path d="M421.386 108.504C421.386 108.504 421.809 109.733 422.461 111.611C424.39 117.131 428.283 128.242 429.085 130.05C429.146 130.19 429.217 130.331 429.305 130.445C430.555 132.376 433.62 131.498 433.277 129.471C432.687 125.978 426.019 106.758 426.019 106.758L421.386 108.504Z" fill="white"/>
<path d="M421.385 108.504C421.385 108.504 421.808 109.733 422.46 111.611L424.891 110.637C424.891 110.637 430.255 125.881 431.127 128.786C431.673 130.585 430.423 130.647 429.305 130.445C430.555 132.376 433.62 131.498 433.277 129.471C432.687 125.978 426.019 106.758 426.019 106.758L421.385 108.504Z" fill="#FFF7D9"/>
<path d="M383.879 63.8477C383.617 62.3697 382.436 61.2227 380.945 61.0017L378.826 60.6867C377.635 60.5097 376.437 60.9537 375.652 61.8627L375.111 62.4897L383.879 63.8477Z" fill="#59585A"/>
<path d="M363.909 90.5869C362.448 90.2959 348.712 97.2849 348.712 99.3229C348.712 101.361 358.941 116.94 358.941 116.94L371.07 108.058C371.07 108.058 365.371 90.8779 363.909 90.5869Z" fill="#1F1F21"/>
<path d="M336.438 101.314C336.438 101.314 321.436 86.1721 300.004 82.2891C322.021 83.2601 328.256 83.0661 328.256 83.0661L336.438 101.314Z" fill="#1B1010"/>
<path d="M368.83 105.25C368.83 105.25 347.498 110.081 346.326 110.491C344.523 111.122 344.475 112.287 345.79 115.393C346.563 117.218 351.149 127.575 353.778 128.448C356.528 129.361 373.164 128.739 373.067 128.594C372.971 128.449 368.83 105.25 368.83 105.25Z" fill="#2F2E30"/>
<path d="M366.649 107.969L349.859 112.016C349.859 112.016 354.373 121.37 355.365 123.348C356.358 125.327 356.9 125.776 358.705 125.686C360.511 125.596 368.363 125.686 368.363 125.686L366.649 107.969Z" fill="#1F1F21"/>
<path d="M382.979 89.4942L384.879 84.9812L380.787 84.6172L378.888 89.2032L382.979 89.4942Z" fill="#2F2E30"/>
<path d="M396.058 85.4924L393.062 94.3734L389.628 93.8644L392.624 85.2734L396.058 85.4924Z" fill="#2F2E30"/>
<path d="M394.596 95.6863L385.39 117.963L366.54 113.013L372.969 90.4453L394.596 95.6863Z" fill="#2F2E30"/>
<path d="M374.477 129.61C367.399 129.61 361.661 123.893 361.661 116.84C361.661 109.788 367.399 104.07 374.477 104.07C381.556 104.07 387.294 109.788 387.294 116.84C387.294 123.893 381.556 129.61 374.477 129.61Z" fill="#404041"/>
<path d="M368.817 122.488C365.931 119.612 365.931 114.95 368.817 112.075C371.703 109.199 376.382 109.199 379.268 112.075C382.154 114.95 382.154 119.612 379.268 122.488C376.382 125.363 371.703 125.363 368.817 122.488Z" fill="#2F2E30"/>
<path d="M364.786 84.1875C364.055 84.3335 343.305 110.54 343.305 110.54L346.227 114.326L370.923 84.3335L364.786 84.1875Z" fill="#2C1511"/>
<path d="M288.081 129.635L289.905 129.714L339.161 131.864L341.327 131.961L345.907 132.163L351.333 132.4L355.058 132.567L356.159 132.611L378.691 133.594C382.126 134.357 385.632 132.611 387.085 129.425L408.683 86.2721L405.988 85.2191L404.094 84.4821L383.183 125.265C382.408 126.783 380.814 127.722 379.105 127.67L357.385 127.029C355.782 126.976 354.328 126.072 353.588 124.659L333.804 87.0961L332.641 83.1641L329.082 83.243L325.92 83.313L345.183 120.375L347.729 125.281L342.602 125.053L338.868 124.886L332.507 124.605L290.448 122.727L288.598 122.648L288.307 126.588L288.081 129.635Z" fill="#59585A"/>
<path d="M288.079 129.631L289.903 129.71L339.159 131.86L341.325 131.957L345.905 132.159L351.331 132.396L355.057 132.563L356.158 132.606L355.436 130.772L288.308 126.586L288.079 129.631Z" fill="#2F2E30"/>
<path d="M351.333 132.397L355.058 132.564L378.691 133.591C382.126 134.354 385.632 132.608 387.085 129.422L408.683 86.2692L405.988 85.2162C399.664 98.0652 386.143 125.464 384.804 127.57C383.052 130.334 381.149 130.484 378.964 130.484C376.771 130.484 356.793 130.633 353.05 128.738C350.442 126.088 333.619 92.3692 329.083 83.2422L325.921 83.3122L345.184 120.374L347.73 125.28L351.333 132.397Z" fill="#2F2E30"/>
<path d="M338.87 124.883L341.328 131.957L345.907 132.159L351.333 132.396L347.731 125.278L342.604 125.05L338.87 124.883Z" fill="#1F1F21"/>
<path d="M342.604 125.055L345.907 132.164L351.333 132.401L347.731 125.283L342.604 125.055Z" fill="#1B1010"/>
<path d="M360.694 85.7328C362.009 86.9948 360.657 89.6438 358.649 92.3328C356.31 95.4628 351.064 102.293 349.297 104.053C347.397 105.946 346.082 107.038 343.013 104.272C339.944 101.506 333.076 88.5478 333.076 87.0918C333.076 85.6358 334.385 84.1658 336.144 84.1798C345.132 84.2528 359.427 84.5168 360.694 85.7328Z" fill="#CE465D"/>
<path d="M353.448 89.3266C354.288 90.1636 353.374 91.1376 352.532 92.6756C351.615 94.3496 348.636 98.0796 347.719 98.6116C346.803 99.1446 345.962 100.363 344.358 98.9166C342.754 97.4706 339.164 90.6966 339.164 89.9356C339.164 89.1746 339.852 88.4896 340.768 88.4136C341.684 88.3376 352.987 88.8666 353.448 89.3266Z" fill="#AF304D"/>
<path d="M350.466 77.0489C349.252 74.0259 308.602 73.6289 306.848 75.2299C305.094 76.8319 304.435 82.1438 306.189 82.5808C307.943 83.0178 349.005 84.7648 350.174 83.7458C351.343 82.7268 350.758 77.7769 350.466 77.0489Z" fill="#1B1010"/>
<path d="M276.385 78.9403C276.667 79.1073 277.019 79.2653 277.433 79.4053C278.015 79.6163 278.719 79.8003 279.547 79.9753C284.999 81.1333 295.868 81.6422 311.864 81.8182C313.335 81.8272 314.859 81.8442 316.418 81.8532C316.84 81.8532 311.503 72.7703 308.359 67.5043C307.866 66.6883 307.433 65.9683 307.082 65.3803C306.519 64.4413 305.417 63.9583 304.351 64.2043C293.887 66.6103 278.314 75.0963 276.385 78.9403Z" fill="#CE465D"/>
<path d="M276.384 78.9403C276.666 79.1073 277.018 79.2653 277.432 79.4053C290.53 70.2863 303.601 68.0403 308.357 67.5043C307.865 66.6883 307.432 65.9683 307.081 65.3803C306.518 64.4413 305.416 63.9583 304.35 64.2043C293.886 66.6103 278.312 75.0963 276.384 78.9403Z" fill="#DE617D"/>
<path d="M279.546 79.9739C284.998 81.1319 295.867 81.6409 311.863 81.8169C309.723 77.5519 306.422 71.8829 304.192 71.5139C301.708 71.1019 285.391 76.6589 279.546 79.9739Z" fill="#AF304D"/>
<path d="M276.084 81.8571C276.965 82.7261 299.32 83.6041 307.794 83.7531C314.981 83.8671 380.144 86.3951 408.683 86.2721C410.049 86.2721 411.334 86.2631 412.524 86.2461C413.008 86.2371 413.466 86.2281 413.916 86.2201C414.312 86.2111 414.69 86.2021 415.052 86.1941C415.431 86.1851 415.791 86.1681 416.144 86.1591C417.121 86.1241 417.993 86.089 418.742 86.036L414.523 74.0391C413.607 74.0571 412.647 74.0741 411.669 74.1001C411.307 74.1091 410.946 74.1181 410.577 74.1261C410.154 74.1351 409.731 74.1441 409.3 74.1521C408.903 74.1611 408.507 74.1701 408.102 74.1781C406.912 74.2041 405.715 74.2391 404.526 74.2751C395.999 74.5121 387.851 74.819 387.438 75.161C386.883 75.617 382.435 78.5311 379.193 80.6461C376.956 82.0941 374.322 82.822 371.653 82.717L276.384 78.9431C276.384 78.9431 275.212 80.9791 276.084 81.8571Z" fill="#3F1B13"/>
<path d="M404.526 74.2679L408.683 86.2649C410.049 86.2649 411.335 86.2559 412.524 86.2389L408.102 74.1719C406.913 74.1979 405.715 74.2329 404.526 74.2679Z" fill="#2C1511"/>
<path d="M347.027 81.0646C347.537 82.2406 348.718 83.1006 350.136 83.1186L380.031 83.5486L398.123 83.8116C399.453 83.8286 400.668 83.0836 401.249 81.8896C402.385 79.5286 404.112 75.5006 404.261 72.4026C404.314 71.2526 404.147 70.2346 403.653 69.4796C401.169 65.6886 371.362 60.1596 367.266 61.1776C365.381 61.6426 361.884 63.7226 358.432 66.1626C354.389 69.0066 350.408 72.3326 349.148 74.1406C348.1 75.6416 347.334 77.2916 346.884 78.8006C346.647 79.5906 346.727 80.3806 347.027 81.0646Z" fill="#CE465D"/>
<path d="M360.912 65.5469C360.912 65.5469 381.224 73.7729 383.489 76.0299C384.806 77.3419 384.732 80.9079 381.809 81.9269C380.274 82.2909 373.333 82.5819 373.333 82.5819C373.333 82.5819 381.809 81.8539 382.393 79.5969C382.977 77.3399 382.32 76.9039 380.64 75.8119C378.959 74.7189 360.912 65.5469 360.912 65.5469Z" fill="#DE617D"/>
<path d="M380.031 83.5522L398.122 83.8152C399.452 83.8322 400.668 83.0872 401.249 81.8932C402.385 79.5322 404.111 75.5043 404.261 72.4062C399.962 72.7133 386.926 73.6432 385.825 74.0652C384.512 74.5742 380.936 77.7773 380.346 79.4543C380.013 80.4193 379.987 82.2092 380.031 83.5522Z" fill="#AF304D"/>
<path d="M347.024 81.066C354.493 81.127 373.132 81.259 375.695 81.031C378.91 80.741 380.082 79.478 379.395 77.152C378.893 75.432 365.442 69.2711 358.432 66.1641C354.389 69.0081 350.407 72.3341 349.148 74.1421C348.1 75.6431 347.333 77.2931 346.884 78.8021C346.645 79.5921 346.724 80.382 347.024 81.066Z" fill="#AF304D"/>
<path d="M289.189 130.462L289.783 130.488L290.449 121.962L289.726 121.931C288.871 121.895 288.142 122.541 288.079 123.391L287.678 128.77C287.613 129.657 288.296 130.424 289.189 130.462Z" fill="white"/>
<path d="M395.67 92.3998L373.477 88.4508C372.842 88.3378 372.216 88.6868 371.98 89.2858L371.175 91.3278C370.968 91.8508 371.289 92.4328 371.843 92.5398L395.402 97.0998C395.915 97.1988 396.405 96.8448 396.471 96.3278L396.776 93.8938C396.864 93.1828 396.378 92.5258 395.67 92.3998Z" fill="#2F2E30"/>
<path d="M392.912 99.0999L371.757 94.7339C371.374 94.6549 370.996 94.8929 370.904 95.2719L370.733 95.9758C370.637 96.3728 370.89 96.7709 371.291 96.8539L392.446 101.22C392.829 101.299 393.207 101.061 393.299 100.682L393.47 99.9779C393.566 99.5809 393.313 99.1829 392.912 99.0999Z" fill="#404041"/>
<path d="M391.139 103.461C387.886 102.702 373.976 99.5156 370.677 98.7606C370.287 98.6716 369.9 98.9146 369.811 99.3036L369.699 99.7846C369.609 100.175 369.854 100.565 370.246 100.653L390.729 105.279C391.127 105.369 391.521 105.114 391.601 104.715L391.683 104.306C391.759 103.924 391.52 103.551 391.139 103.461Z" fill="#404041"/>
<path d="M390.034 107.668L369.355 102.483C368.97 102.386 368.577 102.617 368.476 103C368.375 103.383 368.601 103.776 368.985 103.881L389.555 109.533C389.954 109.642 390.362 109.399 390.456 108.998L390.564 108.531C390.653 108.148 390.418 107.764 390.034 107.668Z" fill="#404041"/>
<path d="M384.073 91.7511L384.804 89.3491L377.644 88.0391L377.132 90.0771L384.073 91.7511Z" fill="#2F2E30"/>
<path d="M378.23 105.875C374.848 104.601 371.118 104.977 368.975 106.555C370.436 109.103 370.631 109.37 370.631 109.37C370.631 109.37 373.262 107.987 377.134 109.443C381.006 110.899 382.102 114.757 382.102 114.757L385.171 113.956C385.171 113.956 384.221 108.132 378.23 105.875Z" fill="#59585A"/>
<path d="M350.601 132.651C351.359 132.687 351.814 131.827 351.355 131.226C348.419 127.396 340.826 117.615 339.651 117.381C338.19 117.09 337.386 118.036 337.533 119.128C337.625 119.816 339.89 124.863 341.555 128.506C342.621 130.839 344.906 132.38 347.476 132.502L350.601 132.651Z" fill="#404041"/>
<path d="M339.017 118.448C339.383 118.23 348.856 130.338 349.222 130.848C349.732 131.559 345.131 130.557 344.035 129.319C342.939 128.082 338.363 118.839 339.017 118.448Z" fill="#2F2E30"/>
<path d="M340.804 123.259C339.73 123.259 338.859 122.391 338.859 121.321C338.859 120.25 339.73 119.383 340.804 119.383C341.878 119.383 342.749 120.25 342.749 121.321C342.749 122.391 341.878 123.259 340.804 123.259Z" fill="#59585A"/>
<path d="M339.817 121.32C339.817 121.863 340.258 122.304 340.804 122.304C341.35 122.304 341.792 121.864 341.792 121.32C341.792 120.777 341.35 120.336 340.804 120.336C340.258 120.336 339.817 120.776 339.817 121.32Z" fill="#2F2E30"/>
<path d="M350.319 85.8359C350.319 85.8359 358.161 85.9329 358.795 86.6609C359.428 87.3889 359.184 88.5049 358.795 89.2819C358.405 90.0579 350.174 99.1829 350.174 99.1829C350.174 99.1829 356.798 89.7679 356.896 88.6509C356.992 87.5349 350.319 85.8359 350.319 85.8359Z" fill="#DE617D"/>
<path d="M301.969 107.227C301.837 107.409 297.661 114.475 296.199 116.999C295.457 118.281 298.26 120.156 299.366 118.746C300.2 117.683 305.464 109.319 305.464 109.319L301.969 107.227Z" fill="#59585A"/>
<path d="M318.056 85.0194C319.41 85.6814 318.984 87.1635 318.183 87.8925C317.454 88.5555 316.75 89.2384 316.215 90.0644C314.91 92.0794 312.981 94.9404 312.981 94.9404L311.189 94.1214L314.496 88.6725C314.949 87.9275 315.294 87.1245 315.514 86.2805C315.755 85.3565 316.389 84.2044 318.056 85.0194Z" fill="#59585A"/>
<path d="M312.2 89.1172L298.33 112.01L303.025 114.5L316.895 91.6072L312.2 89.1172Z" fill="#1B1010"/>
<path d="M317.257 91.2201L312.088 88.5621C311.72 88.3731 311.271 88.5411 311.109 88.9311L311.081 88.9991C310.93 89.3611 311.083 89.7811 311.427 89.9521L316.624 92.5411C316.971 92.7141 317.391 92.5731 317.57 92.2211C317.758 91.8571 317.616 91.4051 317.257 91.2201Z" fill="#59585A"/>
<path d="M315.851 93.8514L310.7 91.1584C310.333 90.9664 309.883 91.1314 309.718 91.5204L309.689 91.5884C309.536 91.9494 309.685 92.3704 310.03 92.5444L315.209 95.1694C315.556 95.3454 315.975 95.2064 316.158 94.8564C316.346 94.4914 316.208 94.0384 315.851 93.8514Z" fill="#59585A"/>
<path d="M314.218 96.7028L309.09 93.9658C308.723 93.7708 308.274 93.9318 308.105 94.3198L308.076 94.3878C307.92 94.7468 308.066 95.1698 308.408 95.3468L313.567 98.0158C313.912 98.1948 314.333 98.0598 314.518 97.7108C314.71 97.3478 314.575 96.8938 314.218 96.7028Z" fill="#59585A"/>
<path d="M312.439 99.7966L307.389 96.9056C307.029 96.6996 306.574 96.8476 306.396 97.2296L306.365 97.2966C306.198 97.6516 306.333 98.0776 306.669 98.2646L311.749 101.089C312.089 101.278 312.514 101.156 312.709 100.813C312.911 100.455 312.789 99.9966 312.439 99.7966Z" fill="#59585A"/>
<path d="M310.549 102.577L305.499 99.6869C305.139 99.4809 304.684 99.6289 304.506 100.011L304.475 100.078C304.308 100.433 304.442 100.859 304.78 101.046L309.86 103.87C310.2 104.059 310.625 103.937 310.819 103.594C311.021 103.236 310.9 102.778 310.549 102.577Z" fill="#59585A"/>
<path d="M308.825 105.553L303.776 102.663C303.416 102.457 302.961 102.605 302.783 102.987L302.752 103.054C302.585 103.409 302.719 103.835 303.057 104.022L308.137 106.846C308.477 107.035 308.902 106.913 309.097 106.57C309.297 106.212 309.176 105.754 308.825 105.553Z" fill="#59585A"/>
<path d="M307.073 108.202L302.024 105.312C301.664 105.106 301.209 105.254 301.031 105.636L301 105.703C300.833 106.058 300.968 106.484 301.305 106.671L306.385 109.495C306.725 109.684 307.15 109.562 307.345 109.219C307.545 108.861 307.424 108.403 307.073 108.202Z" fill="#59585A"/>
<path d="M305.225 110.991L300.177 108.101C299.817 107.895 299.362 108.043 299.183 108.425L299.152 108.492C298.986 108.847 299.12 109.273 299.457 109.46L304.538 112.284C304.878 112.473 305.302 112.351 305.497 112.007C305.698 111.65 305.575 111.192 305.225 110.991Z" fill="#59585A"/>
<path d="M303.578 114.152L298.572 111.185C298.215 110.973 297.758 111.114 297.573 111.494L297.541 111.56C297.37 111.912 297.498 112.34 297.832 112.533L302.871 115.434C303.208 115.628 303.633 115.512 303.834 115.172C304.042 114.819 303.926 114.359 303.578 114.152Z" fill="#59585A"/>
<path d="M429.589 60.1635L398.78 45.3125L395.566 51.0395L429.589 60.1635Z" fill="#FFF7D9"/>
<path d="M383.048 83.9759C383.559 84.8449 408.398 97.1489 408.398 97.1489C408.398 97.1489 415.708 85.2829 417.752 83.6769C419.795 82.0799 432.584 81.0619 433.536 79.2359C433.65 79.0169 433.721 78.6389 433.765 78.1299C434.073 74.4089 432.629 63.9299 432.444 62.7099C432.224 61.3319 430.647 60.6209 429.591 60.1649C421.038 56.4529 395.688 50.3359 395.688 50.3359L393.644 54.9959C393.644 54.9959 421.769 59.7259 424.473 62.7889C427.177 65.8429 426.155 70.5029 422.579 72.1009C418.994 73.7069 388.086 75.2339 387.434 75.1639C386.782 75.0939 383.047 79.0169 382.827 79.4559C382.607 79.8949 382.537 83.0979 383.048 83.9759Z" fill="#CE465D"/>
<path d="M383.049 83.971C383.56 84.84 408.399 97.144 408.399 97.144C408.399 97.144 415.709 85.278 417.753 83.672C419.796 82.075 432.585 81.057 433.537 79.231C433.651 79.012 433.721 78.634 433.766 78.125C429.379 78.862 414.035 81.504 413.199 82.004C412.231 82.583 406.091 91.605 406.091 91.605C406.091 91.605 384.264 84.182 383.049 83.971Z" fill="#AF304D"/>
<path d="M402.263 77.9698V85.3477H404.714V79.8947H406.003V77.9688H402.263V77.9698Z" fill="white"/>
<path d="M395.742 77.9698V85.3477H398.193V79.8947H399.481V77.9688H395.742V77.9698Z" fill="white"/>
<path d="M360.153 46.7662L350.582 67.2222L325.887 61.4712L345.76 35.9922L360.153 46.7662Z" fill="#2C1511"/>
<path d="M324.346 67.7735C324.444 70.0115 324.946 72.1355 325.818 73.3115C326.98 74.8735 329.174 76.1115 331.852 77.2955C334.256 78.3665 337.074 79.3845 339.85 80.5515C345.698 83.0085 358.946 88.3185 358.946 88.3185L348.032 101.131L351.274 104.168L352.71 105.52L356.867 109.417C356.867 109.417 371.797 92.7165 373.356 88.9685C374.915 85.2125 373.876 81.4555 372.449 79.6485C371.638 78.6305 359.518 71.1445 347.794 65.5365C345.416 64.3955 343.055 63.3335 340.809 62.4205C340.016 62.0955 339.232 61.7885 338.467 61.4985C333.172 59.5325 328.777 58.5935 326.734 59.7165C325.299 60.5065 324.523 63.0695 324.364 65.8335C324.328 66.4745 324.32 67.1335 324.346 67.7735Z" fill="#3C86C6"/>
<path d="M324.347 67.775L341.936 74.992L347.795 65.537C338.731 61.193 329.905 57.972 326.735 59.718C325.299 60.508 324.524 63.071 324.365 65.835C324.329 66.476 324.321 67.135 324.347 67.775Z" fill="#30739B"/>
<path d="M325.818 73.3129C326.98 74.8749 329.174 76.1129 331.852 77.2969L330.148 69.2729C329.907 68.1339 329.057 67.2179 327.936 66.8879L324.364 65.8359C324.188 68.7059 324.69 71.7949 325.818 73.3129Z" fill="#196089"/>
<path d="M364.715 85.7527L351.273 104.166L352.71 105.518L366.688 85.7357C367.181 85.0337 366.979 84.0507 366.239 83.6027L337.718 66.4007C337.718 66.4007 339.463 64.1097 340.81 62.4167C341.576 61.4597 342.219 60.6877 342.36 60.6177L342.069 57.0547L338.466 61.4957L334.811 66.0157L364.266 83.5947C365.023 84.0417 365.226 85.0417 364.715 85.7527Z" fill="#196089"/>
<path d="M358.691 52.5588C358.691 52.5588 359.748 53.7878 361.254 55.4458C363.958 58.4118 368.09 62.7568 370.089 63.8178C373.208 65.4678 394.25 65.1778 394.25 65.1778L394.567 64.5718L396.391 61.1048L374.088 54.8908L371.543 51.6958L368.821 48.2908C368.821 48.2908 365.606 46.2368 361.281 49.8088C360.452 50.5048 359.58 51.4008 358.691 52.5588Z" fill="#F6AA7D"/>
<path d="M358.691 52.561C358.691 52.561 359.748 53.7899 361.255 55.4479L371.543 51.701L368.821 48.296C368.821 48.296 364.25 45.382 358.691 52.561Z" fill="#EA7D3B"/>
<path d="M358.692 52.5615C358.692 52.5615 359.749 53.7905 361.256 55.4485C363.959 58.4145 368.091 62.7595 370.091 63.8205C373.209 65.4705 394.251 65.1805 394.251 65.1805L394.568 64.5745C390.244 64.1795 374.239 62.9155 371.236 61.3005C369.281 60.2565 364.814 54.5695 361.283 49.8125C360.454 50.5075 359.582 51.4035 358.692 52.5615Z" fill="#EA7D3B"/>
<path d="M356.849 31.796L362.979 40.555C362.979 40.555 365.701 38.58 367.207 37.641C367.586 37.395 367.886 37.228 368.044 37.167C370.062 36.438 371.832 36.0789 373.426 36.2979C374.632 36.4559 376.703 37.1399 377.689 37.4479C378.676 37.7459 380.693 38.5539 381.608 38.4399C382.525 38.3349 382.886 37.334 383.361 36.597C383.89 35.79 384.559 34.1129 384.559 34.1129C384.559 34.1129 383.89 33.937 383.89 33.955C383.801 33.174 384.057 32.5069 384.251 32.1209C384.445 31.7349 385.238 31.6029 385.722 31.4799C386.462 31.2959 386.762 30.585 386.145 30.041C385.466 29.479 384.85 28.9259 384.559 27.7679C384.41 27.1979 384.576 26.487 384.806 25.732C385.053 24.942 385.361 24.1079 385.457 23.3269C386.171 17.7449 378.323 14.2959 372.034 16.3939C363.947 19.1059 364.731 25.188 364.943 27.908C364.785 28.031 363.983 28.4349 362.935 28.9349C362.477 29.1539 361.974 29.391 361.463 29.637C359.262 30.682 356.849 31.796 356.849 31.796Z" fill="#F6AA7D"/>
<path d="M356.848 31.7996L362.979 40.5586C362.979 40.5586 365.701 38.5836 367.207 37.6446C365.798 35.6606 362.75 31.3786 361.464 29.6406C359.262 30.6856 356.848 31.7996 356.848 31.7996Z" fill="#EA7D3B"/>
<path d="M362.936 28.9359C365.006 30.1819 370.335 33.3149 371.893 33.8769C373.84 34.5879 374.695 34.948 377.513 34.702C380.34 34.465 382.754 25.0739 382.754 25.0739L384.806 25.732C385.053 24.942 385.361 24.108 385.458 23.327C386.171 17.745 378.323 14.2959 372.034 16.3939C363.948 19.1059 364.731 25.188 364.943 27.908C364.786 28.032 363.984 28.4359 362.936 28.9359Z" fill="#EA7D3B"/>
<path d="M375.691 31.896L376.396 33.809C376.722 34.694 376.002 35.613 375.061 35.512C374.633 35.466 374.257 35.209 374.061 34.828L372.477 31.75L375.691 31.896Z" fill="#3F1B13"/>
<path d="M385.013 31.0059C385.013 31.0059 384.173 30.5329 383.46 31.2429C383.935 31.1519 385.013 31.0059 385.013 31.0059Z" fill="#EA7D3B"/>
<path d="M385.358 25.6578L384.517 25.2578L382.837 29.2618L383.787 29.5888L385.358 25.6578Z" fill="#682916"/>
<path d="M384.226 26.7081L383.532 26.4531L382.984 27.8001L383.787 28.0911L384.226 26.7081Z" fill="#682916"/>
<path d="M372.379 26.2948C372.544 26.7488 372.818 26.7118 373.757 26.1338C374.695 25.5558 375.646 25.4318 376.774 25.7478L383.424 27.5818L383.644 26.8538L376.271 24.7998C375.135 24.4928 373.919 24.7118 372.968 25.4048C372.968 25.4048 372.204 25.8138 372.379 26.2948Z" fill="#682916"/>
<path d="M384.555 34.1103C384.555 34.1103 383.921 34.4383 382.595 34.1103C381.268 33.7823 380.5 32.6902 380.549 32.7032C380.597 32.7152 384.555 34.1103 384.555 34.1103Z" fill="#EA7D3B"/>
<path d="M382.022 22.6746C382.022 22.6746 379.1 33.3515 376.324 33.7885C373.548 34.2255 363.404 28.3526 363.404 28.3526L379.916 22.6016L382.022 22.6746Z" fill="white"/>
<path d="M363.403 28.3485C363.544 28.4535 363.896 28.6465 364.407 28.9015C366.961 30.1385 373.347 32.6845 375.02 32.1745C377.029 31.5515 379.442 22.9595 379.918 22.5995C380.296 22.3095 384.445 23.3105 386.198 23.7495C386.665 23.8635 386.965 23.9425 386.965 23.9425C388.718 16.0085 381.829 11.9715 378.755 11.3135C374.871 10.4795 369.55 11.1645 365.63 15.1405C361.897 18.9145 362.566 27.3655 363.403 28.3485Z" fill="#77AFDC"/>
<path d="M364.406 28.9028C366.961 30.1398 373.347 32.6858 375.02 32.1758C377.028 31.5528 379.442 22.9608 379.918 22.6008C380.296 22.3108 384.445 23.3118 386.197 23.7508L385.775 22.0918C385.775 22.0918 381.045 10.1998 369.065 15.5888C369.699 17.4318 370.589 19.5288 368.043 21.8468C366.731 23.1108 364.485 23.0138 364.485 23.0138C364.485 23.0138 363.931 26.1738 364.406 28.9028Z" fill="#3C86C6"/>
<path d="M379.918 22.5981L391.121 25.8281C391.192 25.8451 391.262 25.8631 391.341 25.8631C391.684 25.8631 392.011 25.6261 392.099 25.2661C392.178 24.9681 392.073 24.6521 391.835 24.4591L387.149 20.7031L383.485 21.6601L379.918 22.5981Z" fill="#3F1B13"/>
<path d="M379.918 22.6031L391.121 25.8331C391.192 25.8501 391.262 25.8681 391.341 25.8681C391.684 25.8681 392.011 25.6311 392.099 25.2711C392.178 24.9731 392.073 24.6571 391.835 24.4641L383.485 21.6641L379.918 22.6031Z" fill="#2C1511"/>
<path d="M371.354 27.2607C371.354 28.3197 372.215 29.1777 373.278 29.1777C374.341 29.1777 375.202 28.3197 375.202 27.2607C375.202 26.2017 374.341 25.3438 373.278 25.3438C372.216 25.3437 371.354 26.2017 371.354 27.2607Z" fill="#3F1B13"/>
<path d="M374.557 34.7652C374.557 34.7652 375.494 36.2132 376.383 37.6142C377.271 39.0142 378.289 38.4722 377.5 37.1682C376.71 35.8642 375.82 34.3672 375.82 34.3672L374.557 34.7652Z" fill="#3F1B13"/>
<path d="M364.341 38.7837C364.341 38.7837 366.874 37.9097 369.017 39.3177C371.159 40.7247 371.744 42.7637 371.598 42.6667C371.451 42.5697 369.503 42.5207 367.409 41.4537C365.314 40.3857 364.341 38.7837 364.341 38.7837Z" fill="#CE465D"/>
<path d="M366.069 39.4145C366.069 39.4145 368.188 39.3415 369.431 41.0525C367.932 40.8345 366.069 39.4145 366.069 39.4145Z" fill="#AF304D"/>
<path d="M364.341 38.7812C364.341 38.7812 367.41 41.3533 366.387 46.6923C362.977 44.2173 362.441 41.1593 364.341 38.7812Z" fill="#CE465D"/>
<path d="M364.683 41.2344C364.683 41.2344 365.961 43.4914 365.523 44.8014C364.317 43.1634 364.683 41.2344 364.683 41.2344Z" fill="#AF304D"/>
<path d="M365.365 39.0299C365.35 38.6799 360.397 30.2458 359.228 28.9838C358.059 27.7218 352.555 30.5369 352.214 31.5079C351.872 32.4789 363.855 41.7479 364.147 41.6029C364.44 41.4559 365.415 40.1459 365.365 39.0299Z" fill="#CE465D"/>
<path d="M363.367 38.8294C363.367 38.4654 360.153 32.2044 358.545 31.6224C356.937 31.0404 359.422 34.8984 359.202 34.6794C358.983 34.4614 356.133 31.6224 355.841 32.7864C355.55 33.9514 363.367 38.8294 363.367 38.8294Z" fill="#AF304D"/>
<path d="M368.091 16.2188C368.091 16.2188 369.065 21.0238 364.535 21.4598C365.083 17.4678 367.457 16.4128 368.091 16.2188Z" fill="#9FCCEA"/>
<path d="M317.927 58.709L321.935 60.947L338.406 70.127L341.304 71.742L342.678 69.451L349.927 57.401L364.681 41.235C364.681 41.235 364.364 40.945 363.836 40.454C363.334 39.998 362.637 39.366 361.827 38.637C359.352 36.399 355.838 33.275 353.811 31.651C353.018 31.037 352.455 30.633 352.261 30.607C351.398 30.493 344.255 32.169 337.736 36.47C337.26 36.777 336.785 37.102 336.318 37.453C335.595 37.971 334.891 38.532 334.212 39.129C328.733 43.912 322.101 52.837 319.291 56.769C318.429 57.972 317.927 58.709 317.927 58.709Z" fill="#404041"/>
<path d="M317.927 58.708L321.935 60.946C325.133 55.329 331.976 44.218 339.041 38.4C348.756 30.387 353.812 31.651 353.812 31.651C353.02 31.037 352.457 30.633 352.262 30.607C351.399 30.493 344.256 32.169 337.737 36.47C337.261 36.777 336.786 37.102 336.319 37.453C335.596 37.971 334.892 38.532 334.213 39.129C328.735 43.912 322.103 52.837 319.292 56.769C318.429 57.971 317.927 58.708 317.927 58.708Z" fill="#515252"/>
<path d="M338.625 49.1646C340.668 51.4996 353.044 45.7686 353.044 45.7686C358.329 43.7856 361.139 41.1256 361.826 38.6336C359.351 36.3956 355.836 33.2716 353.81 31.6476C348.067 31.3576 344.421 35.4036 342.906 37.2296C341.153 39.3616 336.582 46.8386 338.625 49.1646Z" fill="#2F2E30"/>
<path d="M353.236 43.8297C353.236 43.8297 342.423 49.4597 340.279 47.6147C338.137 45.7707 345.247 34.8016 350.509 33.4436C355.77 32.0846 359.472 39.1697 353.236 43.8297Z" fill="#2C1511"/>
<path d="M338.406 70.1251L341.304 71.7401L349.927 57.4001L364.681 41.2341C364.681 41.2341 364.364 40.9441 363.836 40.4531C359.801 44.2091 349.993 53.9961 348.61 55.2861C346.71 57.0331 340.203 67.1061 338.406 70.1251Z" fill="#2F2E30"/>
<path d="M357.016 55.467C357.016 55.467 368.933 48.938 369.33 49.174C370.29 50.21 370.528 50.534 370.528 50.534C370.528 50.534 371.805 48.384 371.487 47.901C371.17 47.427 367.489 45.672 367.489 45.672C367.489 45.672 367.974 44.399 367.568 43.917C367.506 43.847 367.251 43.592 366.837 43.206C364.502 41.03 357.341 34.64 355.095 33.719C351.977 32.446 348.657 33.118 347.74 36.194C346.807 39.333 357.016 55.467 357.016 55.467Z" fill="#3F1B13"/>
<path d="M367.489 45.6706C367.489 45.6706 367.974 44.3977 367.569 43.9157C367.507 43.8457 367.252 43.5907 366.837 43.2047C363.041 42.7397 354.964 41.8616 354.453 42.0286C353.793 42.2476 367.164 45.4506 367.489 45.6706Z" fill="#2C1511"/>
<path d="M394.66 70.7713C394.913 70.9843 395.224 71.0903 395.541 71.0823C395.823 71.0743 396.111 70.9703 396.343 70.7713C397.592 69.6853 404.699 63.9053 405.009 63.6333C405.439 63.2623 404.637 61.0553 403.234 61.9703C402.394 62.5193 395.95 67.9113 394.764 68.7323C394.064 69.2163 394.012 70.2273 394.66 70.7713Z" fill="#2C1511"/>
<path d="M391.981 65.432C391.981 65.432 394.387 66.787 395.839 67.09C396.528 67.242 397.383 67.202 398.093 67.12C398.838 67.037 399.61 67.224 400.181 67.694C400.476 67.938 400.815 68.108 401.145 68.001C401.94 67.729 401.79 66.834 401.79 66.834C401.79 66.834 402.046 66.98 402.378 66.935C402.513 66.923 402.665 66.874 402.807 66.762C403.248 66.436 402.926 65.825 402.851 65.692C402.869 65.709 402.888 65.745 402.907 65.771C403.272 66.246 404.785 68.237 404.97 68.411C405.099 68.533 405.452 68.587 405.74 68.526C405.91 68.495 406.061 68.419 406.121 68.282C406.255 67.928 405.081 65.803 404.971 65.366C404.86 64.947 402.918 62.752 402.676 62.48L405.076 63.881C405.076 63.881 406.44 66.019 406.747 66.37C406.878 66.519 407.15 66.593 407.391 66.515C407.508 66.485 407.614 66.419 407.702 66.3C408.076 65.787 406.655 62.869 406.144 62.29C405.632 61.702 403.589 60.435 403.589 60.435C403.589 60.435 402.902 59.828 402.422 59.592C402.185 59.472 401.429 59.566 400.758 59.773C400.401 59.89 397.459 60.489 397.459 60.489C397.459 60.489 397.423 60.49 397.342 60.492C397.143 60.488 396.684 60.473 396.006 60.446C395.446 60.425 394.743 60.39 393.912 60.339C393.341 60.57 392.812 62.048 392.467 63.314C392.176 64.321 391.981 65.432 391.981 65.432Z" fill="#3F1B13"/>
<path d="M396.342 63.6985C396.664 64.2915 397.458 64.3155 398.397 64.0485C399.131 63.8315 400.282 60.9984 400.754 59.7734C400.397 59.8904 397.455 60.4894 397.455 60.4894C397.455 60.4894 396.162 63.3625 396.342 63.6985Z" fill="#F6AA7D"/>
<path d="M399.799 60.9099C399.588 60.6729 397.58 61.1359 397.473 61.3069C397.366 61.4779 399.381 61.3309 399.491 61.2909C399.603 61.2499 400.011 61.1459 399.799 60.9099Z" fill="#EA7D3B"/>
<path d="M401.902 61.5312C401.985 61.6283 402.646 62.3923 402.647 62.4543C402.647 62.4543 402.656 62.4633 402.666 62.4723L405.074 63.8823C405.074 63.8823 406.438 66.0203 406.745 66.3713C406.876 66.5203 407.148 66.5943 407.39 66.5163C406.605 65.4863 405.726 63.7503 405.438 63.4263C405.084 63.0303 402.093 61.6072 401.902 61.5312Z" fill="#2C1511"/>
<path d="M401.09 63.2561C401.138 63.3451 402.85 65.6891 402.85 65.6891C402.868 65.7061 402.887 65.7421 402.906 65.7681C403.27 66.2431 404.784 68.2341 404.968 68.4081C405.098 68.5301 405.451 68.5841 405.738 68.5231C404.639 67.2131 401.601 63.4671 401.601 63.4671L401.241 62.4531C401.241 62.4531 401.051 63.1671 401.09 63.2561Z" fill="#2C1511"/>
<path d="M399.842 64.7729C399.842 64.7729 399.842 64.7729 400.293 65.1389C401.189 65.9059 401.688 66.7369 401.79 66.8329C401.79 66.8329 402.046 66.9789 402.378 66.9339C401.791 65.8899 400.389 64.6599 400.389 64.6599L400.12 64.0469L399.842 64.7729Z" fill="#2C1511"/>
<path d="M392.941 65.0117C393.39 65.0787 394.353 64.8227 394.668 63.4767C394.904 62.4917 395.634 61.1337 396.003 60.4507C395.443 60.4297 394.739 60.3947 393.908 60.3438C393.337 60.5748 392.808 62.0527 392.464 63.3187C392.396 64.4427 392.515 64.9477 392.941 65.0117Z" fill="#2C1511"/>
<path d="M394.661 70.7711C394.914 70.9841 395.225 71.0901 395.542 71.0821C395.824 71.0741 396.112 70.9701 396.344 70.7711C396.91 70.2031 396.751 69.514 396.566 69.176C396.39 68.847 395.491 68.168 394.765 68.732C394.065 69.216 394.013 70.2271 394.661 70.7711Z" fill="#1B1010"/>
<path d="M399.559 72.037C399.645 72.316 399.774 72.514 399.934 72.563C400.601 72.765 401.285 72.3429 401.269 71.7289C401.253 71.1059 400.517 70.9409 400.517 70.9409C400.5 70.3009 400.783 69.687 401.275 69.279L406.069 65.334L405.677 64.835L405.284 64.3359L400.518 68.676C399.589 69.526 399.166 70.845 399.559 72.037Z" fill="white"/>
<path d="M400.129 70.9079L400.517 70.9419C400.5 70.3019 400.783 69.6879 401.275 69.2799L406.069 65.3349L405.677 64.8359C404.6 65.7509 402.282 67.7259 401.327 68.5939C400.072 69.7419 400.129 70.9079 400.129 70.9079Z" fill="#FFF7D9"/>
<path d="M373.185 55.0781C373.185 55.0781 370.702 56.0672 370.986 56.8452C371.269 57.6222 372.829 55.2901 373.185 55.0781Z" fill="#EA7D3B"/>
<path d="M317.927 58.7056L338.406 70.1236L341.304 71.7386L342.678 69.4476C338.194 67.0696 324.727 59.7326 319.292 56.7656C318.429 57.9686 317.927 58.7056 317.927 58.7056Z" fill="#2F2E30"/>
<path d="M338.965 47.9297C338.746 48.0027 327.639 62.7807 327.639 62.7807C327.639 62.7807 329.831 64.2367 329.831 64.0177C329.831 63.7997 340.206 48.8027 340.206 48.8027L338.965 47.9297Z" fill="#2F2E30"/>
<path d="M336.317 37.4518L342.615 38.9088L343.275 37.8908C343.135 37.7508 339.937 36.9868 337.735 36.4688C337.26 36.7767 336.784 37.1008 336.317 37.4518Z" fill="#2F2E30"/>
<path d="M335.773 113.649C336.82 114.851 338.221 116.466 339.763 118.248C342.186 121.03 344.942 124.216 347.224 126.84C347.63 127.314 348.026 127.77 348.404 128.2C349.567 129.552 350.536 130.666 351.152 131.377C351.584 131.877 352.35 131.912 352.825 131.456C353.045 131.245 353.275 130.991 353.495 130.71C354.147 129.911 354.754 128.832 354.825 127.577C354.965 124.812 351.61 116.44 351.61 116.44L357.943 109.024C358.163 108.769 358.146 108.401 357.899 108.173L355.749 106.119L354.525 104.943L349.195 99.8273C348.948 99.5903 348.57 99.5903 348.323 99.8183C348.05 100.081 347.663 100.467 347.178 100.924C346.94 101.161 346.685 101.416 346.403 101.688C344.924 103.119 342.942 105.049 341.039 106.919C339.392 108.525 337.806 110.087 336.679 111.228C336.353 111.561 336.063 111.851 335.816 112.106C335.393 112.534 335.385 113.201 335.773 113.649Z" fill="#3F1B13"/>
<path d="M347.223 126.843C347.629 127.317 348.025 127.773 348.403 128.203C349.364 127.211 350.641 125.702 350.605 124.789C350.569 123.597 349.454 117.565 349.05 115.41C348.958 114.921 349.082 114.423 349.392 114.033C350.902 112.141 355.427 106.479 355.749 106.121L354.525 104.945L347.94 113.513C347.627 113.921 347.512 114.442 347.63 114.942C348.117 117.01 349.369 122.549 349.099 123.77C348.897 124.675 347.954 125.956 347.223 126.843Z" fill="#2C1511"/>
<path d="M335.774 113.649C339.685 118.125 348.537 128.349 351.153 131.377C351.584 131.877 352.35 131.912 352.826 131.456C353.045 131.245 353.275 130.991 353.495 130.71C349.584 126.146 339.93 114.904 336.68 111.227C336.354 111.56 336.064 111.85 335.817 112.105C335.395 112.534 335.386 113.201 335.774 113.649Z" fill="#2C1511"/>
<path d="M335.773 113.653C336.821 114.855 338.222 116.47 339.764 118.252C342.838 113.249 341.904 109.028 341.041 106.922C339.394 108.528 337.809 110.09 336.682 111.231C336.355 111.564 336.065 111.854 335.818 112.109C335.394 112.538 335.386 113.205 335.773 113.653Z" fill="#2C1511"/>
<path d="M356.903 109.662L354.098 107.33C353.74 107.029 353.197 107.113 352.947 107.508C352.743 107.831 352.807 108.254 353.097 108.502L355.885 110.85C356.181 111.103 356.622 111.096 356.909 110.833L356.926 110.817C357.269 110.503 357.258 109.961 356.903 109.662Z" fill="#2C1511"/>
<path d="M355.539 111.799L352.734 109.564C352.375 109.263 351.832 109.347 351.582 109.742C351.379 110.065 351.443 110.488 351.733 110.736L354.521 112.987C354.817 113.24 355.257 113.233 355.545 112.97L355.563 112.954C355.905 112.641 355.894 112.098 355.539 111.799Z" fill="#2C1511"/>
<path d="M353.931 113.791L351.125 111.556C350.767 111.255 350.224 111.339 349.974 111.734C349.77 112.057 349.835 112.48 350.125 112.728L352.913 114.979C353.21 115.232 353.649 115.225 353.937 114.962L353.955 114.946C354.298 114.633 354.287 114.09 353.931 113.791Z" fill="#2C1511"/>
<path d="M352.566 115.588L349.761 113.353C349.403 113.052 348.86 113.136 348.61 113.531C348.406 113.854 348.471 114.277 348.761 114.525L351.549 116.776C351.846 117.029 352.285 117.022 352.572 116.759L352.589 116.743C352.934 116.429 352.923 115.887 352.566 115.588Z" fill="#2C1511"/>
<path d="M346.403 101.686L353.335 108.04L354.093 107.329L347.179 100.922C346.94 101.159 346.685 101.414 346.403 101.686Z" fill="#2C1511"/>
<path d="M372.37 86.6073C371.863 86.4533 371.08 86.2163 370.402 86.0153C370.107 85.9283 369.802 86.0943 369.713 86.3873C369.063 88.5573 368.053 92.0133 368.995 91.6113C369.953 91.2023 371.841 89.8663 372.736 87.3053C372.838 87.0143 372.666 86.6973 372.37 86.6073Z" fill="#30739B"/>
<path d="M328.078 58.1215L326.733 59.7135L322.744 57.5395L324.205 55.9375L328.078 58.1215Z" fill="#2F2E30"/>
<path d="M208.614 165.411C186.027 156.676 177.315 140.56 172.936 143.297C172.051 143.851 178.993 152.268 178.993 152.268C178.993 152.268 157.273 139.335 156.438 140.795C155.602 142.255 171.267 154.355 171.267 154.355C171.267 154.355 162.286 151.226 162.912 153.103C163.235 154.068 167.532 157.296 171.632 160.202C176.414 163.594 182.134 165.411 187.999 165.411H208.614Z" fill="#93543E"/>
<path d="M52.2393 165.411C29.6516 156.676 20.9396 140.56 16.5615 143.297C15.6761 143.851 22.6184 152.268 22.6184 152.268C22.6184 152.268 0.898338 139.335 0.0628242 140.795C-0.772694 142.255 14.8915 154.355 14.8915 154.355C14.8915 154.355 5.91141 151.226 6.53749 153.103C6.85995 154.068 11.1572 157.296 15.2572 160.202C20.0387 163.594 25.7588 165.411 31.624 165.411H52.2393Z" fill="#93543E"/>
<path d="M213.194 117.5C220.679 117.483 226.758 123.529 226.774 131.005C226.791 138.481 220.738 144.556 213.254 144.573C205.77 144.589 199.688 138.54 199.671 131.065C199.654 123.589 205.71 117.517 213.194 117.5Z" fill="#1B1010"/>
<path d="M213.205 123.664C217.278 123.655 220.586 126.945 220.596 131.014C220.605 135.082 217.311 138.389 213.238 138.399C209.164 138.408 205.855 135.116 205.846 131.047C205.836 126.977 209.132 123.673 213.205 123.664Z" fill="#7C7C7C"/>
<path d="M178.55 128.841C178.648 127.239 178.861 125.655 179.173 124.121C180.136 119.302 182.109 114.844 184.862 110.968C185.29 110.376 185.727 109.802 186.194 109.239C188.829 105.975 192.038 103.196 195.695 101.069C196.249 100.748 196.813 100.438 197.387 100.146C200.84 98.3683 204.642 97.1541 208.659 96.6294C209.155 96.5619 209.65 96.5132 210.157 96.4645C211.148 96.3671 212.14 96.3284 213.152 96.3284C215.846 96.3184 218.472 96.6294 221.001 97.1928H221.011C221.827 97.3865 222.635 97.6101 223.432 97.8536C223.733 97.951 224.035 98.0484 224.336 98.1447C233.944 101.38 241.676 108.694 245.44 118.03C245.839 119.011 246.189 120.011 246.49 121.031C247.443 124.169 247.959 127.501 247.969 130.95C247.979 135.933 246.938 140.664 245.051 144.957C244.75 145.647 244.428 146.318 244.078 146.987C241.812 151.349 238.652 155.167 234.84 158.208C234.335 158.606 233.818 158.995 233.284 159.363C229.52 162.034 225.193 163.968 220.524 164.958C219.669 165.153 218.803 165.308 217.918 165.414H217.908C216.401 165.618 214.874 165.735 213.308 165.735C208.018 165.745 202.979 164.57 198.487 162.461C197.632 162.063 196.795 161.626 195.987 161.16C192.078 158.935 188.645 155.963 185.892 152.446C185.261 151.649 184.667 150.824 184.113 149.979C184.113 149.969 184.113 149.969 184.113 149.969C180.729 144.791 178.686 138.691 178.491 132.096C178.481 131.766 178.481 131.435 178.481 131.105C178.481 130.348 178.501 129.59 178.55 128.841ZM213.268 150.534C224.043 150.514 232.768 141.762 232.748 130.989C232.719 120.216 223.956 111.502 213.181 111.521C202.395 111.541 193.672 120.293 193.701 131.066C193.721 141.839 202.483 150.553 213.268 150.534Z" fill="#2C1511"/>
<path d="M213.168 105.344C227.376 105.313 238.906 116.779 238.938 130.971C238.969 145.163 227.491 156.69 213.282 156.722C199.074 156.753 187.534 145.277 187.502 131.085C187.471 116.892 198.96 105.375 213.168 105.344ZM213.269 150.534C224.044 150.511 232.767 141.757 232.744 130.984C232.721 120.211 223.958 111.498 213.183 111.521C202.397 111.544 193.674 120.298 193.698 131.071C193.721 141.844 202.484 150.557 213.269 150.534Z" fill="#1B1010"/>
<path d="M195.696 101.067C198.11 102.363 200.554 103.65 203.113 104.557C203.211 104.596 203.327 104.46 203.24 104.382C201.543 102.676 199.517 101.301 197.385 100.141C196.813 100.433 196.249 100.745 195.696 101.067Z" fill="#1B1010"/>
<path d="M184.864 110.965C187.927 110.851 190.863 110.33 193.906 109.847C194.061 109.827 194.051 109.585 193.896 109.575C191.29 109.405 188.76 109.187 186.194 109.233C185.727 109.797 185.291 110.372 184.864 110.965Z" fill="#1B1010"/>
<path d="M178.479 131.108C178.48 131.438 178.48 131.769 178.491 132.098C179.509 131.067 180.441 129.879 181.295 128.984C182.741 127.465 185.206 125.546 185.756 123.456C185.813 123.212 185.637 122.864 185.327 122.951C183.111 123.616 181.298 126.137 179.707 127.743C179.358 128.094 178.96 128.463 178.552 128.843C178.504 129.592 178.477 130.351 178.479 131.108Z" fill="#1B1010"/>
<path d="M184.111 149.967C184.111 149.967 184.111 149.967 184.111 149.977C184.667 150.83 185.262 151.655 185.886 152.45C186.423 149.058 186.707 145.599 186.622 142.423C186.611 142.034 186.027 141.822 185.901 142.259C185.188 144.689 184.592 147.314 184.111 149.967Z" fill="#1B1010"/>
<path d="M195.984 161.159C196.792 161.624 197.63 162.059 198.486 162.466C198.271 161.951 198.075 161.446 197.909 160.933C197.214 158.749 196.956 156.495 196.406 154.281C196.279 153.738 195.472 153.749 195.415 154.322C195.214 156.167 195.395 158.732 195.984 161.159Z" fill="#1B1010"/>
<path d="M211.656 159.33C212.185 161.515 214.737 163.121 216.452 164.38C216.919 164.719 217.407 165.078 217.903 165.417C217.903 165.417 217.903 165.426 217.913 165.417C218.799 165.308 219.664 165.151 220.528 164.964C219.477 164.335 218.434 163.686 217.441 162.959C215.707 161.691 213.992 159.596 211.841 159.135C211.732 159.115 211.636 159.232 211.656 159.33Z" fill="#1B1010"/>
<path d="M226.53 157.108C228.759 157.948 231.007 158.691 233.284 159.376C233.818 159.005 234.333 158.615 234.838 158.216C234.38 158.109 233.924 158.014 233.476 157.898C231.229 157.339 228.972 156.84 226.684 156.427C226.285 156.36 226.18 156.972 226.53 157.108Z" fill="#1B1010"/>
<path d="M238.572 145.588C239.877 146.508 241.969 146.99 244.079 146.985C244.427 146.315 244.748 145.643 245.048 144.953C244.863 144.973 244.678 144.993 244.494 145.013C242.559 145.172 240.593 144.788 238.678 145.084C238.436 145.122 238.378 145.452 238.572 145.588Z" fill="#1B1010"/>
<path d="M243.777 123.884C243.672 124.516 244.616 124.844 244.955 124.309C245.594 123.308 246.079 122.19 246.494 121.032C246.191 120.003 245.838 119.003 245.437 118.023C244.839 119.957 244.094 121.892 243.777 123.884Z" fill="#1B1010"/>
<path d="M221.009 97.1953L221.185 97.5152C222.073 99.2032 222.662 101.116 223.783 102.668C224.144 103.162 224.775 102.685 224.745 102.209C224.674 100.733 224.077 99.2485 223.432 97.8506C222.634 97.6093 221.826 97.3879 221.009 97.1953Z" fill="#1B1010"/>
<path d="M208.658 96.637C210.081 98.2364 211.67 99.7096 213.287 101.008C213.307 101.037 213.354 100.998 213.336 100.959C212.398 99.4263 211.344 97.9032 210.155 96.4688C209.65 96.5175 209.155 96.5673 208.658 96.637Z" fill="#1B1010"/>
<path d="M177.188 124.35H177.227C177.626 124.311 178.015 124.242 178.394 124.155C179.269 123.96 180.096 123.63 180.864 123.203C182.896 122.086 184.492 120.23 185.327 117.968C188.041 110.692 193.225 105.067 201.928 101.386C207.49 99.0447 213.617 99.2296 217.789 99.8029C219.841 100.085 221.884 99.648 223.595 98.6086C224.382 98.1515 225.472 97.598 225.753 96.9959C225.821 96.8598 225.851 96.7137 225.812 96.5687C225.627 95.8116 223.206 95.4219 222.797 95.3157H222.787C190.521 88.1454 178.044 113.819 177.188 124.35Z" fill="#77AFDC"/>
<path d="M177.188 124.351H177.227C177.625 124.312 178.014 124.243 178.393 124.156C179.133 116.171 186.436 101.619 199.585 97.3254C211.022 93.5953 222.225 96.0337 225.755 96.9956C225.823 96.8594 225.853 96.7133 225.814 96.5683C225.629 95.8112 223.208 95.4216 222.799 95.3153H222.789C190.521 88.1462 178.043 113.82 177.188 124.351Z" fill="#9FCCEA"/>
<path d="M180.863 123.202C182.895 122.085 184.491 120.228 185.326 117.966C188.04 110.691 193.224 105.066 201.927 101.384C207.49 99.0431 213.616 99.228 217.788 99.8013C219.841 100.084 221.883 99.6464 223.594 98.607C218.906 97.2954 208.675 95.2266 200.04 98.9368C189.412 103.512 183.509 112.137 180.863 123.202Z" fill="#3C86C6"/>
<path d="M114.05 141.21C114.05 141.21 123.658 143.619 133.947 145.921C144.966 148.37 156.772 150.701 158.358 149.778C162.247 147.524 178.683 111.747 179.977 108.521C181.261 105.296 170.135 101.43 170.135 101.43L167.713 107.074C167.713 107.074 170.776 108.365 172.391 109.327C172.118 110.96 160.653 133.924 157.055 141.102C156.423 142.355 155.032 143.035 153.64 142.772L135.62 139.256L116.19 135.467L114.05 141.21Z" fill="white"/>
<path d="M114.048 141.21C114.048 141.21 123.656 143.619 133.945 145.921C134.519 143.687 135.132 141.258 135.618 139.258L116.187 135.469L114.048 141.21Z" fill="#9FCCEA"/>
<path d="M57.8841 150.517C68.6593 150.494 77.3824 141.741 77.3591 130.967C77.3347 120.194 68.5729 111.481 57.7977 111.504C47.0125 111.528 38.2894 120.281 38.3127 131.054C38.337 141.827 47.0989 150.54 57.8841 150.517ZM23.1659 128.823C23.5693 122.188 25.8509 116.062 29.4766 110.955C29.9032 110.362 30.3398 109.788 30.8052 109.223C33.4436 105.953 36.656 103.177 40.3084 101.052C40.8613 100.73 41.4253 100.418 41.9982 100.126C45.4566 98.3503 49.2563 97.1372 53.271 96.6136C53.7663 96.545 54.2628 96.4952 54.7681 96.4454C55.7599 96.3557 56.7516 96.3148 57.7633 96.3126C60.4571 96.307 63.0833 96.6114 65.6131 97.1792H65.6231C66.4409 97.3718 67.2487 97.5932 68.0466 97.8345C78.0705 100.912 86.1686 108.383 90.0503 118.01C90.4514 118.991 90.8038 119.991 91.1074 121.019C92.0582 124.155 92.5713 127.485 92.579 130.934C92.5901 135.917 91.5496 140.65 89.6636 144.938C89.3633 145.629 89.0441 146.3 88.6951 146.97C86.429 151.327 83.2676 155.152 79.4523 158.191C78.947 158.59 78.4329 158.98 77.8988 159.351C74.1312 162.02 69.8085 163.953 65.1422 164.945C64.2768 165.132 63.4124 165.289 62.5271 165.398H62.5171C61.0101 165.605 59.4831 165.715 57.9184 165.719C52.6272 165.731 47.5975 164.556 43.0997 162.449C42.2431 162.043 41.4054 161.608 40.5976 161.143C36.6926 158.917 33.263 155.943 30.5027 152.432C29.8788 151.637 29.2838 150.812 28.7275 149.959C28.7275 149.949 28.7275 149.949 28.7275 149.949C25.3411 144.779 23.3055 138.673 23.105 132.078C23.095 131.748 23.0939 131.417 23.0939 131.087C23.0917 130.33 23.1194 129.572 23.1659 128.823Z" fill="#2C1511"/>
<path d="M57.7834 105.32C71.9916 105.289 83.5215 116.755 83.5536 130.948C83.5847 145.14 72.1058 156.667 57.8976 156.699C43.6894 156.73 32.1496 145.254 32.1174 131.062C32.0864 116.868 43.5753 105.351 57.7834 105.32ZM57.8832 150.51C68.6584 150.487 77.3815 141.734 77.3582 130.961C77.3338 120.188 68.572 111.475 57.7968 111.498C47.0115 111.521 38.2885 120.274 38.3118 131.047C38.3361 141.82 47.0979 150.534 57.8832 150.51Z" fill="#1B1010"/>
<path d="M40.3079 101.051C42.7225 102.348 45.1658 103.635 47.7256 104.541C47.8231 104.58 47.9394 104.444 47.8519 104.367C46.1554 102.661 44.1297 101.285 41.9977 100.125C41.4249 100.417 40.8619 100.729 40.3079 101.051Z" fill="#1B1010"/>
<path d="M29.4792 110.949C32.542 110.835 35.4785 110.314 38.5213 109.831C38.6765 109.811 38.6665 109.569 38.5114 109.559C35.904 109.39 33.3753 109.172 30.8078 109.217C30.3413 109.782 29.9058 110.356 29.4792 110.949Z" fill="#1B1010"/>
<path d="M23.0942 131.092C23.0953 131.422 23.0953 131.753 23.1052 132.083C24.1247 131.051 25.0555 129.864 25.9088 128.968C27.3548 127.449 29.8204 125.53 30.37 123.44C30.4276 123.197 30.2515 122.848 29.9412 122.936C27.725 123.601 25.9121 126.121 24.3208 127.727C23.9718 128.078 23.574 128.448 23.1662 128.827C23.1196 129.577 23.0919 130.335 23.0942 131.092Z" fill="#1B1010"/>
<path d="M28.7272 149.951C28.7272 149.951 28.7272 149.951 28.7272 149.961C29.2835 150.815 29.8785 151.639 30.5024 152.434C31.0398 149.043 31.3235 145.584 31.2393 142.407C31.2282 142.018 30.6442 141.806 30.519 142.243C29.8043 144.674 29.207 147.298 28.7272 149.951Z" fill="#1B1010"/>
<path d="M40.5975 161.144C41.4053 161.609 42.243 162.044 43.0996 162.45C42.8846 161.935 42.6885 161.43 42.5223 160.917C41.8275 158.733 41.5693 156.479 41.0197 154.266C40.8922 153.722 40.0844 153.733 40.0279 154.307C39.8274 156.152 40.008 158.716 40.5975 161.144Z" fill="#1B1010"/>
<path d="M56.2689 159.314C56.7986 161.499 59.3506 163.105 61.0648 164.365C61.5325 164.704 62.02 165.062 62.5165 165.401C62.5165 165.401 62.5165 165.411 62.5264 165.401C63.4118 165.292 64.2762 165.135 65.1416 164.948C64.09 164.319 63.0484 163.671 62.0544 162.944C60.3202 161.675 58.6049 159.58 56.454 159.119C56.3465 159.099 56.2501 159.217 56.2689 159.314Z" fill="#1B1010"/>
<path d="M71.1446 157.077C73.3742 157.917 75.6214 158.659 77.8986 159.344C78.4327 158.974 78.9469 158.584 79.4521 158.184C78.9945 158.078 78.538 157.983 78.0903 157.867C75.843 157.308 73.5858 156.809 71.2987 156.396C70.8998 156.328 70.7934 156.94 71.1446 157.077Z" fill="#1B1010"/>
<path d="M83.1893 145.573C84.4946 146.493 86.5867 146.974 88.6966 146.97C89.0456 146.299 89.3647 145.627 89.665 144.938C89.48 144.957 89.296 144.977 89.111 144.997C87.1762 145.157 85.2104 144.773 83.2956 145.068C83.0518 145.107 82.9942 145.437 83.1893 145.573Z" fill="#1B1010"/>
<path d="M88.3933 123.869C88.288 124.501 89.2321 124.828 89.5712 124.294C90.2106 123.292 90.6948 122.174 91.1104 121.016C90.8067 119.987 90.4544 118.987 90.0532 118.008C89.4538 119.942 88.7091 121.876 88.3933 123.869Z" fill="#1B1010"/>
<path d="M65.6237 97.1797L65.7999 97.4996C66.6886 99.1875 67.277 101.1 68.3984 102.652C68.7597 103.147 69.3902 102.67 69.3603 102.194C69.2894 100.717 68.6921 99.2329 68.0472 97.8349C67.2494 97.5936 66.4415 97.3723 65.6237 97.1797Z" fill="#1B1010"/>
<path d="M53.2723 96.6136C54.6962 98.213 56.2842 99.6862 57.902 100.985C57.9219 101.013 57.9696 100.975 57.9508 100.936C57.0133 99.4029 55.9595 97.8798 54.7705 96.4453C54.264 96.494 53.7676 96.5438 53.2723 96.6136Z" fill="#1B1010"/>
<path d="M57.8097 117.477C65.2939 117.46 71.373 123.506 71.3896 130.981C71.4062 138.457 65.3538 144.533 57.8696 144.549C50.3854 144.566 44.303 138.517 44.2864 131.041C44.2698 123.565 50.3256 117.493 57.8097 117.477Z" fill="#1B1010"/>
<path d="M189.822 61.4987C190.931 64.0434 192.711 67.2013 193.673 67.8223C195.258 68.8428 201.268 67.2777 202.64 66.1122C203.631 65.2765 201.658 58.9242 200.131 55.1741C199.528 53.6876 198.993 52.6095 198.74 52.4546C197.836 51.8912 189.531 57.3801 188.928 58.1759C188.694 58.4881 189.122 59.8672 189.822 61.4987Z" fill="#3F1B13"/>
<path d="M189.82 61.4987C194.055 58.9983 197.175 56.9562 200.129 55.1741C199.526 53.6876 198.991 52.6095 198.738 52.4546C197.834 51.8912 189.529 57.3801 188.926 58.1759C188.692 58.4881 189.12 59.8672 189.82 61.4987Z" fill="#2C1511"/>
<path d="M207.206 63.75C211.039 64.9808 217.609 74.0051 206.795 79.6103C206.385 72.637 206.523 67.4414 207.206 63.75Z" fill="white"/>
<path d="M190.813 71.4739C190.854 73.8227 191.77 76.312 193.66 77.8362C196.382 79.2131 199.749 80.1031 202.62 80.6631C204.295 80.9841 205.797 81.1988 206.91 81.3306C207.942 81.4545 208.85 80.6554 208.85 79.616V63.8498C208.85 62.8692 208.041 62.0778 207.059 62.1187C205.764 62.1685 204.279 62.3246 202.744 62.5803C198.982 63.2145 194.931 64.4597 192.695 66.3547C191.431 67.4272 190.78 69.3886 190.813 71.4739Z" fill="#77AFDC"/>
<path d="M201.138 64.6719C201.138 64.6719 195.389 64.7626 192.377 69.0473C200.225 66.9509 201.138 64.6719 201.138 64.6719Z" fill="#9FCCEA"/>
<path d="M190.813 71.4766C190.854 73.8253 191.77 76.3147 193.66 77.8388C196.382 79.2158 199.749 80.1057 202.62 80.6658C204.295 80.9867 205.797 81.2015 206.91 81.3332C207.942 81.4572 208.85 80.658 208.85 79.6187V74.0888C203.865 73.9903 196.332 73.4789 190.813 71.4766Z" fill="#3C86C6"/>
<path d="M202.62 80.6631C204.295 80.9841 205.797 81.1988 206.91 81.3306C207.942 81.4545 208.85 80.6554 208.85 79.616V63.8498C208.85 62.8692 208.041 62.0778 207.059 62.1187C205.764 62.1685 204.279 62.3246 202.744 62.5803L202.67 73.764L202.62 80.6631Z" fill="#3F1B13"/>
<path d="M202.62 80.6636C204.295 80.9846 205.797 81.1993 206.91 81.331C207.942 81.455 208.85 80.6559 208.85 79.6165V74.0866C207.051 74.0534 204.922 73.9626 202.67 73.7656L202.62 80.6636Z" fill="#2C1511"/>
<path d="M51.2224 69.0938C51.2224 69.0938 42.8329 72.4243 49.2866 78.0107C51.9748 74.0359 51.2224 69.0938 51.2224 69.0938Z" fill="#CE465D"/>
<path d="M59.5049 81.9844L58.4754 83.6491C57.7596 84.8069 56.441 85.4378 55.0857 85.2928C50.9381 84.8512 41.5225 84.8999 33.1075 92.4885C32.8183 92.7497 32.3883 92.7863 32.0681 92.5638C31.6215 92.255 31.5805 91.6152 31.9839 91.2521C34.0716 89.3705 40.1972 84.4195 47.5528 83.7033C50.1968 83.4454 52.4407 83.524 53.9588 83.6524C55.2841 83.7653 56.5529 83.1178 57.2466 81.9844H59.5049Z" fill="#1B1010"/>
<path d="M202.67 111.362C202.67 111.362 203.136 112.723 203.857 114.801C205.986 120.911 210.285 133.21 211.17 135.211C211.238 135.366 211.316 135.522 211.413 135.648C212.794 137.785 216.178 136.814 215.799 134.57C215.147 130.704 207.785 109.43 207.785 109.43L202.67 111.362Z" fill="white"/>
<path d="M202.67 111.362C202.67 111.362 203.136 112.723 203.857 114.801L206.54 113.723C206.54 113.723 212.463 130.596 213.425 133.812C214.028 135.803 212.647 135.872 211.413 135.648C212.794 137.785 216.178 136.814 215.799 134.57C215.147 130.704 207.785 109.43 207.785 109.43L202.67 111.362Z" fill="#9FCCEA"/>
<path d="M187.055 55.3177C187.055 55.3177 186.678 54.2429 186.086 54.1898C185.494 54.1356 182.537 55.0487 182.375 55.3719C182.213 55.694 182.375 56.8762 182.375 56.8762L187.055 55.3177Z" fill="#E49225"/>
<path d="M181.631 57.2063L188.004 73.3765L192.886 86.733L201.815 111.202L203.575 110.688L204.451 110.425L205.569 110.096L207.786 109.435L199.753 86.4995L195.095 73.2204L188.216 55.1951C188.08 54.8166 187.671 54.603 187.282 54.7192L184.889 55.4187L183.8 55.7397L182.399 56.1481L182.127 56.2256C181.71 56.3418 181.476 56.799 181.631 57.2063Z" fill="#F9D108"/>
<path d="M184.89 55.4176L191.945 73.2879L196.885 86.6356L205.569 110.096L207.786 109.435L199.753 86.4995L195.095 73.2204L188.216 55.1951C188.08 54.8166 187.671 54.603 187.282 54.7192L184.89 55.4176Z" fill="#F7BA16"/>
<path d="M208.911 107.602L200.522 110.717L201.275 113.295L209.772 110.179L208.911 107.602Z" fill="#FFE064"/>
<path d="M182.402 56.1428L203.577 110.684L204.452 110.421L183.803 55.7344L182.402 56.1428Z" fill="#FFE064"/>
<path d="M161.263 61.9318C160.973 60.2959 159.669 59.0263 158.024 58.7817L155.683 58.433C154.369 58.2371 153.046 58.7285 152.18 59.7347L151.582 60.4287L161.263 61.9318Z" fill="#1B1010"/>
<path d="M139.212 91.5254C137.598 91.2033 122.433 98.9381 122.433 101.195C122.433 103.451 133.727 120.695 133.727 120.695L147.118 110.865C147.118 110.865 140.825 91.8475 139.212 91.5254Z" fill="#1F1F21"/>
<path d="M108.881 103.394C108.881 103.394 92.3168 86.6339 68.6543 82.3359C92.9629 83.4107 99.8464 83.196 99.8464 83.196L108.881 103.394Z" fill="#1B1010"/>
<path d="M144.644 107.758C144.644 107.758 121.091 113.105 119.798 113.56C117.808 114.258 117.755 115.548 119.207 118.986C120.06 121.006 125.123 132.47 128.026 133.436C131.062 134.447 149.43 133.758 149.323 133.598C149.215 133.437 144.644 107.758 144.644 107.758Z" fill="#2F2E30"/>
<path d="M142.24 110.766L123.703 115.245C123.703 115.245 128.686 125.599 129.782 127.788C130.878 129.979 131.476 130.476 133.469 130.377C135.463 130.277 144.133 130.377 144.133 130.377L142.24 110.766Z" fill="#1F1F21"/>
<path d="M160.267 90.3133L162.364 85.317L157.848 84.9141L155.75 89.9912L160.267 90.3133Z" fill="#2F2E30"/>
<path d="M174.709 85.883L171.401 95.7131L167.609 95.1497L170.917 85.6406L174.709 85.883Z" fill="#2F2E30"/>
<path d="M173.096 97.1694L162.931 121.826L142.119 116.347L149.217 91.3672L173.096 97.1694Z" fill="#2F2E30"/>
<path d="M136.73 120.58C136.73 128.386 143.065 134.715 150.881 134.715C158.696 134.715 165.031 128.387 165.031 120.58C165.031 112.774 158.696 106.445 150.881 106.445C143.065 106.446 136.73 112.774 136.73 120.58Z" fill="#404041"/>
<path d="M142.238 121.064C142.238 125.564 145.89 129.214 150.397 129.214C154.903 129.214 158.556 125.566 158.556 121.064C158.556 116.562 154.902 112.914 150.397 112.914C145.891 112.914 142.238 116.562 142.238 121.064Z" fill="#2F2E30"/>
<path d="M140.179 84.4375C139.372 84.5991 116.462 113.607 116.462 113.607L119.689 117.796L146.955 84.598L140.179 84.4375Z" fill="#2F2E30"/>
<path d="M55.4865 134.734L57.4999 134.821L111.883 137.201L114.275 137.307L119.332 137.531L121.792 137.638L125.323 137.793L129.436 137.978L155.529 139.115C159.322 139.961 163.193 138.027 164.797 134.5L188.644 86.7359L185.667 85.5704L183.576 84.7546L160.489 129.896C159.633 131.576 157.872 132.615 155.986 132.558L132.005 131.848C130.235 131.79 128.631 130.789 127.814 129.226L105.971 87.6491L104.687 83.2969L100.758 83.3843L97.2667 83.4618L118.536 124.484L121.346 129.915L115.686 129.662L111.562 129.477L104.541 129.166L58.1039 127.088L56.0616 127L55.7314 131.44L55.4865 134.734Z" fill="#59585A"/>
<path d="M55.488 134.738L57.5014 134.826L111.884 137.207L114.277 137.313L119.333 137.536L121.794 137.644L120.597 134.846L55.7318 131.445L55.488 134.738Z" fill="#2F2E30"/>
<path d="M125.327 137.8L129.44 137.985L155.533 139.121C159.326 139.967 163.195 138.033 164.8 134.507L188.646 86.7422L185.671 85.5767C178.689 99.7977 163.761 130.126 162.282 132.457C160.348 135.517 158.247 135.682 155.834 135.682C153.413 135.682 131.356 135.847 127.223 133.749C124.344 130.815 105.77 93.493 100.761 83.3906L97.2696 83.4681L118.539 124.491L121.349 129.921L125.327 137.8Z" fill="#2F2E30"/>
<path d="M111.567 129.484L114.28 137.314L119.337 137.538L125.328 137.8L121.35 129.922L115.69 129.669L111.567 129.484Z" fill="#1F1F21"/>
<path d="M115.69 129.672L119.337 137.541L125.328 137.803L121.35 129.924L115.69 129.672Z" fill="#1B1010"/>
<path d="M135.664 86.1566C137.116 87.5534 135.623 90.4855 133.406 93.4619C130.824 96.9264 125.032 104.486 123.081 106.435C120.983 108.531 119.531 109.739 116.143 106.677C112.754 103.615 105.172 89.2724 105.172 87.6608C105.172 86.0492 106.616 84.4221 108.559 84.4376C118.482 84.5173 134.265 84.8095 135.664 86.1566Z" fill="#77AFDC"/>
<path d="M127.664 90.129C128.592 91.0554 127.582 92.1335 126.653 93.8358C125.641 95.6887 122.351 99.8173 121.339 100.406C120.328 100.996 119.4 102.344 117.628 100.743C115.858 99.1421 111.894 91.6443 111.894 90.8019C111.894 89.9596 112.653 89.2014 113.665 89.1173C114.676 89.0343 127.155 89.6209 127.664 90.129Z" fill="#3C86C6"/>
<path d="M124.369 76.536C123.029 73.19 70.232 68.0032 67.5637 68.3441C62.1085 69.0392 56.2256 80.8461 58.1614 81.3298C60.0973 81.8135 122.755 85.0777 124.046 83.9498C125.337 82.8219 124.691 77.3418 124.369 76.536Z" fill="#1B1010"/>
<path d="M54.2149 82.6149C55.1878 83.5767 67.899 83.7981 77.2547 83.963C85.1899 84.0892 157.136 86.8874 188.645 86.7512C190.152 86.7512 191.573 86.7412 192.886 86.7224C193.421 86.7125 193.926 86.7025 194.423 86.6936C194.861 86.6837 195.278 86.6737 195.677 86.6649C196.096 86.6549 196.494 86.6361 196.884 86.6261C197.963 86.5874 198.926 86.5487 199.753 86.49L195.094 73.2109C194.083 73.2309 193.023 73.2497 191.943 73.2785C191.544 73.2884 191.145 73.2984 190.737 73.3072C190.271 73.3172 189.804 73.3272 189.328 73.336C188.89 73.346 188.452 73.3559 188.005 73.3648C186.692 73.3936 185.37 73.4323 184.057 73.4722C174.642 73.7345 165.646 74.0743 165.19 74.4528C164.577 74.9576 159.666 78.183 156.087 80.524C153.617 82.1267 150.709 82.9325 147.763 82.8163L56.2394 79.457C54.9562 79.4061 53.8094 80.4199 53.8614 81.7017C53.8747 82.0492 53.9745 82.3725 54.2149 82.6149Z" fill="#3F1B13"/>
<path d="M184.055 73.4734L188.645 86.7525C190.152 86.7525 191.573 86.7425 192.886 86.7237L188.003 73.3672C186.69 73.3949 185.368 73.4347 184.055 73.4734Z" fill="#2C1511"/>
<path d="M120.57 80.9842C121.134 82.2859 122.437 83.2378 124.003 83.2577L157.01 83.7337L176.986 84.0248C178.454 84.0447 179.796 83.219 180.438 81.8974C181.692 79.2841 183.598 74.8256 183.763 71.3966C183.822 70.1237 183.637 68.9969 183.093 68.1612C180.35 63.9651 147.44 57.8452 142.918 58.972C140.837 59.4867 136.976 61.789 133.165 64.4897C128.701 67.6365 124.305 71.3191 122.915 73.3203C121.758 74.9817 120.911 76.808 120.415 78.4783C120.152 79.3527 120.24 80.2271 120.57 80.9842Z" fill="#77AFDC"/>
<path d="M135.904 63.8047C135.904 63.8047 158.33 72.9098 160.831 75.408C162.284 76.8602 162.202 80.8072 158.976 81.9351C157.281 82.338 149.618 82.6601 149.618 82.6601C149.618 82.6601 158.976 81.8543 159.621 79.3561C160.265 76.8579 159.54 76.3753 157.685 75.1655C155.83 73.958 135.904 63.8047 135.904 63.8047Z" fill="#9FCCEA"/>
<path d="M120.57 80.9867C128.817 81.0553 149.396 81.2003 152.226 80.9479C155.776 80.627 157.069 79.2279 156.31 76.6544C155.756 74.7506 140.905 67.9312 133.165 64.4922C128.702 67.639 124.306 71.3215 122.915 73.3228C121.758 74.9842 120.912 76.8105 120.415 78.4807C120.153 79.3552 120.24 80.2296 120.57 80.9867Z" fill="#3C86C6"/>
<path d="M56.7147 135.663L57.3707 135.692L58.1064 126.255L57.3075 126.22C56.3634 126.18 55.5589 126.896 55.4891 127.836L55.047 133.79C54.9738 134.771 55.7285 135.62 56.7147 135.663Z" fill="white"/>
<path d="M174.278 93.5272L149.776 89.1562C149.074 89.0311 148.383 89.4174 148.122 90.0804L147.234 92.3407C147.005 92.9195 147.36 93.5637 147.972 93.6822L173.982 98.7306C174.549 98.8402 175.09 98.4483 175.162 97.8761L175.499 95.182C175.597 94.3939 175.061 93.6667 174.278 93.5272Z" fill="#2F2E30"/>
<path d="M171.234 100.943L147.878 96.1105C147.454 96.023 147.038 96.2865 146.936 96.706L146.747 97.4852C146.641 97.9246 146.92 98.3652 147.363 98.457L170.72 103.29C171.143 103.377 171.56 103.114 171.662 102.694L171.85 101.915C171.957 101.475 171.678 101.035 171.234 100.943Z" fill="#404041"/>
<path d="M169.275 105.777C165.684 104.937 150.326 101.411 146.683 100.575C146.252 100.477 145.826 100.745 145.727 101.176L145.604 101.708C145.504 102.14 145.775 102.571 146.208 102.669L168.822 107.79C169.262 107.889 169.696 107.607 169.785 107.165L169.876 106.713C169.96 106.29 169.696 105.876 169.275 105.777Z" fill="#404041"/>
<path d="M168.056 110.428L145.224 104.689C144.799 104.581 144.365 104.837 144.253 105.261C144.141 105.685 144.392 106.12 144.815 106.236L167.527 112.492C167.967 112.613 168.418 112.344 168.521 111.9L168.641 111.383C168.738 110.959 168.479 110.534 168.056 110.428Z" fill="#404041"/>
<path d="M161.477 92.8129L162.283 90.1531L154.377 88.7031L153.813 90.9589L161.477 92.8129Z" fill="#2F2E30"/>
<path d="M155.025 108.449C151.292 107.039 147.173 107.455 144.807 109.202C146.42 112.022 146.635 112.318 146.635 112.318C146.635 112.318 149.54 110.787 153.815 112.399C158.09 114.01 159.3 118.28 159.3 118.28L162.688 117.394C162.688 117.394 161.639 110.947 155.025 108.449Z" fill="#59585A"/>
<path d="M124.522 138.078C125.359 138.118 125.862 137.166 125.354 136.501C122.113 132.261 113.729 121.435 112.432 121.176C110.819 120.854 109.931 121.901 110.093 123.11C110.195 123.871 112.696 129.458 114.535 133.49C115.711 136.072 118.233 137.778 121.071 137.913L124.522 138.078Z" fill="#404041"/>
<path d="M111.735 122.355C112.139 122.112 122.598 135.515 123.003 136.08C123.565 136.867 118.485 135.758 117.275 134.388C116.065 133.018 111.013 122.788 111.735 122.355Z" fill="#2F2E30"/>
<path d="M111.556 125.544C111.556 126.728 112.516 127.689 113.703 127.689C114.889 127.689 115.851 126.728 115.851 125.544C115.851 124.359 114.89 123.398 113.703 123.398C112.516 123.398 111.556 124.359 111.556 125.544Z" fill="#59585A"/>
<path d="M112.614 125.542C112.614 126.143 113.102 126.631 113.705 126.631C114.307 126.631 114.795 126.143 114.795 125.542C114.795 124.941 114.307 124.453 113.705 124.453C113.102 124.453 112.614 124.94 112.614 125.542Z" fill="#2F2E30"/>
<path d="M124.212 86.2656C124.212 86.2656 132.871 86.373 133.57 87.1788C134.269 87.9846 134 89.2198 133.57 90.0799C133.14 90.9388 124.051 101.039 124.051 101.039C124.051 101.039 131.365 90.6178 131.473 89.3815C131.58 88.1451 124.212 86.2656 124.212 86.2656Z" fill="#9FCCEA"/>
<path d="M51.2218 69.0938C51.2218 69.0938 57.8727 72.2716 57.568 74.4654C57.0305 78.3328 49.286 78.0107 49.286 78.0107L51.2218 69.0938Z" fill="#1B1010"/>
<path d="M70.8388 109.93C70.6926 110.131 66.0817 117.952 64.4683 120.746C63.6483 122.165 66.7432 124.24 67.9644 122.68C68.8852 121.503 74.6973 112.245 74.6973 112.245L70.8388 109.93Z" fill="#59585A"/>
<path d="M88.5967 85.3459C90.0916 86.0787 89.6217 87.7191 88.7375 88.526C87.9319 89.2598 87.1562 90.0158 86.5645 90.9301C85.1228 93.1604 82.993 96.3272 82.993 96.3272L81.0151 95.4206L84.6663 89.3893C85.166 88.5647 85.5483 87.6759 85.7899 86.7417C86.0558 85.719 86.7562 84.4438 88.5967 85.3459Z" fill="#59585A"/>
<path d="M82.1335 89.8828L66.8206 115.222L72.0054 117.978L87.3184 92.6389L82.1335 89.8828Z" fill="#1B1010"/>
<path d="M87.7175 92.2078L82.0107 89.2658C81.603 89.0566 81.1087 89.2425 80.9303 89.6742L80.8993 89.7494C80.7331 90.1501 80.9015 90.615 81.2816 90.8043L87.0194 93.67C87.4028 93.8615 87.866 93.7054 88.0643 93.3158C88.2704 92.9129 88.1142 92.4126 87.7175 92.2078Z" fill="#59585A"/>
<path d="M86.1637 95.1165L80.4769 92.1357C80.0713 91.9232 79.5749 92.1058 79.3932 92.5364L79.361 92.6116C79.1915 93.0112 79.3577 93.4772 79.7367 93.6698L85.4556 96.5764C85.8379 96.7712 86.3022 96.6174 86.5028 96.23C86.7122 95.8249 86.5593 95.3235 86.1637 95.1165Z" fill="#59585A"/>
<path d="M84.362 98.2776L78.6996 95.2481C78.2951 95.0323 77.7987 95.2105 77.6125 95.6399L77.5804 95.7152C77.4075 96.1126 77.5693 96.5808 77.9472 96.7767L83.6429 99.7309C84.0241 99.929 84.4884 99.7796 84.6934 99.3933C84.9039 98.9904 84.7554 98.4879 84.362 98.2776Z" fill="#59585A"/>
<path d="M82.3962 101.7L76.8212 98.5015C76.4234 98.2735 75.9214 98.4373 75.7242 98.8601L75.6899 98.9343C75.5059 99.3272 75.6544 99.7987 76.0267 100.006L81.636 103.132C82.0116 103.341 82.4804 103.206 82.6953 102.826C82.9181 102.43 82.7829 101.923 82.3962 101.7Z" fill="#59585A"/>
<path d="M80.3112 104.778L74.7363 101.58C74.3385 101.352 73.8365 101.515 73.6393 101.938L73.6049 102.012C73.421 102.405 73.5694 102.877 73.9418 103.084L79.551 106.21C79.9267 106.419 80.3954 106.284 80.6104 105.904C80.8331 105.508 80.6979 105.001 80.3112 104.778Z" fill="#59585A"/>
<path d="M78.4085 108.075L72.8347 104.876C72.4369 104.648 71.9349 104.812 71.7377 105.235L71.7033 105.309C71.5194 105.702 71.6679 106.174 72.0402 106.381L77.6495 109.507C78.0251 109.716 78.4938 109.581 78.7088 109.2C78.9304 108.805 78.7952 108.298 78.4085 108.075Z" fill="#59585A"/>
<path d="M76.4717 111.005L70.898 107.806C70.5001 107.578 69.9982 107.742 69.8009 108.165L69.7666 108.239C69.5826 108.632 69.7311 109.103 70.1034 109.31L75.7127 112.436C76.0883 112.645 76.5571 112.51 76.772 112.131C76.9937 111.734 76.8596 111.227 76.4717 111.005Z" fill="#59585A"/>
<path d="M74.4337 114.091L68.8599 110.892C68.4621 110.664 67.9601 110.828 67.7628 111.251L67.7285 111.325C67.5445 111.718 67.693 112.189 68.0653 112.396L73.6746 115.522C74.0503 115.731 74.519 115.596 74.7339 115.216C74.9556 114.82 74.8215 114.313 74.4337 114.091Z" fill="#59585A"/>
<path d="M72.6157 117.589L67.0885 114.305C66.694 114.07 66.1898 114.226 65.986 114.646L65.9505 114.719C65.761 115.108 65.9028 115.582 66.2718 115.796L71.8345 119.007C72.2069 119.221 72.6767 119.093 72.8983 118.717C73.1266 118.326 72.9991 117.817 72.6157 117.589Z" fill="#59585A"/>
<path d="M75.2181 134.708L127.023 146.53C128.288 146.821 129.542 146.054 129.892 144.82C129.912 144.782 129.921 144.733 129.931 144.684L131.205 138.827C131.478 137.592 130.739 136.349 129.513 136L79.0986 121.399C77.3578 120.894 75.5294 121.865 74.9754 123.585L73.0306 129.646L72.778 130.433C72.1741 132.298 73.3032 134.271 75.2181 134.708Z" fill="white"/>
<path d="M75.2181 134.708L79.0986 121.399C77.3578 120.894 75.5294 121.865 74.9754 123.585L72.778 130.433C72.1741 132.298 73.3032 134.271 75.2181 134.708Z" fill="#9FCCEA"/>
<path d="M75.2185 134.71L127.024 146.533C128.288 146.824 129.542 146.057 129.893 144.822L73.0299 129.648L72.7773 130.435C72.1745 132.3 73.3037 134.273 75.2185 134.71Z" fill="#9FCCEA"/>
<path d="M145.124 28.4866C145.124 28.4866 138.832 26.6337 138.025 27.0366C137.219 27.4395 133.427 29.6953 133.427 29.6953L129.152 22.846C129.152 22.846 131.975 20.1873 132.217 20.0257C132.459 19.8641 145.124 28.4866 145.124 28.4866Z" fill="#EA7D3B"/>
<path d="M154.069 11.6769C154.595 12.7085 154.778 13.8519 154.602 14.9211C154.042 18.3192 152.551 26.51 150.96 27.9102C148.943 29.6845 141.681 25.7806 139.433 23.1186C137.185 20.4566 137.27 10.3974 142.549 8.21021C146.191 6.70155 151.467 6.57205 154.069 11.6769Z" fill="#F6AA7D"/>
<path d="M155.293 12.9832C155.293 12.9832 155.35 14.7885 152.797 14.8162C150.244 14.8449 149.097 14.6446 149.097 14.5583C149.097 14.4719 150.36 14.0712 150.36 14.0712C150.36 14.0712 145.397 13.8997 144.939 13.6418C144.48 13.3839 145.856 12.8969 145.856 12.8969C145.856 12.8969 140.292 13.6706 139.89 13.2975C139.489 12.9256 143.991 8.71402 145.885 8.39856C147.778 8.08421 155.121 9.05825 155.293 12.9832Z" fill="#EA7D3B"/>
<path d="M144.54 19.8984C144.54 19.8984 145.272 22.0679 147.088 23.7271C145.78 23.6164 145.514 23.4836 145.514 23.4836C145.514 23.4836 144.385 21.5587 144.54 19.8984Z" fill="#EA7D3B"/>
<path d="M124.585 24.0147L131.354 33.7097C131.354 33.7097 134.359 31.5237 136.022 30.4843C134.467 28.2894 131.101 23.5487 129.682 21.625C127.25 22.7806 124.585 24.0147 124.585 24.0147Z" fill="#2C1511"/>
<path d="M126.908 19.2546C127.079 19.393 127.912 19.9265 129.173 20.7057C134.729 24.1314 148.672 32.403 151.632 33.3738C152.454 32.9144 153.886 27.9523 154.571 25.4331C154.785 24.6749 154.293 23.8957 153.503 23.7684C150.511 23.288 143.822 21.9863 142.455 20.0117C141.14 18.1012 141.087 15.9672 141.375 14.2803C141.686 12.5304 143.395 11.3992 145.125 11.8364C146.953 12.2957 149.784 13.0318 153.834 14.0889C154.539 14.2704 155.287 14.463 156.067 14.6655C156.483 14.7729 156.879 14.4419 156.847 14.0147C156.601 10.5037 153.983 -0.158703 140.682 0.00179241C125.968 0.182211 126.546 16.0203 126.908 19.2546Z" fill="#404041"/>
<path d="M129.175 20.7034C134.731 24.1291 148.674 32.4007 151.634 33.3714C152.456 32.9121 153.888 27.95 154.573 25.4308C154.787 24.6726 154.295 23.8933 153.505 23.7661C150.513 23.2857 143.824 21.984 142.457 20.0094C141.143 18.0989 141.089 15.9649 141.378 14.278C141.688 12.5281 143.398 11.3968 145.127 11.8341C146.955 12.2934 149.786 13.0295 153.836 14.0865C153.751 11.7599 152.757 7.82167 147.82 4.33173C144.188 1.77044 138.514 2.30395 138.514 2.30395C138.514 2.30395 139.486 5.6655 136.655 7.78957C133.824 9.91365 130.447 9.02705 130.447 9.02705C130.447 9.02705 128.149 14.6732 129.175 20.7034Z" fill="#2F2E30"/>
<path d="M136.83 2.65625C136.83 2.65625 131.601 3.71884 130.892 8.14519C133.906 7.96809 137.362 6.02001 136.83 2.65625Z" fill="#515252"/>
<path d="M147.3 16.3359C147.868 16.3359 148.297 16.9547 148.248 17.4815C148.191 18.0903 147.671 18.429 147.101 18.429C146.533 18.429 146.104 17.8103 146.154 17.2834C146.209 16.6746 146.729 16.3359 147.3 16.3359Z" fill="#3F1B13"/>
<path d="M151.892 18.2031C152.945 18.2031 152.786 19.8324 151.738 19.8324C150.686 19.8324 150.844 18.2031 151.892 18.2031Z" fill="#3F1B13"/>
<path d="M148.972 16.4405C148.972 16.4405 148.174 15.5849 147.553 15.3779C146.933 15.1709 145.752 15.2594 145.752 15.2594C145.752 15.2594 146.882 13.9854 147.967 14.551C148.646 14.9063 148.972 16.4405 148.972 16.4405Z" fill="#3F1B13"/>
<path d="M154.252 17.0552C154.252 17.0552 153.721 16.8416 153.101 16.6357C152.48 16.4287 151.299 16.5172 151.299 16.5172C151.299 16.5172 152.429 15.2432 153.515 15.8088C154.194 16.163 154.252 17.0552 154.252 17.0552Z" fill="#3F1B13"/>
<path d="M151.779 16.1094C151.779 16.1094 150.412 16.6185 149.948 17.9689C149.216 20.093 150.228 21.761 150.258 21.6426C150.288 21.5242 149.748 18.5445 151.779 16.1094Z" fill="#EA7D3B"/>
<path d="M149.503 21.7175C149.503 21.7175 149.435 21.7119 149.358 21.65C148.971 21.3411 148.129 20.8763 147.907 21.2083C147.776 21.4042 148.284 21.8724 149.503 21.7175Z" fill="#EA7D3B"/>
<path d="M145.369 19.9774C145.369 19.9774 145.089 19.5701 144.426 19.7018C143.763 19.8335 143.476 20.0062 143.476 20.0062C143.476 20.0062 143.648 19.3764 144.309 19.1749C144.968 18.9746 145.369 19.9774 145.369 19.9774Z" fill="#EA7D3B"/>
<path d="M153.004 26.0726C152.547 25.7626 149.149 24.8772 148.972 25.1428C148.794 25.4084 152.183 26.8695 152.738 26.8695C153.314 26.8695 153.401 26.3415 153.004 26.0726Z" fill="#181818"/>
<path d="M152.158 28.0101C151.7 27.7001 148.302 26.8147 148.125 27.0803C147.948 27.3459 151.336 28.807 151.892 28.807C152.468 28.807 152.554 28.279 152.158 28.0101Z" fill="#181818"/>
<path d="M149.163 28.5858C148.746 28.3036 145.653 27.4978 145.493 27.7402C145.331 27.9815 148.416 29.3119 148.921 29.3119C149.445 29.3108 149.524 28.8293 149.163 28.5858Z" fill="#181818"/>
<path d="M132.346 40.1988L121.779 62.8419L94.5126 56.4764L116.454 28.2734L132.346 40.1988Z" fill="#2C1511"/>
<path d="M92.8135 63.4538C92.921 65.931 93.475 68.282 94.438 69.5837C95.7223 71.3126 98.1435 72.6829 101.1 73.9934C103.755 75.1789 106.867 76.3056 109.93 77.5974C116.387 80.3169 131.014 86.1944 131.014 86.1944L118.965 100.377L122.544 103.737L124.129 105.234L128.718 109.547C128.718 109.547 145.203 91.0613 146.924 86.9127C148.644 82.7554 147.498 78.5969 145.922 76.5956C145.027 75.4689 131.646 67.1829 118.701 60.9756C116.075 59.7126 113.469 58.5371 110.989 57.5266C110.113 57.1668 109.248 56.827 108.402 56.506C102.557 54.3299 97.7047 53.2906 95.4486 54.5336C93.864 55.408 93.0074 58.2449 92.8324 61.3043C92.7936 62.016 92.7847 62.7443 92.8135 63.4538Z" fill="#404041"/>
<path d="M92.8144 63.4534L112.234 71.4416L118.703 60.9762C108.696 56.168 98.9511 52.6028 95.4506 54.5353C93.866 55.4098 93.0094 58.2467 92.8343 61.306C92.7944 62.0155 92.7856 62.7439 92.8144 63.4534Z" fill="#2F2E30"/>
<path d="M94.4367 69.5807C95.721 71.3096 98.1422 72.6799 101.099 73.9905L99.2181 65.109C98.9511 63.8483 98.0137 62.8344 96.7759 62.4691L92.8321 61.3047C92.6371 64.4803 93.1911 67.8994 94.4367 69.5807Z" fill="#2F2E30"/>
<path d="M137.385 83.3574L122.544 103.737L124.128 105.234L139.562 83.3375C140.106 82.5605 139.882 81.4725 139.066 80.9777L107.575 61.9385C107.575 61.9385 109.501 59.4027 110.988 57.5288C111.835 56.4695 112.544 55.615 112.7 55.5375L112.379 51.5938L108.401 56.5093L104.365 61.5124L136.886 80.9699C137.725 81.4636 137.949 82.5716 137.385 83.3574Z" fill="#2F2E30"/>
<path d="M130.731 46.6168C130.731 46.6168 131.897 47.9771 133.561 49.8123C136.546 53.0952 141.108 57.9046 143.315 59.079C146.758 60.9053 169.991 60.5843 169.991 60.5843L170.341 59.9135L172.354 56.076L147.73 49.198L144.92 45.6615L141.915 41.8927C141.915 41.8927 138.365 39.6192 133.591 43.5729C132.675 44.3433 131.712 45.3339 130.731 46.6168Z" fill="#F6AA7D"/>
<path d="M130.733 46.6188C130.733 46.6188 131.899 47.9791 133.563 49.8143L144.922 45.6669L141.917 41.898C141.917 41.898 136.869 38.6726 130.733 46.6188Z" fill="#EA7D3B"/>
<path d="M130.733 46.6209C130.733 46.6209 131.9 47.9812 133.563 49.8164C136.549 53.0994 141.111 57.9087 143.318 59.0831C146.761 60.9094 169.994 60.5884 169.994 60.5884L170.344 59.9177C165.569 59.4805 147.898 58.0814 144.582 56.2938C142.424 55.1382 137.493 48.8435 133.593 43.5781C132.678 44.3474 131.715 45.338 130.733 46.6209Z" fill="#EA7D3B"/>
<path d="M137.349 34.0703C137.349 34.0703 138.761 36.5685 138.277 38.0185C136.946 36.2055 137.349 34.0703 137.349 34.0703Z" fill="#AF304D"/>
<path d="M85.7246 53.4158L90.1493 55.893L108.336 66.054L111.535 67.8416L113.052 65.3057L121.056 51.968L137.345 34.0744C137.345 34.0744 136.995 33.7535 136.412 33.21C135.858 32.7053 135.089 32.0057 134.194 31.1988C131.462 28.7216 127.581 25.2638 125.344 23.4663C124.469 22.7866 123.847 22.3395 123.632 22.3107C122.679 22.1845 114.793 24.0396 107.595 28.8002C107.07 29.14 106.545 29.4998 106.03 29.8883C105.232 30.4616 104.454 31.0826 103.705 31.7434C97.6556 37.0375 90.3332 46.9163 87.2305 51.2685C86.2786 52.6 85.7246 53.4158 85.7246 53.4158Z" fill="#77AFDC"/>
<path d="M85.7262 53.4147L90.1509 55.8919C93.6814 49.6746 101.238 37.3762 109.038 30.9365C119.764 22.0672 125.347 23.4663 125.347 23.4663C124.471 22.7866 123.85 22.3395 123.635 22.3107C122.682 22.1845 114.795 24.0396 107.598 28.8002C107.073 29.14 106.548 29.4998 106.032 29.8883C105.235 30.4616 104.457 31.0826 103.708 31.7434C97.6583 37.0375 90.3359 46.9163 87.2332 51.2685C86.2803 52.5989 85.7262 53.4147 85.7262 53.4147Z" fill="#9FCCEA"/>
<path d="M108.577 42.8585C110.833 45.4419 124.497 39.0995 124.497 39.0995C130.333 36.9046 133.434 33.9604 134.193 31.2021C131.461 28.7249 127.58 25.2671 125.343 23.4695C119.002 23.1485 114.977 27.6269 113.303 29.648C111.369 32.0079 106.321 40.2839 108.577 42.8585Z" fill="#3C86C6"/>
<path d="M124.71 36.9568C124.71 36.9568 112.771 43.1885 110.404 41.1474C108.039 39.1064 115.89 26.9652 121.698 25.4621C127.507 23.9567 131.595 31.8 124.71 36.9568Z" fill="#2C1511"/>
<path d="M108.336 66.0538L111.535 67.8414L121.056 51.969L137.345 34.0754C137.345 34.0754 136.995 33.7544 136.412 33.2109C131.957 37.3683 121.129 48.2012 119.602 49.6291C117.504 51.5628 110.319 62.7122 108.336 66.0538Z" fill="#3C86C6"/>
<path d="M128.884 49.8328C128.884 49.8328 142.042 42.605 142.48 42.8673C143.54 44.0141 143.803 44.3727 143.803 44.3727C143.803 44.3727 145.212 41.9929 144.863 41.4583C144.513 40.9337 140.449 38.9911 140.449 38.9911C140.449 38.9911 140.984 37.5821 140.536 37.0486C140.469 36.9711 140.186 36.6888 139.728 36.2616C137.151 33.8519 129.245 26.7802 126.765 25.7607C123.322 24.3517 119.656 25.0955 118.644 28.5002C117.613 31.9736 128.884 49.8328 128.884 49.8328Z" fill="#3F1B13"/>
<path d="M140.446 38.9918C140.446 38.9918 140.981 37.5827 140.533 37.0492C140.466 36.9717 140.183 36.6895 139.726 36.2622C135.535 35.7475 126.617 34.7757 126.053 34.9606C125.323 35.203 140.087 38.7494 140.446 38.9918Z" fill="#2C1511"/>
<path d="M170.448 66.7823C170.726 67.018 171.07 67.1354 171.421 67.1265C171.731 67.1188 172.05 67.0025 172.306 66.7823C173.685 65.5802 181.531 59.1825 181.873 58.8815C182.349 58.4708 181.463 56.028 179.914 57.0408C178.987 57.6484 171.872 63.6166 170.563 64.5254C169.788 65.06 169.731 66.179 170.448 66.7823Z" fill="#2C1511"/>
<path d="M167.487 60.8738C167.487 60.8738 170.144 62.3736 171.747 62.709C172.508 62.8783 173.452 62.8329 174.237 62.7433C175.06 62.6514 175.912 62.8584 176.543 63.3786C176.868 63.6487 177.242 63.8369 177.606 63.7184C178.484 63.4173 178.319 62.4267 178.319 62.4267C178.319 62.4267 178.601 62.5883 178.968 62.5385C179.117 62.5241 179.285 62.471 179.441 62.347C179.93 61.9862 179.573 61.3099 179.49 61.1627C179.51 61.1815 179.531 61.2213 179.552 61.2501C179.954 61.7759 181.625 63.9796 181.829 64.1722C181.972 64.3073 182.362 64.367 182.679 64.2984C182.868 64.2641 183.034 64.18 183.1 64.0283C183.249 63.6365 181.952 61.2844 181.83 60.8007C181.709 60.3369 179.564 57.9074 179.297 57.6063L181.947 59.157C181.947 59.157 183.453 61.5235 183.792 61.912C183.936 62.0769 184.236 62.1588 184.503 62.0725C184.632 62.0393 184.749 61.9662 184.846 61.8345C185.259 61.2667 183.69 58.0369 183.126 57.396C182.561 56.7452 180.305 55.3428 180.305 55.3428C180.305 55.3428 179.547 54.6709 179.017 54.4097C178.754 54.278 177.92 54.3809 177.18 54.61C176.785 54.7395 173.537 55.4025 173.537 55.4025C173.537 55.4025 173.497 55.4036 173.408 55.4059C173.188 55.4014 172.681 55.3848 171.933 55.3549C171.314 55.3317 170.538 55.2919 169.62 55.2376C168.99 55.4933 168.406 57.1293 168.026 58.5305C167.703 59.6441 167.487 60.8738 167.487 60.8738Z" fill="#3F1B13"/>
<path d="M172.303 58.9538C172.658 59.6102 173.535 59.6367 174.572 59.3412C175.382 59.101 176.653 55.9653 177.174 54.6094C176.779 54.7389 173.531 55.4019 173.531 55.4019C173.531 55.4019 172.104 58.5808 172.303 58.9538Z" fill="#F6AA7D"/>
<path d="M176.119 55.8701C175.886 55.6078 173.669 56.1203 173.551 56.3095C173.432 56.4988 175.657 56.3361 175.779 56.2918C175.902 56.2475 176.353 56.1324 176.119 55.8701Z" fill="#EA7D3B"/>
<path d="M178.44 56.5547C178.532 56.6621 179.262 57.5077 179.263 57.5774C179.263 57.5774 179.273 57.5874 179.283 57.5962L181.943 59.1569C181.943 59.1569 183.449 61.5234 183.788 61.9119C183.932 62.0768 184.232 62.1587 184.499 62.0724C183.632 60.9323 182.662 59.0108 182.344 58.6522C181.954 58.215 178.652 56.6388 178.44 56.5547Z" fill="#2C1511"/>
<path d="M177.546 58.468C177.598 58.5665 179.489 61.161 179.489 61.161C179.509 61.1799 179.53 61.2197 179.551 61.2485C179.953 61.7742 181.624 63.978 181.828 64.1706C181.971 64.3056 182.361 64.3654 182.678 64.2968C181.464 62.8479 178.11 58.7005 178.11 58.7005L177.712 57.5781C177.712 57.5781 177.504 58.3706 177.546 58.468Z" fill="#2C1511"/>
<path d="M176.167 60.1484C176.167 60.1484 176.167 60.1484 176.665 60.5524C177.654 61.4014 178.206 62.3212 178.317 62.4275C178.317 62.4275 178.6 62.5891 178.967 62.5393C178.319 61.3837 176.771 60.0223 176.771 60.0223L176.474 59.3438L176.167 60.1484Z" fill="#2C1511"/>
<path d="M168.546 60.4079C169.042 60.4821 170.105 60.1987 170.454 58.7089C170.713 57.6186 171.52 56.1155 171.928 55.3595C171.309 55.3363 170.533 55.2964 169.615 55.2422C168.985 55.4979 168.401 57.1338 168.021 58.5351C167.944 59.7792 168.076 60.3382 168.546 60.4079Z" fill="#2C1511"/>
<path d="M170.448 66.7777C170.726 67.0135 171.07 67.1308 171.421 67.1219C171.731 67.1142 172.05 66.998 172.306 66.7777C172.931 66.149 172.756 65.3864 172.551 65.0123C172.356 64.6481 171.364 63.8965 170.563 64.5208C169.788 65.0554 169.731 66.1745 170.448 66.7777Z" fill="#1B1010"/>
<path d="M175.857 68.1802C175.952 68.489 176.094 68.7082 176.271 68.7624C177.007 68.986 177.763 68.5189 177.745 67.8393C177.727 67.1497 176.914 66.9671 176.914 66.9671C176.895 66.2587 177.208 65.5791 177.75 65.1275L183.044 60.7609L182.611 60.2086L182.177 59.6562L176.915 64.46C175.891 65.3998 175.423 66.8608 175.857 68.1802Z" fill="white"/>
<path d="M176.485 66.9318L176.914 66.9694C176.895 66.2611 177.208 65.5814 177.75 65.1298L183.044 60.7633L182.611 60.2109C181.422 61.2237 178.862 63.4098 177.808 64.3705C176.421 65.6412 176.485 66.9318 176.485 66.9318Z" fill="#FFF7D9"/>
<path d="M146.734 49.3984C146.734 49.3984 143.993 50.4931 144.307 51.3543C144.619 52.2154 146.342 49.6331 146.734 49.3984Z" fill="#EA7D3B"/>
<path d="M85.7227 53.4129L108.334 66.0511L111.533 67.8387L113.05 65.3029C108.1 62.6708 93.2301 54.5497 87.2297 51.2656C86.2767 52.5972 85.7227 53.4129 85.7227 53.4129Z" fill="#3C86C6"/>
<path d="M108.952 41.4922C108.71 41.573 96.4476 57.9302 96.4476 57.9302C96.4476 57.9302 98.8677 59.5418 98.8677 59.3005C98.8677 59.0592 110.322 42.4596 110.322 42.4596L108.952 41.4922Z" fill="#3C86C6"/>
<path d="M106.029 29.8849L112.983 31.4976L113.712 30.3708C113.557 30.2159 110.026 29.3702 107.595 28.7969C107.07 29.1367 106.545 29.4964 106.029 29.8849Z" fill="#3C86C6"/>
<path d="M105.426 114.224C106.584 115.554 108.13 117.342 109.832 119.314C112.506 122.393 115.55 125.92 118.07 128.824C118.518 129.349 118.955 129.854 119.373 130.33C120.656 131.826 121.727 133.059 122.407 133.846C122.884 134.4 123.729 134.439 124.254 133.934C124.497 133.7 124.751 133.419 124.993 133.108C125.714 132.223 126.384 131.029 126.462 129.64C126.617 126.58 122.912 117.313 122.912 117.313L129.905 109.104C130.147 108.822 130.128 108.415 129.856 108.162L127.482 105.89L126.13 104.588L120.246 98.9246C119.974 98.6622 119.556 98.6622 119.283 98.9146C118.982 99.2057 118.554 99.633 118.019 100.139C117.756 100.401 117.475 100.683 117.163 100.984C115.53 102.568 113.342 104.705 111.241 106.774C109.422 108.552 107.671 110.281 106.427 111.544C106.067 111.913 105.747 112.234 105.474 112.516C105.009 112.991 104.999 113.729 105.426 114.224Z" fill="#3F1B13"/>
<path d="M118.067 128.824C118.515 129.349 118.952 129.853 119.37 130.329C120.43 129.231 121.84 127.561 121.801 126.551C121.762 125.231 120.53 118.555 120.084 116.169C119.983 115.628 120.119 115.077 120.462 114.645C122.129 112.551 127.125 106.284 127.48 105.888L126.129 104.586L118.858 114.07C118.513 114.521 118.386 115.098 118.516 115.651C119.054 117.94 120.436 124.07 120.138 125.423C119.915 126.425 118.875 127.843 118.067 128.824Z" fill="#2C1511"/>
<path d="M105.425 114.22C109.744 119.174 119.517 130.491 122.406 133.842C122.882 134.396 123.728 134.436 124.253 133.93C124.496 133.696 124.75 133.415 124.992 133.104C120.674 128.052 110.015 115.609 106.427 111.539C106.067 111.908 105.747 112.229 105.474 112.511C105.007 112.987 104.997 113.725 105.425 114.22Z" fill="#2C1511"/>
<path d="M105.426 114.224C106.584 115.554 108.13 117.342 109.832 119.314C113.226 113.777 112.196 109.104 111.243 106.773C109.424 108.551 107.674 110.28 106.429 111.543C106.069 111.911 105.749 112.232 105.476 112.515C105.009 112.991 104.999 113.729 105.426 114.224Z" fill="#2C1511"/>
<path d="M128.754 109.813L125.657 107.232C125.262 106.899 124.662 106.992 124.386 107.429C124.161 107.786 124.232 108.255 124.552 108.529L127.631 111.128C127.959 111.408 128.444 111.4 128.762 111.109L128.781 111.091C129.159 110.745 129.147 110.144 128.754 109.813Z" fill="#2C1511"/>
<path d="M127.251 112.174L124.154 109.701C123.759 109.367 123.159 109.46 122.883 109.898C122.658 110.255 122.729 110.723 123.049 110.998L126.128 113.489C126.455 113.769 126.94 113.762 127.258 113.471L127.278 113.453C127.656 113.105 127.644 112.505 127.251 112.174Z" fill="#2C1511"/>
<path d="M125.474 114.378L122.377 111.904C121.981 111.571 121.382 111.663 121.106 112.101C120.881 112.458 120.952 112.926 121.272 113.201L124.351 115.692C124.679 115.972 125.163 115.965 125.481 115.674L125.501 115.656C125.88 115.308 125.868 114.708 125.474 114.378Z" fill="#2C1511"/>
<path d="M123.968 116.37L120.87 113.896C120.475 113.563 119.875 113.656 119.599 114.093C119.374 114.45 119.445 114.919 119.766 115.193L122.844 117.685C123.172 117.965 123.657 117.957 123.974 117.666L123.993 117.648C124.373 117.302 124.361 116.701 123.968 116.37Z" fill="#2C1511"/>
<path d="M117.163 100.978L124.817 108.011L125.653 107.225L118.018 100.133C117.756 100.396 117.474 100.677 117.163 100.978Z" fill="#2C1511"/>
<path d="M145.836 84.2902C145.276 84.1198 144.412 83.8574 143.663 83.635C143.338 83.5387 143 83.7224 142.903 84.0467C142.184 86.4486 141.07 90.2739 142.109 89.8279C143.167 89.3752 145.252 87.8964 146.24 85.0628C146.352 84.7418 146.163 84.3898 145.836 84.2902Z" fill="#515252"/>
<path d="M96.9316 52.769L95.4468 54.53L91.042 52.1237L92.6554 50.3516L96.9316 52.769Z" fill="#3C86C6"/>
</svg>
