<svg width="366" height="207" viewBox="0 0 366 207" fill="none" xmlns="http://www.w3.org/2000/svg">
<path d="M198.221 203.516C215.201 203.516 228.967 189.721 228.967 172.703C228.967 155.686 215.201 141.891 198.221 141.891C181.24 141.891 167.475 155.686 167.475 172.703C167.475 189.721 181.24 203.516 198.221 203.516Z" fill="white" stroke="#BBBDBF" stroke-width="5" stroke-miterlimit="10"/>
<path d="M180.71 147.179V151.802L191.974 150.646L198.761 144.578C198.761 144.578 193.851 142.555 192.118 142.266C192.118 142.266 184.176 144.433 180.71 147.179Z" fill="#1B75BB"/>
<path d="M167.857 169.725L173.923 163.945L178.833 172.76C178.833 172.76 176.233 182.585 176.233 184.319L169.137 181.597C169.137 181.597 167.183 176.607 167.857 169.725Z" fill="#F6921E"/>
<path d="M197.318 159.32L190.386 171.024L198.906 181.284L211.037 176.082L210.17 162.933L197.318 159.32Z" fill="#EE4036" stroke="#EE4036" stroke-miterlimit="10"/>
<path d="M215.959 147.875L211.049 147.297C211.049 147.297 216.536 153.944 216.97 157.412C216.97 157.412 222.891 159.001 224.912 163.336L225.345 158.856C225.345 158.856 223.015 153.058 215.959 147.875Z" fill="#D6DE23"/>
<path d="M227.643 182.006L226.776 175.359C226.776 175.359 223.888 180.128 219.7 182.006C219.7 182.006 218.256 190.387 216.234 193.421C216.234 193.421 219.411 193.855 221.722 192.988C221.722 192.988 226.776 185.908 227.643 182.006Z" fill="#00A69C"/>
<path d="M186.342 201.369C186.342 201.369 183.31 196.6 184.321 193.277C184.321 193.277 192.985 194.289 196.451 192.266C196.451 192.266 202.516 197.756 204.971 198.19C204.971 198.19 199.772 202.38 197.173 203.681C197.173 203.681 192.263 203.825 186.342 201.369Z" fill="#FFDD15"/>
<path d="M311.384 104.57C313.481 106.983 313.68 110.51 311.868 113.143L307.466 119.54L302.301 112.055L311.384 104.57Z" fill="#F8C4A6"/>
<path d="M307.264 157.894L309.373 159.723C313.533 163.33 319.486 163.992 324.336 161.387L344.837 150.374L333.415 142.555L323.035 149.427L315.68 145.562L307.264 157.894Z" fill="#F8C4A6"/>
<path d="M332.335 143.201C332.335 143.201 337.61 148.504 338.58 154.414C338.58 154.414 339.374 155.221 339.7 154.877C340.027 154.534 344.263 151.669 344.263 151.669L341.6 143.994L336.157 140.773C336.157 140.773 332.352 142.361 332.335 143.201Z" fill="#E6E7E8"/>
<path d="M334.563 141.478C334.563 141.478 337.281 139.113 338.507 137.974C339.734 136.835 342.671 134.812 342.671 134.812C342.671 134.812 356.288 144.311 363.437 159.752C363.437 159.752 356.685 165.827 345.313 152.699L341.487 154.43C341.487 154.43 338.1 150.568 338.787 148.904C339.473 147.24 341.847 147.258 341.847 147.258C341.847 147.258 340.379 143.91 334.563 141.478Z" fill="#00A69C"/>
<path d="M342.36 134.991L344.438 133.336C344.438 133.336 349.778 137.129 355.633 143.967C361.427 150.734 365.409 158.372 365.409 158.372L363.131 159.974C363.131 159.974 352.832 141.595 342.36 134.991Z" fill="#D0D2D3"/>
<path d="M350.501 150.539C350.473 150.499 350.436 150.465 350.39 150.44C350.23 150.351 350.028 150.41 349.94 150.57C349.916 150.614 349.227 151.573 348.942 153.004C348.559 154.93 348.841 156.276 349.709 157.53C349.813 157.681 350.414 158.321 350.865 157.967C350.881 157.954 350.645 157.74 350.532 157.593C348.393 154.847 350.499 150.929 350.521 150.89C350.584 150.775 350.572 150.639 350.501 150.539Z" fill="#E6E7E8"/>
<path d="M348.798 149.203C348.77 149.163 348.733 149.129 348.687 149.104C348.527 149.015 348.325 149.074 348.237 149.234C348.213 149.278 347.523 150.237 347.239 151.669C346.856 153.594 347.137 154.94 348.006 156.194C348.11 156.345 348.711 156.985 349.162 156.631C349.178 156.618 348.941 156.404 348.829 156.257C346.69 153.511 348.796 149.593 348.818 149.554C348.88 149.439 348.869 149.304 348.798 149.203Z" fill="#E6E7E8"/>
<path d="M346.963 147.485C346.935 147.444 346.898 147.41 346.852 147.385C346.692 147.297 346.49 147.355 346.402 147.515C346.378 147.559 345.688 148.519 345.404 149.95C345.021 151.875 345.303 153.221 346.171 154.475C346.275 154.626 346.876 155.267 347.327 154.912C347.343 154.9 347.106 154.685 346.994 154.538C344.855 151.792 346.961 147.875 346.983 147.835C347.046 147.721 347.034 147.585 346.963 147.485Z" fill="#E6E7E8"/>
<path d="M267.867 154.864L270.862 183.707L283.216 182.958L281.157 151.867L267.867 154.864Z" fill="#F8C4A6"/>
<path d="M283.662 182.225C283.662 182.225 276.293 183.495 270.902 180.891C270.902 180.891 269.787 181.077 269.88 181.542C269.972 182.007 269.88 187.122 269.88 187.122L277.687 189.354L283.449 186.75C283.449 186.75 284.339 182.722 283.662 182.225Z" fill="#E6E7E8"/>
<path d="M283.788 185.04C283.788 185.04 284.16 188.625 284.386 190.283C284.612 191.942 284.577 195.51 284.577 195.51C284.577 195.51 268.982 201.197 252.246 198.172C252.246 198.172 251.16 189.152 268.433 187.389L269.217 183.262C269.217 183.262 274.322 182.71 275.288 184.228C276.254 185.747 274.874 187.68 274.874 187.68C274.874 187.68 278.456 188.403 283.788 185.04Z" fill="#00A69C"/>
<path d="M284.609 195.148L284.768 197.801C284.768 197.801 278.596 199.992 269.639 200.854C260.775 201.707 252.239 200.575 252.239 200.575V197.789C252.239 197.789 273.189 199.924 284.609 195.148Z" fill="#D0D2D3"/>
<path d="M267.213 192.871C267.262 192.871 267.312 192.86 267.359 192.837C267.523 192.757 267.591 192.558 267.511 192.394C267.489 192.349 267.1 191.233 266.094 190.177C264.74 188.756 263.477 188.213 261.952 188.203C261.769 188.202 260.9 188.326 260.93 188.899C260.932 188.919 261.243 188.848 261.427 188.841C264.903 188.669 266.896 192.645 266.915 192.685C266.973 192.803 267.091 192.871 267.213 192.871Z" fill="#E6E7E8"/>
<path d="M269.294 192.262C269.343 192.262 269.393 192.251 269.44 192.228C269.604 192.147 269.672 191.949 269.592 191.785C269.57 191.74 269.182 190.624 268.175 189.568C266.821 188.147 265.558 187.604 264.033 187.594C263.85 187.593 262.981 187.716 263.012 188.289C263.013 188.31 263.324 188.239 263.508 188.232C266.984 188.059 268.977 192.036 268.996 192.076C269.054 192.193 269.172 192.262 269.294 192.262Z" fill="#E6E7E8"/>
<path d="M271.742 191.738C271.791 191.738 271.841 191.727 271.888 191.704C272.052 191.624 272.121 191.426 272.04 191.261C272.018 191.216 271.63 190.1 270.623 189.044C269.269 187.624 268.006 187.08 266.482 187.07C266.299 187.069 265.429 187.193 265.46 187.766C265.461 187.786 265.772 187.716 265.957 187.708C269.432 187.536 271.425 191.512 271.445 191.552C271.502 191.67 271.62 191.738 271.742 191.738Z" fill="#E6E7E8"/>
<path d="M281.848 164.183L281.032 151.875L267.742 154.872L268.633 161.83C271.122 163.024 277.064 164.562 281.848 164.183Z" fill="#E4AD92"/>
<path d="M286.083 95.5763L299.462 111.44C299.462 111.44 309.03 110.758 311.555 102.869L302.109 93.7666C302.109 93.7666 289.933 86.5772 286.083 95.5763Z" fill="#9972C1"/>
<path d="M274.113 136.896L264.852 157.483C264.852 157.483 276.109 164.497 285.903 161.572L292.606 149.696C292.648 149.27 293.026 149.373 293.324 149.68C298.914 155.428 304.902 158.96 305.054 158.939C311.486 158.061 320.257 154.989 323.035 149.431L316.095 130.023L287.996 135.953L275.311 131.902L274.113 136.896Z" fill="#90278E"/>
<path d="M271.098 108.043C272.061 111.569 271.654 114.83 271.654 114.83C271.654 114.83 272.557 123.101 273.232 127.042C273.973 131.375 274.069 135.791 274.069 135.791C289.49 142.714 308.863 135.006 317.124 130.09C317.289 129.992 309.783 111.784 308.913 108.383C308.31 106.024 306.232 99.4444 303.423 94.9949C301.315 91.6554 297.921 88.7064 295.519 87.7886C285.722 84.0462 283.421 86.9239 283.421 86.9239C283.421 86.9239 278.386 87.8449 275.102 90.4269C272.354 92.587 270.489 96.9073 270.391 99.6566C270.293 102.406 270.686 106.53 271.098 108.043Z" fill="#523070"/>
<path d="M281.096 88.9153C281.096 88.9153 277.454 89.2913 279.295 92.2744C281.174 95.3181 286.2 95.7742 291.014 94.023C295.827 92.2718 294.877 88.5344 291.195 88.0317C287.513 87.529 281.096 88.9153 281.096 88.9153Z" fill="#B23F6E"/>
<path d="M280.13 87.2272L280.4 90.1978C280.4 90.1978 280.727 93.2648 286.202 93.0333C290.882 92.8355 292.005 89.9276 292.005 89.9276L290.521 84.7969C290.521 84.7969 282.424 84.7969 280.13 87.2272Z" fill="#F8C4A6"/>
<path d="M291.446 88.0364L290.527 84.8594C290.527 84.8594 282.43 84.8594 280.136 87.2897L280.183 87.8153C281.9 88.1727 286.225 88.853 291.446 88.0364Z" fill="#F2AF8C"/>
<path d="M317.017 17.0202C317.017 17.0202 315.014 13.788 317.816 12.1401C317.816 12.1401 313.223 10.529 311.933 13.9216C310.536 17.5972 314.859 17.9834 314.859 17.9834L317.017 17.0202Z" fill="#6E2E1C"/>
<path d="M254.156 55.7031C254.156 55.7031 248.219 57.5935 250.378 62.9944C252.537 68.3953 253.617 71.6357 258.745 71.3659C258.745 71.3659 257.665 58.4036 254.156 55.7031Z" fill="#FCD7CB"/>
<path d="M254.156 55.7031C254.156 55.7031 248.219 57.5935 250.378 62.9944C252.537 68.3953 253.617 71.6357 258.745 71.3659C258.745 71.3659 257.665 58.4036 254.156 55.7031Z" fill="#F2AF8C"/>
<path d="M251.524 61.6463C251.524 61.6463 251.794 58.4059 253.009 59.2159C254.223 60.026 256.922 65.0217 256.518 67.7222C256.518 67.7222 254.223 67.8573 254.628 65.5621C255.033 63.2665 253.953 60.9713 253.009 60.2959C252.064 59.6209 251.524 61.6463 251.524 61.6463Z" fill="#D27761"/>
<path d="M250.037 47.3248C250.037 47.3248 256.972 66.8223 256.919 70.3462C256.784 79.2576 264.206 85.1311 275.001 86.819C285.797 88.507 303.339 84.7936 309.412 72.9793C309.412 72.9793 316.159 79.3928 321.557 70.2788C326.955 61.1646 319.195 54.7512 312.111 58.1266L315.822 39.561L306.038 25.7212L279.387 20.3203L256.784 21.3328L249.699 30.7846L245.313 42.9364L250.037 47.3248Z" fill="#F8C4A6"/>
<mask id="mask0_4124_89884" style="mask-type:luminance" maskUnits="userSpaceOnUse" x="245" y="20" width="79" height="68">
<path d="M256.786 21.3325L249.701 30.7846L245.315 42.9364L250.038 47.3248C250.038 47.3248 256.974 66.8223 256.921 70.3458C256.786 79.2576 264.208 85.1311 275.003 86.819C285.799 88.5066 303.342 84.7937 309.414 72.9789C309.414 72.9789 316.161 79.3927 321.559 70.2785C326.956 61.1646 319.197 54.7512 312.113 58.1266L315.824 39.561L306.04 25.7212L279.388 20.3203L256.786 21.3325Z" fill="white"/>
</mask>
<g mask="url(#mask0_4124_89884)">
<path d="M303.341 34.2915C303.341 34.2915 316.162 54.2839 298.781 80.1886C291.434 91.1384 288.366 87.5201 288.366 87.5201L311.437 89.3808L314.136 80.7395L335.188 73.1781L334.108 52.3846L318.994 23.4898L304.96 22.6797L303.341 34.2915Z" fill="#F2AF8C"/>
</g>
<path d="M250.124 46.9466C250.124 46.9466 248.42 38.6283 252.546 37.171C252.546 37.171 251.333 37.6567 251.818 41.9073C251.818 41.9073 269.054 38.5069 279.458 31.0537C279.458 31.0537 274.745 32.823 273.666 37.4139C273.666 37.4139 285.196 37.6567 300.053 32.0939C300.053 32.0939 297.091 33.5275 291.872 36.9281C291.872 36.9281 302.189 37.8996 308.69 35.3347C308.69 35.3347 308.098 38.0884 304.859 38.6283C304.859 38.6283 309.714 42.0288 315.437 39.1154C315.437 39.1154 309.499 45.3265 311.119 59.0989C311.119 59.0989 316.516 55.5879 320.295 58.8287C320.295 58.8287 339.436 39.727 319.717 19.8263C315.205 15.2722 314.663 14.3947 314.663 14.3947C314.663 14.3947 295.846 -5.93535 272.492 1.71249C236.938 13.3553 241.02 39.5624 242.041 43.9867C242.041 43.9867 241.945 49.7785 250.041 60.04C250.041 60.04 250.807 56.3389 253.411 56.845L250.124 46.9466Z" fill="#6E2E1C"/>
<path d="M272.063 75.0286C272.063 75.0286 275.229 75.9345 280.198 75.1282C285.681 74.2385 290.754 72.5669 290.754 72.5669C290.754 72.5669 291.422 72.3079 291.167 73.6529C290.773 75.7349 289.612 81.1685 281.563 81.9177C274.54 82.5713 271.928 76.7496 271.928 76.7496C271.928 76.7496 271.353 75.4625 271.608 75.141C271.739 74.9761 271.861 74.9406 272.063 75.0286Z" fill="#3B2314"/>
<path d="M313.326 71.8354C313.326 71.8354 310.627 64.8143 314.675 61.8437C318.723 58.8731 319.803 65.0841 319.803 65.0841C319.803 65.0841 316.564 62.1139 315.755 64.0042C315.755 64.0042 314.135 66.1644 314.945 67.7846C315.755 69.4051 317.374 72.6455 313.326 71.8354Z" fill="#D27761"/>
<path d="M274.545 67.5625C274.545 67.5625 274.815 69.3177 277.649 69.3177C277.649 69.3177 279.673 69.5879 281.158 68.7778C281.158 68.7778 274.345 73.5354 274.545 67.5625Z" fill="#DB9477"/>
<path d="M320.202 22.4868C320.202 22.4868 319.315 17.5105 323.585 16.852C323.585 16.852 318.703 12.6051 315.444 16.1621C311.915 20.0153 317.064 22.6166 317.064 22.6166L320.202 22.4868Z" fill="#6E2E1C"/>
<path d="M287.054 49.1194C286.242 49.3743 286.116 48.8298 286.48 48.4364C288.374 46.3916 297.313 43.0867 301.284 49.492C301.284 49.492 301.45 49.8297 301.288 50.0222C301.17 50.1632 300.916 50.2534 300.383 50.1056C298.49 49.5815 295.173 46.5643 287.202 49.0836" fill="#5E2F00"/>
<path d="M268.978 50.2466C269.806 50.4411 269.892 49.8886 269.5 49.5232C267.461 47.6236 258.302 44.9866 254.814 51.6673C254.814 51.6673 254.673 52.0163 254.849 52.1964C254.977 52.3282 255.237 52.3995 255.758 52.2128C257.607 51.5506 260.693 48.297 268.828 50.2218" fill="#5E2F00"/>
<path d="M301.889 59.9278C302.19 64.572 299.954 66.5628 294.811 67.4749C287.417 68.7859 283.65 68.2603 283.348 63.6162C283.047 58.972 286.692 52.4708 291.904 52.1321C297.117 51.7934 301.587 55.2836 301.889 59.9278Z" fill="white"/>
<path d="M291.42 52.8592C296.632 52.5206 301.103 56.0108 301.404 60.655C301.492 62.0126 301.362 63.1421 301.007 64.0855C301.722 62.976 302.009 61.5436 301.888 59.6856C301.587 55.0414 297.117 51.5512 291.904 51.8899C288.564 52.107 285.867 54.8549 284.44 58.023C285.949 55.2818 288.426 53.0538 291.42 52.8592Z" fill="#702E1A"/>
<path d="M256.835 62.3976C257.125 66.8761 260.636 70.2938 264.676 70.0312C268.716 69.7687 271.774 68.3193 271.483 63.8408C271.193 59.3624 267.664 53.5508 263.624 53.8133C259.584 54.0758 256.544 57.9191 256.835 62.3976Z" fill="white"/>
<path d="M256.834 62.273C256.543 57.7946 259.583 53.9513 263.623 53.6887C265.279 53.5812 266.848 54.4944 268.145 55.9175C266.748 54.0887 264.94 52.8368 263.017 52.9617C258.977 53.2242 255.937 57.0675 256.228 61.546C256.365 63.6504 257.212 65.5205 258.492 66.8847C257.554 65.6142 256.947 64.0249 256.834 62.273Z" fill="#702E1A"/>
<path d="M295.553 63.8723C296.261 60.9686 294.7 58.0943 292.067 57.4522C289.434 56.8101 286.726 58.6435 286.019 61.5471C285.312 64.4508 286.873 67.3252 289.506 67.9672C292.138 68.6093 294.846 66.7759 295.553 63.8723Z" fill="#451E00"/>
<path d="M291.769 59.4792C291.662 60.1991 292.138 60.8636 292.833 60.9634C293.527 61.0631 294.176 60.5604 294.283 59.8406C294.39 59.1207 293.914 58.4562 293.219 58.3564C292.525 58.2566 291.876 58.7593 291.769 59.4792Z" fill="white"/>
<path d="M266.737 69.7091C268.843 68.9626 269.77 66.1525 268.807 63.4326C267.844 60.7126 265.356 59.1128 263.25 59.8593C261.144 60.6058 260.217 63.4159 261.18 66.1359C262.143 68.8558 264.631 70.4556 266.737 69.7091Z" fill="#451E00"/>
<path d="M266.752 63.4768C267.301 63.2131 267.49 62.4674 267.175 61.8113C266.861 61.1552 266.16 60.837 265.612 61.1007C265.063 61.3644 264.873 62.11 265.188 62.7662C265.503 63.4223 266.203 63.7404 266.752 63.4768Z" fill="white"/>
<path d="M273.7 75.4822C273.7 75.4822 273.421 76.8792 276.196 77.3864C277.348 77.5968 278.448 77.7965 280.754 77.5494C280.754 77.5494 285.26 76.953 287.053 75.3886C287.597 74.9138 287.693 74.2613 287.802 73.5781C287.802 73.5781 279.097 76.5124 273.7 75.4822Z" fill="white"/>
<path d="M265.747 72.9914C265.747 73.539 264.702 73.9828 263.413 73.9828C262.125 73.9828 261.08 73.5389 261.08 72.9914C261.08 72.4439 262.125 72 263.413 72C264.702 72 265.747 72.4439 265.747 72.9914Z" fill="#EE9C9C"/>
<path d="M297.869 70.7875C299.158 70.7875 300.203 70.3437 300.203 69.7961C300.203 69.2486 299.158 68.8047 297.869 68.8047C296.581 68.8047 295.536 69.2486 295.536 69.7961C295.536 70.3437 296.581 70.7875 297.869 70.7875Z" fill="#EE9C9C"/>
<path d="M250.33 29.9083C250.33 29.9083 253.557 20.1951 260.993 15.3672C260.993 15.3672 256.553 23.52 250.33 29.9083Z" fill="#7D3F31"/>
<path d="M257.732 24.869C257.732 24.869 260.416 16.8698 266.567 12.8828C266.567 12.8828 262.885 19.6002 257.732 24.869Z" fill="#7D3F31"/>
<path d="M285.714 19.3775C285.714 19.3775 289.055 13.9091 294.382 11.8438C294.382 11.8438 290.489 16.24 285.714 19.3775Z" fill="#7D3F31"/>
<path d="M289.497 19.6275C289.497 19.6275 292.838 14.1591 298.165 12.0938C298.165 12.0938 294.272 16.49 289.497 19.6275Z" fill="#7D3F31"/>
<path d="M275.218 67.1287C275.218 67.1287 275.808 66.1159 276.989 66.2003C278.17 66.2847 275.977 66.9599 275.218 67.1287Z" fill="#F7E4DB"/>
<path d="M285.58 107.281C285.58 107.281 266.721 106.431 259.642 103.307C259.642 103.307 258.903 100.209 256.362 98.0371C252.798 94.9906 252.055 94.5312 252.055 94.5312C252.055 94.5312 249.869 96.0567 252.277 99.1657C252.277 99.1657 247.06 97.8486 244.522 97.2613C244.522 97.2613 241.124 96.5648 243.095 98.9455L247.221 100.998L241.88 99.8812C241.88 99.8812 239.75 100.549 240.779 101.633C241.382 102.269 246.177 103.71 246.177 103.71L241.713 104.208C241.713 104.208 239.716 105.113 241.83 105.818C244.105 106.577 247.308 106.964 247.308 106.964L243.359 107.441C243.359 107.441 242.102 108.249 243.507 109.171C244.21 109.632 249.228 109.97 249.228 109.97C249.228 109.97 254.43 110.677 258.018 109.389C258.018 109.389 276.925 117.262 283.936 116.428L285.58 107.281Z" fill="#F8C4A6"/>
<path d="M272.657 114.436C277.059 115.721 281.431 116.658 284.091 116.342L285.735 107.195C285.735 107.195 281.574 107.007 276.428 106.484C275.826 108.225 274.479 111.76 272.657 114.436Z" fill="#F2AF8C"/>
<path d="M294.026 94.6328L278.428 105.081C278.428 105.081 278.826 113.578 286.457 117.275L301.471 103.968C301.471 103.968 305.376 96.4272 294.026 94.6328Z" fill="#9972C1"/>
<path d="M277.85 81.6021C277.85 81.6021 280.189 79.417 282.748 79.3545C285.306 79.2921 286.897 80.2286 286.897 80.2286C286.897 80.2286 282.872 82.7883 277.85 81.6021Z" fill="#C65563"/>
<path d="M78.496 110.539C78.496 110.539 94.6221 120.36 102.239 121.718C102.239 121.718 104.58 119.559 107.899 119.175C112.556 118.636 113.428 118.669 113.428 118.669C113.428 118.669 114.392 121.155 110.661 122.391C110.661 122.391 115.724 124.21 118.158 125.139C118.158 125.139 121.367 126.457 118.404 127.333L113.835 126.734L118.89 128.788C118.89 128.788 120.286 130.531 118.828 130.857C117.973 131.048 113.19 129.568 113.19 129.568L116.617 132.472C116.617 132.472 117.769 134.338 115.622 133.744C113.31 133.103 110.437 131.636 110.437 131.636L113.449 134.237C113.449 134.237 114.042 135.609 112.361 135.59C111.521 135.581 107.167 133.061 107.167 133.061C107.167 133.061 102.456 130.743 100.196 127.672C100.196 127.672 80.1149 123.654 74.7607 119.048L78.496 110.539Z" fill="#F8C4A6"/>
<path d="M85.2319 123.693C80.8621 122.302 76.3736 121.191 73.0225 118.268L78.4152 110.383C78.4152 110.383 81.9728 112.549 86.5353 114.988C86.065 116.769 85.212 120.454 85.2319 123.693Z" fill="#F2AF8C"/>
<path d="M43.0223 149.187L43.9072 151.836C45.6521 157.059 38.4935 163.857 34.2365 167.349L16.2402 182.107L13.375 168.559L26.9792 156.254L34.3393 146.828L43.0223 149.187Z" fill="#F8C4A6"/>
<path d="M14.3747 167.804C14.3747 167.804 17.2607 174.706 22.3506 177.859C22.3506 177.859 22.7926 178.9 22.3507 179.071C21.9087 179.242 17.6459 182.067 17.6459 182.067L11.5722 176.675L10.6738 170.412C10.6738 170.412 13.592 167.499 14.3747 167.804Z" fill="#E6E7E8"/>
<path d="M11.9329 169.203C11.9329 169.203 8.71127 170.814 7.19114 171.513C5.67102 172.213 2.68164 174.158 2.68164 174.158C2.68164 174.158 6.26058 190.376 17.7962 202.88C17.7962 202.88 25.9848 198.954 18.1969 183.427L21.2558 180.549C21.2558 180.549 18.9804 175.942 17.1814 175.943C15.3824 175.943 14.4935 178.145 14.4935 178.145C14.4935 178.145 11.9607 175.51 11.9329 169.203Z" fill="#F05A28"/>
<path d="M2.96616 173.945L0.644531 175.235C0.644531 175.235 2.1105 181.622 6.19336 189.646C10.2333 197.586 15.7707 204.184 15.7707 204.184L18.1194 202.688C18.1194 202.688 5.07145 186.15 2.96616 173.945Z" fill="#D0D2D3"/>
<path d="M14.2255 187.403C14.1992 187.362 14.1817 187.314 14.1759 187.262C14.1555 187.081 14.2862 186.916 14.4681 186.896C14.5178 186.89 15.6672 186.619 17.0978 186.902C19.0228 187.282 20.1588 188.057 20.9859 189.338C21.0852 189.492 21.4476 190.293 20.9483 190.574C20.9304 190.584 20.8229 190.284 20.7298 190.124C19.0094 187.098 14.5866 187.55 14.5421 187.555C14.412 187.57 14.2912 187.507 14.2255 187.403Z" fill="#E6E7E8"/>
<path d="M13.6317 185.317C13.6055 185.276 13.5879 185.228 13.5822 185.177C13.5617 184.995 13.6924 184.831 13.8743 184.81C13.924 184.805 15.0734 184.533 16.504 184.816C18.4291 185.196 19.565 185.971 20.3921 187.252C20.4914 187.406 20.8538 188.207 20.3545 188.488C20.3367 188.498 20.2291 188.198 20.1361 188.038C18.4157 185.012 13.9929 185.464 13.9483 185.469C13.8184 185.484 13.6975 185.421 13.6317 185.317Z" fill="#E6E7E8"/>
<path d="M12.7557 182.974C12.7295 182.932 12.712 182.885 12.7062 182.833C12.6858 182.651 12.8165 182.487 12.9983 182.466C13.048 182.461 14.1975 182.189 15.6281 182.472C17.5531 182.853 18.6891 183.627 19.5161 184.909C19.6154 185.062 19.9778 185.863 19.4785 186.145C19.4607 186.155 19.3531 185.854 19.2601 185.694C17.5397 182.668 13.1169 183.121 13.0724 183.126C12.9423 183.14 12.8215 183.077 12.7557 182.974Z" fill="#E6E7E8"/>
<path d="M81.4821 155.669L78.4871 184.512L66.1328 183.763L68.1919 152.672L81.4821 155.669Z" fill="#F8C4A6"/>
<path d="M67.501 164.98L68.3161 152.672L81.6064 155.669L80.7158 162.626C78.226 163.821 72.2848 165.359 67.501 164.98Z" fill="#E4AD92"/>
<path d="M75.2362 137.696L84.4977 158.284C84.4977 158.284 73.2405 165.297 63.446 162.372L56.7432 150.496C56.7013 150.07 56.3235 150.173 56.0256 150.48C50.4353 156.228 44.4475 159.76 44.2955 159.739C37.8632 158.861 29.092 155.79 26.3145 150.231L36.1952 131.891L61.3537 136.753L74.0385 132.702L75.2362 137.696Z" fill="#518E6B"/>
<path d="M87.04 111.651L79.4837 97.5649C78.7389 95.19 76.1977 92.7659 74.2481 91.2332C70.9637 88.6511 65.9285 87.7301 65.9285 87.7301C65.9285 87.7301 64.2286 85.5976 53.1213 88.7827C51.2158 89.3291 48.8545 90.3413 45.9422 91.7645L30.1006 99.2152C31.2162 104.424 37.9043 111.653 37.9043 111.653L40.0794 110.358C38.3454 115.557 32.0749 130.807 32.2257 130.896C40.4868 135.813 59.8591 143.52 75.2802 136.598C75.2802 136.598 75.3765 132.181 76.118 127.848C76.4753 125.76 76.8556 122.689 77.2387 119.129C83.9446 117.695 87.04 111.651 87.04 111.651Z" fill="#FAAF40"/>
<path d="M65.6869 183.022C65.6869 183.022 73.0561 184.292 78.4468 181.688C78.4468 181.688 79.5622 181.874 79.4692 182.338C79.3763 182.803 79.4692 187.918 79.4692 187.918L71.6619 190.15L65.8994 187.546C65.8994 187.546 65.0097 183.519 65.6869 183.022Z" fill="#E6E7E8"/>
<path d="M65.5597 185.837C65.5597 185.837 65.1878 189.421 64.9616 191.08C64.7355 192.739 64.7705 196.307 64.7705 196.307C64.7705 196.307 80.3661 201.993 97.102 198.969C97.102 198.969 98.1878 189.949 80.9149 188.186L80.1307 184.059C80.1307 184.059 75.0255 183.507 74.0596 185.025C73.0938 186.544 74.4736 188.477 74.4736 188.477C74.4736 188.477 70.8923 189.2 65.5597 185.837Z" fill="#F05A28"/>
<path d="M64.7391 195.945L64.5801 198.598C64.5801 198.598 70.7518 200.789 79.7096 201.651C88.5733 202.504 97.109 201.372 97.109 201.372V198.586C97.109 198.586 76.1597 200.721 64.7391 195.945Z" fill="#D0D2D3"/>
<path d="M82.135 193.668C82.086 193.668 82.0364 193.657 81.9896 193.634C81.8252 193.554 81.7571 193.355 81.8375 193.191C81.8594 193.146 82.2479 192.03 83.2544 190.974C84.6086 189.553 85.8714 189.01 87.3959 189C87.579 188.999 88.4485 189.123 88.4179 189.695C88.4167 189.716 88.1056 189.645 87.921 189.638C84.4457 189.465 82.4526 193.442 82.433 193.482C82.3753 193.6 82.2575 193.668 82.135 193.668Z" fill="#E6E7E8"/>
<path d="M80.0549 193.051C80.006 193.051 79.9564 193.04 79.9095 193.017C79.7452 192.937 79.677 192.738 79.7574 192.574C79.7793 192.529 80.1678 191.413 81.1742 190.357C82.5284 188.936 83.7912 188.393 85.3158 188.383C85.4988 188.382 86.3684 188.506 86.3377 189.078C86.3366 189.099 86.0254 189.028 85.8408 189.021C82.3656 188.848 80.3725 192.825 80.3529 192.865C80.2953 192.983 80.1774 193.051 80.0549 193.051Z" fill="#E6E7E8"/>
<path d="M77.6057 192.535C77.5567 192.535 77.5071 192.524 77.4603 192.501C77.2959 192.421 77.2278 192.223 77.3082 192.058C77.3301 192.013 77.7186 190.897 78.7251 189.841C80.0793 188.421 81.3421 187.877 82.8666 187.867C83.0496 187.866 83.9192 187.99 83.8886 188.563C83.8875 188.583 83.5763 188.512 83.3917 188.505C79.9164 188.333 77.9234 192.309 77.9037 192.349C77.846 192.467 77.7283 192.535 77.6057 192.535Z" fill="#E6E7E8"/>
<path d="M68.2534 89.72C68.2534 89.72 71.8953 90.0959 70.0539 93.079C68.1751 96.1227 63.1487 96.5788 58.3357 94.8277C53.5226 93.0765 54.472 89.3391 58.154 88.8364C61.8361 88.3336 68.2534 89.72 68.2534 89.72Z" fill="#B23F6E"/>
<path d="M69.2189 88.0241L68.9489 90.9947C68.9489 90.9947 68.6218 94.0617 63.1465 93.8302C58.4663 93.6323 57.3438 90.7245 57.3438 90.7245L58.828 85.5938C58.828 85.5938 66.925 85.5938 69.2189 88.0241Z" fill="#F8C4A6"/>
<path d="M57.9033 88.8411L58.8224 85.6641C58.8224 85.6641 66.9193 85.6641 69.2133 88.0944L69.1655 88.62C67.4491 88.9773 63.1244 89.6576 57.9033 88.8411Z" fill="#F2AF8C"/>
<path d="M95.1926 56.5078C95.1926 56.5078 101.13 58.3982 98.9711 63.7991C96.8119 69.2 95.7326 72.4403 90.6045 72.1706C90.6045 72.1706 91.6842 59.2083 95.1926 56.5078Z" fill="#FCD7CB"/>
<path d="M95.1926 56.5078C95.1926 56.5078 101.13 58.3982 98.9711 63.7991C96.8119 69.2 95.7326 72.4403 90.6045 72.1706C90.6045 72.1706 91.6842 59.2083 95.1926 56.5078Z" fill="#F2AF8C"/>
<path d="M97.8241 62.451C97.8241 62.451 97.5541 59.2105 96.3399 60.0206C95.1252 60.8307 92.4263 65.8264 92.831 68.5269C92.831 68.5269 95.1252 68.662 94.7202 66.3668C94.3156 64.0712 95.3952 61.776 96.3399 61.1006C97.2845 60.4256 97.8241 62.451 97.8241 62.451Z" fill="#D27761"/>
<path d="M99.3118 48.1295C99.3118 48.1295 92.3762 67.627 92.4298 71.1509C92.5645 80.0623 85.1428 85.9358 74.347 87.6237C63.5515 89.3117 46.009 85.5984 39.9362 73.784C39.9362 73.784 33.1893 80.1974 27.7915 71.0835C22.3937 61.9692 30.153 55.5559 37.2374 58.9313L33.5265 40.3657L43.3101 26.5259L69.9616 21.125L92.5645 22.1375L99.6492 31.5893L104.035 43.7411L99.3118 48.1295Z" fill="#F8C4A6"/>
<mask id="mask1_4124_89884" style="mask-type:luminance" maskUnits="userSpaceOnUse" x="25" y="21" width="80" height="68">
<path d="M92.5636 22.145L99.6482 31.5971L104.034 43.7489L99.3109 48.1373C99.3109 48.1373 92.3753 67.6348 92.4285 71.1583C92.5636 80.0701 85.1415 85.9436 74.3461 87.6316C63.5506 89.3191 46.0077 85.6062 39.9353 73.7914C39.9353 73.7914 33.1883 80.2053 27.7906 71.091C22.3928 61.9771 30.1517 55.5637 37.2364 58.9391L33.5256 40.3735L43.3088 26.5337L69.9606 21.1328L92.5636 22.145Z" fill="white"/>
</mask>
<g mask="url(#mask1_4124_89884)">
<path d="M46.008 35.1039C46.008 35.1039 33.1871 55.0963 50.5678 81.0011C57.9146 91.9509 60.9824 88.3326 60.9824 88.3326L37.9114 90.1933L35.2125 81.552L14.1611 73.9906L15.2407 53.1971L30.3543 24.3023L44.3887 23.4922L46.008 35.1039Z" fill="#F2AF8C"/>
</g>
<path d="M99.2251 47.7475C99.2251 47.7475 102.667 36.5358 98.9399 32.8436C98.9399 32.8436 95.9069 36.7775 72.6801 36.297C72.6801 36.297 39.1484 33.7053 36.1196 37.6272C36.1196 37.6272 39.8495 46.1273 38.2302 59.8997C38.2302 59.8997 32.8325 56.3888 29.054 59.6296C29.054 59.6296 16.3438 44.1121 26.6471 25.9876C29.8161 20.4131 54.3113 0.0488257 77.6656 7.69666C94.0986 13.078 95.6155 22.498 101.43 29.1469C102.593 30.4772 108.68 32.7947 107.08 42.1169C107.08 42.1169 106.13 51.9149 98.3134 58.6362C98.3134 58.6362 97.7901 57.7198 95.9384 57.646L99.2251 47.7475Z" fill="#6E2E1C"/>
<path d="M36.0233 72.6323C36.0233 72.6323 38.7222 65.6111 34.6741 62.6406C30.6256 59.67 29.5459 65.881 29.5459 65.881C29.5459 65.881 32.7847 62.9108 33.5944 64.8011C33.5944 64.8011 35.2136 66.9613 34.404 68.5814C33.5944 70.202 31.9752 73.4424 36.0233 72.6323Z" fill="#D27761"/>
<path d="M74.8028 68.3672C74.8028 68.3672 74.5329 70.1224 71.6989 70.1224C71.6989 70.1224 69.675 70.3926 68.1904 69.5825C68.1904 69.5825 75.0036 74.34 74.8028 68.3672Z" fill="#DB9477"/>
<path d="M62.2945 49.9163C63.1061 50.1712 63.2324 49.6267 62.8681 49.2333C60.9742 47.1885 52.0347 43.8836 48.0642 50.2889C48.0642 50.2889 47.8984 50.6266 48.06 50.8191C48.1784 50.96 48.4317 51.0503 48.9653 50.9025C50.8576 50.3783 54.1753 47.3612 62.1464 49.8805" fill="#5E2F00"/>
<path d="M80.3705 51.0435C79.5424 51.2379 79.4564 50.6855 79.8487 50.32C81.8881 48.4204 91.0466 45.7835 94.5347 52.4642C94.5347 52.4642 94.6752 52.8131 94.4997 52.9932C94.3714 53.1251 94.112 53.1964 93.5907 53.0097C91.7421 52.3474 88.6557 49.0939 80.5207 51.0187" fill="#5E2F00"/>
<path d="M47.4604 60.7247C47.159 65.3688 49.3947 67.3597 54.5383 68.2717C61.9321 69.5828 65.699 69.0572 66.0004 64.413C66.3018 59.7689 62.6574 53.2677 57.4446 52.929C52.2319 52.5902 47.7618 56.0805 47.4604 60.7247Z" fill="white"/>
<path d="M57.9289 53.6562C52.7162 53.3175 48.2461 56.8078 47.9447 61.4519C47.8566 62.8096 47.9871 63.939 48.3419 64.8825C47.6264 63.773 47.3397 62.3406 47.4603 60.4825C47.7617 55.8384 52.2318 52.3481 57.4446 52.6868C60.7852 52.9038 63.4816 55.6518 64.9083 58.8199C63.3995 56.0787 60.9231 53.8508 57.9289 53.6562Z" fill="#702E1A"/>
<path d="M92.5146 63.1945C92.2239 67.6729 88.7131 71.0906 84.6729 70.8281C80.6327 70.5656 77.5751 69.1162 77.8658 64.6377C78.1565 60.1592 81.6853 54.3476 85.7254 54.6101C89.7656 54.8727 92.8052 58.716 92.5146 63.1945Z" fill="white"/>
<path d="M92.5144 63.0699C92.8051 58.5915 89.7655 54.7481 85.7253 54.4856C84.0693 54.378 82.4995 55.2912 81.2031 56.7144C82.6005 54.8856 84.4076 53.6336 86.3308 53.7586C90.3709 54.0211 93.4105 57.8644 93.1198 62.3429C92.9832 64.4473 92.1355 66.3174 90.8561 67.6816C91.7942 66.4112 92.4007 64.8217 92.5144 63.0699Z" fill="#702E1A"/>
<path d="M59.8676 68.7744C62.5004 68.1323 64.0615 65.2579 63.3542 62.3543C62.6469 59.4506 59.9392 57.6173 57.3063 58.2593C54.6734 58.9014 53.1124 61.7758 53.8197 64.6794C54.527 67.5831 57.2347 69.4165 59.8676 68.7744Z" fill="#451E00"/>
<path d="M56.5955 61.7351C57.2814 61.5888 57.7145 60.8932 57.5629 60.1813C57.4113 59.4694 56.7324 59.0109 56.0465 59.1571C55.3607 59.3033 54.9276 59.999 55.0792 60.7109C55.2308 61.4227 55.9097 61.8813 56.5955 61.7351Z" fill="white"/>
<path d="M88.1635 66.9268C89.1264 64.2068 88.1997 61.3967 86.0936 60.6502C83.9874 59.9037 81.4995 61.5035 80.5365 64.2235C79.5736 66.9435 80.5003 69.7536 82.6065 70.5001C84.7126 71.2466 87.2006 69.6468 88.1635 66.9268Z" fill="#451E00"/>
<path d="M84.1491 63.5472C83.8342 64.2034 83.134 64.5215 82.5853 64.2579C82.0365 63.9941 81.847 63.2485 82.162 62.5923C82.477 61.9362 83.1771 61.6181 83.7258 61.8817C84.2745 62.1454 84.464 62.8911 84.1491 63.5472Z" fill="white"/>
<path d="M83.6016 73.7883C83.6016 74.3359 84.6462 74.7797 85.9348 74.7797C87.2235 74.7797 88.2681 74.3358 88.2681 73.7883C88.2681 73.2408 87.2235 72.7969 85.9348 72.7969C84.6462 72.7969 83.6016 73.2408 83.6016 73.7883Z" fill="#EE9C9C"/>
<path d="M49.1455 70.593C49.1455 71.1405 50.1901 71.5844 51.4788 71.5844C52.7674 71.5844 53.812 71.1405 53.812 70.593C53.812 70.0455 52.7674 69.6016 51.4788 69.6016C50.1901 69.6016 49.1455 70.0454 49.1455 70.593Z" fill="#EE9C9C"/>
<path d="M93.8276 28.4476C93.8276 28.4476 89.5734 19.1388 81.6611 15.1406C81.6611 15.1406 86.9529 22.7673 93.8276 28.4476Z" fill="#7D3F31"/>
<path d="M85.9248 24.2374C85.9248 24.2374 82.3952 16.574 75.8506 13.2734C75.8506 13.2734 80.2351 19.5548 85.9248 24.2374Z" fill="#7D3F31"/>
<path d="M57.5156 21.7976C57.5156 21.7976 53.6052 16.7212 48.0869 15.2422C48.0869 15.2422 52.4302 19.1932 57.5156 21.7976Z" fill="#7D3F31"/>
<path d="M53.7822 22.4539C53.7822 22.4539 49.8718 17.3774 44.3535 15.8984C44.3535 15.8984 48.6968 19.8494 53.7822 22.4539Z" fill="#7D3F31"/>
<path d="M74.1312 67.9256C74.1312 67.9256 73.5407 66.9128 72.3599 66.9972C71.179 67.0816 73.3721 67.7568 74.1312 67.9256Z" fill="#F7E4DB"/>
<path d="M37.7818 111.568C37.7818 111.568 36.6105 120.382 40.211 127.234C40.211 127.234 43.3511 127.759 45.6908 130.146C48.9729 133.495 49.4819 134.204 49.4819 134.204C49.4819 134.204 48.111 136.492 44.8459 134.302C44.8459 134.302 46.5171 139.418 47.2768 141.912C47.2768 141.912 48.2045 145.256 45.6955 143.452L43.3657 139.474L44.8459 144.728C44.8459 144.728 44.3263 146.901 43.1745 145.948C42.499 145.39 40.7335 140.703 40.7335 140.703L40.5435 145.192C40.5435 145.192 39.7776 147.248 38.9299 145.187C38.0169 142.967 37.412 139.796 37.412 139.796L37.2071 143.771C37.2071 143.771 36.488 145.082 35.4717 143.742C34.9638 143.072 34.2821 138.086 34.2821 138.086C34.2821 138.086 33.2209 132.942 34.2584 129.272C34.2584 129.272 28.1192 116.968 26.0923 108.64C25.4686 106.078 26.485 101.824 30.6877 100.961C30.6877 100.961 32.6007 104.749 34.434 107.262C35.9244 109.304 37.7818 111.568 37.7818 111.568Z" fill="#F8C4A6"/>
<path d="M37.7567 111.524C32.7401 105.352 30.6083 100.844 30.6083 100.844C29.054 101.601 28.496 101.881 27.5938 102.754C29.448 105.824 32.9692 110.473 37.7567 111.524Z" fill="#F2AF8C"/>
<path d="M63.3009 71.6695C66.9406 72.007 73.3003 72.7236 77.1146 73.8804C78.7869 74.3875 79.6913 76.199 79.0909 77.841C77.9619 80.9289 75.0598 85.3334 67.8137 83.9173C60.8295 82.5525 59.8109 77.7817 59.9735 74.5505C60.0605 72.8179 61.5746 71.5095 63.3009 71.6695Z" fill="#3B2314"/>
<path d="M77.5209 74.3704C77.5209 74.3704 77.8005 75.7674 75.0251 76.2746C73.8735 76.485 72.4275 76.3043 70.1221 76.0572C70.1221 76.0572 65.6161 75.4608 63.823 73.8964C63.2788 73.4216 63.1832 72.7692 63.0742 72.0859C63.0741 72.0858 70.7831 72.879 77.5209 74.3704Z" fill="white"/>
<path d="M73.0502 83.6099C73.0502 83.6099 70.7104 81.4248 68.1522 81.3624C65.594 81.3 64.0029 82.2364 64.0029 82.2364C64.0029 82.2364 68.0274 84.796 73.0502 83.6099Z" fill="#C65563"/>
<path d="M81.6445 11.4064C89.1414 16.3111 93.1782 3.32812 93.1782 3.32812C98.6567 8.23281 95.1966 17.7536 95.1966 17.7536C102.405 17.4651 102.117 5.63618 102.117 5.63618C117.111 19.4847 101.299 30.819 101.299 30.819L81.6445 11.4064Z" fill="#6E2E1C"/>
</svg>
