<svg width="213" height="252" viewBox="0 0 213 252" fill="none" xmlns="http://www.w3.org/2000/svg">
<path d="M133.813 69.6562H111.457V117.326H133.813V69.6562Z" fill="#E9A480"/>
<path d="M16.7441 162.878L77.2795 119.256C81.643 115.796 96.6445 111.008 96.6445 111.008C106.366 106.875 115.083 106.954 125.609 107.702L136.585 108.482C136.585 108.482 167.346 112.369 179.253 134.005C184.262 143.105 209.893 197.53 210.53 200.718C212.602 213.824 195.215 216.167 192.999 214.684C192.152 214.116 174.359 185.977 170.254 178.264C170.254 178.264 169.2 194.663 168.038 202.024C166.876 209.384 161.8 231.816 161.8 231.816H78.7236C78.7236 231.816 71.0975 185.406 73.3553 158.745L23.2198 186.79L16.7441 162.878Z" fill="#EDEDED"/>
<path d="M119.016 107.352C119.016 107.352 110.652 157.765 113.722 231.804L118.664 231.751C118.664 231.751 116.822 162.901 128.576 107.706L119.016 107.352Z" fill="#C6C6C6"/>
<path d="M97.6091 168.483H85.2972C83.6624 168.483 82.3379 167.158 82.3379 165.524V154.961H100.569V165.524C100.568 167.158 99.2432 168.483 97.6091 168.483Z" fill="#B2B2B2"/>
<path d="M100.567 156.38H82.3359V154.341C82.3359 153.898 82.6949 153.539 83.1381 153.539H99.7643C100.207 153.539 100.566 153.898 100.566 154.341V156.38H100.567Z" fill="#C6C6C6"/>
<path d="M149.327 166.325H132.387C131.407 166.325 130.613 165.531 130.613 164.551V155.312C130.613 154.333 131.407 153.539 132.387 153.539H149.327C150.306 153.539 151.1 154.333 151.1 155.312V164.551C151.1 165.531 150.306 166.325 149.327 166.325Z" fill="#C6C6C6"/>
<path d="M148.65 165.581H133.064C132.182 165.581 131.467 164.866 131.467 163.984V155.87C131.467 154.988 132.182 154.273 133.064 154.273H148.65C149.532 154.273 150.247 154.988 150.247 155.87V163.984C150.246 164.866 149.531 165.581 148.65 165.581Z" fill="#DADADA"/>
<path d="M137.674 158.685C137.674 159.297 137.178 159.793 136.566 159.793C135.955 159.793 135.459 159.297 135.459 158.685C135.459 158.074 135.955 157.578 136.566 157.578C137.178 157.578 137.674 158.074 137.674 158.685Z" fill="#B2B2B2"/>
<path d="M138.173 162.9H134.959C134.959 162.9 134.959 162.828 134.96 162.793C134.991 161.198 135.698 159.922 136.566 159.922C137.436 159.922 138.144 161.203 138.172 162.802C138.172 162.835 138.173 162.9 138.173 162.9Z" fill="#B2B2B2"/>
<path d="M139.189 163.577H133.881C133.477 163.577 133.148 163.249 133.148 162.845V157.537C133.148 157.133 133.477 156.805 133.881 156.805H139.189C139.592 156.805 139.921 157.133 139.921 157.537V162.845C139.921 163.248 139.592 163.577 139.189 163.577ZM133.881 157.066C133.621 157.066 133.41 157.278 133.41 157.537V162.845C133.41 163.104 133.621 163.316 133.881 163.316H139.189C139.448 163.316 139.66 163.105 139.66 162.845V157.537C139.66 157.278 139.449 157.066 139.189 157.066H133.881Z" fill="#9D9D9C"/>
<path d="M148.097 156.93H142.809V157.758H148.097V156.93Z" fill="#9D9D9C"/>
<path d="M146.864 158.805H143.746V159.219H146.864V158.805Z" fill="#9D9D9C"/>
<path d="M143.289 158.805H142.809V159.219H143.289V158.805Z" fill="#9D9D9C"/>
<path d="M143.289 159.633H142.809V160.047H143.289V159.633Z" fill="#9D9D9C"/>
<path d="M143.289 160.461H142.809V160.876H143.289V160.461Z" fill="#9D9D9C"/>
<path d="M143.289 161.289H142.809V161.703H143.289V161.289Z" fill="#9D9D9C"/>
<path d="M147.712 159.633H143.746V160.047H147.712V159.633Z" fill="#9D9D9C"/>
<path d="M147.173 160.461H143.746V160.876H147.173V160.461Z" fill="#9D9D9C"/>
<path d="M147.515 161.289H143.746V161.703H147.515V161.289Z" fill="#9D9D9C"/>
<path d="M78.9403 231.75L78.1875 251.965H163.732L163.78 245.68L161.801 231.818L78.9403 231.75Z" fill="#493C2D"/>
<path d="M134.15 233.195H122.93V243.843H134.15V233.195Z" fill="#302821"/>
<path d="M122.929 233.195H109.27V243.843H122.929V233.195Z" fill="#EDDE58"/>
<path d="M109.27 233.195H97.7246V243.843H109.27V233.195Z" fill="#302821"/>
<path d="M93.9846 233.195V243.842H80.1816L81.3042 233.195H93.9846Z" fill="#302821"/>
<path d="M158.054 233.195L158.784 243.842H138.703V233.195H158.054Z" fill="#302821"/>
<path fill-rule="evenodd" clip-rule="evenodd" d="M107.879 106.504C107.879 106.504 86.6761 101.059 3.28714 168.482C3.28714 168.482 -2.84225 176.61 4.82312 185.902C12.4891 195.195 28.6347 183.762 46.0117 174.041C63.3887 164.321 73.3549 158.746 73.3549 158.746C73.3549 158.746 69.2307 225.525 71.6049 251.964H105.086C105.086 251.964 102.842 135.22 107.879 106.504Z" fill="#004B85"/>
<path fill-rule="evenodd" clip-rule="evenodd" d="M134.152 108.309C134.152 108.309 143.371 157.896 136.601 251.961H170.277C170.277 251.961 177.619 144.038 167.064 120.52C161.68 110.297 139.759 108.113 134.152 108.309Z" fill="#004B85"/>
<path d="M105.935 106.766C105.935 106.766 94.5728 107.309 87.5032 113.867L102.818 125.316L84.9707 146.212C84.9707 146.212 100.583 168.453 104.629 211.294C104.629 211.294 107.546 117.415 105.935 106.766Z" fill="#034572"/>
<path d="M107.263 106.433C107.263 106.433 95.8313 104.822 88.7611 111.38L102.373 121.178L86.2285 140.383C86.2285 140.383 100.563 165.531 104.61 208.373C104.61 208.373 108.874 117.083 107.263 106.433Z" fill="#035891"/>
<path d="M136.247 109.797C136.247 109.797 149.134 108.327 156.204 114.885L141.102 124.752L159.911 146.198C159.911 146.198 143.688 168.423 139.642 211.264C139.642 211.264 134.636 120.447 136.247 109.797Z" fill="#034572"/>
<path d="M135.456 106.899C135.456 106.899 148.343 105.429 155.413 111.987L141.97 121.17L158.115 140.375C158.115 140.375 142.897 165.524 138.851 208.365C138.851 208.365 133.845 117.548 135.456 106.899Z" fill="#035891"/>
<path d="M31.1562 115.289C31.1562 115.289 40.3418 116.023 51.9288 126.137C51.9288 126.137 36.0327 129.367 31.1562 115.289Z" fill="#004B85"/>
<path d="M47.0235 126.077L60.168 106.239L59.2183 91.0859L38.6592 99.1521L34.8027 120.87L47.0235 126.077Z" fill="#EBA686"/>
<g opacity="0.38">
<path d="M37.4976 99.5084C37.9934 96.5333 38.7709 95.7697 41.6757 96.2813C42.3456 92.8459 45.2175 91.4226 48.1634 93.0327C49.9641 89.4086 51.4272 89.2902 54.529 91.0826C55.0836 88.9059 56.3676 87.2693 57.8669 86.5912C59.9087 85.6687 62.3172 87.0749 62.8547 89.3656L63.7234 93.0656C64.1476 94.8732 63.2555 96.6878 61.6163 97.3507C59.7694 98.0978 57.6358 97.1291 56.8507 95.1872L56.3872 94.0413L56.089 103.776C56.0504 105.036 55.3084 106.133 54.1871 106.586C52.2389 107.374 50.0476 105.941 49.8495 103.75L49.6519 101.56L49.2341 107.388C49.148 108.59 48.4028 109.611 47.3176 110.013C45.5214 110.68 43.5314 109.44 43.2136 107.456L42.3538 102.096C42.3399 104.447 42.8711 105.724 42.3956 107.968C42.1651 109.056 39.5933 111.535 37.8357 107.807C36.7056 105.011 36.855 103.367 37.4976 99.5084Z" fill="black"/>
</g>
<path d="M36.5619 115.85C36.2479 115.484 36.2903 114.932 36.6569 114.618L40.1853 111.594L41.3225 112.921L37.794 115.945C37.4274 116.259 36.8759 116.217 36.5619 115.85Z" fill="#3C3C3B"/>
<path d="M39.2175 114.704L38.0969 113.396C37.2371 112.393 37.6208 110.633 38.9674 109.402L68.4006 82.5156L74.3755 89.4877L43.2981 114.455C41.8761 115.598 40.0773 115.707 39.2175 114.704Z" fill="#575756"/>
<path d="M83.3572 89.8223C86.5609 84.4818 84.8287 77.5554 79.4882 74.3517C74.1477 71.1481 67.2212 72.8803 64.0176 78.2208C60.8139 83.5613 62.5461 90.4877 67.8866 93.6914C73.2271 96.8951 80.1535 95.1628 83.3572 89.8223Z" fill="#3C3C3B"/>
<path d="M81.0335 92.5783C81.1665 92.4644 81.295 92.3472 81.4217 92.2282C78.299 90.7745 76.109 89.576 72.1418 85.3112C69.5605 82.5368 67.6529 79.1926 66.4626 75.3672C66.4277 75.3963 66.3923 75.4229 66.3581 75.452C66.013 75.7477 65.6927 76.0617 65.3926 76.3878C66.6519 80.1455 68.5893 83.4492 71.1661 86.2191C75.0352 90.3782 77.3842 91.7863 80.2826 93.1653C80.5378 92.981 80.7898 92.7873 81.0335 92.5783Z" fill="#9D9D9C"/>
<path d="M63.2703 97.2806C61.821 96.4119 60.0071 96.9197 59.2435 98.4069C56.9554 105.614 54.0069 112.313 50.4062 118.689C45.7843 123.062 36.6013 121.12 36.5861 117.633C36.5823 116.725 35.1736 115.796 37.156 113.257C37.8898 112.318 36.9844 108.704 37.905 106.019C39.6625 109.748 42.2343 107.268 42.4648 106.18C42.9403 103.935 42.4091 102.66 42.423 100.308L43.2828 105.668C43.6013 107.652 45.5912 108.892 47.3868 108.225C48.472 107.822 49.2172 106.802 49.3033 105.6L49.7212 99.7713L49.9187 101.961C50.1162 104.153 52.3075 105.585 54.2563 104.797C55.3776 104.344 56.1196 103.247 56.1582 101.987L56.4565 92.2522L56.9199 93.3982C57.705 95.34 59.8387 96.3087 61.6855 95.5616C63.3247 94.8987 64.2168 93.0841 63.7926 91.2765L62.9239 87.5765C62.3858 85.2858 59.9773 83.8796 57.9361 84.8021C56.4368 85.4796 55.1535 87.1168 54.5982 89.2936C51.4965 87.5012 50.0333 87.6196 48.2327 91.2436C45.286 89.6329 42.4141 91.0562 41.7449 94.4916C38.8401 93.98 37.1116 94.9715 36.6165 97.9466C35.9739 101.806 36.3778 105.777 35.6896 113.049C35.6339 113.64 35.7441 114.242 35.4801 114.762L31.9434 121.721L47.4014 128.473L48.869 125.768C49.8807 123.704 52.2011 122.413 54.3051 121.618C59.7532 119.56 63.6166 111.349 63.0543 107.054C62.8923 105.815 63.1392 103.3 64.6404 101.05C65.4546 99.8296 64.5504 98.0479 63.2703 97.2806Z" fill="#FFB797"/>
<path fill-rule="evenodd" clip-rule="evenodd" d="M31.1546 115.289C31.1546 115.289 -1.46072 164.427 0.964816 177.731C2.83003 187.962 10.1586 190.45 16.0398 188.925C28.5461 185.682 51.9271 126.138 51.9271 126.138C51.9271 126.138 39.7982 125.345 31.1546 115.289Z" fill="#035891"/>
<path d="M31.1544 122.563C32.1814 122.563 33.014 121.73 33.014 120.703C33.014 119.676 32.1814 118.844 31.1544 118.844C30.1275 118.844 29.2949 119.676 29.2949 120.703C29.2949 121.73 30.1275 122.563 31.1544 122.563Z" fill="#087FC1"/>
<path d="M121.58 112.945C119.971 112.499 118.265 113.204 117.44 114.655L117.407 114.712C116.451 116.394 116.296 118.415 116.986 120.222C117.401 121.308 118.231 122.186 119.292 122.661C120.792 123.332 122.555 122.927 123.613 121.669L124.266 120.894C125.001 120.019 125.366 118.891 125.282 117.751L125.259 117.432C125.103 115.309 123.631 113.514 121.58 112.945Z" fill="#9E221D"/>
<path d="M117.638 118.883C117.638 118.883 111.454 137.378 110.484 170.06L112.434 201.975L121.826 210.658L129.81 200.863L129.057 171.981C129.81 150.838 123.187 119.397 123.187 119.397L117.638 118.883Z" fill="#9E221D"/>
<path opacity="0.2" d="M133.81 100.859C133.81 100.859 133.917 104.294 131.432 106.424C124.778 112.129 112.409 108.599 111.412 100.859L107.877 106.501C105.782 111.181 106.376 116.284 107.593 121.265L108.461 124.821L121.58 114.644L129.351 125.305L135.67 119.028C137.671 116.742 137.747 111.295 137 108.351L133.81 100.859Z" fill="#1D1D1B"/>
<path d="M133.81 99.1641C133.81 99.1641 134.062 102.78 131.432 104.729C124.882 109.584 111.454 108.196 111.412 99.1641L107.877 104.806C105.782 109.485 106.376 114.589 107.593 119.57L108.461 123.126L121.58 112.949L129.351 123.609L135.67 117.332C137.671 115.046 137.747 109.6 137 106.655L133.81 99.1641Z" fill="#F6F6F6"/>
<path d="M159.516 121.852L172.481 161.293L172.761 187.717C172.761 187.717 170.255 183.426 166.136 172.102C159.825 154.752 159.516 121.852 159.516 121.852Z" fill="#034572"/>
<path d="M158.092 113.086C158.092 113.086 184.871 118.436 208.959 192.603C208.959 192.603 222.282 219.307 193.24 220.959C193.24 220.959 173.321 187.028 167.334 169.563C161.348 152.1 158.092 113.086 158.092 113.086Z" fill="#004B85"/>
<path d="M162.048 207.279C158.159 207.88 154.268 208.467 150.372 209.038C149.881 209.11 149.391 208.869 149.13 208.44C148.986 208.204 148.835 207.967 148.674 207.728C148.614 207.684 148.554 207.64 148.495 207.591C147.617 206.857 146.762 206.121 145.976 205.326C145.396 204.904 144.822 204.47 144.363 203.915C144.334 203.879 144.307 203.843 144.28 203.807C143.409 203.103 142.484 202.476 141.486 201.937C141.125 201.742 140.805 201.49 140.545 201.197C140.319 201.078 140.093 200.957 139.868 200.831C137.101 199.275 134.518 197.376 131.675 195.965C129.34 194.805 127.681 194.644 125.169 195.138L125.155 195.146C124.81 195.369 124.612 195.764 124.64 196.178C124.649 196.311 124.655 196.444 124.656 196.577C124.661 196.834 124.738 197.09 124.901 197.294C124.977 197.39 125.046 197.49 125.109 197.594C125.171 197.697 125.243 197.795 125.331 197.878C125.374 197.92 125.417 197.961 125.46 198.003C125.553 198.095 125.659 198.172 125.775 198.232C128.658 199.7 131.214 201.828 133.196 204.378C134.072 205.503 134.842 206.697 135.549 207.931C135.399 207.916 135.247 207.91 135.094 207.918C130.793 208.132 126.492 208.351 122.19 208.561C120.378 208.649 118.552 208.694 116.775 208.179C114.938 207.646 113.204 206.751 111.495 205.896C110.239 205.267 108.648 206.072 108.178 207.266C107.652 208.603 108.401 209.971 109.651 210.597C111.529 211.538 113.418 212.467 115.446 213.027C117.699 213.649 119.897 213.747 122.208 213.65C123.873 213.581 125.538 213.501 127.203 213.417C127.238 213.522 127.28 213.626 127.33 213.726C127.598 214.256 127.873 214.784 128.151 215.309C122.081 215.267 115.928 215.655 110.218 213.524C107.105 212.362 105.249 217.058 108.373 218.224C115.77 220.985 123.46 219.977 131.084 220.436C131.217 220.652 131.352 220.866 131.487 221.08C124.864 221.454 118.278 222.866 111.759 221.215C110.401 220.871 109.067 222.155 108.932 223.394C108.771 224.867 109.857 225.919 111.207 226.261C118.866 228.202 126.582 225.981 134.209 226.052C134.243 226.118 134.277 226.182 134.311 226.247C134.235 226.334 134.164 226.426 134.099 226.522C128.414 228.061 122.429 228.499 116.459 227.741C113.173 227.323 112.614 232.368 115.908 232.787C122.715 233.653 129.648 233.135 136.168 231.286C136.722 231.388 137.303 231.351 137.848 231.15C138.1 231.057 138.352 230.964 138.605 230.871C139.832 231.223 141.193 231.103 142.557 230.781C146.727 229.794 150.728 227.963 152.751 224.128C153.054 224.154 153.363 224.164 153.679 224.147C156.468 224.003 159.258 223.87 162.047 223.734V207.279H162.048Z" fill="#FFBE92"/>
<path d="M150.246 204.941L153.452 228.548C153.452 228.548 218.511 230.079 212.009 203.234C212.009 203.234 214.167 185.133 150.246 204.941Z" fill="#035891"/>
<path d="M157.516 226.134C158.544 226.134 159.377 225.302 159.377 224.274C159.377 223.247 158.544 222.414 157.516 222.414C156.489 222.414 155.656 223.247 155.656 224.274C155.656 225.302 156.489 226.134 157.516 226.134Z" fill="#087FC1"/>
<path d="M159.756 48.4879C159.756 43.6799 158.34 39.5753 153.893 37.9361V35.2757C153.841 21.5961 140.84 4.53125 124.804 4.53125H119.711C103.673 4.53125 90.6733 21.5961 90.6733 36.8477V37.6214C85.7165 38.9871 83.8633 43.3336 83.8633 48.4879C83.8633 53.6423 86.4838 57.9887 91.44 59.3544C91.44 59.3544 94.4195 97.1925 121.81 97.1925C151.343 97.1925 152.884 59.0397 152.884 59.0397C157.332 57.4006 159.756 53.2959 159.756 48.4879Z" fill="#FFB797"/>
<path d="M133.549 72.4138C133.543 75.3287 128.66 80.3995 122.481 80.3875C116.27 80.3767 112.112 75.4294 111.719 72.3593C111.692 72.1732 111.685 72.0054 111.686 71.8516C116.701 73.3287 127.143 73.3014 133.49 71.8921C133.509 71.9788 133.529 72.0725 133.536 72.1726C133.543 72.2473 133.55 72.327 133.549 72.4138Z" fill="white"/>
<path d="M133.55 72.4132C133.545 75.3281 128.75 81.2175 122.571 81.2061C116.361 81.1954 112.114 75.4288 111.72 72.3593C111.694 72.1732 111.687 72.0054 111.688 71.8516C115.575 76.5235 125.911 79.9918 133.492 71.8921C133.511 71.9788 133.531 72.0725 133.538 72.1726C133.545 72.2466 133.551 72.3264 133.55 72.4132Z" fill="#DB5252"/>
<path d="M142.29 42.7406C142.041 42.7406 141.792 42.6551 141.589 42.4791C135.804 37.4722 131.087 42.2106 130.889 42.4151C130.477 42.8393 129.799 42.8501 129.374 42.4379C128.949 42.0264 128.939 41.3483 129.351 40.9235C129.414 40.8595 135.694 34.5433 142.991 40.8595C143.439 41.2463 143.488 41.9232 143.1 42.3702C142.888 42.6152 142.589 42.7406 142.29 42.7406Z" fill="#3C3D42"/>
<path d="M114.233 42.7386C113.971 42.7386 113.709 42.6437 113.502 42.4506C111.677 40.7481 109.791 39.9282 107.893 39.9997C104.958 40.1181 102.877 42.3632 102.857 42.386C102.459 42.8222 101.782 42.8558 101.345 42.4594C100.907 42.0631 100.872 41.3894 101.266 40.95C101.373 40.831 103.938 38.0275 107.779 37.8597C110.277 37.7489 112.696 38.7683 114.964 40.8836C115.396 41.2869 115.419 41.965 115.016 42.3974C114.806 42.6241 114.52 42.7386 114.233 42.7386Z" fill="#3C3D42"/>
<path d="M121.946 45.0078L119.051 61.6846C119.051 61.6846 117.398 67.0384 126.406 64.3836C126.406 64.3836 119.328 65.1504 120.244 61.6934C120.244 61.6934 122.764 45.7669 121.946 45.0078Z" fill="#9B6D55"/>
<path d="M110.779 49.1965C110.779 51.1694 109.601 52.768 108.148 52.768C106.694 52.768 105.516 51.1687 105.516 49.1965C105.516 47.2243 106.694 45.625 108.148 45.625C109.601 45.625 110.779 47.2237 110.779 49.1965Z" fill="#393B40"/>
<path d="M109.484 47.3476C109.484 47.7168 109.186 48.0156 108.816 48.0156C108.447 48.0156 108.148 47.7168 108.148 47.3476C108.148 46.9785 108.447 46.6797 108.816 46.6797C109.186 46.6803 109.484 46.9792 109.484 47.3476Z" fill="white"/>
<path d="M138.14 49.1965C138.14 51.1694 136.962 52.768 135.509 52.768C134.055 52.768 132.877 51.1687 132.877 49.1965C132.877 47.2243 134.055 45.625 135.509 45.625C136.962 45.625 138.14 47.2237 138.14 49.1965Z" fill="#393B40"/>
<path d="M136.207 48.0156C136.576 48.0156 136.875 47.7165 136.875 47.3476C136.875 46.9787 136.576 46.6797 136.207 46.6797C135.838 46.6797 135.539 46.9787 135.539 47.3476C135.539 47.7165 135.838 48.0156 136.207 48.0156Z" fill="white"/>
<path d="M136.52 19.2657C136.52 19.2657 133.126 24.2928 115.305 24.9683C94.9829 25.7388 91.4487 52.7471 91.4487 52.7471C91.4487 52.7471 80.0124 0 120.722 0C120.722 0 136.872 0.616672 143.361 9.0418C143.361 9.0418 162.233 9.14437 156.394 39.3487L153.891 37.9356C153.891 37.9356 152.163 44.3581 151.033 52.7471C151.033 52.7471 151.752 42.9494 151.136 37.1954C150.52 31.4415 137.772 29.5263 136.52 19.2657Z" fill="#3C3D42"/>
<path d="M142.26 7.77344C142.26 7.77344 138.139 10.7872 137.676 16.3353C137.676 16.3353 141.449 9.09479 144.947 9.22585C144.947 9.22585 144.012 9.10429 143.361 9.03971C143.361 9.03971 142.99 8.3344 142.26 7.77344Z" fill="#45464C"/>
<path d="M135.004 13.3281C135.004 13.3281 129.066 20.5319 116.817 21.5741C103.228 22.7302 95.1367 35.8563 95.1367 35.8563C95.1367 35.8563 100.744 22.3959 115.305 19.6215C129.866 16.8471 135.004 13.3281 135.004 13.3281Z" fill="#45464C"/>
<path d="M131.356 5.15882C131.356 5.15882 101.764 -5.70705 93.4414 26.1966C93.4414 26.1966 100.377 -0.467223 131.356 5.15882Z" fill="#45464C"/>
<path d="M127.041 8.54974C127.041 8.54974 104.692 4.23429 98.5273 23.1144C98.5273 23.1144 106.851 9.08917 127.041 8.54974Z" fill="#45464C"/>
<path d="M140.682 15.6172C140.682 15.6172 142.377 23.8055 147.925 28.7376C149.544 30.2787 152.395 34.9025 152.626 36.9836C152.626 36.9836 152.164 31.6665 148.928 28.0444C145.691 24.4222 140.759 16.5992 140.682 15.6172Z" fill="#45464C"/>
<path d="M145.305 11.9453C145.305 11.9453 156.787 15.028 155.323 34.9098C155.323 34.9098 155.785 18.7268 145.305 11.9453Z" fill="#45464C"/>
<path d="M156.583 55.4769C156.583 53.9707 155.801 52.75 154.836 52.75C153.871 52.75 153.089 53.9707 153.089 55.4769C153.089 56.9831 153.871 58.2038 154.836 58.2038C154.88 58.2038 154.924 58.1988 154.967 58.1937C155.029 59.8683 154.807 62.109 153.932 64.9866C153.239 67.2634 152.225 69.5794 151.246 71.8188C148.778 77.46 146.226 83.2937 148.021 89.7251C149.684 95.6848 151.324 102.334 151.638 109.413C151.939 109.566 152.258 109.736 152.596 109.928C152.342 102.557 150.633 95.6449 148.912 89.4769C147.205 83.3627 149.69 77.6829 152.094 72.1898C153.084 69.9257 154.108 67.585 154.817 65.2557C155.811 61.9874 156.005 59.4897 155.877 57.6638C156.304 57.1668 156.583 56.3734 156.583 55.4769Z" fill="#45464C"/>
</svg>
