<svg width="281" height="538" viewBox="0 0 281 538" fill="none" xmlns="http://www.w3.org/2000/svg">
<path d="M120.86 164.891C121.436 165.118 121.486 165.147 121.896 165.663C121.365 167.606 119.67 169.804 118.674 171.6C116.342 175.907 113.97 180.193 111.56 184.456C110.227 186.808 108.688 189.103 107.521 191.535L107.072 191.534C107 191.359 106.915 191.188 106.857 191.008C106.645 190.346 106.62 189.178 106.915 188.557C107.599 187.119 109.005 185.729 109.831 184.266C113.479 177.803 116.868 171.149 120.86 164.891Z" fill="#D5E3EA"/>
<path d="M114.895 156.155C115.56 155.754 115.778 155.46 116.146 154.781C116.153 156.387 116.338 157.508 115.134 158.763C112.035 161.989 102.767 170.702 98.9981 171.952C98.05 171.804 97.4306 171.436 96.6251 170.956C95.4473 169.475 88.8804 165.442 86.9312 163.963C89.2689 162.544 92.0987 162.729 94.7535 162.602C102.536 162.5 108.018 159.32 114.895 156.155Z" fill="#F8B166"/>
<path d="M81.7006 153.062C86.6915 156.698 109.502 153.553 114.895 156.152C108.018 159.317 102.536 162.497 94.754 162.599C92.0993 162.726 89.2695 162.541 86.9317 163.96C84.9212 162.6 83.0548 161.364 81.6451 159.328L81.4727 155.522L81.6622 154.615L81.7006 153.062Z" fill="#E48039"/>
<path d="M81.6617 154.617C85.1864 158.045 89.6146 162.079 94.7538 162.601C92.099 162.728 89.2693 162.543 86.9315 163.962C84.921 162.601 83.0545 161.366 81.6448 159.33L81.4724 155.523L81.6617 154.617Z" fill="#F59547"/>
<path d="M96.925 173.74C97.7311 173.288 97.87 173.032 98.7946 173.252C101.78 176.919 104.947 183.013 105.829 187.67C105.346 188.134 105.128 188.169 104.501 188.348C104.097 189.222 104.137 190.154 104.172 191.1C104.35 195.876 104.907 200.691 105.269 205.46C106.161 217.959 107.286 230.436 108.644 242.893L110.195 257.99C110.484 260.899 110.596 263.949 111.142 266.812C111.182 269.406 111.405 271.988 111.663 274.569C111.766 276.721 112.115 279.241 111.805 281.368C111.074 282.031 110.089 282.736 109.486 283.499C105.992 286.292 99.9867 292.441 96.1791 293.914C95.726 293.787 95.3744 293.671 94.9486 293.462L95.019 293.302C92.1309 291.51 87.205 285.585 84.7003 282.934L84.645 279.551C84.8042 276.106 85.1656 272.677 85.2799 269.229C86.0888 264.706 86.3294 259.968 86.7529 255.388L89.4217 223.167C90.9754 211.48 91.5493 199.613 92.2715 187.856L92.0656 185.374L91.6853 184.548C93.1048 180.683 95.3191 177.457 96.925 173.74Z" fill="#DC0B13"/>
<path d="M92.2712 187.859C93.2978 188.252 94.5629 188.806 95.0743 189.869C96.1238 192.052 94.9171 211.783 94.8598 215.851C94.6264 232.453 94.3819 249.147 94.7032 265.747C94.8756 274.657 96.0425 283.686 95.5895 292.584C95.4073 292.856 95.2687 293.091 95.019 293.306C92.1309 291.514 87.205 285.589 84.7003 282.938L84.645 279.555C84.8042 276.11 85.1656 272.681 85.2799 269.232C86.0888 264.71 86.3294 259.972 86.7529 255.391L89.4217 223.171C90.9749 211.484 91.5487 199.616 92.2712 187.859Z" fill="#A80408"/>
<path d="M74.5024 164.906C76.6684 168.207 78.5841 171.646 80.7069 174.97C83.6234 179.538 86.6902 183.974 89.2929 188.737C90.0423 187.474 91.2109 185.915 91.6848 184.551L92.0651 185.377L92.271 187.859C91.5488 199.616 90.9749 211.484 89.4212 223.171L86.7524 255.391C86.3291 259.972 86.0886 264.71 85.2793 269.232C85.1651 272.681 84.8037 276.109 84.6445 279.555C82.1094 275.691 79.4114 267.274 77.5655 262.705C74.8784 256.054 72.0633 249.441 69.505 242.739C67.1623 236.604 65.1057 230.356 62.802 224.204C60.5246 218.28 58.1433 212.398 55.6581 206.558C58.4738 204.062 61.2614 201.535 64.0204 198.976C60.2317 198.281 56.4335 197.134 52.6929 196.194C53.718 189.794 54.6965 183.288 56.2534 176.994C56.6414 175.425 58.1479 171.938 57.6582 170.582C61.3227 169.189 66.2649 169.333 70.1782 168.819C70.5954 168.629 70.9757 168.195 71.2758 167.859C72.2915 166.722 73.3012 165.836 74.5024 164.906Z" fill="#2A74AD"/>
<path d="M74.5029 164.906C76.6689 168.207 78.5846 171.646 80.7074 174.97C83.6239 179.538 86.6907 183.974 89.2934 188.737C90.0428 187.474 91.2114 185.915 91.6853 184.551L92.0656 185.377L92.2715 187.859C91.5493 199.616 90.9754 211.484 89.4217 223.171L86.7529 255.391C86.3296 259.972 86.0891 264.71 85.2798 269.232C84.0792 264.968 83.8074 259.892 83.1019 255.48C79.5482 233.046 76.144 210.588 72.8893 188.108C72.5128 185.338 71.032 169.944 70.1787 168.818C70.5959 168.629 70.9762 168.194 71.2763 167.859C72.292 166.722 73.3017 165.836 74.5029 164.906Z" fill="#D5E3EA"/>
<path d="M78.7122 177.703C82.637 182.139 85.1609 187.384 89.4562 191.593C90.4347 189.961 91.0767 186.301 92.0649 185.378L92.2708 187.86C91.5486 199.617 90.9748 211.485 89.421 223.171C87.7805 220.903 87.3292 217.403 86.3882 214.735C82.0663 202.47 76.9872 191.063 78.7122 177.703Z" fill="#FEFEFE"/>
<path d="M63.5664 9.56335C73.7322 1.48417 88.4156 -0.645156 101.022 0.765995C115.98 2.4403 134.092 14.6032 147.18 4.19422C148.828 2.88358 150.247 1.33269 151.858 0C154.908 5.31931 155.366 11.2709 153.735 17.1552C153.218 19.0216 152.392 20.7853 151.523 22.5106C156.011 22.5896 160.162 22.3722 164.313 20.4975C164.774 23.7456 164.926 26.3812 164.113 29.5912C160.744 30.3959 157.403 32.5639 154.242 33.9959C149.875 35.974 144.956 37.6134 140.292 38.6698C121.184 42.9969 92.166 42.5229 75.4091 31.8488C70.0308 28.4229 64.5394 23.2734 63.9017 16.5813C63.7038 14.4998 64.1952 12.0446 63.7039 10.0708C63.6612 9.90097 63.6119 9.73259 63.5664 9.56335Z" fill="#6A3620"/>
<path d="M53.896 29.5534C53.9192 28.6065 53.9404 27.6529 54.0303 26.7094C54.6941 19.767 58.3196 13.956 63.5662 9.5625C63.6117 9.73174 63.661 9.89983 63.7034 10.0699C64.1947 12.0438 63.7033 14.4992 63.9012 16.5805C64.5389 23.2725 70.0303 28.422 75.4086 31.848C92.1658 42.5221 121.184 42.9957 140.292 38.6689C144.955 37.6129 149.875 35.9735 154.242 33.9951C157.403 32.5627 160.743 30.395 164.113 29.5904C161.789 36.1659 157.798 40.0998 152.585 44.5569C156.647 57.196 153.624 73.0929 149.728 85.549C149.183 87.2546 148.673 89.0208 147.929 90.6521C147.534 91.5184 147.2 92.0954 146.291 92.4178C145.792 91.4362 145.948 85.0376 145.803 83.3507C145.042 74.4903 142.325 64.8571 137.421 57.379C136.462 56.1485 135.529 54.8808 134.517 53.6948C113.697 60.8842 88.158 60.1566 68.1731 50.3553C67.6811 50.1136 67.1917 49.8665 66.7049 49.6136C55.9337 57.8031 50.4349 72.1379 48.6724 85.1158C48.4238 86.9464 48.1658 88.7803 48.0109 90.6218C46.9147 88.9017 45.6075 87.4189 44.4297 85.7718C41.3503 75.425 39.7937 58.8302 40.0583 48.0691C38.8398 47.2667 37.6475 46.4735 37.2108 45.0011C36.6776 43.2019 37.2151 41.4769 38.1615 39.9263C41.4253 34.5784 47.9891 31.0405 53.896 29.5534Z" fill="#3F1A10"/>
<path d="M57.6582 170.578C58.1478 171.935 56.6413 175.422 56.2533 176.99C54.6967 183.284 53.7182 189.791 52.6928 196.191C56.4337 197.131 60.2316 198.278 64.0204 198.973C61.2614 201.531 58.4737 204.059 55.658 206.554C58.1436 212.395 60.5249 218.277 62.802 224.201C65.1057 230.353 67.1623 236.6 69.5049 242.736C72.0632 249.438 74.8783 256.05 77.5655 262.702C79.4113 267.271 82.1094 275.688 84.6444 279.551L84.6997 282.934C87.2044 285.586 92.1306 291.51 95.0185 293.302L94.948 293.462C93.7133 294.917 94.5199 311.426 94.8005 314.254C94.877 315.026 94.9317 315.588 95.4194 316.218L96.1118 316.41C94.3936 316.538 92.6855 316.604 90.9637 316.643C89.2321 316.724 87.5022 316.818 85.7681 316.815L84.5763 317.06C83.4933 318.771 83.8541 325.977 83.8166 328.198C83.2565 334.432 81.9822 340.957 76.955 345.224C73.5325 348.129 69.2277 348.843 64.8863 348.408C61.491 348.068 57.2733 346.459 53.9614 346.77C49.3611 345.462 44.0621 342.444 40.0978 339.739C41.4589 333.758 41.8142 327.571 42.6392 321.503C43.1506 317.745 44.2482 313.683 44.2706 309.924C42.8147 307.785 41.9079 305.369 41.0276 302.953C43.4954 300.375 46.531 297.607 50.0174 296.58C54.565 280.194 49.91 247.696 47.8866 230.305C47.281 225.103 47.3915 218.908 45.8524 213.916C41.8515 218.609 38.4507 223.806 34.5497 228.583C30.4511 233.603 25.8053 238.114 21.3119 242.771C29.8114 259.231 38.3247 275.66 46.4855 292.287C41.9116 295.377 37.4989 298.683 33.2477 302.204C31.7306 299.633 30.1081 297.079 28.7488 294.421C23.038 285.661 17.9174 276.257 12.6039 267.235C8.90245 260.951 2.17887 251.016 0 244.411C0.384573 243.248 0.808949 242.132 1.34157 241.028C8.17712 226.862 18.3604 213.992 27.4141 201.188C31.9493 194.774 40.5772 181.858 46.1196 176.797C49.4713 173.739 53.4284 172.064 57.6582 170.578Z" fill="#092D55"/>
<path d="M50.0182 296.586C50.1694 296.627 50.32 296.67 50.4718 296.709C55.0698 297.883 62.7045 295.822 65.5955 300.6C66.9251 302.798 66.8498 305.776 66.1227 308.16C65.7651 309.334 65.2923 310.177 64.3934 311.007C63.9943 311.123 63.6529 311.349 63.2526 311.15C60.5826 309.824 59.6442 304.181 55.7593 304.3C53.1328 306.053 53.461 314.937 49.239 314.112C47.2426 313.722 45.4125 311.502 44.2708 309.929C42.815 307.791 41.9081 305.374 41.0278 302.959C43.4959 300.381 46.5318 297.613 50.0182 296.586Z" fill="#F8B166"/>
<path d="M84.6998 282.938C87.2046 285.589 92.1307 291.514 95.0186 293.306L94.9481 293.465C93.7134 294.921 94.52 311.429 94.8007 314.258C94.8771 315.03 94.9318 315.591 95.4195 316.221L96.1119 316.414C94.3938 316.541 92.6857 316.608 90.9638 316.646C89.2322 316.728 87.5024 316.821 85.7682 316.819L84.5335 316.463C83.5241 313.323 84.5292 287.793 84.6998 282.938Z" fill="#D5E3EA"/>
<path d="M9.20459 248.73C11.1884 243.124 16.699 235.376 19.674 229.778C25.6233 218.587 30.9391 207.033 36.9563 195.901C39.3791 191.417 42.1081 187.066 44.7291 182.695C44.8396 188.097 43.6229 210.092 45.8527 213.922C41.8518 218.615 38.451 223.812 34.55 228.589C30.4515 233.609 25.8057 238.12 21.3122 242.777C29.8118 259.237 38.325 275.666 46.4858 292.293C41.9119 295.384 37.4992 298.689 33.248 302.21C31.7309 299.639 30.1084 297.085 28.7491 294.427C30.1903 294.271 31.8426 300.23 33.819 301.023L34.6099 300.426C34.8668 299.626 34.9177 299.183 34.605 298.377C33.7594 296.199 32.2435 294.077 31.2475 291.917C24.465 277.202 16.24 263.3 9.20459 248.73Z" fill="#154A7B"/>
<path d="M122.543 165.852C127.771 168.149 132.784 170.847 137.581 173.945C145.166 177.891 151.242 184.444 157.454 190.232L179.639 210.662C184.557 215.256 189.396 220.359 194.689 224.491C201.163 221.841 207.419 218.405 213.786 215.464C219.78 212.586 225.802 209.751 231.76 206.802C235.587 204.907 239.44 202.675 243.412 201.126C245.321 200.865 246.985 199.476 248.901 199.187C249.679 199.07 249.732 199.175 250.307 199.64C251.976 203.288 253.757 206.841 255.304 210.546C255.262 212.129 255.13 213.181 253.998 214.352C253.257 215.119 251.939 215.751 250.884 215.81C240.921 220.913 231.053 226.192 221.278 231.647C217.779 233.568 213.978 235.247 210.606 237.357C205.997 239.696 193.353 247.351 188.455 245.736C184.612 244.468 180.951 240.813 177.778 238.309C171.555 233.438 165.364 228.527 159.206 223.574C155.173 220.34 151.038 216.52 146.567 213.944C146.95 239.148 147.093 264.612 149.431 289.726C151.149 306.765 153.752 323.667 157.24 340.433L156.827 340.596C153.357 341.945 147.585 342.561 144.703 344.237C144.435 345.131 144.394 345.879 144.392 346.809C144.312 345.908 144.216 345.094 143.962 344.225C141.16 344.845 138.393 345.644 135.55 346.057C130.208 346.835 124.154 346.769 119.707 343.286C114.617 339.3 113.261 331.152 112.456 325.127C111.919 322.185 112.166 319.213 111.741 316.269L107.457 316.269L107.088 316.085C103.425 315.989 99.7682 316.225 96.1117 316.407L95.4193 316.215C94.9317 315.585 94.877 315.024 94.8005 314.252C94.5199 311.423 93.7132 294.914 94.948 293.459C95.3738 293.669 95.7254 293.785 96.1785 293.912C99.9861 292.438 105.991 286.289 109.485 283.496C110.088 282.733 111.074 282.028 111.804 281.365C112.114 279.238 111.765 276.718 111.662 274.567C111.404 271.986 111.181 269.403 111.142 266.809C113.184 256.716 114.694 246.436 116.284 236.26C118.922 219.381 121.62 202.132 122.474 185.066C122.795 178.673 122.634 172.251 122.543 165.852Z" fill="#154A7B"/>
<path d="M109.486 283.491C110.089 282.727 111.075 282.023 111.805 281.359C111.689 289.256 111.639 297.153 111.657 305.05C111.659 308.762 111.467 312.57 111.742 316.263L107.457 316.264L107.088 316.079C108.298 311.086 110.742 287.738 109.486 283.491Z" fill="#D5E3EA"/>
<path d="M243.412 201.124C245.321 200.863 246.985 199.474 248.901 199.185C249.679 199.068 249.732 199.172 250.307 199.638C251.976 203.286 253.757 206.839 255.304 210.544C255.262 212.127 255.13 213.179 253.998 214.35C253.257 215.117 251.939 215.749 250.884 215.808C248.783 210.829 245.902 205.939 243.412 201.124Z" fill="#FEFEFE"/>
<path d="M109.486 283.5C110.742 287.747 108.297 311.095 107.088 316.089C103.426 315.993 99.7687 316.229 96.1122 316.411L95.4198 316.219C94.9322 315.589 94.8775 315.028 94.801 314.256C94.5204 311.427 93.7137 294.918 94.9485 293.463C95.3743 293.673 95.7259 293.789 96.1789 293.916C99.9869 292.442 105.992 286.293 109.486 283.5Z" fill="#FEFEFE"/>
<path d="M122.543 165.852C127.771 168.149 132.784 170.847 137.581 173.945C137.223 177.249 140.878 194.439 141.719 198.858C138.377 199.51 135.021 200.06 131.677 200.688C134.094 203.327 136.489 206.265 139.15 208.649C136.177 216.212 133.595 223.907 130.75 231.516C126.676 242.408 122.325 253.285 117.92 264.05C116.715 266.995 115.247 272.166 113.37 274.442C112.579 274.787 112.515 274.75 111.663 274.568C111.405 271.987 111.182 269.405 111.143 266.81C113.185 256.717 114.695 246.437 116.285 236.261C118.923 219.382 121.621 202.133 122.475 185.068C122.795 178.673 122.634 172.251 122.543 165.852Z" fill="#2A74AD"/>
<path d="M66.7059 49.6172C67.1927 49.8698 67.682 50.1172 68.174 50.3588C88.1586 60.1602 113.698 60.8878 134.518 53.6983C135.53 54.8844 136.463 56.1521 137.422 57.3825C142.326 64.8606 145.042 74.4936 145.804 83.3542C145.949 85.0409 145.793 91.4397 146.292 92.4213C147.201 92.0989 147.535 91.5219 147.93 90.6557C148.674 89.0243 149.184 87.2581 149.729 85.5526C149.869 85.5992 150.008 85.6485 150.148 85.6935C151.198 86.0282 152.447 86.0076 153.543 86.1112C158.071 86.5393 161.685 87.8119 163.943 92.1115C165.807 95.6623 165.958 100.1 164.652 103.858C163.413 107.423 160.866 110.595 157.436 112.252C154.637 113.604 151.698 113.733 148.662 113.404C146.548 126.316 140.456 138.615 129.617 146.379C126.917 148.314 119.611 152.76 116.454 152.558L116.147 154.779C115.779 155.458 115.56 155.752 114.895 156.153C109.503 153.554 86.6922 156.699 81.7013 153.063C76.8204 152.208 71.323 149.386 67.3865 146.457C55.9246 137.927 47.6479 124.156 45.5749 110.025C41.8827 110.165 38.4545 110.083 35.3879 107.708C32.8563 105.747 31.3572 102.721 31.0683 99.5567C31.0497 99.329 31.0368 99.1014 31.0299 98.8735C31.0227 98.645 31.0213 98.417 31.0256 98.1888C31.0302 97.9603 31.0405 97.7323 31.0565 97.505C31.0729 97.2773 31.0946 97.0502 31.1221 96.8235C31.1496 96.5967 31.1828 96.371 31.2218 96.1462C31.2607 95.9214 31.3054 95.6978 31.3561 95.475C31.4062 95.2522 31.4623 95.0309 31.5236 94.8112C31.5849 94.5916 31.6524 94.3734 31.7252 94.1572C31.7976 93.941 31.8755 93.7265 31.9591 93.5141C32.043 93.3016 32.1318 93.0914 32.2257 92.8835C32.3199 92.6753 32.4196 92.47 32.5238 92.267C32.6283 92.0643 32.738 91.8641 32.8531 91.6668C32.9677 91.4695 33.0871 91.2753 33.2113 91.0838C33.3359 90.8928 33.4653 90.7047 33.5994 90.5202C33.7337 90.3355 33.8725 90.1543 34.0154 89.9767C34.1589 89.7989 34.3066 89.6251 34.4587 89.455C37.2993 86.3131 40.4615 85.9692 44.4307 85.7762C45.6085 87.4233 46.9154 88.9061 48.0118 90.6262C48.1667 88.7846 48.4247 86.9508 48.6733 85.1202C50.4358 72.1412 55.9344 57.8063 66.7059 49.6172Z" fill="#F8B166"/>
<path d="M152.334 92.3203C154.15 92.621 155.827 92.8882 157.069 94.3752C158.85 96.5059 158.533 99.6787 158.389 102.26C157.784 103.022 157.044 103.699 156.358 104.389C154.801 105.129 153.143 105.371 151.462 105.676C152.698 100.977 152.758 97.166 152.334 92.3203Z" fill="#F59547"/>
<path d="M91.0621 112.023C95.7833 115.195 100.298 115.138 105.757 115.297C104.629 116.389 103.542 117.255 102.242 118.128C99.3415 119.325 96.0209 119.908 92.8813 119.669C91.7001 119.579 90.7847 119.461 89.9829 118.506C89.5353 116.655 90.5782 113.86 91.0621 112.023Z" fill="#F59547"/>
<path d="M77.1348 106.492C77.4263 106.591 77.4935 106.596 77.7848 106.798C79.5679 108.032 80.9845 110.618 81.4455 112.692C82.0145 115.249 81.5512 116.438 80.1329 118.591C79.2157 119.13 78.222 119.521 77.2459 119.94C77.0783 119.908 76.9123 119.868 76.7479 119.822C76.5835 119.775 76.4211 119.722 76.2614 119.662C76.1013 119.601 75.9444 119.533 75.7906 119.459C75.6368 119.385 75.4862 119.305 75.3393 119.218C75.1924 119.131 75.0495 119.037 74.9106 118.938C74.7718 118.838 74.6374 118.733 74.508 118.621C74.378 118.51 74.2534 118.394 74.1338 118.272C74.0141 118.15 73.8998 118.023 73.7913 117.891C72.0013 115.681 72.3355 112.75 72.6444 110.131C73.9763 108.537 75.2912 107.461 77.1348 106.492Z" fill="#F59547"/>
<path d="M74.072 68.2223C75.0596 68.1779 75.9585 68.1779 76.8774 68.5945C78.4463 69.3064 79.5439 71.3853 80.0327 72.95C80.3036 73.8173 80.4141 74.8365 79.8901 75.6383C78.6748 77.4999 70.4556 77.1353 67.7759 77.5551C65.9647 78.0021 64.1779 78.5562 62.3867 79.0779C62.8758 77.6244 63.3277 76.2336 64.1658 74.9338C66.5271 71.2745 69.872 69.1535 74.072 68.2223Z" fill="#3F1A10"/>
<path d="M123.545 70.1016C125.814 70.1806 127.886 70.3985 129.708 71.8855C132.412 74.0928 132.825 77.677 133.088 80.9186C130.869 80.1291 128.63 79.4012 126.371 78.7357C123.13 78.0954 118.737 78.3657 115.803 76.9523C114.989 76.5594 114.659 76.1201 114.371 75.2863C114.464 74.5569 114.71 74.1194 115.183 73.5736C117.314 71.1141 120.444 70.3464 123.545 70.1016Z" fill="#6A3620"/>
<path d="M74.391 86.67C74.9978 86.6305 75.6269 86.6173 76.2302 86.7181C77.6302 86.9521 79.0322 87.9967 79.8217 89.1539C81.258 91.2608 81.4258 94.2527 80.9685 96.6867C80.3448 100.003 78.7298 102.534 75.9502 104.412C75.4534 104.405 74.9674 104.374 74.4749 104.301C72.926 104.074 71.2757 102.705 70.4284 101.438C68.9422 99.2169 68.5565 95.9748 69.1911 93.4128C69.9571 90.321 71.7812 88.3257 74.391 86.67Z" fill="black"/>
<path d="M76.1416 89.0469C77.0928 89.101 77.7286 89.1628 78.4903 89.8226C79.2471 90.4786 79.6892 91.5015 79.7525 92.486C79.8527 94.0343 79.4404 95.0617 78.4192 96.1983C77.2621 96.0645 76.4889 95.968 75.6027 95.1428C74.8659 94.457 74.467 93.4453 74.4747 92.449C74.4876 90.9196 75.0629 90.0686 76.1416 89.0469Z" fill="#FEFEFE"/>
<path d="M121.171 86.0954C121.879 86.0625 122.592 86.0376 123.291 86.1854C124.875 86.5195 126.323 87.7955 127.152 89.1451C128.66 91.5989 128.962 94.9486 128.21 97.6971C127.441 100.507 125.97 102.304 123.489 103.75C122.823 103.813 122.185 103.881 121.524 103.739C119.761 103.362 118.173 102.03 117.291 100.489C115.848 97.9651 115.588 94.6385 116.384 91.8669C117.196 89.0437 118.612 87.4407 121.171 86.0954Z" fill="black"/>
<path d="M122.922 88.4141C124.063 88.5137 124.81 88.6632 125.641 89.4988C126.374 90.2344 126.759 91.1545 126.736 92.1962C126.707 93.5756 126.084 94.3336 125.133 95.2585C123.857 95.2044 122.873 95.1545 121.93 94.187C121.205 93.443 120.892 92.529 120.992 91.4958C121.13 90.0486 121.861 89.3221 122.922 88.4141Z" fill="#FEFEFE"/>
<path d="M84.3473 127.193C86.5473 126.156 90.0323 127.784 92.4328 128.064C95.6271 128.436 110.149 126.93 110.971 127.25C111.133 127.313 111.277 127.417 111.429 127.501L112.033 126.958L112.413 127.235C112.5 129.625 111.054 131.985 109.505 133.715C108.568 134.762 107.517 135.614 106.339 136.374C102.339 138.813 97.2673 138.851 92.771 137.959C89.5372 136.589 85.9082 133.463 84.6139 130.113C84.2602 129.198 83.941 128.13 84.3473 127.193Z" fill="#A80408"/>
<path d="M92.771 137.963C94.9539 136.006 97.8735 133.503 100.94 133.454C103.539 133.413 104.654 134.648 106.338 136.377C102.339 138.816 97.2676 138.854 92.771 137.963Z" fill="#DC0B13"/>
<path d="M84.3472 127.193C86.5472 126.156 90.0322 127.784 92.4327 128.064C95.6269 128.436 110.149 126.93 110.971 127.25C111.133 127.313 111.277 127.417 111.429 127.501C111.209 127.738 110.98 127.969 110.742 128.187C107.205 131.416 101.222 131.764 96.6776 131.552C92.3281 131.349 87.3974 130.571 84.3472 127.193Z" fill="#FEFEFE"/>
<path d="M66.7059 49.6172C67.1927 49.8698 67.6821 50.1172 68.174 50.3588C88.1587 60.1602 113.698 60.8878 134.518 53.6983C135.53 54.8844 136.463 56.1521 137.422 57.3825C130.262 60.4267 123.04 62.9412 115.31 64.1104C100.246 66.3886 80.9907 63.1757 66.8476 57.4601L65.2303 56.7975C57.1666 68.1234 55.3609 82.2171 57.6514 95.7313C59.4236 106.186 63.223 117.992 68.9529 126.918C71.126 130.303 73.7992 133.388 76.5307 136.335C78.8404 138.827 81.2578 141.264 84.0524 143.216C92.8486 149.36 102.784 151.489 113.363 151.647C114.622 151.666 115.753 151.312 116.454 152.558L116.146 154.779C115.779 155.458 115.56 155.752 114.895 156.152C109.502 153.553 86.6919 156.699 81.7011 153.063C76.8202 152.207 71.3228 149.386 67.3863 146.456C55.9244 137.926 47.6476 124.155 45.5747 110.024C41.8825 110.165 38.4542 110.082 35.3877 107.707C32.856 105.746 31.357 102.721 31.068 99.5561C31.0494 99.3285 31.0365 99.1008 31.0297 98.8729C31.0225 98.6444 31.0211 98.4164 31.0254 98.1882C31.0299 97.9597 31.0403 97.7318 31.0563 97.5044C31.0726 97.2767 31.0944 97.0497 31.1219 96.8229C31.1494 96.5961 31.1826 96.3704 31.2215 96.1456C31.2605 95.9209 31.3051 95.6972 31.3558 95.4744C31.4059 95.2517 31.4621 95.0303 31.5233 94.8107C31.5846 94.591 31.6522 94.3728 31.7249 94.1566C31.7974 93.9404 31.8753 93.726 31.9589 93.5135C32.0428 93.301 32.1315 93.0908 32.2255 92.8829C32.3197 92.6748 32.4193 92.4694 32.5236 92.2664C32.6281 92.0637 32.7378 91.8635 32.8529 91.6662C32.9674 91.4689 33.0868 91.2748 33.2111 91.0832C33.3357 90.8922 33.4651 90.7041 33.5991 90.5197C33.7334 90.335 33.8723 90.1537 34.0152 89.9762C34.1586 89.7983 34.3064 89.6245 34.4585 89.4544C37.2991 86.3125 40.4613 85.9686 44.4304 85.7756C45.6082 87.4227 46.9151 88.9055 48.0116 90.6256C48.1665 88.7841 48.4245 86.9503 48.6731 85.1196C50.4359 72.1412 55.9344 57.8063 66.7059 49.6172Z" fill="url(#paint0_linear_4104_79060)"/>
<path d="M41.743 93.4375C42.5878 93.4521 43.0654 93.4369 43.8214 93.8662C43.992 95.5322 43.5287 97.112 43.3884 98.7671C43.2498 100.392 43.4752 102.095 43.6501 103.711C42.8034 104.081 41.7848 103.958 40.8633 103.956L40.7419 103.915C40.2961 103.767 39.8176 103.621 39.413 103.378C38.5175 102.839 38.0261 101.557 37.7925 100.595C37.3503 98.7826 37.6376 96.6888 38.6573 95.1061C39.449 93.8771 40.4006 93.6924 41.743 93.4375Z" fill="#E48039"/>
<path d="M107.088 316.085L107.457 316.269L111.742 316.268C112.167 319.213 111.92 322.185 112.457 325.126C113.261 331.152 114.617 339.3 119.708 343.286C124.155 346.768 130.208 346.834 135.55 346.057C138.393 345.643 141.161 344.844 143.962 344.224C144.216 345.094 144.312 345.908 144.392 346.809L147.773 438.691C148.146 449.257 149.175 459.876 149.322 470.43C149.461 480.337 148.777 490.147 148.728 500.022C148.55 503.074 148.492 513.227 147.458 515.57L139.024 515.793L134.482 515.789C133.504 515.774 132.639 515.823 131.739 515.377C130.589 512.529 129.884 504.462 128.977 500.712L128.891 500.364C128.725 500.524 128.607 500.761 128.393 500.846C127.775 501.091 118.256 501.254 116.585 501.355C107.097 501.93 97.6311 502.74 88.1494 503.364C81.2514 503.818 74.3411 504.092 67.4523 504.666C66.8699 507.312 65.8665 514.378 64.4298 516.357L64.1157 516.547C63.4299 518.589 63.2641 519.799 63.7775 521.895C59.317 521.867 54.6632 522.102 50.2324 521.639C50.2293 519.89 49.857 518.152 49.5735 516.43C48.7838 516.433 48.4802 516.479 47.7417 516.162C46.5536 514.199 47.2735 509.834 47.3079 507.533C47.2586 492.975 48.4092 478.254 48.955 463.691L53.9616 346.767C57.2736 346.456 61.4913 348.065 64.8866 348.406C69.2283 348.841 73.5327 348.127 76.9552 345.222C81.9825 340.955 83.2567 334.43 83.8168 328.196C83.8546 325.975 83.4938 318.769 84.5765 317.058L85.7683 316.813C87.5025 316.816 89.2324 316.722 90.9639 316.641C92.6858 316.602 94.3939 316.536 96.112 316.408C99.7685 316.225 103.425 315.989 107.088 316.085Z" fill="#092D55"/>
<path d="M107.088 316.085L107.457 316.269L111.742 316.268C112.167 319.213 111.92 322.185 112.456 325.126C112.165 325.818 112.17 326.038 111.443 326.347C110.223 326.866 108.455 326.936 107.127 327.217C103.336 327.462 99.5497 327.894 95.7555 328.07C94.3615 328.134 92.4366 328.388 91.3697 327.419C90.8789 326.021 90.9671 324.562 90.9536 323.097C91.0381 320.932 91.0593 318.804 90.9639 316.64C92.6858 316.601 94.3939 316.534 96.112 316.407C99.7685 316.225 103.425 315.989 107.088 316.085Z" fill="#F8B166"/>
<path d="M107.457 316.274L111.742 316.273C112.167 319.218 111.92 322.19 112.456 325.132C112.165 325.823 112.17 326.043 111.443 326.352C110.223 326.871 108.455 326.941 107.127 327.222C107.146 323.561 107.171 319.927 107.457 316.274Z" fill="#031B3D"/>
<path d="M128.783 364.352C124.875 366.897 121.217 369.271 116.693 370.597C119.037 386.905 122.593 403.069 125.323 419.32C128.744 439.676 131.371 460.148 134.321 480.569C135.978 492.03 139.462 504.201 139.025 515.796L134.483 515.793C133.504 515.777 132.639 515.827 131.74 515.381C130.59 512.533 129.884 504.465 128.977 500.715L128.891 500.368C128.224 495.69 126.836 490.945 125.85 486.312L120.617 460.743C114.411 431.409 108.769 401.968 103.687 372.419C101.043 372.498 98.4738 372.144 95.8949 371.596C93.0614 370.074 89.5356 369.732 86.5352 368.407C92.1377 367.412 98.2089 368.239 103.909 367.858C112.347 367.294 120.455 365.64 128.783 364.352Z" fill="#031B3D"/>
<path d="M85.7685 316.821C87.5027 316.823 89.2326 316.73 90.9641 316.648C91.0595 318.812 91.0383 320.941 90.9538 323.105C90.8032 324.136 90.9046 325.162 89.9954 325.842C88.5115 326.951 84.9524 324.923 84.4605 327.117C84.3777 327.485 84.4198 328.045 84.4172 328.408C84.1615 336.088 84.551 345.906 78.3422 351.552C74.9183 354.666 70.5926 355.511 66.1272 355.578C65.9529 371.549 64.483 387.782 63.1214 403.691L58.8642 453.148L54.8956 494.199C54.5087 498.156 54.2602 502.132 53.7883 506.081C53.6528 507.213 53.292 508.288 53.1554 509.402C52.9404 511.165 53.1723 512.892 52.8261 514.667L53.4541 514.88L52.8152 515.2L52.9192 515.594C54.5239 515.681 63.6826 515.761 64.4303 516.366L64.1162 516.556C63.4304 518.598 63.2646 519.808 63.778 521.904C59.3175 521.876 54.6637 522.111 50.2329 521.648C50.2298 519.899 49.8575 518.161 49.574 516.439C48.7842 516.442 48.4807 516.488 47.7422 516.171C46.5541 514.208 47.274 509.843 47.3084 507.542C47.2591 492.984 48.4097 478.263 48.9555 463.7L53.9621 346.776C57.274 346.465 61.4918 348.074 64.8871 348.415C69.2288 348.85 73.5332 348.136 76.9557 345.231C81.9829 340.964 83.2572 334.438 83.8173 328.205C83.8551 325.984 83.4943 318.778 84.577 317.067L85.7685 316.821Z" fill="#031B3D"/>
<path d="M49.5735 516.432C54.392 516.398 59.3067 516.235 64.116 516.549C63.4302 518.59 63.2643 519.801 63.7778 521.896C59.3172 521.869 54.6634 522.103 50.2327 521.64C50.2295 519.891 49.8573 518.154 49.5735 516.432Z" fill="#F8B166"/>
<path d="M95.8942 371.602C98.4731 372.149 101.042 372.504 103.687 372.425C108.768 401.974 114.411 431.415 120.616 460.748L125.849 486.318C126.836 490.95 128.224 495.696 128.89 500.373C128.725 500.534 128.607 500.771 128.393 500.856C127.775 501.1 118.256 501.264 116.585 501.365C107.097 501.939 97.631 502.75 88.1492 503.373C81.2512 503.828 74.341 504.101 67.4521 504.676C72.8044 482.51 79.1108 460.552 83.8362 438.237C87.2206 422.002 90.3118 405.711 93.1103 389.365C94.1309 383.464 94.7608 377.478 95.8942 371.602Z" fill="#FEFEFE"/>
<path d="M25.1026 534.119C38.3218 533.71 51.673 534.017 64.9 534.152C65.0171 535.198 65.199 536.22 65.0019 537.267C60.9967 537.768 28.7856 537.901 25.4072 537.197C24.9751 536.773 25.1258 534.804 25.1026 534.119Z" fill="#250A06"/>
<path d="M173.421 533.5L173.875 533.733C174.034 534.7 174.246 535.799 173.722 536.696C173.67 536.786 173.6 536.864 173.538 536.948C170.478 537.341 134.54 537.431 132.869 536.902C132.551 535.842 132.615 534.837 132.64 533.74C146.211 533.337 159.858 534.256 173.421 533.5Z" fill="#250A06"/>
<path d="M50.2325 521.641C54.6633 522.103 59.3171 521.869 63.7776 521.896C65.2967 525.341 64.7979 530.398 64.9001 534.147C51.6732 534.012 38.3216 533.706 25.1027 534.114C25.0875 533.347 25.1081 532.822 25.3409 532.077C28.8279 530.063 33.1561 528.778 36.897 527.219C41.3066 525.381 45.7096 523.156 50.2325 521.641Z" fill="#6A3620"/>
<path d="M147.458 515.57C147.044 517.172 146.697 519.019 147.204 520.636C150.134 521.293 170.877 531.714 173.42 533.503C159.858 534.259 146.211 533.341 132.639 533.743C132.758 529.755 133.775 525.763 134.602 521.876C134.628 519.851 134.532 517.815 134.482 515.79L139.024 515.793L147.458 515.57Z" fill="#6A3620"/>
<path d="M147.459 515.57C147.044 517.172 146.697 519.019 147.205 520.636C143.425 522.019 138.583 521.828 134.603 521.876C134.629 519.851 134.532 517.815 134.482 515.79L139.025 515.793L147.459 515.57Z" fill="#F8B166"/>
<path d="M254.221 190.803C254.3 188.404 254.037 179.644 255.514 178.089C256.086 177.486 256.525 177.266 257.359 177.236C258.618 177.19 260.024 178.389 260.759 179.29C263.265 182.366 262.716 186.322 263.451 189.97C266.578 187.659 269.718 185.401 273.848 185.914C275.743 186.149 277.355 187.038 278.472 188.6C279.938 190.648 280.387 193.569 279.901 196.01C279.037 200.353 275.514 203.479 271.923 205.723C268.467 207.883 263.812 210.173 259.685 210.469C258.501 210.555 257.319 210.289 256.14 210.248L255.304 210.549C253.758 206.844 251.976 203.291 250.308 199.644C253.151 197.451 253.584 194.108 254.221 190.803Z" fill="#F8B166"/>
<path d="M254.221 190.797C254.412 191.021 254.672 191.201 254.792 191.469C254.926 191.768 258.002 208.319 258.19 209.682C257.512 210.048 256.889 210.132 256.14 210.242L255.304 210.544C253.758 206.839 251.976 203.286 250.308 199.639C253.151 197.445 253.584 194.102 254.221 190.797Z" fill="#F59547"/>
<defs>
<linearGradient id="paint0_linear_4104_79060" x1="69.8957" y1="150.989" x2="90.3601" y2="45.6846" gradientUnits="userSpaceOnUse">
<stop stop-color="#EC802D"/>
<stop offset="1" stop-color="#F8A869"/>
</linearGradient>
</defs>
</svg>
