<svg width="166" height="148" viewBox="0 0 166 148" fill="none" xmlns="http://www.w3.org/2000/svg">
<g filter="url(#filter0_d_5065_19515)">
<path d="M125.888 64.1797C126.197 65.7129 125.862 67.2264 124.984 68.5251C124.411 69.3733 123.65 70.0679 122.92 70.7786L120.506 73.1429L106.17 86.6798L103.584 89.1087C103.147 89.508 102.681 89.9732 102.181 90.2888C103.012 92.3014 103.463 94.4422 104.015 96.5426L105.652 102.492L106.288 105.007L108.127 111.854C108.793 114.258 109.541 116.626 109.834 119.112C110.02 120.691 109.958 122.337 109.35 123.819C108.924 124.857 108.048 125.865 106.985 126.279C106.253 126.565 105.31 126.629 104.55 126.426C103.808 126.229 103.211 125.923 102.521 125.594C101.003 124.87 99.554 123.994 98.0865 123.174L91.6586 119.626L76.5028 111.434L73.7781 110.024C73.6349 109.95 73.1443 109.619 73.0049 109.613C72.6859 109.599 67.4233 112.551 66.6965 112.942L55.4112 119.056L51.7682 121.046L45.3734 124.625C44.2711 125.221 43.1791 125.938 41.9794 126.32C41.244 126.554 40.3009 126.662 39.5444 126.481C38.4161 126.211 37.5495 125.46 36.9572 124.486C35.9999 122.913 35.8428 120.875 36.1329 119.086C36.3437 119.423 36.3243 119.845 36.5203 120.192C36.8121 120.709 37.5609 121.107 38.127 121.242L38.2199 121.263C38.775 121.394 39.3355 121.379 39.8978 121.301C40.4134 121.23 40.9584 121.132 41.4425 120.935C42.2673 120.599 43.0729 120.088 43.848 119.652L47.5285 117.577L49.7011 116.385C49.9358 116.252 50.1443 116.08 50.3753 115.943L51.2937 115.452L53.5633 114.11L57.4403 111.941L62.4021 109.214C62.6986 109.046 62.9613 108.823 63.2571 108.655L66.0145 107.151C67.8768 106.068 69.7417 105.042 71.6982 104.142C71.9902 104.007 72.465 103.702 72.781 103.666C72.9035 103.652 73.1669 103.752 73.2861 103.79C74.1648 104.073 74.9745 104.586 75.7928 105.001L77.1889 105.654L80.2367 107.336L86.784 110.887L90.8865 113.139C91.7545 113.6 92.65 114.099 93.554 114.481C94.5065 114.883 95.6778 115.237 96.7073 115.339C97.3588 115.404 98.0347 115.386 98.6838 115.301L98.7811 115.287C99.4505 115.198 100.133 114.969 100.684 114.573C100.712 113.142 100.352 111.744 100.222 110.33L98.5609 95.6944C98.3458 94.1066 98.0622 92.5542 97.9625 90.9507C97.9333 90.4797 97.8672 89.9708 97.9377 89.503L97.9526 89.4138L97.9902 89.1738C98.0941 88.6792 98.2321 87.996 98.4826 87.5587C98.735 87.1183 99.0945 86.7434 99.4424 86.3778C100.324 85.4512 101.32 84.6704 102.265 83.8143C102.56 83.5471 102.783 83.2058 103.115 82.9853C104.11 82.3239 104.969 81.4387 105.865 80.6536L106.578 80.0883L109.484 77.5576L112.163 75.3659L116.19 71.885L118.498 70.0795L120.561 68.3525L121.819 67.4231C122.114 67.1841 122.368 66.8932 122.651 66.6392C123.086 66.2486 123.567 65.8974 124.022 65.5301C124.633 65.037 125.188 64.5474 125.888 64.1797Z" fill="url(#paint0_linear_5065_19515)"/>
<path d="M20.1597 64.1609C20.5351 63.1043 21.1369 62.3561 22.1621 61.8703C23.6119 61.1835 25.0712 60.9991 26.6363 60.7707C29.2586 60.3882 31.9133 60.2178 34.5548 60.0338L45.1549 59.3507L49.518 59.078C50.3567 58.9986 51.1667 58.9262 51.979 58.6883C52.7468 58.4634 53.3471 58.0629 53.8482 57.4333C54.6304 56.4502 55.1556 55.0683 55.6469 53.9211L57.3793 49.8039L63.5819 35.2697L66.9422 27.4767C67.6887 25.8056 68.2272 23.8726 69.5194 22.5203C70.8289 21.1497 72.7635 20.6262 74.5636 21.2795C76.0682 21.8256 77.0616 23.2716 77.7006 24.6628L79.4728 28.869L84.9922 42.2507L86.4135 45.9405L86.8568 46.8913L88.453 50.6334L90.016 54.3651C90.3408 55.1489 90.6108 55.9616 91.0579 56.6882C91.5585 57.5022 92.2777 58.1881 93.1818 58.5226C93.999 58.825 94.8094 58.9179 95.6669 59.0145L99.7951 59.3087L108.083 59.8728L116.014 60.4286L119.46 60.7897C120.757 60.9409 122.186 61.1349 123.408 61.6158C124.315 61.9727 125.197 62.609 125.635 63.5016L125.887 64.1861C125.188 64.5539 124.632 65.0435 124.021 65.5366C123.566 65.9039 123.085 66.255 122.651 66.6456C122.368 66.8997 122.114 67.1906 121.819 67.4295L120.561 68.359L118.498 70.086L116.189 71.8915L112.162 75.3724L109.483 77.5641L106.578 80.0948L105.865 80.6601C104.969 81.4452 104.109 82.3304 103.114 82.9917C102.783 83.2122 102.56 83.5536 102.265 83.8208C101.32 84.6769 100.324 85.4577 99.4421 86.3843C99.0943 86.7499 98.7347 87.1248 98.4824 87.5652C98.2319 88.0025 98.0939 88.6857 97.99 89.1803L97.9523 89.4203L97.9374 89.5095C97.867 89.9772 97.933 90.4862 97.9622 90.9572C98.0619 92.5607 98.3455 94.113 98.5606 95.7009L100.222 110.337C100.352 111.751 100.712 113.148 100.684 114.579C100.132 114.975 99.4503 115.204 98.7808 115.293L98.6835 115.307C98.0344 115.392 97.3585 115.41 96.7071 115.345C95.6775 115.243 94.5062 114.889 93.5537 114.487C92.6497 114.106 91.7543 113.606 90.8863 113.146L86.7838 110.894L80.2365 107.342L77.1886 105.661L75.7926 105.007C74.9743 104.592 74.1646 104.079 73.2858 103.796C73.1666 103.758 72.9032 103.659 72.7808 103.673C72.4648 103.708 71.99 104.014 71.6979 104.148C69.7415 105.048 67.8766 106.075 66.0142 107.157L63.2568 108.661C62.961 108.83 62.6983 109.053 62.4019 109.221L57.4401 111.947L53.563 114.117L51.2934 115.459L50.375 115.949C50.144 116.086 49.9356 116.259 49.7008 116.392L47.5283 117.584L43.8477 119.658C43.0727 120.094 42.2671 120.606 41.4423 120.942C40.9581 121.139 40.4132 121.237 39.8976 121.308C39.3352 121.385 38.7748 121.4 38.2196 121.269L38.1268 121.248C37.5607 121.113 36.8119 120.715 36.5201 120.198C36.3241 119.851 36.3434 119.43 36.1327 119.093C36.4327 116.341 37.3093 113.766 38.006 111.104L39.8002 104.603L42.682 93.9871L43.332 91.8236C43.4574 91.4262 43.7083 90.8674 43.6653 90.4561L40.5247 87.5235L36.3636 83.6598L25.8659 73.5317L24.0793 71.7441L21.8414 69.521C21.4885 69.139 21.1161 68.7512 20.8431 68.3062C20.0562 67.0236 19.8001 65.6205 20.1597 64.1609Z" fill="url(#paint1_linear_5065_19515)"/>
<path d="M84.9049 56.3055C85.8226 56.1315 86.8052 56.4563 87.5965 56.9083C88.309 57.3151 89.1077 57.9963 89.3047 58.8208C89.369 59.0903 89.3226 59.3287 89.1715 59.5598C89.0784 59.7021 88.8711 59.8663 88.6937 59.8724C88.4015 59.8825 87.8975 59.4714 87.6586 59.3081L87.6552 59.3049C87.0352 58.8478 86.3368 58.3632 85.539 58.3208C84.8642 58.2849 84.1873 58.4985 83.522 58.5903C83.331 58.4999 82.9847 58.3411 82.9227 58.1175C82.8472 57.8454 82.8686 57.5071 83.031 57.2753C83.4936 56.6153 84.1538 56.4375 84.9049 56.3055Z" fill="#010104"/>
<path d="M59.2165 56.3029C59.7125 56.2384 60.2437 56.2877 60.735 56.3744C61.2528 56.4657 61.9122 56.8002 62.2089 57.2512C62.3525 57.4694 62.4175 57.7568 62.344 58.012C62.0985 58.864 61.0274 58.4951 60.4295 58.4079C60.1524 58.3675 59.8702 58.3612 59.5914 58.3858C59.0574 58.4329 58.6267 58.6456 58.1662 58.9016L56.8557 59.8523C56.629 59.8854 56.4688 59.8844 56.2719 59.7535C56.0266 59.5903 55.8758 59.3057 55.8171 59.023C55.7379 58.6409 55.9026 58.3147 56.113 58.005C56.7783 57.0258 58.0948 56.4948 59.2165 56.3029Z" fill="#010104"/>
<path d="M81.7505 74.6163C81.438 74.563 81.0163 74.0596 80.8214 73.8179C79.8241 72.582 79.2658 70.8554 79.4603 69.273C79.6398 67.8122 80.3787 66.2482 81.5645 65.3392C82.7617 64.4218 84.4028 63.8549 85.9177 64.0562C87.6498 64.2862 89.1004 65.1918 90.155 66.5758C91.0103 67.6981 91.566 69.5237 91.3544 70.9279C91.3033 71.2659 91.0976 72.3333 90.8512 72.5119L90.7595 72.381C91.1467 70.9131 91.0793 69.4174 90.2869 68.0778C89.5546 66.8399 88.3516 65.8643 86.9458 65.5052L86.844 65.4803L86.7457 65.455C85.5103 65.1557 83.8371 65.4103 82.7576 66.0882C81.5369 66.8549 80.651 67.9505 80.3209 69.3694C80.1637 70.0454 80.0969 70.7363 80.206 71.4259C80.4023 72.6672 80.8589 73.7141 81.7505 74.6163Z" fill="white"/>
<path d="M56.743 75.3168C56.3928 75.3199 55.8709 74.8879 55.6087 74.6606C54.3301 73.5516 53.5411 72.0062 53.4273 70.3133C53.3199 68.7165 53.9877 67.1818 55.0335 65.993C56.1643 64.7079 57.5748 64.066 59.2694 63.9678C60.8014 63.8788 62.4827 64.6714 63.6009 65.6714C64.8883 66.8228 65.48 68.399 65.5489 70.098C65.5626 70.4374 65.5772 70.8268 65.3444 71.0789C65.2329 69.3409 64.6443 67.8241 63.3238 66.643C62.1984 65.6364 60.6793 65.2149 59.1942 65.3165C57.9503 65.4015 56.6436 66.06 55.8326 67.002C54.9042 68.0801 54.2196 69.6611 54.3364 71.1007C54.467 72.7128 55.2487 74.0966 56.4917 75.1259L56.743 75.3168Z" fill="white"/>
<path d="M71.4111 21.7914C71.9164 21.7395 72.4204 21.7548 72.8968 21.9422C73.5387 22.1946 74.045 22.7761 74.2879 23.4114C74.5561 24.1128 74.4052 25.1159 74.0796 25.7844C73.7243 26.5137 73.0161 26.9343 72.274 27.1907C71.5677 27.2049 70.9728 27.141 70.3587 26.7547C69.7609 26.3787 69.3807 25.761 69.2323 25.0767C69.0679 24.3194 69.201 23.6312 69.627 22.9858C70.0759 22.3053 70.6189 21.9595 71.4111 21.7914Z" fill="white"/>
<path d="M90.5485 80.6972C91.5746 80.6113 92.7835 80.8364 93.6087 81.4817C94.0147 81.7993 94.3157 82.13 94.3617 82.6578C94.3992 83.0889 94.294 83.519 94.0076 83.8485C93.2217 84.7524 91.9995 85.0155 90.8653 85.0876C89.9197 85.1451 88.8512 84.9398 88.033 84.4548C87.595 84.1953 87.0991 83.7263 86.9967 83.2013C86.9231 82.8244 87.0397 82.4305 87.2518 82.1186C87.6649 81.511 88.5587 80.9655 89.2818 80.8405L89.3734 80.8256L90.5485 80.6972Z" fill="#FD870C"/>
<path d="M54.7256 80.6914C55.181 80.6009 55.9278 80.6668 56.3931 80.7652C57.299 80.9569 58.1328 81.2778 58.6266 82.1118C58.7431 82.3086 58.913 82.6587 58.8519 82.8877C58.7492 83.2725 58.7167 83.5862 58.4492 83.9111C57.8035 84.6953 56.5775 84.9289 55.626 85.0367C54.9685 85.0494 54.3013 85.0726 53.6562 84.9215C52.9324 84.7517 52.1577 84.3168 51.7641 83.6619L51.7235 83.5917C51.6149 83.4067 51.5118 83.2151 51.4795 82.9998C51.4044 82.5 51.6278 82.0837 51.9312 81.7059C52.5385 80.9495 53.807 80.804 54.7256 80.6914Z" fill="#FD870C"/>
<path d="M81.7524 74.6213C80.8609 73.7191 80.4043 72.6722 80.2079 71.4308C80.0988 70.7413 80.1657 70.0503 80.3229 69.3743C80.653 67.9555 81.5388 66.8599 82.7596 66.0931C83.839 65.4153 85.5122 65.1606 86.7476 65.4599L86.8459 65.4853L86.9478 65.5102C88.3535 65.8693 89.5565 66.8448 90.2888 68.0828C91.0812 69.4223 91.1486 70.918 90.7615 72.3859C90.331 73.4849 89.6287 74.5857 88.6589 75.2894C88.3247 75.5319 87.8708 75.7389 87.4917 75.9023C86.3774 76.3824 84.8042 76.3605 83.6931 75.9084C82.9355 75.6003 82.3727 75.1378 81.7524 74.6213Z" fill="#010104"/>
<path d="M86.8673 71.3126C86.9918 71.2894 87.1541 71.267 87.2784 71.2927C87.4709 71.3326 87.6349 71.4859 87.735 71.6479C87.8736 71.8721 87.9188 72.1146 87.845 72.3702C87.7721 72.6227 87.5765 72.7255 87.3557 72.8347C87.1958 72.8697 87.0079 72.8812 86.8456 72.8535C86.6709 72.8236 86.5172 72.6794 86.4343 72.5279C86.3241 72.3259 86.3194 72.0143 86.3936 71.799C86.4798 71.5487 86.637 71.4249 86.8673 71.3126Z" fill="white"/>
<path d="M84.1476 66.3594C84.639 66.3855 85.0823 66.4613 85.4916 66.7513C85.8998 67.0405 86.2985 67.6218 86.3617 68.1249C86.4348 68.7076 86.354 69.3495 85.9762 69.8149C85.5226 70.3735 85.0546 70.5629 84.3565 70.6418L83.7855 70.6034C83.3267 70.5403 82.8721 70.1512 82.6037 69.7913C82.2614 69.3324 82.1038 68.7645 82.1886 68.1954L82.2034 68.1032C82.2542 67.7735 82.3613 67.4884 82.553 67.2152C82.9436 66.6587 83.5043 66.4635 84.1476 66.3594Z" fill="white"/>
<path d="M56.7419 75.3119L56.4905 75.121C55.2476 74.0917 54.4659 72.7079 54.3352 71.0959C54.2185 69.6562 54.9031 68.0752 55.8314 66.9971C56.6425 66.0551 57.9492 65.3967 59.193 65.3116C60.6782 65.21 62.1973 65.6315 63.3227 66.6381C64.6431 67.8192 65.2317 69.336 65.3433 71.074C65.1744 72.6184 64.4735 74.0735 63.2486 75.0633C62.1291 75.9678 60.6848 76.3587 59.2539 76.2123C58.4369 76.1288 57.3929 75.8205 56.7419 75.3119Z" fill="#010104"/>
<path d="M61.5782 71.1953C61.724 71.1647 61.8656 71.1825 62.0088 71.2192C62.1951 71.2668 62.3815 71.4173 62.4635 71.5919C62.5596 71.7963 62.5784 72.1175 62.4981 72.3275C62.409 72.56 62.2208 72.6643 62.0061 72.7622C61.8371 72.7669 61.6106 72.7919 61.4493 72.7378C61.2696 72.6775 61.0882 72.4405 61.0337 72.2654C60.968 72.0538 60.995 71.7662 61.0986 71.5706C61.2164 71.3481 61.3421 71.2683 61.5782 71.1953Z" fill="white"/>
<path d="M58.1378 66.3495C58.6391 66.3134 59.1009 66.3389 59.5669 66.5548C60.1166 66.8096 60.452 67.1957 60.6472 67.7639C60.7987 68.2049 60.7922 68.9625 60.5685 69.3821C60.2314 70.0144 59.7536 70.3197 59.0886 70.5257C58.6804 70.642 58.2561 70.646 57.8593 70.4859C57.2977 70.2594 56.9094 69.8965 56.6765 69.3402C56.4876 68.8883 56.415 68.0802 56.6171 67.621C56.9184 66.9362 57.4725 66.6066 58.1378 66.3495Z" fill="white"/>
<path d="M63.6484 90.5302C64.0315 89.9582 64.644 89.5561 65.2201 89.1968C66.5892 88.3427 68.1706 87.6551 69.7612 87.3438C73.1788 86.6748 76.4286 87.3043 79.3159 89.2687C79.7519 89.5653 80.2264 89.8809 80.5931 90.2628C80.7899 90.4678 80.9275 90.7104 81.1123 90.9224C80.0467 92.4338 78.624 93.8813 77.0138 94.8119C74.9961 95.978 72.5253 96.3807 70.2639 95.7643C67.6756 95.059 64.983 92.8462 63.6484 90.5302Z" fill="#F61418"/>
<path d="M20.1597 64.1641C20.6804 64.495 21.1436 64.9409 21.6132 65.34L23.3295 66.736L26.7637 69.6858L31.5999 73.8431L33.6079 75.7726L37.0899 78.8234L40.393 81.9219C41.4402 82.887 42.5442 83.8281 43.5166 84.8679C43.9497 85.3309 44.6814 86.1252 44.8597 86.7333C45.1403 87.6898 44.6283 88.6877 44.1958 89.5065C44.0382 89.8049 43.8893 90.1251 43.703 90.4059L43.6652 90.4592L40.5246 87.5266L36.3636 83.6629L25.8659 73.5348L24.0793 71.7472L21.8414 69.5241C21.4885 69.1422 21.1161 68.7543 20.8431 68.3094C20.0562 67.0268 19.8001 65.6237 20.1597 64.1641Z" fill="#FD870C"/>
<path d="M63.6467 90.5363C62.3494 88.562 61.4821 86.2761 61.3779 83.8955C61.3498 83.2541 61.3432 82.5871 61.4755 81.9561C61.6916 80.925 62.2773 79.9739 63.1882 79.4169C64.0742 78.875 65.0136 79.0801 65.9601 79.271L68.0018 79.6783C70.2163 80.0422 72.5227 80.0845 74.7575 79.9262C75.9978 79.8383 77.2129 79.6464 78.4324 79.4129C79.1299 79.2793 79.8403 79.0754 80.5507 79.0337C80.7624 79.0213 80.9864 79.0577 81.1902 79.1146C82.1056 79.3706 82.8507 80.0802 83.2973 80.9047C84.283 82.7238 83.9029 84.8762 83.3095 86.7519C82.8347 88.2529 82.0479 89.6686 81.1106 90.9285C80.9257 90.7165 80.7881 90.4739 80.5913 90.269C80.2246 89.887 79.7501 89.5714 79.3142 89.2748C76.4268 87.3104 73.177 86.681 69.7594 87.3499C68.1689 87.6612 66.5874 88.3488 65.2183 89.2029C64.6423 89.5622 64.0298 89.9643 63.6467 90.5363Z" fill="#4D0B06"/>
</g>
<defs>
<filter id="filter0_d_5065_19515" x="-20" y="-19" width="186" height="185.57" filterUnits="userSpaceOnUse" color-interpolation-filters="sRGB">
<feFlood flood-opacity="0" result="BackgroundImageFix"/>
<feColorMatrix in="SourceAlpha" type="matrix" values="0 0 0 0 0 0 0 0 0 0 0 0 0 0 0 0 0 0 127 0" result="hardAlpha"/>
<feOffset/>
<feGaussianBlur stdDeviation="20"/>
<feComposite in2="hardAlpha" operator="out"/>
<feColorMatrix type="matrix" values="0 0 0 0 1 0 0 0 0 1 0 0 0 0 1 0 0 0 0.8 0"/>
<feBlend mode="normal" in2="BackgroundImageFix" result="effect1_dropShadow_5065_19515"/>
<feBlend mode="normal" in="SourceGraphic" in2="effect1_dropShadow_5065_19515" result="shape"/>
</filter>
<linearGradient id="paint0_linear_5065_19515" x1="80.5539" y1="126.952" x2="81.391" y2="63.7569" gradientUnits="userSpaceOnUse">
<stop stop-color="#F96A00"/>
<stop offset="1" stop-color="#FC8800"/>
</linearGradient>
<linearGradient id="paint1_linear_5065_19515" x1="75.7814" y1="119.345" x2="70.6711" y2="21.1825" gradientUnits="userSpaceOnUse">
<stop stop-color="#FEC501"/>
<stop offset="1" stop-color="#FFE401"/>
</linearGradient>
</defs>
</svg>
