<svg width="130" height="130" viewBox="0 0 130 130" fill="none" xmlns="http://www.w3.org/2000/svg">
<path d="M6.6665 64.9974C6.6665 72.6578 8.17534 80.2433 11.1069 87.3206C14.0384 94.3979 18.3352 100.829 23.7519 106.245C29.1687 111.662 35.5993 115.959 42.6766 118.89C49.754 121.822 57.3394 123.331 64.9998 123.331C72.6603 123.331 80.2457 121.822 87.323 118.89C94.4004 115.959 100.831 111.662 106.248 106.245C111.664 100.829 115.961 94.3979 118.893 87.3206C121.824 80.2433 123.333 72.6578 123.333 64.9974C123.333 57.337 121.824 49.7515 118.893 42.6742C115.961 35.5969 111.664 29.1663 106.248 23.7495C100.831 18.3328 94.4004 14.0359 87.323 11.1044C80.2457 8.1729 72.6603 6.66406 64.9998 6.66406C57.3394 6.66406 49.754 8.1729 42.6766 11.1044C35.5993 14.0359 29.1687 18.3328 23.7519 23.7495C18.3352 29.1663 14.0384 35.5969 11.1069 42.6742C8.17534 49.7515 6.6665 57.337 6.6665 64.9974Z" fill="#58CC02"/>
<path d="M45.5554 64.9974L58.5184 77.9604L84.4443 52.0344" fill="#58CC02"/>
<path d="M45.5554 64.9974L58.5184 77.9604L84.4443 52.0344M6.6665 64.9974C6.6665 72.6578 8.17534 80.2433 11.1069 87.3206C14.0384 94.3979 18.3352 100.829 23.7519 106.245C29.1687 111.662 35.5993 115.959 42.6766 118.89C49.754 121.822 57.3394 123.331 64.9998 123.331C72.6603 123.331 80.2457 121.822 87.323 118.89C94.4004 115.959 100.831 111.662 106.248 106.245C111.664 100.829 115.961 94.3979 118.893 87.3206C121.824 80.2433 123.333 72.6578 123.333 64.9974C123.333 57.337 121.824 49.7515 118.893 42.6742C115.961 35.5969 111.664 29.1663 106.248 23.7495C100.831 18.3327 94.4004 14.0359 87.323 11.1044C80.2457 8.1729 72.6603 6.66406 64.9998 6.66406C57.3394 6.66406 49.754 8.1729 42.6766 11.1044C35.5993 14.0359 29.1687 18.3327 23.7519 23.7495C18.3352 29.1663 14.0384 35.5969 11.1069 42.6742C8.17534 49.7515 6.6665 57.337 6.6665 64.9974Z" stroke="white" stroke-width="13.125" stroke-linecap="round" stroke-linejoin="round"/>
</svg>
