<svg width="383" height="614" viewBox="0 0 383 614" fill="none" xmlns="http://www.w3.org/2000/svg">
<path d="M128.485 555.633C128.485 555.633 119.462 572 110.532 574.933C101.602 577.866 85.3046 585.562 83.4978 595.092C81.691 604.622 84.4371 613.25 91.3597 613.908C108.233 615.512 138.793 596.681 148.879 592.737C156.708 589.675 158.442 555.873 158.442 555.873L128.485 555.633Z" fill="#333563"/>
<path d="M255.595 551.822C255.595 551.822 262.804 569.122 271.363 573.058C279.923 576.995 295.293 586.508 296.064 596.186C296.836 605.864 293.179 614.124 286.228 613.986C269.287 613.65 240.939 591.437 231.339 586.364C223.887 582.425 225.798 548.633 225.798 548.633L255.595 551.822Z" fill="#333563"/>
<path d="M357.097 178.544C355.203 177.701 345.368 189.078 340.123 197.191C334.796 205.431 327.074 213.876 327.074 213.876L339.013 219.678L363.275 186.13L357.097 178.544Z" fill="#F2D1A7"/>
<path d="M137.786 177.071C137.786 177.071 148.623 174.6 158.704 186.563C168.785 198.526 175.527 206.458 170.896 210.098C166.265 213.739 132.639 189.178 132.639 189.178L137.786 177.071Z" fill="#F2D1A7"/>
<path d="M279.61 162.953C279.912 163.315 280.256 163.695 280.583 164.025L347.137 220.361L301.417 253.386C297.49 257.8 297.774 264.665 302.057 268.718C305.991 272.447 311.937 272.496 315.924 269.043L377.36 230.674C383.118 225.692 383.874 216.845 379.046 210.903L378.95 210.79L377.922 209.562L306.837 138.624C300.329 130.861 288.951 130.02 281.435 136.741C273.912 143.456 273.096 155.197 279.61 162.953Z" fill="#D1641F"/>
<path d="M358.607 190.492L377.526 209.559L378.65 210.899C380.081 212.66 381.341 214.348 381.806 216.443C381.75 216.524 379.78 218.524 379.722 218.603C372.508 228.297 347.586 226.239 339.822 225.642L345.154 221.945L342.499 219.244L358.607 190.492Z" fill="#AD531A"/>
<path d="M317.791 289.833C317.395 289.833 316.999 289.756 316.625 289.603L304.95 284.814C303.38 284.17 302.63 282.376 303.274 280.805C303.918 279.235 305.712 278.486 307.282 279.129L317.791 283.439L325.464 280.292C327.032 279.649 328.828 280.399 329.472 281.968C330.116 283.539 329.365 285.333 327.795 285.977L318.957 289.602C318.583 289.756 318.187 289.833 317.791 289.833Z" fill="#BF5C1C"/>
<path d="M319.074 285.841C318.721 285.841 318.368 285.785 318.028 285.672L305.071 281.38C303.328 280.803 302.383 278.92 302.961 277.178C303.539 275.435 305.419 274.491 307.162 275.067L318.938 278.969L327.991 275.177C329.684 274.47 331.633 275.267 332.343 276.96C333.052 278.653 332.254 280.602 330.56 281.311L320.358 285.583C319.948 285.755 319.512 285.841 319.074 285.841Z" fill="#BF5C1C"/>
<path d="M278.476 167.692C279.519 168.635 280.594 169.584 281.678 170.568C297.806 185.214 311.899 199.962 328.448 214.083C334.331 219.095 331.933 219.227 331.933 219.227C338.129 224.507 352.69 217.444 358.601 210.507C363.782 204.428 364.537 196.527 364.513 196.499C349.396 179.514 338.792 163.582 324.335 146.004C314.265 133.759 298.685 120.211 276.678 130.966C270.164 134.149 267.734 142.807 268.213 150.228C268.734 158.31 273.193 162.917 278.476 167.692Z" fill="#FFDFBA"/>
<path d="M328.086 213.792C327.625 213.387 327.3 213.101 326.779 212.638C331.862 210.452 355.058 193.548 351.944 182.469C353.061 183.838 354.541 185.653 355.66 187.027C353.396 204.417 330.426 213.839 328.086 213.792Z" fill="#F2D1A7"/>
<path d="M46.6579 249.698C48.6444 254.988 54.079 257.861 59.29 256.634L137.518 238.351C140.609 237.63 143.225 235.897 145.114 233.581L146.128 232.332L214.361 148.679C221.775 139.584 220.75 125.898 211.836 118.365C206.852 114.153 189.879 111.883 182.465 120.97C182.136 121.374 181.794 121.829 181.5 122.247L122.053 207.409L58.6189 234.952L52.9104 235.074C47.2663 237.327 44.4685 243.873 46.6579 249.698Z" fill="#D1641F"/>
<path d="M126.299 201.331L132.403 192.586L158.791 216.811L150.374 227.029C132.681 218.181 127.643 209.265 126.299 201.331Z" fill="#AD531A"/>
<path d="M137.618 185.108C133.488 192.034 130.756 192.822 137.469 203.745C141.468 210.252 156.82 221.095 161.179 215.011C161.179 215.011 166.502 210.691 171.432 203.769C186.216 183.013 195.446 161.028 210.42 140.426C216.13 132.272 221.427 117.394 211.789 115.329C200.219 112.851 190.426 113.345 182.395 119.089C164.202 132.103 140.691 179.953 137.618 185.108Z" fill="#FFDFBA"/>
<path d="M140.881 183.961C146.355 192.072 167.988 208.223 170.829 204.604C169.766 206.044 168.696 207.361 167.676 208.537C167.492 208.46 167.303 208.365 167.108 208.24C167.108 208.24 148.438 199.894 140.477 184.631C140.834 184.032 140.703 184.255 140.881 183.961Z" fill="#F2D1A7"/>
<path d="M299.505 301.92C314.446 326.358 304.238 491.404 291.01 526.778C275.648 567.859 261.764 569.66 239.533 568.045C193.254 564.684 230.356 400.267 227.533 399.174C224.711 398.082 217.731 556.719 161.34 565.338C114.171 572.547 120.932 551.538 122.059 534.552C122.923 521.519 152.189 403.356 173.303 344.659C179.25 328.125 181.294 316.901 181.294 316.901C181.294 316.901 284.565 277.481 299.505 301.92Z" fill="#2D2E57"/>
<path d="M300.838 304.666C300.797 304.65 300.772 304.641 300.772 304.641L172.772 346.514C172.231 348.404 171.669 350.363 171.09 352.387C172.801 355.184 177.828 358.056 191.272 358.056C215.305 358.056 280.55 353.462 305.406 338.45C304.879 323.322 303.465 311.332 300.838 304.666Z" fill="#222342"/>
<path d="M281.591 126.227C281.591 126.227 307.863 132.934 310.899 136.878C313.935 140.822 273.957 222.212 295.633 275.566C303.263 294.346 307.671 327.984 307.671 327.984C307.671 327.984 186.226 364.441 170.597 342.136C167.934 316.84 165.639 292.94 166.519 264.717C167.65 228.442 170.955 204.728 172.732 193.549C175.436 176.538 182.702 124.738 186.864 119.331C191.026 113.925 226.256 114.748 226.256 114.748L281.591 126.227Z" fill="#FFDFBA"/>
<path d="M297.602 186.805C297.602 187.887 295.523 190.807 295.082 191.937C293.646 195.622 292.502 199.434 291.383 203.225C288.395 213.345 285.868 223.612 283.327 233.824C278.796 252.039 279.038 271.427 284.052 289.517C288.128 304.224 294.574 318.619 307.671 327.99C304.225 308.063 298.384 289.762 294.938 269.836C292.582 256.213 289.655 242.479 290.446 228.573C291.236 214.687 294.458 200.339 297.602 186.805Z" fill="#F2D1A7"/>
<path d="M280.299 125.961C280.275 126.017 280.245 126.067 280.22 126.123C277.006 132.776 270.945 159.169 276.081 143.712C281.218 128.255 286.504 127.551 286.504 127.551L280.299 125.961Z" fill="#F2D1A7"/>
<path d="M276.08 109.877C276.08 109.877 268.131 106.076 252.447 104.233C236.763 102.39 224.678 104.233 224.678 104.233L221.245 126.231L273.538 124.859L276.08 109.877Z" fill="#D4B792"/>
<path d="M233.586 117.454C233.586 111.986 236.157 100.481 238.314 91.7926C240.261 83.9483 248.001 79.2171 255.602 81.2284C263.204 83.2372 267.787 91.2247 265.84 99.0685C264.15 105.88 262.171 115.118 262 117.63C261.909 125.646 255.583 132.115 247.794 132.115C239.947 132.115 233.586 125.551 233.586 117.454ZM262.553 117.536C262.553 117.507 262.553 117.48 262.553 117.454C262.553 117.481 262.553 117.509 262.553 117.536Z" fill="#D1641F"/>
<path d="M235.177 105.642C235.853 102.219 236.671 98.5886 237.485 95.1865L260.412 92.8047L266.195 97.0454C266.122 97.7165 266.007 98.3897 265.84 99.0623C264.291 105.301 262.502 113.572 262.081 116.849C259.219 118.118 255.862 118.587 252.011 117.534C244.765 115.554 239.093 110.402 235.177 105.642Z" fill="#AD531A"/>
<path d="M226.146 60.025C226.254 53.7264 222.456 48.5539 217.663 48.472C212.871 48.39 208.898 53.4296 208.79 59.7282C208.683 66.0268 212.48 71.1993 217.273 71.2812C222.066 71.3632 226.038 66.3236 226.146 60.025Z" fill="#D1641F"/>
<path d="M301.062 68.9332C302.067 62.7273 299.037 57.0742 294.296 56.3067C289.554 55.5392 284.896 59.9479 283.892 66.1538C282.887 72.3597 285.917 78.0128 290.658 78.7803C295.4 79.5479 300.058 75.1391 301.062 68.9332Z" fill="#D1641F"/>
<path d="M216.175 48.7725C212.773 74.8794 221.11 104.016 248.682 108.089C276.167 112.149 292.188 85.6945 295.59 59.5877C298.992 33.4808 282.995 16.7967 261.003 13.548C239.011 10.2998 219.577 22.6656 216.175 48.7725Z" fill="#D1641F"/>
<path d="M239.129 81.2459C238.544 85.3318 241.787 90.2831 249.917 91.602C258.047 92.9214 264.619 89.4879 265.204 85.4021C265.789 81.3162 260.852 78.2467 252.721 76.9277C244.591 75.6083 239.714 77.1595 239.129 81.2459Z" fill="#6E152F"/>
<path d="M250.023 91.6055C246.751 91.0746 244.272 89.9551 242.514 88.541C244.44 87.4538 247.339 87.179 251.057 87.7823C254.635 88.3628 257.43 89.4854 259.148 91.0427C256.605 91.8702 253.454 92.1622 250.023 91.6055Z" fill="#B84466"/>
<path d="M251.01 85.7228C244.952 84.7399 241.609 81.7407 240.54 78.5856C242.57 76.5495 246.804 75.9502 252.827 76.927C258.885 77.9099 263.168 79.865 264.718 82.4877C262.208 85.0648 257.039 86.7011 251.01 85.7228Z" fill="white"/>
<path d="M249.437 49.0533C249.437 49.0533 248.265 49.0244 246.52 48.8538C244.777 48.6929 242.453 48.3882 240.17 48.0522C239.627 47.9722 239.125 47.8259 238.577 47.8381C237.949 47.8518 237.323 47.9094 236.703 48.0106C235.525 48.2025 234.508 48.6762 233.382 49.0239C232.334 49.3468 230.477 49.2871 230.484 47.7839C230.487 46.9842 231.396 46.2494 231.93 45.7261C232.582 45.0873 233.313 44.5301 234.098 44.0655C235.092 43.4774 236.175 43.0376 237.299 42.7719C238.497 42.489 239.536 42.5821 240.745 42.6428C243.123 42.8088 245.454 43.0761 247.2 43.3438C248.944 43.6044 250.098 43.8727 250.098 43.8727C251.51 44.2011 252.388 45.6117 252.06 47.0237C251.772 48.2582 250.656 49.0841 249.437 49.0533Z" fill="#12120F"/>
<path d="M266.971 46.683C269.764 46.4482 273.764 47.8223 275.391 48.3274C278.777 49.3786 281.194 51.0194 283.127 53.9042C283.636 54.6988 284.036 55.3517 284.272 55.7576C284.401 55.9672 284.449 56.0709 284.473 56.1478C284.391 56.1261 284.342 56.1514 284.342 56.1514C285.074 56.4465 285.429 57.2795 285.134 58.0124C284.839 58.7447 284.006 59.0995 283.273 58.8039C283.273 58.8039 283.088 58.7513 282.754 58.5822C280.884 57.6378 279.556 55.993 277.763 54.9509C275.719 53.763 273.295 53.6481 271.032 53.1749C269.297 52.812 267.545 52.3019 265.856 51.7558C264.477 51.3104 263.72 49.831 264.166 48.4524C264.54 47.2924 265.613 46.7974 266.971 46.683Z" fill="#12120F"/>
<path d="M255.281 48.6026C255.047 50.2166 255.928 51.7005 257.248 51.9171C258.567 52.1338 259.827 51.0016 260.061 49.3881C260.295 47.7741 259.415 46.2902 258.095 46.0735C256.775 45.8564 255.516 46.9891 255.281 48.6026Z" fill="#FC676C"/>
<path d="M251.177 76.0384C251.177 76.0384 251.197 76.0247 251.237 75.9984C251.319 75.9498 251.477 75.8602 251.625 75.7868C251.881 75.6603 252.238 75.4907 252.683 75.3536C255.129 74.601 257.765 75.0236 260.008 76.1907C261.885 77.167 263.49 78.5953 264.949 80.1268C266.537 81.7939 267.976 83.6022 269.245 85.5229C269.953 86.5949 272.927 90.165 270.652 90.9707C269.897 91.238 269.626 90.781 269.098 90.4216C268.546 90.0461 268.012 89.7171 267.47 89.2252C266.263 88.1304 265.046 87.0469 263.794 86.0038C262.262 84.7268 260.676 83.5096 259.007 82.4174C257.448 81.3986 256.042 80.3429 254.11 80.604C253.987 80.6197 253.89 80.6318 253.824 80.6399C253.822 80.6339 253.868 80.6045 253.874 80.5924C253.839 80.6076 253.822 80.6151 253.822 80.6151L253.704 80.6668C252.365 81.2528 250.805 80.643 250.219 79.3038C249.695 78.1084 250.126 76.7363 251.177 76.0384Z" fill="#12120F"/>
<path d="M250.712 80.2716C250.72 80.2802 250.675 80.2403 250.682 80.2539C250.684 80.2686 250.778 80.344 250.755 80.3374C248.301 79.6147 245.273 80.51 242.818 81.0905C241.248 81.462 239.697 81.914 238.172 82.4444C237.386 82.7182 236.606 83.0133 235.835 83.3286C235.279 83.5563 234.589 84.0351 233.975 83.982C234.038 83.822 234.095 83.653 234.129 83.4829C234.014 84.1976 233.342 84.6834 232.628 84.5686C231.914 84.4537 231.427 83.7815 231.542 83.0669C231.617 82.6574 231.791 82.4049 231.949 82.1686C232.12 81.9282 232.325 81.6695 232.576 81.4175C235.22 78.7589 239.174 76.6393 242.702 75.4018C244.753 74.6826 246.968 74.257 249.147 74.3921C251.041 74.5095 253.89 75.165 254.799 77.0523C256.012 79.5702 252.9 82.2804 250.712 80.2716Z" fill="#12120F"/>
<path d="M220.978 17.0297C228.853 4.74376 243.145 -2.02197 263.356 0.536937C292.154 4.18349 287.652 18.4139 288.815 17.7413C290.233 16.9214 297.186 19.8082 298.71 22.4117C305.814 34.5457 301.705 48.4912 297.774 59.4628C295.867 64.7856 293.96 70.1083 292.053 75.4311C291.934 75.7626 291.774 76.1351 291.454 76.2323C290.861 76.412 290.509 75.5491 290.431 74.8972C290.072 71.8787 289.672 68.8861 289.547 65.8504C289.547 65.8504 289.954 42.7169 284.256 37.6533C277.737 31.8603 263.592 35.7635 259.858 36.3273C251.525 37.5844 235.788 31.3284 232.74 33.0735C222.897 38.7096 222.098 49.2752 221.972 55.302C221.845 61.3288 219.171 67.7271 217.414 67.6856C215.657 67.6436 218.533 53.2294 216.281 48.7741C214.057 44.3714 215.494 25.584 220.978 17.0297Z" fill="#12120F"/>
<path d="M265.207 60.3436C264.307 62.9602 267.009 62.6191 270.061 63.8095C273.112 64.9993 275.359 67.2698 276.26 64.6531C277.16 62.0365 275.404 59.5004 272.352 58.31C269.3 57.1202 266.108 57.727 265.207 60.3436Z" fill="white"/>
<path d="M266.683 62.7677C266.688 62.6275 266.699 62.4862 266.72 62.344C267.014 60.2902 268.816 58.8787 270.745 59.192C272.674 59.5052 274 61.4239 273.706 63.4777C273.614 64.123 273.369 64.7015 273.021 65.1859C272.181 64.7628 271.222 64.2222 270.167 63.8107C268.854 63.2986 267.607 63.0698 266.683 62.7677Z" fill="#12120F"/>
<path d="M268.811 60.455C268.743 60.9282 269.049 61.37 269.493 61.4424C269.938 61.5143 270.353 61.1893 270.421 60.7161C270.488 60.2429 270.183 59.8011 269.738 59.7287C269.295 59.6568 268.879 59.9818 268.811 60.455Z" fill="white"/>
<path d="M271.906 63.4036C271.858 63.7382 272.074 64.0509 272.388 64.1015C272.702 64.1527 272.996 63.9229 273.044 63.5878C273.092 63.2533 272.876 62.9405 272.562 62.8899C272.247 62.8388 271.953 63.0691 271.906 63.4036Z" fill="white"/>
<path d="M246.723 58.4722C246.666 61.2584 244.267 59.8934 241.018 59.819C237.768 59.7441 234.899 60.9881 234.956 58.2019C235.013 55.4158 237.683 53.8261 240.933 53.901C244.182 53.9754 246.78 55.6861 246.723 58.4722Z" fill="white"/>
<path d="M244.724 60.2006C244.768 60.068 244.806 59.9324 244.835 59.7922C245.264 57.7652 244.068 55.7524 242.164 55.2959C240.26 54.8393 238.369 56.1127 237.94 58.1397C237.806 58.7764 237.836 59.4101 237.994 59.9962C238.921 59.9278 239.999 59.7962 241.123 59.822C242.521 59.8539 243.76 60.1242 244.724 60.2006Z" fill="#12120F"/>
<path d="M243.328 57.1824C243.229 57.6491 242.793 57.9426 242.355 57.8373C241.916 57.7321 241.641 57.2685 241.74 56.8013C241.838 56.3342 242.274 56.0411 242.713 56.1464C243.151 56.2517 243.427 56.7153 243.328 57.1824Z" fill="white"/>
<path d="M239.439 58.724C239.369 59.054 239.061 59.2615 238.751 59.1871C238.441 59.1127 238.246 58.7847 238.316 58.4548C238.386 58.1248 238.694 57.9173 239.004 57.9917C239.313 58.0661 239.508 58.394 239.439 58.724Z" fill="white"/>
<path d="M256.207 98.5311C256.02 98.5311 255.833 98.4587 255.693 98.3125C255.629 98.2452 255.551 98.1581 255.458 98.0544C254.179 96.6281 250.779 92.8419 244.408 96.7947C244.073 97.0017 243.636 96.8984 243.429 96.5659C243.222 96.2324 243.325 95.7941 243.658 95.5871C248.558 92.5448 252.883 93.0575 256.516 97.1044L256.719 97.3281C256.991 97.612 256.981 98.0615 256.698 98.3327C256.56 98.4664 256.384 98.5311 256.207 98.5311Z" fill="#A14D18"/>
<path d="M286.086 10.2455C280.977 17.3792 266.102 22.289 248.658 21.8745C238.074 21.6229 228.519 19.4568 221.565 16.1468C229.553 4.4232 243.635 -1.95991 263.355 0.536746C277.132 2.28132 283.284 6.44713 286.086 10.2455Z" fill="#262621"/>
<path d="M298.71 22.4089C304.062 31.5493 303.05 41.7176 300.545 50.8682C299.932 51.19 299.339 50.8307 298.791 49.5614C295.914 42.8898 294.508 27.0018 293.958 18.8984C295.984 19.8383 297.976 21.1557 298.71 22.4089Z" fill="#262621"/>
<path d="M279.001 125.912L275.547 109.875C275.547 109.875 262.492 120.592 255.862 120.592L246.873 134.11L279.001 125.912Z" fill="#FFDFBA"/>
<path d="M214.583 128.597L224.717 104.422C224.717 104.422 237.177 118.737 243.661 120.19L248.662 133.881L214.583 128.597Z" fill="#FFDFBA"/>
<path d="M172.566 194.546C170.674 192.739 176.623 163.162 182.087 159.579C185.716 157.198 176.343 183.74 172.589 203.741C172.691 200.1 172.566 194.546 172.566 194.546Z" fill="#F2D1A7"/>
<path d="M291.975 268.951C291.975 278.064 297.385 285.545 302.974 285.545C308.562 285.545 313.091 278.157 313.091 269.043C313.091 259.93 309.131 249.003 304.502 250.955C297.499 253.911 291.975 259.837 291.975 268.951Z" fill="#D1641F"/>
<path d="M339.236 208.727C335.298 212.617 330.294 213.439 327.075 213.865L331.932 219.207L344.014 219.912L339.236 208.727Z" fill="#FFDFBA"/>
<path d="M357.097 178.547L366.214 189.109C365.877 191.876 364.656 197.634 363.574 201.174L354.226 192.456C357.852 185.171 357.335 179.354 357.097 178.547Z" fill="#FFDFBA"/>
<path d="M360.648 193.562C361.837 193.562 362.802 192.567 362.802 191.34C362.802 190.112 361.837 189.117 360.648 189.117C359.459 189.117 358.495 190.112 358.495 191.34C358.495 192.567 359.459 193.562 360.648 193.562Z" fill="white"/>
<path d="M137.786 177.068C138.144 176.126 132.115 190.418 132.115 190.418C132.115 190.418 132.104 193.389 134.199 197.587C136.296 201.786 143.551 189.541 143.551 189.541C143.551 189.541 136.568 180.276 137.786 177.068Z" fill="#FFDFBA"/>
<path d="M166.139 207.766L170.896 210.106L161.098 217.648C161.098 217.648 157.399 217.157 154.126 215.655C150.852 214.153 157.315 210.107 157.315 210.107L166.139 207.766Z" fill="#FFDFBA"/>
<path d="M35.3147 231.739C35.3147 231.739 35.3739 231.982 35.4777 232.405C35.5384 232.313 35.5546 232.161 35.5141 232.061C35.6189 232.183 35.7368 232.321 35.8659 232.471C36.0562 232.657 36.1903 232.844 36.4529 233.075C36.6842 233.299 36.9358 233.537 37.241 233.784C37.8103 234.28 38.5159 234.786 39.2153 235.27C39.9375 235.735 40.6699 236.19 41.3597 236.533C41.7049 236.719 42.0303 236.868 42.3325 236.995C42.6442 237.147 42.8963 237.208 43.1387 237.302C43.3791 237.388 43.5203 237.386 43.6782 237.436C43.7754 237.433 43.7896 237.402 43.8291 237.409C43.7688 237.365 43.5993 237.318 43.5355 237.316C43.4555 237.308 43.413 237.311 43.413 237.311C46.2179 237.311 48.4924 239.585 48.4924 242.39C48.4924 245.195 46.2184 247.469 43.413 247.469C43.413 247.469 43.2455 247.453 42.9312 247.422C42.6346 247.385 42.1169 247.319 41.6249 247.191C41.2433 247.067 40.7377 246.904 40.2554 246.701C39.853 246.502 39.3373 246.271 38.9061 246.01C38.4814 245.75 37.988 245.469 37.5674 245.157C37.1195 244.851 36.6685 244.52 36.2368 244.168C35.3466 243.475 34.4907 242.686 33.6536 241.875C32.8332 241.038 32.0391 240.193 31.3356 239.292C30.9809 238.862 30.6468 238.399 30.3381 237.946C30.0273 237.527 29.7424 237.004 29.4873 236.581C29.2307 236.124 29.007 235.608 28.8202 235.2C28.5591 234.528 28.3936 233.872 28.299 233.367C28.2762 232.918 28.263 232.662 28.263 232.662C28.1628 230.695 29.6766 229.018 31.6438 228.919C33.3823 228.83 34.8926 230.002 35.2899 231.633L35.3147 231.739Z" fill="#BA591C"/>
<path d="M21.9576 254.845C21.3113 254.845 20.6751 254.668 20.1194 254.332L9.99357 248.218C8.31175 247.202 7.77224 245.016 8.7875 243.335C9.80176 241.653 11.9877 241.116 13.6705 242.129L22.8393 247.665L57.3243 245.386C59.2784 245.224 60.9775 246.738 61.1075 248.699C61.2371 250.66 59.7532 252.353 57.793 252.482L22.1924 254.836C22.114 254.842 22.0356 254.845 21.9576 254.845Z" fill="#BA591C"/>
<path d="M28.6567 256.407C33.312 262.805 46.1572 258.372 56.1144 256.909C66.0717 255.445 71.4401 239.021 65.6395 236.636C58.2244 233.587 52.5312 232.78 43.1028 236.439C29.9889 241.528 24.8963 251.238 28.6567 256.407Z" fill="#D1641F"/>
<path d="M16.9416 264.356C16.5124 264.356 16.0837 264.278 15.6778 264.123L4.66984 259.938C2.83416 259.24 1.91103 257.186 2.60896 255.35C3.3079 253.515 5.3617 252.591 7.19738 253.29L17.1567 257.076L50.7171 248.587C52.6211 248.103 54.5555 249.258 55.0373 251.162C55.5186 253.066 54.3657 255.001 52.4617 255.481L17.8136 264.247C17.5277 264.32 17.2341 264.356 16.9416 264.356Z" fill="#D1641F"/>
<path d="M14.3037 257.784C13.6665 257.784 13.0384 257.613 12.4883 257.285L2.31995 251.248C0.63105 250.245 0.0748534 248.063 1.07746 246.375C2.07957 244.686 4.26192 244.128 5.95082 245.132L15.1575 250.599L49.6259 248.055C51.5846 247.931 53.2897 249.381 53.4344 251.341C53.5792 253.299 52.1074 255.004 50.1487 255.149L14.5654 257.774C14.4783 257.781 14.3908 257.784 14.3037 257.784Z" fill="#D1641F"/>
<path d="M135.637 188.954C135.637 190.145 136.573 191.111 137.727 191.111C138.882 191.111 139.818 190.145 139.818 188.954C139.818 187.763 138.882 186.797 137.727 186.797C136.573 186.797 135.637 187.763 135.637 188.954Z" fill="white"/>
<path d="M255.861 120.592C255.861 120.592 245.826 188.44 234.999 192.851C224.173 197.261 234.348 114.148 234.348 114.148L255.861 120.592Z" fill="#D1641F"/>
<path d="M240.696 185.115C239.72 188.639 236.09 192.466 235.077 192.782C225.224 195.855 231.852 129.957 234.133 115.033L234.371 114.805C234.371 114.805 232.381 170.425 240.696 185.115Z" fill="#AD531A"/>
<path d="M318.188 294.347C318.128 294.347 318.066 294.345 318.006 294.342L308.51 293.786C307.713 293.739 306.965 293.383 306.425 292.794L296.942 282.445C295.795 281.194 295.88 279.25 297.132 278.104C298.383 276.958 300.327 277.043 301.472 278.293L310.114 287.725L318.366 288.208C320.059 288.307 321.352 289.76 321.253 291.454C321.157 293.088 319.803 294.347 318.188 294.347Z" fill="#D1641F"/>
<path d="M26.1425 264.211C25.9522 264.211 25.7614 264.196 25.5732 264.165L15.3092 262.497C13.5924 262.218 12.4557 260.758 12.77 259.234C13.0853 257.713 14.7363 256.708 16.4484 256.983L25.7326 258.491L32.1091 255.235C33.6973 254.59 35.5724 254.593 36.2982 256.001C37.025 257.408 37.732 259.073 36.1454 259.717L27.4584 263.956C27.0434 264.125 26.5945 264.211 26.1425 264.211Z" fill="#D1641F"/>
<mask id="mask0_4104_79328" style="mask-type:luminance" maskUnits="userSpaceOnUse" x="230" y="114" width="26" height="80">
<path d="M255.861 120.592C255.861 120.592 245.826 188.44 234.999 192.851C224.173 197.261 234.348 114.148 234.348 114.148L255.861 120.592Z" fill="white"/>
</mask>
<g mask="url(#mask0_4104_79328)">
<path d="M236.094 127.043C236.094 128.487 234.924 129.657 233.48 129.657C232.037 129.657 230.867 128.487 230.867 127.043C230.867 125.6 232.037 124.43 233.48 124.43C234.924 124.43 236.094 125.6 236.094 127.043Z" fill="#42210B"/>
<path d="M243.204 131.504C243.204 132.948 242.034 134.117 240.591 134.117C239.147 134.117 237.977 132.947 237.977 131.504C237.977 130.061 239.147 128.891 240.591 128.891C242.034 128.891 243.204 130.061 243.204 131.504Z" fill="#42210B"/>
<path d="M252.444 133.09C252.444 134.534 251.274 135.704 249.831 135.704C248.387 135.704 247.217 134.534 247.217 133.09C247.217 131.647 248.387 130.477 249.831 130.477C251.274 130.477 252.444 131.647 252.444 133.09Z" fill="#42210B"/>
<path d="M249.193 134.047C242.009 134.047 233.641 128.412 233.288 128.173C233.046 128.008 232.983 127.678 233.147 127.435C233.312 127.194 233.641 127.13 233.885 127.295C233.968 127.352 242.338 132.987 249.193 132.987C256.1 132.987 259.968 131.619 260.007 131.604C260.283 131.506 260.587 131.648 260.686 131.923C260.787 132.199 260.644 132.502 260.369 132.602C260.207 132.66 256.307 134.047 249.193 134.047Z" fill="#42210B"/>
</g>
</svg>
