<svg width="140" height="140" viewBox="0 0 140 140" fill="none" xmlns="http://www.w3.org/2000/svg">
<path d="M42.3633 87.6012C41.5823 88.3824 41.152 89.4209 41.152 90.5256C41.152 91.6303 41.5821 92.6688 42.3633 93.45L36.5629 99.2505C34.2323 96.9202 32.9488 93.8216 32.9488 90.5256C32.9488 87.2296 34.2321 84.131 36.5629 81.8008L42.3633 87.6012Z" fill="#FF7F36"/>
<path d="M51.7293 54.832V54.9345L51.6889 55.0288L40.8317 80.3727L53.4458 84.8858L53.7774 85.0044V85.3566V99.6254C53.7774 105.075 58.2115 109.509 63.6606 109.509H72.1221H72.6221V110.009V129.793H124.138L121.393 99.5659C120.943 94.6161 122.71 89.7822 126.239 86.3071C134.791 77.887 139.5 66.6442 139.5 54.6441C139.5 42.7403 134.889 31.5758 126.517 23.202C118.149 14.832 106.993 10.2193 95.0955 10.2126L95.0914 10.2126C94.9704 10.2115 94.8488 10.2109 94.7283 10.2109C84.4961 10.2109 74.4022 13.967 66.2671 20.82C58.0682 27.7265 52.924 36.833 51.7555 46.4526L51.7293 46.6685V54.832Z" fill="#1CB0F6" fill-opacity="0.3" stroke="#1CB0F6"/>
</svg>
